G75*
%MOIN*%
%OFA0B0*%
%FSLAX25Y25*%
%IPPOS*%
%LPD*%
%AMOC8*
5,1,8,0,0,1.08239X$1,22.5*
%
%ADD10C,0.00500*%
%ADD11C,0.00600*%
%ADD12C,0.01000*%
%ADD13C,0.02000*%
%ADD14C,0.00300*%
%ADD15R,0.00050X0.00050*%
%ADD16R,0.00100X0.00050*%
%ADD17R,0.00300X0.00050*%
%ADD18R,0.00400X0.00050*%
%ADD19R,0.00250X0.00050*%
%ADD20R,0.00350X0.00050*%
%ADD21R,0.00650X0.00050*%
%ADD22R,0.00800X0.00050*%
%ADD23R,0.00200X0.00050*%
%ADD24R,0.00600X0.00050*%
%ADD25R,0.00750X0.00050*%
%ADD26R,0.00700X0.00050*%
%ADD27R,0.00850X0.00050*%
%ADD28R,0.01000X0.00050*%
%ADD29R,0.00900X0.00050*%
%ADD30R,0.01100X0.00050*%
%ADD31R,0.00950X0.00050*%
%ADD32R,0.01150X0.00050*%
%ADD33R,0.01050X0.00050*%
%ADD34R,0.01200X0.00050*%
%ADD35R,0.00450X0.00050*%
%ADD36R,0.00150X0.00050*%
%ADD37R,0.00500X0.00050*%
%ADD38R,0.01550X0.00050*%
%ADD39R,0.00550X0.00050*%
%ADD40R,0.01500X0.00050*%
%ADD41R,0.01250X0.00050*%
%ADD42R,0.01350X0.00050*%
%ADD43R,0.01400X0.00050*%
%ADD44R,0.01750X0.00050*%
%ADD45R,0.01700X0.00050*%
%ADD46R,0.01950X0.00050*%
%ADD47R,0.01900X0.00050*%
%ADD48R,0.02050X0.00050*%
%ADD49R,0.02100X0.00050*%
%ADD50R,0.02250X0.00050*%
%ADD51R,0.02450X0.00050*%
%ADD52R,0.02400X0.00050*%
%ADD53R,0.02600X0.00050*%
%ADD54R,0.02750X0.00050*%
%ADD55R,0.02800X0.00050*%
%ADD56R,0.02950X0.00050*%
%ADD57R,0.03150X0.00050*%
%ADD58R,0.03100X0.00050*%
%ADD59R,0.03250X0.00050*%
%ADD60R,0.03300X0.00050*%
%ADD61R,0.03450X0.00050*%
%ADD62R,0.03500X0.00050*%
%ADD63R,0.03650X0.00050*%
%ADD64R,0.03600X0.00050*%
%ADD65R,0.03800X0.00050*%
%ADD66R,0.03950X0.00050*%
%ADD67R,0.04000X0.00050*%
%ADD68R,0.04150X0.00050*%
%ADD69R,0.04200X0.00050*%
%ADD70R,0.04350X0.00050*%
%ADD71R,0.04300X0.00050*%
%ADD72R,0.04500X0.00050*%
%ADD73R,0.04650X0.00050*%
%ADD74R,0.04700X0.00050*%
%ADD75R,0.04850X0.00050*%
%ADD76R,0.04800X0.00050*%
%ADD77R,0.05000X0.00050*%
%ADD78R,0.05200X0.00050*%
%ADD79R,0.05350X0.00050*%
%ADD80R,0.05400X0.00050*%
%ADD81R,0.05550X0.00050*%
%ADD82R,0.05500X0.00050*%
%ADD83R,0.05700X0.00050*%
%ADD84R,0.05900X0.00050*%
%ADD85R,0.06050X0.00050*%
%ADD86R,0.06250X0.00050*%
%ADD87R,0.06200X0.00050*%
%ADD88R,0.06400X0.00050*%
%ADD89R,0.06600X0.00050*%
%ADD90R,0.06750X0.00050*%
%ADD91R,0.06900X0.00050*%
%ADD92R,0.07100X0.00050*%
%ADD93R,0.07300X0.00050*%
%ADD94R,0.07450X0.00050*%
%ADD95R,0.07600X0.00050*%
%ADD96R,0.07800X0.00050*%
%ADD97R,0.07950X0.00050*%
%ADD98R,0.08100X0.00050*%
%ADD99R,0.08150X0.00050*%
%ADD100R,0.08300X0.00050*%
%ADD101R,0.08500X0.00050*%
%ADD102R,0.08650X0.00050*%
%ADD103R,0.08800X0.00050*%
%ADD104R,0.08850X0.00050*%
%ADD105R,0.09000X0.00050*%
%ADD106R,0.09200X0.00050*%
%ADD107R,0.09150X0.00050*%
%ADD108R,0.09350X0.00050*%
%ADD109R,0.09500X0.00050*%
%ADD110R,0.01600X0.00050*%
%ADD111R,0.09700X0.00050*%
%ADD112R,0.02850X0.00050*%
%ADD113R,0.02200X0.00050*%
%ADD114R,0.09900X0.00050*%
%ADD115R,0.09850X0.00050*%
%ADD116R,0.02550X0.00050*%
%ADD117R,0.10000X0.00050*%
%ADD118R,0.10050X0.00050*%
%ADD119R,0.10200X0.00050*%
%ADD120R,0.01850X0.00050*%
%ADD121R,0.10400X0.00050*%
%ADD122R,0.10350X0.00050*%
%ADD123R,0.03200X0.00050*%
%ADD124R,0.10550X0.00050*%
%ADD125R,0.10500X0.00050*%
%ADD126R,0.03900X0.00050*%
%ADD127R,0.03400X0.00050*%
%ADD128R,0.10450X0.00050*%
%ADD129R,0.10250X0.00050*%
%ADD130R,0.04100X0.00050*%
%ADD131R,0.03550X0.00050*%
%ADD132R,0.10100X0.00050*%
%ADD133R,0.09950X0.00050*%
%ADD134R,0.04250X0.00050*%
%ADD135R,0.03700X0.00050*%
%ADD136R,0.09750X0.00050*%
%ADD137R,0.03750X0.00050*%
%ADD138R,0.09550X0.00050*%
%ADD139R,0.04400X0.00050*%
%ADD140R,0.02150X0.00050*%
%ADD141R,0.09400X0.00050*%
%ADD142R,0.04450X0.00050*%
%ADD143R,0.03850X0.00050*%
%ADD144R,0.09050X0.00050*%
%ADD145R,0.04550X0.00050*%
%ADD146R,0.08900X0.00050*%
%ADD147R,0.04600X0.00050*%
%ADD148R,0.08700X0.00050*%
%ADD149R,0.04050X0.00050*%
%ADD150R,0.02350X0.00050*%
%ADD151R,0.08350X0.00050*%
%ADD152R,0.08200X0.00050*%
%ADD153R,0.04750X0.00050*%
%ADD154R,0.08000X0.00050*%
%ADD155R,0.01300X0.00050*%
%ADD156R,0.02500X0.00050*%
%ADD157R,0.07650X0.00050*%
%ADD158R,0.07500X0.00050*%
%ADD159R,0.01450X0.00050*%
%ADD160R,0.01800X0.00050*%
%ADD161R,0.02650X0.00050*%
%ADD162R,0.01650X0.00050*%
%ADD163R,0.04900X0.00050*%
%ADD164R,0.06950X0.00050*%
%ADD165R,0.02700X0.00050*%
%ADD166R,0.06800X0.00050*%
%ADD167R,0.02000X0.00050*%
%ADD168R,0.02300X0.00050*%
%ADD169R,0.02900X0.00050*%
%ADD170R,0.03000X0.00050*%
%ADD171R,0.03050X0.00050*%
%ADD172R,0.03350X0.00050*%
%ADD173R,0.04950X0.00050*%
%ADD174R,0.05050X0.00050*%
%ADD175R,0.05100X0.00050*%
%ADD176R,0.05150X0.00050*%
%ADD177R,0.05250X0.00050*%
%ADD178R,0.05300X0.00050*%
%ADD179R,0.00600X0.00300*%
%ADD180R,0.01200X0.00300*%
%ADD181R,0.00900X0.00300*%
%ADD182R,0.01500X0.00300*%
%ADD183R,0.00300X0.00300*%
%ADD184R,0.01800X0.00300*%
%ADD185R,0.02100X0.00300*%
%ADD186R,0.02400X0.00300*%
%ADD187R,0.03900X0.00300*%
%ADD188R,0.03300X0.00300*%
%ADD189R,0.05100X0.00300*%
%ADD190R,0.02700X0.00300*%
%ADD191R,0.03000X0.00300*%
%ADD192R,0.03600X0.00300*%
%ADD193R,0.06600X0.00300*%
%ADD194C,0.00800*%
%ADD195C,0.00100*%
%ADD196R,0.01600X0.02800*%
%ADD197C,0.01600*%
%ADD198C,0.01761*%
%ADD199C,0.01500*%
%ADD200C,0.01727*%
%ADD201R,0.03000X0.01800*%
%ADD202R,0.03000X0.01500*%
%ADD203C,0.02200*%
%ADD204C,0.00200*%
%ADD205R,0.01500X0.03000*%
%ADD206C,0.00700*%
%ADD207R,0.01181X0.01181*%
%ADD208C,0.00400*%
%ADD209C,0.01200*%
D10*
X0195988Y0064098D02*
X0201500Y0064098D01*
X0195988Y0064098D02*
X0195988Y0067169D01*
X0210555Y0064098D02*
X0214492Y0064098D01*
X0218744Y0049138D02*
X0218746Y0049177D01*
X0218752Y0049216D01*
X0218762Y0049254D01*
X0218775Y0049291D01*
X0218792Y0049326D01*
X0218812Y0049360D01*
X0218836Y0049391D01*
X0218863Y0049420D01*
X0218892Y0049446D01*
X0218924Y0049469D01*
X0218958Y0049489D01*
X0218994Y0049505D01*
X0219031Y0049517D01*
X0219070Y0049526D01*
X0219109Y0049531D01*
X0219148Y0049532D01*
X0219187Y0049529D01*
X0219226Y0049522D01*
X0219263Y0049511D01*
X0219300Y0049497D01*
X0219335Y0049479D01*
X0219368Y0049458D01*
X0219399Y0049433D01*
X0219427Y0049406D01*
X0219452Y0049376D01*
X0219474Y0049343D01*
X0219493Y0049309D01*
X0219508Y0049273D01*
X0219520Y0049235D01*
X0219528Y0049197D01*
X0219532Y0049158D01*
X0219532Y0049118D01*
X0219528Y0049079D01*
X0219520Y0049041D01*
X0219508Y0049003D01*
X0219493Y0048967D01*
X0219474Y0048933D01*
X0219452Y0048900D01*
X0219427Y0048870D01*
X0219399Y0048843D01*
X0219368Y0048818D01*
X0219335Y0048797D01*
X0219300Y0048779D01*
X0219263Y0048765D01*
X0219226Y0048754D01*
X0219187Y0048747D01*
X0219148Y0048744D01*
X0219109Y0048745D01*
X0219070Y0048750D01*
X0219031Y0048759D01*
X0218994Y0048771D01*
X0218958Y0048787D01*
X0218924Y0048807D01*
X0218892Y0048830D01*
X0218863Y0048856D01*
X0218836Y0048885D01*
X0218812Y0048916D01*
X0218792Y0048950D01*
X0218775Y0048985D01*
X0218762Y0049022D01*
X0218752Y0049060D01*
X0218746Y0049099D01*
X0218744Y0049138D01*
X0240148Y0031450D02*
X0240148Y0030549D01*
X0240598Y0030098D01*
X0242400Y0030098D01*
X0242850Y0030549D01*
X0242850Y0031450D01*
X0242400Y0031900D01*
X0241499Y0031900D01*
X0241499Y0030999D01*
X0240598Y0031900D02*
X0240148Y0031450D01*
X0240148Y0028953D02*
X0242850Y0028953D01*
X0240148Y0027152D01*
X0242850Y0027152D01*
X0242850Y0026088D02*
X0242850Y0025188D01*
X0242850Y0025638D02*
X0240148Y0025638D01*
X0240148Y0025188D02*
X0240148Y0026088D01*
X0240598Y0024043D02*
X0240148Y0023592D01*
X0240148Y0022691D01*
X0240598Y0022241D01*
X0242400Y0022241D01*
X0242850Y0022691D01*
X0242850Y0023592D01*
X0242400Y0024043D01*
X0241499Y0024043D01*
X0241499Y0023142D01*
X0241499Y0021096D02*
X0241949Y0020646D01*
X0241949Y0019295D01*
X0241949Y0020195D02*
X0242850Y0021096D01*
X0241499Y0021096D02*
X0240598Y0021096D01*
X0240148Y0020646D01*
X0240148Y0019295D01*
X0242850Y0019295D01*
X0242850Y0018150D02*
X0241048Y0018150D01*
X0240148Y0017249D01*
X0241048Y0016348D01*
X0242850Y0016348D01*
X0242850Y0015203D02*
X0240148Y0015203D01*
X0241499Y0015203D02*
X0241499Y0013402D01*
X0242850Y0013402D02*
X0240148Y0013402D01*
X0240598Y0012257D02*
X0240148Y0011806D01*
X0240148Y0010905D01*
X0240598Y0010455D01*
X0242400Y0010455D01*
X0242850Y0010905D01*
X0242850Y0011806D01*
X0242400Y0012257D01*
X0241499Y0016348D02*
X0241499Y0018150D01*
X0284374Y0056185D02*
X0284374Y0056579D01*
X0268626Y0066421D02*
X0268626Y0066815D01*
X0214492Y0078902D02*
X0210555Y0078902D01*
X0201500Y0078902D02*
X0195988Y0078902D01*
X0195988Y0077012D01*
X0336847Y0094550D02*
X0336847Y0095551D01*
X0337348Y0096052D01*
X0337848Y0096052D01*
X0338349Y0095551D01*
X0338849Y0096052D01*
X0339350Y0096052D01*
X0339850Y0095551D01*
X0339850Y0094550D01*
X0339350Y0094050D01*
X0338349Y0095051D02*
X0338349Y0095551D01*
X0337348Y0094050D02*
X0336847Y0094550D01*
X0339350Y0097273D02*
X0339350Y0097773D01*
X0339850Y0097773D01*
X0339850Y0097273D01*
X0339350Y0097273D01*
X0339350Y0098884D02*
X0339850Y0098884D01*
X0339350Y0098884D02*
X0337348Y0100886D01*
X0336847Y0100886D01*
X0336847Y0098884D01*
X0336847Y0102107D02*
X0338849Y0102107D01*
X0339850Y0103108D01*
X0338849Y0104109D01*
X0336847Y0104109D01*
X0336847Y0108552D02*
X0339850Y0108552D01*
X0339850Y0110554D01*
X0339850Y0111775D02*
X0339850Y0112776D01*
X0339850Y0112276D02*
X0337848Y0112276D01*
X0337848Y0111775D01*
X0336847Y0112276D02*
X0336347Y0112276D01*
X0336847Y0113924D02*
X0336847Y0115425D01*
X0337348Y0115925D01*
X0338349Y0115925D01*
X0338849Y0115425D01*
X0338849Y0113924D01*
X0339850Y0113924D02*
X0336847Y0113924D01*
X0338349Y0117146D02*
X0339350Y0117146D01*
X0339850Y0117647D01*
X0339850Y0118648D01*
X0339350Y0119148D01*
X0338349Y0119148D01*
X0337848Y0118648D01*
X0337848Y0117647D01*
X0338349Y0117146D01*
D11*
X0258681Y0046362D02*
X0256319Y0046362D01*
X0256319Y0041638D02*
X0258681Y0041638D01*
X0223862Y0022681D02*
X0223862Y0020319D01*
X0219138Y0020319D02*
X0219138Y0022681D01*
X0203434Y0011103D02*
X0203434Y0007900D01*
X0201299Y0011103D01*
X0201299Y0007900D01*
X0199935Y0008434D02*
X0199935Y0010569D01*
X0199401Y0011103D01*
X0198334Y0011103D01*
X0197800Y0010569D01*
X0197800Y0008434D01*
X0198334Y0007900D01*
X0199401Y0007900D01*
X0199935Y0008434D01*
X0170772Y0010861D02*
X0168637Y0010861D01*
X0168637Y0007658D01*
X0168637Y0009259D02*
X0169705Y0009259D01*
X0167273Y0010861D02*
X0165138Y0010861D01*
X0165138Y0007658D01*
X0163774Y0008192D02*
X0163774Y0010327D01*
X0163240Y0010861D01*
X0162173Y0010861D01*
X0161639Y0010327D01*
X0161639Y0008192D01*
X0162173Y0007658D01*
X0163240Y0007658D01*
X0163774Y0008192D01*
X0165138Y0009259D02*
X0166206Y0009259D01*
X0153022Y0074170D02*
X0151888Y0074170D01*
X0151321Y0074737D01*
X0153589Y0077006D01*
X0153589Y0074737D01*
X0153022Y0074170D01*
X0151321Y0074737D02*
X0151321Y0077006D01*
X0151888Y0077573D01*
X0153022Y0077573D01*
X0153589Y0077006D01*
X0149906Y0077006D02*
X0147638Y0074737D01*
X0148205Y0074170D01*
X0149339Y0074170D01*
X0149906Y0074737D01*
X0149906Y0077006D01*
X0149339Y0077573D01*
X0148205Y0077573D01*
X0147638Y0077006D01*
X0147638Y0074737D01*
X0146363Y0074737D02*
X0146363Y0074170D01*
X0145796Y0074170D01*
X0145796Y0074737D01*
X0146363Y0074737D01*
X0144381Y0074170D02*
X0142113Y0074170D01*
X0143247Y0074170D02*
X0143247Y0077573D01*
X0142113Y0076439D01*
X0140698Y0076439D02*
X0139564Y0074170D01*
X0138430Y0076439D01*
X0133332Y0076439D02*
X0131631Y0076439D01*
X0131063Y0075871D01*
X0131063Y0074737D01*
X0131631Y0074170D01*
X0133332Y0074170D01*
X0133332Y0077573D01*
X0129696Y0076439D02*
X0129128Y0076439D01*
X0127994Y0075304D01*
X0127994Y0074170D02*
X0127994Y0076439D01*
X0126580Y0075871D02*
X0126580Y0074170D01*
X0124878Y0074170D01*
X0124311Y0074737D01*
X0124878Y0075304D01*
X0126580Y0075304D01*
X0126580Y0075871D02*
X0126012Y0076439D01*
X0124878Y0076439D01*
X0122896Y0075871D02*
X0122896Y0074737D01*
X0122329Y0074170D01*
X0121195Y0074170D01*
X0120628Y0074737D01*
X0120628Y0075871D01*
X0121195Y0076439D01*
X0122329Y0076439D01*
X0122896Y0075871D01*
X0119213Y0075304D02*
X0119213Y0074737D01*
X0118646Y0074170D01*
X0116945Y0074170D01*
X0116945Y0077573D01*
X0118646Y0077573D01*
X0119213Y0077006D01*
X0119213Y0076439D01*
X0118646Y0075871D01*
X0116945Y0075871D01*
X0115530Y0076439D02*
X0113262Y0074170D01*
X0115530Y0074170D01*
X0115530Y0076439D02*
X0113262Y0076439D01*
X0111847Y0076439D02*
X0109578Y0074170D01*
X0111847Y0074170D01*
X0111847Y0076439D02*
X0109578Y0076439D01*
X0108164Y0076439D02*
X0108164Y0074170D01*
X0106462Y0074170D01*
X0105895Y0074737D01*
X0105895Y0076439D01*
X0104481Y0076439D02*
X0103914Y0075871D01*
X0102212Y0075871D01*
X0102212Y0074170D02*
X0103914Y0074170D01*
X0104481Y0074737D01*
X0104481Y0075304D01*
X0103914Y0075871D01*
X0104481Y0076439D02*
X0104481Y0077006D01*
X0103914Y0077573D01*
X0102212Y0077573D01*
X0102212Y0074170D01*
X0118646Y0075871D02*
X0119213Y0075304D01*
D12*
X0172886Y0009258D02*
X0179436Y0010908D01*
X0179436Y0007408D01*
X0172886Y0009258D01*
X0173799Y0009488D02*
X0179436Y0009488D01*
X0179436Y0008490D02*
X0175607Y0008490D01*
X0177763Y0010487D02*
X0179436Y0010487D01*
X0179436Y0007491D02*
X0179142Y0007491D01*
X0189086Y0007491D02*
X0189193Y0007491D01*
X0189086Y0007458D02*
X0194736Y0009208D01*
X0189036Y0010908D01*
X0189086Y0007458D01*
X0189071Y0008490D02*
X0192417Y0008490D01*
X0193797Y0009488D02*
X0189057Y0009488D01*
X0189042Y0010487D02*
X0190449Y0010487D01*
D13*
X0190486Y0009158D02*
X0179936Y0009158D01*
D14*
X0288255Y0051101D02*
X0288738Y0050617D01*
X0289222Y0050617D01*
X0289706Y0051101D01*
X0289706Y0052069D01*
X0290190Y0052552D01*
X0290673Y0052552D01*
X0291157Y0052069D01*
X0291157Y0051101D01*
X0290673Y0050617D01*
X0288255Y0051101D02*
X0288255Y0052069D01*
X0288738Y0052552D01*
X0288738Y0053564D02*
X0290673Y0053564D01*
X0291157Y0054048D01*
X0291157Y0055015D01*
X0290673Y0055499D01*
X0288738Y0055499D01*
X0288255Y0055015D01*
X0288255Y0054048D01*
X0288738Y0053564D01*
X0288255Y0056510D02*
X0291157Y0056510D01*
X0291157Y0058445D01*
X0291157Y0059457D02*
X0289222Y0059457D01*
X0288255Y0060424D01*
X0289222Y0061392D01*
X0291157Y0061392D01*
X0291157Y0062403D02*
X0288255Y0062403D01*
X0288255Y0063855D01*
X0288738Y0064338D01*
X0289706Y0064338D01*
X0290190Y0063855D01*
X0290190Y0062403D01*
X0290190Y0063371D02*
X0291157Y0064338D01*
X0289706Y0061392D02*
X0289706Y0059457D01*
X0274506Y0119150D02*
X0275124Y0119767D01*
X0275124Y0120384D01*
X0274506Y0121002D01*
X0272655Y0121002D01*
X0272655Y0119767D01*
X0273272Y0119150D01*
X0274506Y0119150D01*
X0271440Y0118533D02*
X0268972Y0118533D01*
X0267757Y0119767D02*
X0267757Y0122236D01*
X0267140Y0122853D01*
X0265906Y0122853D01*
X0265289Y0122236D01*
X0265289Y0119767D01*
X0265906Y0119150D01*
X0267140Y0119150D01*
X0267757Y0119767D01*
X0264068Y0119150D02*
X0262833Y0119150D01*
X0263450Y0119150D02*
X0263450Y0122853D01*
X0262833Y0122853D02*
X0264068Y0122853D01*
X0261619Y0122236D02*
X0261002Y0122853D01*
X0259150Y0122853D01*
X0259150Y0119150D01*
X0261002Y0119150D01*
X0261619Y0119767D01*
X0261619Y0122236D01*
X0272655Y0121002D02*
X0273889Y0122236D01*
X0275124Y0122853D01*
X0271440Y0138533D02*
X0268972Y0138533D01*
X0267757Y0139767D02*
X0267757Y0142236D01*
X0267140Y0142853D01*
X0265906Y0142853D01*
X0265289Y0142236D01*
X0265289Y0139767D01*
X0265906Y0139150D01*
X0267140Y0139150D01*
X0267757Y0139767D01*
X0264068Y0139150D02*
X0262833Y0139150D01*
X0263450Y0139150D02*
X0263450Y0142853D01*
X0262833Y0142853D02*
X0264068Y0142853D01*
X0261619Y0142236D02*
X0261002Y0142853D01*
X0259150Y0142853D01*
X0259150Y0139150D01*
X0261002Y0139150D01*
X0261619Y0139767D01*
X0261619Y0142236D01*
X0272655Y0142853D02*
X0272655Y0141002D01*
X0273889Y0141619D01*
X0274506Y0141619D01*
X0275124Y0141002D01*
X0275124Y0139767D01*
X0274506Y0139150D01*
X0273272Y0139150D01*
X0272655Y0139767D01*
X0272655Y0142853D02*
X0275124Y0142853D01*
X0236124Y0139150D02*
X0233655Y0139150D01*
X0234889Y0139150D02*
X0234889Y0142853D01*
X0233655Y0141619D01*
X0232440Y0138533D02*
X0229972Y0138533D01*
X0228757Y0139150D02*
X0228757Y0142853D01*
X0226289Y0142853D02*
X0228757Y0139150D01*
X0226289Y0139150D02*
X0226289Y0142853D01*
X0225068Y0142853D02*
X0223833Y0142853D01*
X0224450Y0142853D02*
X0224450Y0139150D01*
X0223833Y0139150D02*
X0225068Y0139150D01*
X0222619Y0139150D02*
X0222619Y0141619D01*
X0221384Y0142853D01*
X0220150Y0141619D01*
X0220150Y0139150D01*
X0220150Y0141002D02*
X0222619Y0141002D01*
X0067550Y0090256D02*
X0067550Y0088404D01*
X0063847Y0088404D01*
X0063847Y0090256D01*
X0064464Y0090873D01*
X0066933Y0090873D01*
X0067550Y0090256D01*
X0066933Y0087190D02*
X0067550Y0086573D01*
X0067550Y0085338D01*
X0066933Y0084721D01*
X0065698Y0085338D02*
X0065698Y0086573D01*
X0066316Y0087190D01*
X0066933Y0087190D01*
X0065698Y0085338D02*
X0065081Y0084721D01*
X0064464Y0084721D01*
X0063847Y0085338D01*
X0063847Y0086573D01*
X0064464Y0087190D01*
X0068167Y0083507D02*
X0068167Y0081038D01*
X0066933Y0079824D02*
X0067550Y0079206D01*
X0067550Y0077972D01*
X0066933Y0077355D01*
X0064464Y0077355D01*
X0063847Y0077972D01*
X0063847Y0079206D01*
X0064464Y0079824D01*
X0066933Y0079824D01*
X0067550Y0076140D02*
X0066316Y0074906D01*
X0066316Y0075523D02*
X0066316Y0073672D01*
X0067550Y0073672D02*
X0063847Y0073672D01*
X0063847Y0075523D01*
X0064464Y0076140D01*
X0065698Y0076140D01*
X0066316Y0075523D01*
X0066933Y0072457D02*
X0067550Y0071840D01*
X0067550Y0070606D01*
X0066933Y0069989D01*
X0064464Y0069989D01*
X0063847Y0070606D01*
X0063847Y0071840D01*
X0064464Y0072457D01*
X0063847Y0068768D02*
X0063847Y0067533D01*
X0063847Y0068150D02*
X0067550Y0068150D01*
X0067550Y0067533D02*
X0067550Y0068768D01*
X0067550Y0066319D02*
X0063847Y0066319D01*
X0065081Y0065084D01*
X0063847Y0063850D01*
X0067550Y0063850D01*
D15*
X0101878Y0080276D03*
X0102228Y0080076D03*
X0102578Y0079876D03*
X0102928Y0079676D03*
X0103028Y0079626D03*
X0103328Y0079776D03*
X0103678Y0079976D03*
X0104978Y0080726D03*
X0105328Y0080926D03*
X0105678Y0081126D03*
X0106028Y0081326D03*
X0107328Y0082076D03*
X0107678Y0082276D03*
X0108028Y0082476D03*
X0108078Y0082926D03*
X0107478Y0083276D03*
X0107128Y0083476D03*
X0106528Y0083826D03*
X0105928Y0084176D03*
X0104978Y0084726D03*
X0104378Y0085076D03*
X0103778Y0085426D03*
X0103428Y0085626D03*
X0102728Y0085676D03*
X0102128Y0085326D03*
X0101178Y0084776D03*
X0100578Y0084426D03*
X0099978Y0084076D03*
X0099628Y0083876D03*
X0099028Y0083526D03*
X0098428Y0083176D03*
X0099178Y0081826D03*
X0099528Y0081626D03*
X0099878Y0081426D03*
X0100228Y0081226D03*
X0092328Y0085926D03*
X0097578Y0095076D03*
X0097728Y0095326D03*
X0093778Y0099226D03*
X0093178Y0098876D03*
X0092828Y0098676D03*
X0094378Y0099576D03*
X0094728Y0099776D03*
X0095328Y0100126D03*
X0096278Y0100676D03*
X0096878Y0101026D03*
X0102978Y0104476D03*
X0103128Y0104476D03*
X0108678Y0101326D03*
X0109278Y0100976D03*
X0109628Y0100776D03*
X0110228Y0100426D03*
X0110828Y0100076D03*
X0111178Y0099876D03*
X0111778Y0099526D03*
X0112378Y0099176D03*
X0112728Y0098976D03*
X0113328Y0098626D03*
X0113828Y0098326D03*
X0113828Y0098276D03*
X0113828Y0098226D03*
X0113828Y0098176D03*
X0113828Y0098126D03*
X0113828Y0098076D03*
X0113828Y0098026D03*
X0113828Y0097976D03*
X0113828Y0097926D03*
X0113828Y0097876D03*
X0113828Y0097826D03*
X0113828Y0097776D03*
X0113828Y0097726D03*
X0113828Y0097676D03*
X0113828Y0097626D03*
X0113828Y0097576D03*
X0113828Y0097526D03*
X0113828Y0097476D03*
X0113828Y0097426D03*
X0113828Y0097376D03*
X0113828Y0097326D03*
X0113828Y0097276D03*
X0113828Y0097226D03*
X0113828Y0097176D03*
X0113828Y0097126D03*
X0113828Y0097076D03*
X0113828Y0097026D03*
X0113828Y0096976D03*
X0113828Y0096926D03*
X0113828Y0096876D03*
X0113828Y0096826D03*
X0113828Y0096776D03*
X0113828Y0096726D03*
X0113828Y0096676D03*
X0113828Y0096626D03*
X0113828Y0096576D03*
X0113828Y0096526D03*
X0113828Y0096476D03*
X0113828Y0096426D03*
X0113828Y0096376D03*
X0113828Y0096326D03*
X0113828Y0096276D03*
X0113828Y0096226D03*
X0113828Y0096176D03*
X0113828Y0096126D03*
X0113828Y0096076D03*
X0113828Y0096026D03*
X0113828Y0095976D03*
X0113828Y0095926D03*
X0113828Y0095876D03*
X0113828Y0095826D03*
X0113828Y0095776D03*
X0113828Y0095726D03*
X0113828Y0095676D03*
X0113828Y0095626D03*
X0113828Y0095576D03*
X0113828Y0095526D03*
X0113828Y0095476D03*
X0113828Y0095426D03*
X0113828Y0095376D03*
X0113828Y0095326D03*
X0113828Y0095276D03*
X0113828Y0095226D03*
X0113828Y0095176D03*
X0113828Y0095126D03*
X0113828Y0095076D03*
X0113828Y0095026D03*
X0113828Y0094976D03*
X0113828Y0094926D03*
X0113828Y0094876D03*
X0113828Y0094826D03*
X0113828Y0094776D03*
X0113828Y0094726D03*
X0113828Y0094676D03*
X0113828Y0094626D03*
X0113828Y0094576D03*
X0113828Y0094526D03*
X0113828Y0094476D03*
X0113828Y0094426D03*
X0113828Y0094376D03*
X0113828Y0094326D03*
X0113828Y0094276D03*
X0113828Y0094226D03*
X0113828Y0094176D03*
X0113828Y0094126D03*
X0113828Y0094076D03*
X0113828Y0094026D03*
X0113828Y0093976D03*
X0113828Y0093926D03*
X0113828Y0093876D03*
X0113828Y0093826D03*
X0113828Y0093776D03*
X0113828Y0093726D03*
X0113828Y0093676D03*
X0113828Y0093626D03*
X0113828Y0093576D03*
X0113828Y0093526D03*
X0113828Y0093476D03*
X0113828Y0093426D03*
X0113828Y0093376D03*
X0113828Y0093326D03*
X0113828Y0093276D03*
X0113828Y0093226D03*
X0113828Y0093176D03*
X0113828Y0093126D03*
X0113828Y0093076D03*
X0113828Y0093026D03*
X0113828Y0092976D03*
X0113828Y0092926D03*
X0113828Y0092876D03*
X0113828Y0092826D03*
X0113828Y0092776D03*
X0113828Y0092726D03*
X0113828Y0092676D03*
X0113828Y0092626D03*
X0113828Y0092576D03*
X0113828Y0092526D03*
X0113828Y0092476D03*
X0113828Y0092426D03*
X0113828Y0092376D03*
X0113828Y0092326D03*
X0113828Y0092276D03*
X0113828Y0092226D03*
X0113828Y0092176D03*
X0113778Y0085926D03*
X0129678Y0087026D03*
X0135128Y0087026D03*
X0133928Y0082676D03*
X0149128Y0082676D03*
X0154628Y0087026D03*
X0159728Y0094926D03*
X0138578Y0094926D03*
X0132328Y0094926D03*
D16*
X0108503Y0095076D03*
X0108353Y0095326D03*
X0108353Y0092826D03*
X0097653Y0088826D03*
X0101403Y0086876D03*
X0092353Y0085976D03*
X0129803Y0081476D03*
X0129803Y0081076D03*
X0132853Y0081376D03*
X0138253Y0081376D03*
X0140303Y0081376D03*
X0143353Y0083276D03*
X0143353Y0083626D03*
X0147403Y0081376D03*
X0148053Y0081376D03*
X0150003Y0081476D03*
X0150003Y0081076D03*
X0151953Y0082726D03*
X0159153Y0089126D03*
X0156103Y0098326D03*
X0103153Y0104426D03*
D17*
X0103253Y0104326D03*
X0102853Y0104326D03*
X0101303Y0097176D03*
X0097853Y0095476D03*
X0097653Y0088776D03*
X0101303Y0086976D03*
X0108453Y0088776D03*
X0122303Y0082876D03*
X0122953Y0081176D03*
X0122953Y0081126D03*
X0121653Y0081126D03*
X0124453Y0081126D03*
X0125753Y0081126D03*
X0125753Y0081176D03*
X0127253Y0081126D03*
X0128553Y0081126D03*
X0128553Y0081176D03*
X0127903Y0082876D03*
X0125103Y0082876D03*
X0130903Y0082626D03*
X0130953Y0082676D03*
X0131453Y0082976D03*
X0131953Y0082676D03*
X0132003Y0082626D03*
X0132003Y0081426D03*
X0131953Y0081376D03*
X0131453Y0081076D03*
X0130953Y0081376D03*
X0130853Y0081526D03*
X0133853Y0081826D03*
X0133903Y0081776D03*
X0133903Y0081376D03*
X0134803Y0081626D03*
X0134803Y0081676D03*
X0134803Y0081726D03*
X0134803Y0081776D03*
X0134803Y0082276D03*
X0134803Y0082326D03*
X0134803Y0082376D03*
X0134803Y0082426D03*
X0134803Y0082476D03*
X0135953Y0082676D03*
X0136003Y0082626D03*
X0136103Y0081626D03*
X0136003Y0081426D03*
X0135953Y0081376D03*
X0135103Y0081326D03*
X0137053Y0081526D03*
X0137103Y0081426D03*
X0137103Y0082626D03*
X0137153Y0082676D03*
X0138003Y0082726D03*
X0138053Y0082676D03*
X0139153Y0082626D03*
X0139203Y0082676D03*
X0140053Y0082726D03*
X0140103Y0082676D03*
X0141153Y0082476D03*
X0141153Y0082426D03*
X0141153Y0082376D03*
X0141153Y0082326D03*
X0141903Y0082976D03*
X0142353Y0082626D03*
X0143353Y0083376D03*
X0143353Y0083426D03*
X0143353Y0083476D03*
X0143353Y0083526D03*
X0144803Y0081126D03*
X0146203Y0081526D03*
X0146253Y0081426D03*
X0146253Y0082626D03*
X0146303Y0082676D03*
X0147153Y0082726D03*
X0147203Y0082676D03*
X0149053Y0081826D03*
X0149103Y0081776D03*
X0149103Y0081376D03*
X0150953Y0081626D03*
X0151053Y0081426D03*
X0151103Y0081376D03*
X0151603Y0081076D03*
X0152753Y0081526D03*
X0152853Y0081376D03*
X0153353Y0081076D03*
X0153853Y0081376D03*
X0153903Y0081426D03*
X0153903Y0082626D03*
X0153853Y0082676D03*
X0153353Y0082976D03*
X0152853Y0082676D03*
X0152803Y0082626D03*
X0151603Y0082976D03*
X0151103Y0082676D03*
X0151053Y0082626D03*
X0154953Y0082476D03*
X0154953Y0082426D03*
X0154953Y0082376D03*
X0154953Y0082326D03*
X0156053Y0082676D03*
X0156153Y0082476D03*
X0156153Y0082426D03*
X0156153Y0082376D03*
X0156853Y0082976D03*
X0157253Y0082676D03*
X0154503Y0086926D03*
X0139153Y0081426D03*
X0139103Y0081526D03*
X0135003Y0086926D03*
X0129553Y0086926D03*
X0125703Y0095076D03*
X0141653Y0099726D03*
X0151503Y0098026D03*
X0151553Y0098076D03*
X0151603Y0098126D03*
X0149453Y0095026D03*
X0149903Y0094576D03*
X0149903Y0094526D03*
X0149903Y0094476D03*
X0156053Y0094776D03*
X0092453Y0086076D03*
D18*
X0092503Y0086126D03*
X0106403Y0092726D03*
X0097903Y0095526D03*
X0097403Y0094876D03*
X0102803Y0104276D03*
X0119753Y0098576D03*
X0119753Y0098526D03*
X0119703Y0098426D03*
X0119703Y0098376D03*
X0119703Y0098326D03*
X0119653Y0098226D03*
X0119653Y0098176D03*
X0119653Y0098126D03*
X0119653Y0098076D03*
X0119603Y0097976D03*
X0119603Y0097926D03*
X0119603Y0097876D03*
X0119603Y0097826D03*
X0119603Y0097776D03*
X0119603Y0097726D03*
X0119603Y0097676D03*
X0119603Y0097626D03*
X0119553Y0097376D03*
X0119553Y0097326D03*
X0119553Y0097276D03*
X0119553Y0097226D03*
X0119603Y0096976D03*
X0119603Y0096926D03*
X0119603Y0096876D03*
X0119603Y0096826D03*
X0119603Y0096776D03*
X0119603Y0096726D03*
X0119603Y0096676D03*
X0119603Y0096626D03*
X0119653Y0096526D03*
X0119653Y0096476D03*
X0119653Y0096426D03*
X0119653Y0096376D03*
X0119703Y0096276D03*
X0119703Y0096226D03*
X0119703Y0096176D03*
X0119753Y0096126D03*
X0119753Y0096076D03*
X0119753Y0096026D03*
X0119803Y0095976D03*
X0119803Y0095926D03*
X0119853Y0095826D03*
X0119903Y0095726D03*
X0119953Y0095626D03*
X0119803Y0098676D03*
X0119853Y0098776D03*
X0119903Y0098876D03*
X0119953Y0098976D03*
X0123853Y0099026D03*
X0123903Y0098926D03*
X0123953Y0098826D03*
X0124003Y0098726D03*
X0124003Y0098676D03*
X0124053Y0098626D03*
X0124053Y0098576D03*
X0124053Y0098526D03*
X0124103Y0098476D03*
X0124103Y0098426D03*
X0124103Y0098376D03*
X0124153Y0098276D03*
X0124153Y0098226D03*
X0124153Y0098176D03*
X0124153Y0098126D03*
X0124203Y0098076D03*
X0124203Y0098026D03*
X0124203Y0097976D03*
X0124203Y0097926D03*
X0124203Y0097876D03*
X0124203Y0097826D03*
X0124203Y0097776D03*
X0124253Y0097676D03*
X0124253Y0097626D03*
X0124253Y0097576D03*
X0124253Y0097526D03*
X0124253Y0097476D03*
X0124253Y0097426D03*
X0124253Y0097376D03*
X0124253Y0097326D03*
X0124253Y0097276D03*
X0124253Y0097226D03*
X0124253Y0097176D03*
X0124253Y0097126D03*
X0124253Y0097076D03*
X0124253Y0097026D03*
X0124253Y0096976D03*
X0124253Y0096926D03*
X0124203Y0096826D03*
X0124203Y0096776D03*
X0124203Y0096726D03*
X0124203Y0096676D03*
X0124203Y0096626D03*
X0124203Y0096576D03*
X0124203Y0096526D03*
X0124153Y0096476D03*
X0124153Y0096426D03*
X0124153Y0096376D03*
X0124153Y0096326D03*
X0124103Y0096226D03*
X0124103Y0096176D03*
X0124103Y0096126D03*
X0124053Y0096076D03*
X0124053Y0096026D03*
X0124003Y0095926D03*
X0124003Y0095876D03*
X0123953Y0095776D03*
X0123903Y0095676D03*
X0125303Y0095976D03*
X0125303Y0096026D03*
X0125303Y0096076D03*
X0125303Y0096126D03*
X0125303Y0096176D03*
X0125303Y0096226D03*
X0125303Y0096276D03*
X0125303Y0096326D03*
X0125303Y0096376D03*
X0125303Y0096426D03*
X0125303Y0096476D03*
X0125303Y0096526D03*
X0125303Y0096576D03*
X0125303Y0096626D03*
X0125303Y0096676D03*
X0125303Y0096726D03*
X0125303Y0096776D03*
X0125303Y0096826D03*
X0125303Y0096876D03*
X0125303Y0096926D03*
X0125303Y0096976D03*
X0125303Y0097026D03*
X0125303Y0097076D03*
X0125303Y0097126D03*
X0125303Y0097176D03*
X0125303Y0097226D03*
X0125303Y0097276D03*
X0125303Y0098126D03*
X0125303Y0098176D03*
X0125303Y0098226D03*
X0125303Y0098276D03*
X0125903Y0098276D03*
X0128153Y0098026D03*
X0128203Y0097926D03*
X0128253Y0097876D03*
X0128253Y0097826D03*
X0128303Y0097776D03*
X0128303Y0097726D03*
X0128353Y0097626D03*
X0128353Y0097576D03*
X0128403Y0097476D03*
X0128403Y0097426D03*
X0128403Y0097376D03*
X0128453Y0097276D03*
X0128453Y0097226D03*
X0128453Y0097176D03*
X0128453Y0097126D03*
X0128453Y0097076D03*
X0128503Y0096826D03*
X0128503Y0096776D03*
X0128503Y0096726D03*
X0128503Y0096676D03*
X0128503Y0096626D03*
X0128503Y0096576D03*
X0128503Y0096526D03*
X0128503Y0096476D03*
X0128503Y0096426D03*
X0128503Y0096376D03*
X0128503Y0096326D03*
X0128453Y0096076D03*
X0128453Y0096026D03*
X0128453Y0095976D03*
X0128453Y0095926D03*
X0128403Y0095826D03*
X0128403Y0095776D03*
X0128403Y0095726D03*
X0128353Y0095626D03*
X0128353Y0095576D03*
X0128353Y0095526D03*
X0128303Y0095476D03*
X0128303Y0095426D03*
X0128253Y0095376D03*
X0128253Y0095326D03*
X0128203Y0095276D03*
X0128203Y0095226D03*
X0128153Y0095176D03*
X0129403Y0095576D03*
X0129403Y0095626D03*
X0129403Y0095676D03*
X0129353Y0095776D03*
X0129353Y0095826D03*
X0129303Y0095976D03*
X0129303Y0096026D03*
X0129303Y0096076D03*
X0129303Y0096126D03*
X0129453Y0095526D03*
X0129453Y0095476D03*
X0129503Y0095426D03*
X0129503Y0095376D03*
X0129553Y0095326D03*
X0129553Y0095276D03*
X0129603Y0095226D03*
X0129303Y0096876D03*
X0129303Y0096926D03*
X0129303Y0096976D03*
X0129303Y0097026D03*
X0129303Y0097076D03*
X0129353Y0097226D03*
X0129353Y0097276D03*
X0129353Y0097326D03*
X0129403Y0097426D03*
X0129403Y0097476D03*
X0129453Y0097576D03*
X0129453Y0097626D03*
X0129503Y0097726D03*
X0129553Y0097826D03*
X0129603Y0097876D03*
X0129603Y0097926D03*
X0129653Y0097976D03*
X0130903Y0098776D03*
X0132003Y0098076D03*
X0132053Y0097976D03*
X0132103Y0097926D03*
X0132103Y0097876D03*
X0132153Y0097826D03*
X0132153Y0097776D03*
X0132203Y0097726D03*
X0132203Y0097676D03*
X0132203Y0097626D03*
X0132253Y0097526D03*
X0132253Y0097476D03*
X0132303Y0097326D03*
X0132303Y0097276D03*
X0132303Y0097226D03*
X0132303Y0097176D03*
X0132303Y0097126D03*
X0133353Y0097126D03*
X0133353Y0097176D03*
X0133353Y0097226D03*
X0133353Y0097276D03*
X0133353Y0097326D03*
X0133353Y0097076D03*
X0133353Y0097026D03*
X0133353Y0096976D03*
X0133353Y0096926D03*
X0133353Y0096876D03*
X0133353Y0096826D03*
X0133353Y0096776D03*
X0133353Y0096726D03*
X0133353Y0096676D03*
X0133353Y0096626D03*
X0133353Y0096576D03*
X0133353Y0096526D03*
X0133353Y0096476D03*
X0133353Y0096426D03*
X0133353Y0096376D03*
X0133353Y0096326D03*
X0133353Y0096276D03*
X0133353Y0096226D03*
X0133353Y0096176D03*
X0133353Y0096126D03*
X0133353Y0096076D03*
X0133353Y0096026D03*
X0133353Y0095976D03*
X0133353Y0095926D03*
X0133353Y0095876D03*
X0133353Y0095826D03*
X0133353Y0095776D03*
X0133353Y0095726D03*
X0133353Y0095676D03*
X0133353Y0095626D03*
X0133353Y0095576D03*
X0133353Y0095526D03*
X0133353Y0095476D03*
X0133353Y0095426D03*
X0133353Y0095376D03*
X0133353Y0095326D03*
X0133353Y0095276D03*
X0133353Y0095226D03*
X0133353Y0095176D03*
X0133353Y0095126D03*
X0133353Y0095076D03*
X0133353Y0095026D03*
X0133353Y0094976D03*
X0133353Y0094926D03*
X0133353Y0094876D03*
X0133353Y0094826D03*
X0133353Y0094776D03*
X0133353Y0094726D03*
X0133353Y0094676D03*
X0133353Y0094626D03*
X0133353Y0094576D03*
X0133353Y0094526D03*
X0133353Y0094476D03*
X0136303Y0097476D03*
X0136303Y0097526D03*
X0136253Y0097776D03*
X0136253Y0097826D03*
X0136203Y0097926D03*
X0136203Y0097976D03*
X0136153Y0098026D03*
X0136153Y0098076D03*
X0136103Y0098126D03*
X0133853Y0098226D03*
X0133353Y0098226D03*
X0133353Y0098276D03*
X0133353Y0098176D03*
X0133353Y0098126D03*
X0138803Y0098626D03*
X0138803Y0098676D03*
X0138803Y0098726D03*
X0138803Y0098776D03*
X0138803Y0098826D03*
X0138803Y0098876D03*
X0138803Y0098926D03*
X0138853Y0099026D03*
X0138853Y0099076D03*
X0138853Y0099126D03*
X0138853Y0099176D03*
X0138903Y0099226D03*
X0138903Y0099276D03*
X0138953Y0099376D03*
X0138853Y0098526D03*
X0138853Y0098476D03*
X0138853Y0098426D03*
X0138853Y0098376D03*
X0138903Y0098326D03*
X0138903Y0098276D03*
X0142653Y0097376D03*
X0142653Y0097326D03*
X0142653Y0097276D03*
X0142603Y0097126D03*
X0142603Y0097076D03*
X0142603Y0097026D03*
X0142603Y0096976D03*
X0142703Y0097476D03*
X0142703Y0097526D03*
X0142753Y0097626D03*
X0142753Y0097676D03*
X0142803Y0097726D03*
X0142803Y0097776D03*
X0142853Y0097826D03*
X0142853Y0097876D03*
X0142903Y0097926D03*
X0145553Y0097976D03*
X0145603Y0097926D03*
X0145653Y0097826D03*
X0145703Y0097726D03*
X0145703Y0097676D03*
X0145753Y0097626D03*
X0145753Y0097576D03*
X0145803Y0097476D03*
X0145803Y0097426D03*
X0145853Y0097326D03*
X0145853Y0097276D03*
X0145853Y0097226D03*
X0145903Y0097076D03*
X0145903Y0097026D03*
X0145903Y0096976D03*
X0145903Y0096926D03*
X0145903Y0096876D03*
X0145903Y0096826D03*
X0145903Y0096776D03*
X0145903Y0096376D03*
X0145903Y0096326D03*
X0145903Y0096276D03*
X0145903Y0096226D03*
X0145903Y0096176D03*
X0145903Y0096126D03*
X0145903Y0096076D03*
X0145853Y0095926D03*
X0145853Y0095876D03*
X0145853Y0095826D03*
X0145803Y0095726D03*
X0145803Y0095676D03*
X0145753Y0095576D03*
X0145753Y0095526D03*
X0145703Y0095476D03*
X0145703Y0095426D03*
X0145653Y0095326D03*
X0145553Y0095176D03*
X0146953Y0095426D03*
X0147003Y0095276D03*
X0147003Y0095226D03*
X0147053Y0095126D03*
X0147103Y0095076D03*
X0147103Y0095026D03*
X0147153Y0094976D03*
X0149303Y0094876D03*
X0149353Y0094926D03*
X0149403Y0094976D03*
X0149853Y0095026D03*
X0149853Y0095726D03*
X0149853Y0095776D03*
X0149853Y0095826D03*
X0149853Y0095876D03*
X0149853Y0095926D03*
X0149853Y0095976D03*
X0151103Y0095976D03*
X0151103Y0096026D03*
X0151103Y0096076D03*
X0151103Y0096126D03*
X0151103Y0096176D03*
X0151103Y0096226D03*
X0151103Y0096276D03*
X0151103Y0096326D03*
X0151103Y0096376D03*
X0151103Y0096426D03*
X0151103Y0096476D03*
X0151103Y0096526D03*
X0151103Y0096576D03*
X0151103Y0096626D03*
X0151103Y0096676D03*
X0151103Y0096726D03*
X0151103Y0096776D03*
X0151103Y0096826D03*
X0151103Y0096876D03*
X0151103Y0096926D03*
X0151103Y0096976D03*
X0151103Y0097026D03*
X0151103Y0097076D03*
X0151103Y0097126D03*
X0151103Y0097176D03*
X0151103Y0097226D03*
X0151103Y0097276D03*
X0151803Y0098326D03*
X0153553Y0097526D03*
X0153553Y0097476D03*
X0153603Y0097576D03*
X0153603Y0097626D03*
X0153653Y0097726D03*
X0153703Y0097826D03*
X0153753Y0097876D03*
X0153753Y0097926D03*
X0153803Y0097976D03*
X0153853Y0098026D03*
X0153503Y0097326D03*
X0153503Y0097276D03*
X0153453Y0097126D03*
X0153453Y0097076D03*
X0153453Y0097026D03*
X0153453Y0096976D03*
X0153453Y0096926D03*
X0153453Y0096176D03*
X0153453Y0096126D03*
X0153453Y0096076D03*
X0153453Y0096026D03*
X0153453Y0095976D03*
X0153503Y0095876D03*
X0153503Y0095826D03*
X0153503Y0095776D03*
X0153553Y0095676D03*
X0153553Y0095626D03*
X0153603Y0095576D03*
X0153603Y0095526D03*
X0153603Y0095476D03*
X0153653Y0095426D03*
X0153703Y0095326D03*
X0151103Y0095326D03*
X0151103Y0095376D03*
X0151103Y0095426D03*
X0151103Y0095476D03*
X0151103Y0095526D03*
X0151103Y0095576D03*
X0151103Y0095626D03*
X0151103Y0095676D03*
X0151103Y0095726D03*
X0151103Y0095776D03*
X0151103Y0095826D03*
X0151103Y0095876D03*
X0151103Y0095926D03*
X0151103Y0095276D03*
X0151103Y0095226D03*
X0151103Y0095176D03*
X0151103Y0095126D03*
X0151103Y0095076D03*
X0151103Y0095026D03*
X0151103Y0094976D03*
X0151103Y0094926D03*
X0151103Y0094876D03*
X0151103Y0094826D03*
X0151103Y0094776D03*
X0151103Y0094726D03*
X0151103Y0094676D03*
X0151103Y0094626D03*
X0151103Y0094576D03*
X0151103Y0094526D03*
X0151103Y0094476D03*
X0156703Y0095976D03*
X0156703Y0096026D03*
X0156703Y0096076D03*
X0156703Y0096126D03*
X0156753Y0095826D03*
X0156753Y0095776D03*
X0156803Y0095676D03*
X0156803Y0095626D03*
X0156803Y0095576D03*
X0156853Y0095526D03*
X0156853Y0095476D03*
X0156903Y0095426D03*
X0156903Y0095376D03*
X0156953Y0095326D03*
X0156953Y0095276D03*
X0157003Y0095226D03*
X0156703Y0096876D03*
X0156703Y0096926D03*
X0156703Y0096976D03*
X0156703Y0097026D03*
X0156703Y0097076D03*
X0156753Y0097226D03*
X0156753Y0097276D03*
X0156753Y0097326D03*
X0156803Y0097426D03*
X0156803Y0097476D03*
X0156853Y0097576D03*
X0156853Y0097626D03*
X0156903Y0097726D03*
X0156953Y0097826D03*
X0157003Y0097876D03*
X0157003Y0097926D03*
X0157053Y0097976D03*
X0158303Y0098776D03*
X0159403Y0098076D03*
X0159453Y0097976D03*
X0159503Y0097926D03*
X0159503Y0097876D03*
X0159553Y0097826D03*
X0159553Y0097776D03*
X0159603Y0097726D03*
X0159603Y0097676D03*
X0159603Y0097626D03*
X0159653Y0097526D03*
X0159653Y0097476D03*
X0159703Y0097326D03*
X0159703Y0097276D03*
X0159703Y0097226D03*
X0159703Y0097176D03*
X0159703Y0097126D03*
X0142953Y0095176D03*
X0142903Y0095226D03*
X0142853Y0095326D03*
X0142803Y0095376D03*
X0142803Y0095426D03*
X0142753Y0095526D03*
X0142703Y0095626D03*
X0142703Y0095676D03*
X0142653Y0095826D03*
X0142653Y0095876D03*
X0142603Y0096026D03*
X0142603Y0096076D03*
X0142603Y0096126D03*
X0142603Y0096176D03*
X0141853Y0096126D03*
X0141853Y0096076D03*
X0141853Y0096026D03*
X0141853Y0095976D03*
X0141853Y0095926D03*
X0141853Y0095876D03*
X0141853Y0095826D03*
X0141853Y0095776D03*
X0141853Y0095726D03*
X0141853Y0095676D03*
X0141803Y0095626D03*
X0141803Y0095576D03*
X0141803Y0095526D03*
X0141803Y0095476D03*
X0141753Y0095426D03*
X0141753Y0095376D03*
X0141703Y0095276D03*
X0141803Y0096226D03*
X0141803Y0096276D03*
X0143103Y0091076D03*
X0134953Y0086876D03*
X0134853Y0082626D03*
X0135903Y0082726D03*
X0135903Y0081326D03*
X0134853Y0081426D03*
X0134853Y0081476D03*
X0133803Y0081876D03*
X0133103Y0082226D03*
X0133353Y0081076D03*
X0137253Y0081326D03*
X0139303Y0081326D03*
X0141203Y0082576D03*
X0141203Y0082626D03*
X0146403Y0081326D03*
X0148303Y0082226D03*
X0149003Y0081876D03*
X0148553Y0081076D03*
X0155003Y0082626D03*
X0156153Y0082576D03*
X0155953Y0086926D03*
X0154453Y0086876D03*
X0129503Y0086876D03*
X0127903Y0082726D03*
X0128553Y0081326D03*
X0128553Y0081276D03*
X0128553Y0081226D03*
X0125753Y0081226D03*
X0125753Y0081276D03*
X0125753Y0081326D03*
X0125103Y0082726D03*
X0122953Y0081326D03*
X0122953Y0081276D03*
X0122953Y0081226D03*
X0122303Y0082726D03*
X0113603Y0086126D03*
X0125303Y0092576D03*
X0125303Y0092626D03*
X0125303Y0092676D03*
X0125303Y0092726D03*
X0125303Y0092776D03*
X0125303Y0092826D03*
X0125303Y0092876D03*
X0125303Y0092926D03*
X0125303Y0092976D03*
X0125303Y0093026D03*
X0125303Y0093076D03*
X0125303Y0093126D03*
X0125303Y0093176D03*
X0125303Y0093226D03*
X0125303Y0093276D03*
X0125303Y0093326D03*
X0125303Y0093376D03*
X0125303Y0093426D03*
X0125303Y0093476D03*
X0125303Y0093526D03*
X0125303Y0093576D03*
X0125303Y0093626D03*
X0125303Y0093676D03*
X0125303Y0093726D03*
X0125303Y0093776D03*
X0125303Y0093826D03*
X0125303Y0093876D03*
X0125303Y0093926D03*
X0125303Y0093976D03*
X0125303Y0094026D03*
X0125303Y0094076D03*
X0125303Y0094126D03*
X0125303Y0094176D03*
X0125303Y0094226D03*
X0125303Y0094276D03*
X0125303Y0094326D03*
X0125303Y0094376D03*
X0125303Y0094426D03*
X0125303Y0094476D03*
X0125303Y0094526D03*
X0125303Y0094576D03*
X0125303Y0094626D03*
X0125903Y0094876D03*
D19*
X0108578Y0094976D03*
X0108278Y0095426D03*
X0103028Y0093726D03*
X0108278Y0092726D03*
X0097828Y0095426D03*
X0097478Y0094976D03*
X0102878Y0104376D03*
X0113678Y0086026D03*
X0121128Y0082926D03*
X0121178Y0082876D03*
X0121178Y0082826D03*
X0121178Y0082776D03*
X0121228Y0082676D03*
X0121228Y0082626D03*
X0121228Y0082576D03*
X0121278Y0082476D03*
X0121278Y0082426D03*
X0121278Y0082376D03*
X0121328Y0082276D03*
X0121328Y0082226D03*
X0121378Y0082126D03*
X0121378Y0082076D03*
X0121378Y0082026D03*
X0121428Y0081926D03*
X0121428Y0081876D03*
X0121478Y0081726D03*
X0121478Y0081676D03*
X0121528Y0081476D03*
X0121928Y0081826D03*
X0121978Y0081976D03*
X0122028Y0082126D03*
X0122078Y0082276D03*
X0122528Y0082326D03*
X0122578Y0082176D03*
X0122628Y0082026D03*
X0122678Y0081876D03*
X0122728Y0081726D03*
X0122728Y0081676D03*
X0122778Y0081526D03*
X0123078Y0081426D03*
X0123128Y0081626D03*
X0123178Y0081776D03*
X0123178Y0081826D03*
X0123228Y0081976D03*
X0123228Y0082026D03*
X0123278Y0082126D03*
X0123278Y0082176D03*
X0123278Y0082226D03*
X0123328Y0082326D03*
X0123328Y0082376D03*
X0123378Y0082476D03*
X0123378Y0082526D03*
X0123378Y0082576D03*
X0123428Y0082676D03*
X0123428Y0082726D03*
X0123428Y0082776D03*
X0123478Y0082876D03*
X0123478Y0082926D03*
X0123928Y0082926D03*
X0123978Y0082876D03*
X0123978Y0082826D03*
X0123978Y0082776D03*
X0124028Y0082676D03*
X0124028Y0082626D03*
X0124028Y0082576D03*
X0124078Y0082476D03*
X0124078Y0082426D03*
X0124078Y0082376D03*
X0124128Y0082276D03*
X0124128Y0082226D03*
X0124178Y0082126D03*
X0124178Y0082076D03*
X0124178Y0082026D03*
X0124228Y0081926D03*
X0124228Y0081876D03*
X0124278Y0081726D03*
X0124278Y0081676D03*
X0124328Y0081476D03*
X0124728Y0081826D03*
X0124778Y0081976D03*
X0124828Y0082126D03*
X0124878Y0082276D03*
X0125328Y0082326D03*
X0125378Y0082176D03*
X0125428Y0082026D03*
X0125478Y0081876D03*
X0125528Y0081726D03*
X0125528Y0081676D03*
X0125578Y0081526D03*
X0125878Y0081426D03*
X0125928Y0081626D03*
X0125978Y0081776D03*
X0125978Y0081826D03*
X0126028Y0081976D03*
X0126028Y0082026D03*
X0126078Y0082126D03*
X0126078Y0082176D03*
X0126078Y0082226D03*
X0126128Y0082326D03*
X0126128Y0082376D03*
X0126178Y0082476D03*
X0126178Y0082526D03*
X0126178Y0082576D03*
X0126228Y0082676D03*
X0126228Y0082726D03*
X0126228Y0082776D03*
X0126278Y0082876D03*
X0126278Y0082926D03*
X0126728Y0082926D03*
X0126778Y0082876D03*
X0126778Y0082826D03*
X0126778Y0082776D03*
X0126828Y0082676D03*
X0126828Y0082626D03*
X0126828Y0082576D03*
X0126878Y0082476D03*
X0126878Y0082426D03*
X0126878Y0082376D03*
X0126928Y0082276D03*
X0126928Y0082226D03*
X0126978Y0082126D03*
X0126978Y0082076D03*
X0126978Y0082026D03*
X0127028Y0081926D03*
X0127028Y0081876D03*
X0127078Y0081726D03*
X0127078Y0081676D03*
X0127128Y0081476D03*
X0127528Y0081826D03*
X0127578Y0081976D03*
X0127628Y0082126D03*
X0127678Y0082276D03*
X0128128Y0082326D03*
X0128178Y0082176D03*
X0128228Y0082026D03*
X0128278Y0081876D03*
X0128328Y0081726D03*
X0128328Y0081676D03*
X0128378Y0081526D03*
X0128678Y0081426D03*
X0128728Y0081626D03*
X0128778Y0081776D03*
X0128778Y0081826D03*
X0128828Y0081976D03*
X0128828Y0082026D03*
X0128878Y0082126D03*
X0128878Y0082176D03*
X0128878Y0082226D03*
X0128928Y0082326D03*
X0128928Y0082376D03*
X0128978Y0082476D03*
X0128978Y0082526D03*
X0128978Y0082576D03*
X0129028Y0082676D03*
X0129028Y0082726D03*
X0129028Y0082776D03*
X0129078Y0082876D03*
X0129078Y0082926D03*
X0128078Y0082526D03*
X0127928Y0082926D03*
X0129828Y0081426D03*
X0129828Y0081126D03*
X0130828Y0081576D03*
X0130828Y0081626D03*
X0130778Y0081676D03*
X0130778Y0081726D03*
X0130778Y0081776D03*
X0130778Y0081826D03*
X0130728Y0081926D03*
X0130728Y0081976D03*
X0130728Y0082026D03*
X0130728Y0082076D03*
X0130728Y0082126D03*
X0130778Y0082226D03*
X0130778Y0082276D03*
X0130778Y0082326D03*
X0130778Y0082376D03*
X0130828Y0082426D03*
X0130828Y0082476D03*
X0130828Y0082526D03*
X0130878Y0082576D03*
X0130878Y0081476D03*
X0130928Y0081426D03*
X0132028Y0081476D03*
X0132078Y0081526D03*
X0132078Y0081576D03*
X0132128Y0081626D03*
X0132128Y0081676D03*
X0132128Y0081726D03*
X0132178Y0081826D03*
X0132178Y0081876D03*
X0132178Y0081926D03*
X0132178Y0081976D03*
X0132178Y0082026D03*
X0132178Y0082076D03*
X0132178Y0082126D03*
X0132178Y0082176D03*
X0132178Y0082226D03*
X0132128Y0082326D03*
X0132128Y0082376D03*
X0132128Y0082426D03*
X0132078Y0082476D03*
X0132078Y0082526D03*
X0132028Y0082576D03*
X0132928Y0082576D03*
X0132928Y0082526D03*
X0132928Y0082476D03*
X0132928Y0082426D03*
X0132928Y0082376D03*
X0132978Y0082326D03*
X0132928Y0082626D03*
X0132978Y0082676D03*
X0133878Y0082726D03*
X0134778Y0082726D03*
X0134778Y0082776D03*
X0134778Y0082826D03*
X0134778Y0082876D03*
X0134778Y0082926D03*
X0134778Y0082976D03*
X0134778Y0083026D03*
X0134778Y0083076D03*
X0134778Y0083126D03*
X0134778Y0083176D03*
X0134778Y0083226D03*
X0134778Y0083276D03*
X0134778Y0083326D03*
X0134778Y0083376D03*
X0134778Y0083426D03*
X0134778Y0083476D03*
X0134778Y0083526D03*
X0134778Y0083576D03*
X0134778Y0083626D03*
X0134778Y0083676D03*
X0134778Y0083726D03*
X0135078Y0082726D03*
X0135528Y0082976D03*
X0136028Y0082576D03*
X0136078Y0082526D03*
X0136078Y0082476D03*
X0136128Y0082426D03*
X0136128Y0082376D03*
X0136128Y0082326D03*
X0136128Y0082276D03*
X0136128Y0082226D03*
X0136128Y0082176D03*
X0136178Y0082126D03*
X0136178Y0082076D03*
X0136178Y0082026D03*
X0136178Y0081976D03*
X0136128Y0081926D03*
X0136128Y0081876D03*
X0136128Y0081826D03*
X0136128Y0081776D03*
X0136128Y0081726D03*
X0136128Y0081676D03*
X0136078Y0081576D03*
X0136078Y0081526D03*
X0136028Y0081476D03*
X0135528Y0081076D03*
X0134778Y0081276D03*
X0134778Y0081326D03*
X0134778Y0081826D03*
X0134778Y0081876D03*
X0134778Y0081926D03*
X0134778Y0081976D03*
X0134778Y0082026D03*
X0134778Y0082076D03*
X0134778Y0082126D03*
X0134778Y0082176D03*
X0134778Y0082226D03*
X0133978Y0081676D03*
X0133978Y0081626D03*
X0133978Y0081576D03*
X0133978Y0081526D03*
X0133928Y0081426D03*
X0133928Y0081726D03*
X0132928Y0081326D03*
X0136928Y0081876D03*
X0136928Y0081926D03*
X0136978Y0081826D03*
X0136978Y0081776D03*
X0136978Y0081726D03*
X0136978Y0081676D03*
X0137028Y0081626D03*
X0137028Y0081576D03*
X0137078Y0081476D03*
X0136978Y0082226D03*
X0136978Y0082276D03*
X0136978Y0082326D03*
X0136978Y0082376D03*
X0137028Y0082476D03*
X0137028Y0082526D03*
X0137078Y0082576D03*
X0137628Y0082976D03*
X0138128Y0082626D03*
X0138128Y0082576D03*
X0138178Y0082526D03*
X0138178Y0082476D03*
X0138178Y0082426D03*
X0138228Y0082376D03*
X0138228Y0082326D03*
X0138228Y0082276D03*
X0138228Y0082226D03*
X0139028Y0082226D03*
X0139028Y0082276D03*
X0139028Y0082326D03*
X0139028Y0082376D03*
X0139078Y0082476D03*
X0139078Y0082526D03*
X0139128Y0082576D03*
X0138978Y0081926D03*
X0138978Y0081876D03*
X0139028Y0081826D03*
X0139028Y0081776D03*
X0139028Y0081726D03*
X0139028Y0081676D03*
X0139078Y0081626D03*
X0139078Y0081576D03*
X0139128Y0081476D03*
X0138178Y0081326D03*
X0140228Y0081326D03*
X0141128Y0081326D03*
X0141128Y0081376D03*
X0141128Y0081426D03*
X0141128Y0081476D03*
X0141128Y0081526D03*
X0141128Y0081576D03*
X0141128Y0081626D03*
X0141128Y0081676D03*
X0141128Y0081726D03*
X0141128Y0081776D03*
X0141128Y0081826D03*
X0141128Y0081876D03*
X0141128Y0081926D03*
X0141128Y0081976D03*
X0141128Y0082026D03*
X0141128Y0082076D03*
X0141128Y0082126D03*
X0141128Y0082176D03*
X0141128Y0082226D03*
X0141128Y0082276D03*
X0141128Y0082726D03*
X0141128Y0082776D03*
X0141128Y0082826D03*
X0141128Y0082876D03*
X0141128Y0082926D03*
X0141128Y0082976D03*
X0141128Y0083026D03*
X0141128Y0083076D03*
X0141128Y0083126D03*
X0141128Y0083176D03*
X0141128Y0083226D03*
X0141128Y0083276D03*
X0141128Y0083326D03*
X0141128Y0083376D03*
X0141128Y0083426D03*
X0141128Y0083476D03*
X0141128Y0083526D03*
X0141128Y0083576D03*
X0141128Y0083626D03*
X0141128Y0083676D03*
X0141128Y0083726D03*
X0141478Y0082726D03*
X0142378Y0082576D03*
X0142378Y0082526D03*
X0142428Y0082476D03*
X0142428Y0082426D03*
X0142428Y0082376D03*
X0142428Y0082326D03*
X0142428Y0082276D03*
X0142428Y0082226D03*
X0142428Y0082176D03*
X0142428Y0082126D03*
X0142428Y0082076D03*
X0142428Y0082026D03*
X0142428Y0081976D03*
X0142428Y0081926D03*
X0142428Y0081876D03*
X0142428Y0081826D03*
X0142428Y0081776D03*
X0142428Y0081726D03*
X0142428Y0081676D03*
X0142428Y0081626D03*
X0142428Y0081576D03*
X0142428Y0081526D03*
X0142428Y0081476D03*
X0142428Y0081426D03*
X0142428Y0081376D03*
X0142428Y0081326D03*
X0142428Y0081276D03*
X0142428Y0081226D03*
X0142428Y0081176D03*
X0142428Y0081126D03*
X0143328Y0081126D03*
X0143328Y0081176D03*
X0143328Y0081226D03*
X0143328Y0081276D03*
X0143328Y0081326D03*
X0143328Y0081376D03*
X0143328Y0081426D03*
X0143328Y0081476D03*
X0143328Y0081526D03*
X0143328Y0081576D03*
X0143328Y0081626D03*
X0143328Y0081676D03*
X0143328Y0081726D03*
X0143328Y0081776D03*
X0143328Y0081826D03*
X0143328Y0081876D03*
X0143328Y0081926D03*
X0143328Y0081976D03*
X0143328Y0082026D03*
X0143328Y0082076D03*
X0143328Y0082126D03*
X0143328Y0082176D03*
X0143328Y0082226D03*
X0143328Y0082276D03*
X0143328Y0082326D03*
X0143328Y0082376D03*
X0143328Y0082426D03*
X0143328Y0082476D03*
X0143328Y0082526D03*
X0143328Y0082576D03*
X0143328Y0082626D03*
X0143328Y0082676D03*
X0143328Y0082726D03*
X0143328Y0082776D03*
X0143328Y0082826D03*
X0143328Y0082876D03*
X0143328Y0082926D03*
X0144078Y0082926D03*
X0144078Y0082876D03*
X0144078Y0082826D03*
X0144128Y0082776D03*
X0144128Y0082726D03*
X0144178Y0082676D03*
X0144178Y0082626D03*
X0144178Y0082576D03*
X0144228Y0082526D03*
X0144228Y0082476D03*
X0144278Y0082376D03*
X0144278Y0082326D03*
X0144328Y0082276D03*
X0144328Y0082226D03*
X0144328Y0082176D03*
X0144378Y0082126D03*
X0144378Y0082076D03*
X0144428Y0081976D03*
X0144428Y0081926D03*
X0144478Y0081826D03*
X0144528Y0081726D03*
X0144528Y0081676D03*
X0144578Y0081576D03*
X0144578Y0081526D03*
X0144978Y0081526D03*
X0144978Y0081576D03*
X0145028Y0081676D03*
X0145078Y0081826D03*
X0145128Y0081926D03*
X0145128Y0081976D03*
X0145178Y0082076D03*
X0145178Y0082126D03*
X0145228Y0082176D03*
X0145228Y0082226D03*
X0145278Y0082326D03*
X0145278Y0082376D03*
X0145328Y0082476D03*
X0145328Y0082526D03*
X0145378Y0082576D03*
X0145378Y0082626D03*
X0145378Y0082676D03*
X0145428Y0082726D03*
X0145428Y0082776D03*
X0145478Y0082826D03*
X0145478Y0082876D03*
X0145478Y0082926D03*
X0146178Y0082526D03*
X0146178Y0082476D03*
X0146228Y0082576D03*
X0146128Y0082376D03*
X0146128Y0082326D03*
X0146128Y0082276D03*
X0146128Y0082226D03*
X0146078Y0081926D03*
X0146078Y0081876D03*
X0146128Y0081826D03*
X0146128Y0081776D03*
X0146128Y0081726D03*
X0146128Y0081676D03*
X0146178Y0081626D03*
X0146178Y0081576D03*
X0146228Y0081476D03*
X0147328Y0081326D03*
X0148128Y0081326D03*
X0148178Y0082326D03*
X0148128Y0082376D03*
X0148128Y0082426D03*
X0148128Y0082476D03*
X0148128Y0082526D03*
X0148128Y0082576D03*
X0148128Y0082626D03*
X0148178Y0082676D03*
X0147378Y0082376D03*
X0147378Y0082326D03*
X0147378Y0082276D03*
X0147378Y0082226D03*
X0147328Y0082426D03*
X0147328Y0082476D03*
X0147328Y0082526D03*
X0147278Y0082576D03*
X0147278Y0082626D03*
X0146778Y0082976D03*
X0149078Y0082726D03*
X0149128Y0081726D03*
X0149178Y0081676D03*
X0149178Y0081626D03*
X0149178Y0081576D03*
X0149178Y0081526D03*
X0149128Y0081426D03*
X0150028Y0081426D03*
X0150028Y0081126D03*
X0150978Y0081526D03*
X0150978Y0081576D03*
X0150928Y0081676D03*
X0150928Y0081726D03*
X0150928Y0081776D03*
X0150928Y0081826D03*
X0150878Y0081926D03*
X0150878Y0081976D03*
X0150878Y0082026D03*
X0150878Y0082076D03*
X0150878Y0082126D03*
X0150928Y0082226D03*
X0150928Y0082276D03*
X0150928Y0082326D03*
X0150928Y0082376D03*
X0150978Y0082426D03*
X0150978Y0082476D03*
X0150978Y0082526D03*
X0151028Y0082576D03*
X0151028Y0081476D03*
X0152628Y0081926D03*
X0152628Y0081976D03*
X0152628Y0082026D03*
X0152628Y0082076D03*
X0152628Y0082126D03*
X0152678Y0082226D03*
X0152678Y0082276D03*
X0152678Y0082326D03*
X0152678Y0082376D03*
X0152728Y0082426D03*
X0152728Y0082476D03*
X0152728Y0082526D03*
X0152778Y0082576D03*
X0152678Y0081826D03*
X0152678Y0081776D03*
X0152678Y0081726D03*
X0152678Y0081676D03*
X0152728Y0081626D03*
X0152728Y0081576D03*
X0152778Y0081476D03*
X0152828Y0081426D03*
X0153928Y0081476D03*
X0153978Y0081526D03*
X0153978Y0081576D03*
X0154028Y0081626D03*
X0154028Y0081676D03*
X0154028Y0081726D03*
X0154078Y0081826D03*
X0154078Y0081876D03*
X0154078Y0081926D03*
X0154078Y0081976D03*
X0154078Y0082026D03*
X0154078Y0082076D03*
X0154078Y0082126D03*
X0154078Y0082176D03*
X0154078Y0082226D03*
X0154028Y0082326D03*
X0154028Y0082376D03*
X0154028Y0082426D03*
X0153978Y0082476D03*
X0153978Y0082526D03*
X0153928Y0082576D03*
X0154928Y0082726D03*
X0154928Y0082776D03*
X0154928Y0082826D03*
X0154928Y0082276D03*
X0154928Y0082226D03*
X0154928Y0082176D03*
X0154928Y0082126D03*
X0154928Y0082076D03*
X0154928Y0082026D03*
X0154928Y0081976D03*
X0154928Y0081926D03*
X0154928Y0081876D03*
X0154928Y0081826D03*
X0154928Y0081776D03*
X0154928Y0081726D03*
X0154928Y0081676D03*
X0154928Y0081626D03*
X0154928Y0081576D03*
X0154928Y0081526D03*
X0154928Y0081476D03*
X0154928Y0081426D03*
X0154928Y0081376D03*
X0154928Y0081326D03*
X0154928Y0081276D03*
X0154928Y0081226D03*
X0154928Y0081176D03*
X0154928Y0081126D03*
X0156128Y0081126D03*
X0156128Y0081176D03*
X0156128Y0081226D03*
X0156128Y0081276D03*
X0156128Y0081326D03*
X0156128Y0081376D03*
X0156128Y0081426D03*
X0156128Y0081476D03*
X0156128Y0081526D03*
X0156128Y0081576D03*
X0156128Y0081626D03*
X0156128Y0081676D03*
X0156128Y0081726D03*
X0156128Y0081776D03*
X0156128Y0081826D03*
X0156128Y0081876D03*
X0156128Y0081926D03*
X0156128Y0081976D03*
X0156128Y0082026D03*
X0156128Y0082076D03*
X0156128Y0082126D03*
X0156128Y0082176D03*
X0156128Y0082226D03*
X0156128Y0082276D03*
X0156128Y0082326D03*
X0156428Y0082726D03*
X0155678Y0082976D03*
X0157278Y0082626D03*
X0157278Y0082576D03*
X0157328Y0082526D03*
X0157328Y0082476D03*
X0157328Y0082426D03*
X0157328Y0082376D03*
X0157328Y0082326D03*
X0157328Y0082276D03*
X0157328Y0082226D03*
X0157328Y0082176D03*
X0157328Y0082126D03*
X0157328Y0082076D03*
X0157328Y0082026D03*
X0157328Y0081976D03*
X0157328Y0081926D03*
X0157328Y0081876D03*
X0157328Y0081826D03*
X0157328Y0081776D03*
X0157328Y0081726D03*
X0157328Y0081676D03*
X0157328Y0081626D03*
X0157328Y0081576D03*
X0157328Y0081526D03*
X0157328Y0081476D03*
X0157328Y0081426D03*
X0157328Y0081376D03*
X0157328Y0081326D03*
X0157328Y0081276D03*
X0157328Y0081226D03*
X0157328Y0081176D03*
X0157328Y0081126D03*
X0155878Y0086976D03*
X0141128Y0081276D03*
X0141128Y0081226D03*
X0141128Y0081176D03*
X0141128Y0081126D03*
X0140278Y0082226D03*
X0140278Y0082276D03*
X0140278Y0082326D03*
X0140278Y0082376D03*
X0140228Y0082426D03*
X0140228Y0082476D03*
X0140228Y0082526D03*
X0140178Y0082576D03*
X0140178Y0082626D03*
X0139678Y0082976D03*
X0125278Y0082526D03*
X0125128Y0082926D03*
X0122478Y0082526D03*
X0122328Y0082926D03*
X0151478Y0097976D03*
D20*
X0151628Y0098176D03*
X0151678Y0098226D03*
X0151728Y0098276D03*
X0151078Y0098276D03*
X0151078Y0098326D03*
X0151078Y0098376D03*
X0151078Y0098426D03*
X0151078Y0098476D03*
X0151078Y0098526D03*
X0151078Y0098576D03*
X0151078Y0098626D03*
X0151078Y0098676D03*
X0151078Y0098226D03*
X0151078Y0098176D03*
X0151078Y0098126D03*
X0151078Y0098076D03*
X0151078Y0098026D03*
X0151078Y0097976D03*
X0149878Y0097976D03*
X0149878Y0098026D03*
X0149878Y0098076D03*
X0149878Y0098126D03*
X0149878Y0098176D03*
X0149878Y0098226D03*
X0149878Y0098276D03*
X0149878Y0098326D03*
X0149878Y0098376D03*
X0149878Y0098426D03*
X0149878Y0098476D03*
X0149878Y0098526D03*
X0149878Y0098576D03*
X0149878Y0098626D03*
X0149878Y0098676D03*
X0149878Y0097926D03*
X0149878Y0097876D03*
X0149878Y0097826D03*
X0149878Y0097776D03*
X0149878Y0097726D03*
X0149878Y0097676D03*
X0149878Y0097626D03*
X0149878Y0097576D03*
X0149878Y0097526D03*
X0149878Y0097476D03*
X0149878Y0097426D03*
X0149878Y0097376D03*
X0149878Y0097326D03*
X0149878Y0097276D03*
X0149878Y0097226D03*
X0149878Y0097176D03*
X0149878Y0097126D03*
X0149878Y0097076D03*
X0149878Y0097026D03*
X0149878Y0096976D03*
X0149878Y0096926D03*
X0149878Y0096876D03*
X0149878Y0096826D03*
X0149878Y0096776D03*
X0149878Y0096726D03*
X0149878Y0096676D03*
X0149878Y0096626D03*
X0149878Y0096576D03*
X0149878Y0096526D03*
X0149878Y0096476D03*
X0149878Y0096426D03*
X0149878Y0096376D03*
X0149878Y0096326D03*
X0149878Y0096276D03*
X0149878Y0096226D03*
X0149878Y0096176D03*
X0149878Y0096126D03*
X0149878Y0096076D03*
X0149878Y0096026D03*
X0149878Y0094976D03*
X0149878Y0094926D03*
X0149878Y0094876D03*
X0149878Y0094826D03*
X0149878Y0094776D03*
X0149878Y0094726D03*
X0149878Y0094676D03*
X0149878Y0094626D03*
X0147028Y0095176D03*
X0146978Y0095326D03*
X0146978Y0095376D03*
X0146928Y0095476D03*
X0146928Y0095526D03*
X0146928Y0095576D03*
X0146928Y0095626D03*
X0146928Y0095676D03*
X0146928Y0095726D03*
X0146928Y0095776D03*
X0146928Y0095826D03*
X0146928Y0095876D03*
X0146928Y0095926D03*
X0146928Y0095976D03*
X0146928Y0096026D03*
X0146928Y0096076D03*
X0146928Y0096126D03*
X0146928Y0096176D03*
X0146928Y0096226D03*
X0146928Y0096276D03*
X0146928Y0096326D03*
X0146928Y0096376D03*
X0146928Y0096426D03*
X0146928Y0096476D03*
X0146928Y0096526D03*
X0146928Y0096576D03*
X0146928Y0096626D03*
X0146928Y0096676D03*
X0146928Y0096726D03*
X0146928Y0096776D03*
X0146928Y0096826D03*
X0146928Y0096876D03*
X0146928Y0096926D03*
X0146928Y0096976D03*
X0146928Y0097026D03*
X0146928Y0097076D03*
X0146928Y0097126D03*
X0146928Y0097176D03*
X0146928Y0097226D03*
X0146928Y0097276D03*
X0146928Y0097326D03*
X0146928Y0097376D03*
X0146928Y0097426D03*
X0146928Y0097476D03*
X0146928Y0097526D03*
X0146928Y0097576D03*
X0146928Y0097626D03*
X0146928Y0097676D03*
X0146928Y0097726D03*
X0146928Y0097776D03*
X0146928Y0097826D03*
X0146928Y0097876D03*
X0146928Y0097926D03*
X0146928Y0097976D03*
X0146928Y0098026D03*
X0146928Y0098076D03*
X0146928Y0098126D03*
X0146928Y0098176D03*
X0146928Y0098226D03*
X0146928Y0098276D03*
X0146928Y0098326D03*
X0146928Y0098376D03*
X0146928Y0098426D03*
X0146928Y0098476D03*
X0146928Y0098526D03*
X0146928Y0098576D03*
X0146928Y0098626D03*
X0146928Y0098676D03*
X0145778Y0097526D03*
X0145828Y0097376D03*
X0145878Y0097176D03*
X0145878Y0097126D03*
X0145928Y0096726D03*
X0145928Y0096676D03*
X0145928Y0096626D03*
X0145928Y0096576D03*
X0145928Y0096526D03*
X0145928Y0096476D03*
X0145928Y0096426D03*
X0145878Y0096026D03*
X0145878Y0095976D03*
X0145828Y0095776D03*
X0145778Y0095626D03*
X0142778Y0095476D03*
X0142728Y0095576D03*
X0142678Y0095726D03*
X0142678Y0095776D03*
X0142628Y0095926D03*
X0142628Y0095976D03*
X0142578Y0096226D03*
X0142578Y0096276D03*
X0142578Y0096326D03*
X0142578Y0096376D03*
X0142578Y0096426D03*
X0142578Y0096476D03*
X0142578Y0096526D03*
X0142578Y0096576D03*
X0142578Y0096626D03*
X0142578Y0096676D03*
X0142578Y0096726D03*
X0142578Y0096776D03*
X0142578Y0096826D03*
X0142578Y0096876D03*
X0142578Y0096926D03*
X0142628Y0097176D03*
X0142628Y0097226D03*
X0142678Y0097426D03*
X0142728Y0097576D03*
X0138828Y0098576D03*
X0138828Y0098976D03*
X0136228Y0097876D03*
X0136278Y0097726D03*
X0136278Y0097676D03*
X0136278Y0097626D03*
X0136278Y0097576D03*
X0136328Y0097426D03*
X0136328Y0097376D03*
X0136328Y0097326D03*
X0136328Y0097276D03*
X0136328Y0097226D03*
X0136328Y0097176D03*
X0136328Y0097126D03*
X0136328Y0097076D03*
X0136328Y0097026D03*
X0136328Y0096976D03*
X0136328Y0096926D03*
X0136328Y0096876D03*
X0136328Y0096826D03*
X0136328Y0096776D03*
X0136328Y0096726D03*
X0136328Y0096676D03*
X0136328Y0096626D03*
X0136328Y0096576D03*
X0136328Y0096526D03*
X0136328Y0096476D03*
X0136328Y0096426D03*
X0136328Y0096376D03*
X0136328Y0096326D03*
X0136328Y0096276D03*
X0136328Y0096226D03*
X0136328Y0096176D03*
X0136328Y0096126D03*
X0136328Y0096076D03*
X0136328Y0096026D03*
X0136328Y0095976D03*
X0136328Y0095926D03*
X0136328Y0095876D03*
X0136328Y0095826D03*
X0136328Y0095776D03*
X0136328Y0095726D03*
X0136328Y0095676D03*
X0136328Y0095626D03*
X0136328Y0095576D03*
X0136328Y0095526D03*
X0136328Y0095476D03*
X0136328Y0095426D03*
X0136328Y0095376D03*
X0136328Y0095326D03*
X0136328Y0095276D03*
X0136328Y0095226D03*
X0136328Y0095176D03*
X0136328Y0095126D03*
X0136328Y0095076D03*
X0136328Y0095026D03*
X0136328Y0094976D03*
X0136328Y0094926D03*
X0136328Y0094876D03*
X0136328Y0094826D03*
X0136328Y0094776D03*
X0136328Y0094726D03*
X0136328Y0094676D03*
X0136328Y0094626D03*
X0136328Y0094576D03*
X0136328Y0094526D03*
X0136328Y0094476D03*
X0138728Y0094826D03*
X0132178Y0094826D03*
X0129378Y0095726D03*
X0129328Y0095876D03*
X0129328Y0095926D03*
X0129278Y0096176D03*
X0129278Y0096226D03*
X0129278Y0096276D03*
X0129278Y0096326D03*
X0129278Y0096376D03*
X0129278Y0096426D03*
X0129278Y0096476D03*
X0129328Y0097126D03*
X0129328Y0097176D03*
X0129378Y0097376D03*
X0129428Y0097526D03*
X0129478Y0097676D03*
X0129528Y0097776D03*
X0128378Y0097526D03*
X0128328Y0097676D03*
X0128428Y0097326D03*
X0128478Y0097026D03*
X0128478Y0096976D03*
X0128478Y0096926D03*
X0128478Y0096876D03*
X0128478Y0096276D03*
X0128478Y0096226D03*
X0128478Y0096176D03*
X0128478Y0096126D03*
X0128428Y0095876D03*
X0128378Y0095676D03*
X0125828Y0094926D03*
X0125778Y0094976D03*
X0125728Y0095026D03*
X0125278Y0095026D03*
X0125278Y0095076D03*
X0125278Y0094976D03*
X0125278Y0094926D03*
X0125278Y0094876D03*
X0125278Y0094826D03*
X0125278Y0094776D03*
X0125278Y0094726D03*
X0125278Y0094676D03*
X0132328Y0096876D03*
X0132328Y0096926D03*
X0132328Y0096976D03*
X0132328Y0097026D03*
X0132328Y0097076D03*
X0132278Y0097376D03*
X0132278Y0097426D03*
X0132228Y0097576D03*
X0133328Y0098326D03*
X0133328Y0098376D03*
X0133328Y0098426D03*
X0133328Y0098476D03*
X0133328Y0098526D03*
X0133328Y0098576D03*
X0133328Y0098626D03*
X0133328Y0098676D03*
X0133828Y0098176D03*
X0133778Y0098126D03*
X0125828Y0098226D03*
X0125778Y0098176D03*
X0125728Y0098126D03*
X0125278Y0098326D03*
X0125278Y0098376D03*
X0125278Y0098426D03*
X0125278Y0098476D03*
X0125278Y0098526D03*
X0125278Y0098576D03*
X0125278Y0098626D03*
X0125278Y0098676D03*
X0108628Y0094926D03*
X0108228Y0095476D03*
X0108228Y0092676D03*
X0097428Y0094926D03*
X0101278Y0087026D03*
X0097628Y0082876D03*
X0108428Y0082876D03*
X0113628Y0086076D03*
X0122328Y0082826D03*
X0122328Y0082776D03*
X0121678Y0081276D03*
X0121678Y0081226D03*
X0121678Y0081176D03*
X0124478Y0081176D03*
X0124478Y0081226D03*
X0124478Y0081276D03*
X0125128Y0082776D03*
X0125128Y0082826D03*
X0127278Y0081276D03*
X0127278Y0081226D03*
X0127278Y0081176D03*
X0127928Y0082776D03*
X0127928Y0082826D03*
X0129828Y0081376D03*
X0129828Y0081326D03*
X0129828Y0081276D03*
X0129828Y0081226D03*
X0129828Y0081176D03*
X0131028Y0081326D03*
X0131878Y0081326D03*
X0131878Y0082726D03*
X0131028Y0082726D03*
X0133028Y0082726D03*
X0133028Y0082276D03*
X0133478Y0082976D03*
X0134828Y0082576D03*
X0134828Y0082526D03*
X0134828Y0081576D03*
X0134828Y0081526D03*
X0133828Y0081326D03*
X0137178Y0081376D03*
X0137728Y0081076D03*
X0139228Y0081376D03*
X0139778Y0081076D03*
X0141178Y0082526D03*
X0142278Y0082726D03*
X0142328Y0082676D03*
X0144778Y0081226D03*
X0144778Y0081176D03*
X0146328Y0081376D03*
X0146878Y0081076D03*
X0148228Y0082276D03*
X0148228Y0082726D03*
X0148678Y0082976D03*
X0149028Y0081326D03*
X0150028Y0081326D03*
X0150028Y0081376D03*
X0150028Y0081276D03*
X0150028Y0081226D03*
X0150028Y0081176D03*
X0151178Y0081326D03*
X0151178Y0082726D03*
X0152928Y0082726D03*
X0153778Y0082726D03*
X0154978Y0082576D03*
X0154978Y0082526D03*
X0155978Y0082726D03*
X0156178Y0082526D03*
X0157178Y0082726D03*
X0153778Y0081326D03*
X0152928Y0081326D03*
X0146378Y0082726D03*
X0139278Y0082726D03*
X0137228Y0082726D03*
X0159028Y0089226D03*
X0159578Y0094826D03*
X0156778Y0095726D03*
X0156728Y0095876D03*
X0156728Y0095926D03*
X0156678Y0096176D03*
X0156678Y0096226D03*
X0156678Y0096276D03*
X0156678Y0096326D03*
X0156678Y0096376D03*
X0156678Y0096426D03*
X0156678Y0096476D03*
X0156728Y0097126D03*
X0156728Y0097176D03*
X0156778Y0097376D03*
X0156828Y0097526D03*
X0156878Y0097676D03*
X0156928Y0097776D03*
X0156028Y0098376D03*
X0153678Y0097776D03*
X0153628Y0097676D03*
X0153528Y0097426D03*
X0153528Y0097376D03*
X0153478Y0097226D03*
X0153478Y0097176D03*
X0153428Y0096876D03*
X0153428Y0096826D03*
X0153428Y0096776D03*
X0153428Y0096726D03*
X0153428Y0096676D03*
X0153428Y0096626D03*
X0153428Y0096576D03*
X0153428Y0096526D03*
X0153428Y0096476D03*
X0153428Y0096426D03*
X0153428Y0096376D03*
X0153428Y0096326D03*
X0153428Y0096276D03*
X0153428Y0096226D03*
X0153478Y0095926D03*
X0153528Y0095726D03*
X0159728Y0096876D03*
X0159728Y0096926D03*
X0159728Y0096976D03*
X0159728Y0097026D03*
X0159728Y0097076D03*
X0159678Y0097376D03*
X0159678Y0097426D03*
X0159628Y0097576D03*
X0103278Y0104276D03*
D21*
X0103428Y0104126D03*
X0102678Y0104126D03*
X0120528Y0099626D03*
X0123228Y0099676D03*
X0125428Y0097926D03*
X0126178Y0098426D03*
X0127778Y0098376D03*
X0130078Y0098376D03*
X0131578Y0098426D03*
X0133478Y0097976D03*
X0133478Y0097926D03*
X0139328Y0097826D03*
X0141328Y0096876D03*
X0141328Y0094876D03*
X0141228Y0094826D03*
X0143378Y0094776D03*
X0145128Y0094776D03*
X0149728Y0095176D03*
X0151228Y0097876D03*
X0154278Y0098376D03*
X0157478Y0098376D03*
X0158978Y0098426D03*
X0145128Y0098376D03*
X0143378Y0098376D03*
X0126178Y0094726D03*
X0125428Y0095226D03*
X0123228Y0094926D03*
X0120528Y0094976D03*
X0108078Y0092526D03*
X0108428Y0088676D03*
X0113478Y0086276D03*
X0101128Y0087176D03*
X0097628Y0088676D03*
X0092628Y0086276D03*
X0097628Y0082976D03*
X0097278Y0094726D03*
X0098028Y0095676D03*
X0131478Y0082926D03*
X0131478Y0081126D03*
X0135528Y0082926D03*
X0153378Y0082926D03*
X0153378Y0081126D03*
D22*
X0156853Y0082876D03*
X0157503Y0085476D03*
X0154253Y0086776D03*
X0146753Y0082876D03*
X0148553Y0081126D03*
X0141903Y0082876D03*
X0139653Y0082876D03*
X0137603Y0082876D03*
X0133353Y0081126D03*
X0134753Y0086776D03*
X0129303Y0086776D03*
X0123003Y0094826D03*
X0120803Y0094826D03*
X0120803Y0099776D03*
X0123003Y0099776D03*
X0108853Y0094676D03*
X0108003Y0095726D03*
X0101303Y0097026D03*
X0103503Y0104026D03*
X0097653Y0088626D03*
X0101053Y0087276D03*
X0092703Y0086376D03*
X0139553Y0099876D03*
X0141053Y0097026D03*
X0145003Y0098426D03*
X0154403Y0098426D03*
D23*
X0159653Y0094876D03*
X0159103Y0089176D03*
X0156353Y0082676D03*
X0155253Y0082726D03*
X0154903Y0082876D03*
X0154903Y0082926D03*
X0154053Y0082276D03*
X0154053Y0081776D03*
X0152653Y0081876D03*
X0152653Y0082176D03*
X0150903Y0082176D03*
X0150903Y0081876D03*
X0149153Y0081476D03*
X0146153Y0082426D03*
X0145303Y0082426D03*
X0145253Y0082276D03*
X0145153Y0082026D03*
X0145103Y0081876D03*
X0145053Y0081776D03*
X0145053Y0081726D03*
X0145003Y0081626D03*
X0144953Y0081476D03*
X0144953Y0081426D03*
X0144903Y0081376D03*
X0144653Y0081376D03*
X0144603Y0081426D03*
X0144603Y0081476D03*
X0144553Y0081626D03*
X0144503Y0081776D03*
X0144453Y0081876D03*
X0144403Y0082026D03*
X0144253Y0082426D03*
X0143353Y0083326D03*
X0143353Y0083576D03*
X0139053Y0082426D03*
X0137003Y0082426D03*
X0134753Y0081226D03*
X0134753Y0081176D03*
X0134753Y0081126D03*
X0133953Y0081476D03*
X0132153Y0081776D03*
X0132153Y0082276D03*
X0130753Y0082176D03*
X0130753Y0081876D03*
X0128953Y0082426D03*
X0128903Y0082276D03*
X0128853Y0082076D03*
X0128803Y0081926D03*
X0128803Y0081876D03*
X0128753Y0081726D03*
X0128753Y0081676D03*
X0128703Y0081576D03*
X0128703Y0081526D03*
X0128703Y0081476D03*
X0128403Y0081476D03*
X0128403Y0081426D03*
X0128353Y0081576D03*
X0128353Y0081626D03*
X0128303Y0081776D03*
X0128303Y0081826D03*
X0128253Y0081926D03*
X0128253Y0081976D03*
X0128203Y0082076D03*
X0128203Y0082126D03*
X0128153Y0082226D03*
X0128153Y0082276D03*
X0128103Y0082376D03*
X0128103Y0082426D03*
X0128103Y0082476D03*
X0128053Y0082576D03*
X0128053Y0082626D03*
X0127753Y0082576D03*
X0127753Y0082526D03*
X0127753Y0082476D03*
X0127703Y0082426D03*
X0127703Y0082376D03*
X0127703Y0082326D03*
X0127653Y0082226D03*
X0127653Y0082176D03*
X0127603Y0082076D03*
X0127603Y0082026D03*
X0127553Y0081926D03*
X0127553Y0081876D03*
X0127503Y0081776D03*
X0127503Y0081726D03*
X0127503Y0081676D03*
X0127453Y0081626D03*
X0127453Y0081576D03*
X0127453Y0081526D03*
X0127403Y0081426D03*
X0127153Y0081426D03*
X0127103Y0081526D03*
X0127103Y0081576D03*
X0127103Y0081626D03*
X0127053Y0081776D03*
X0127053Y0081826D03*
X0127003Y0081976D03*
X0126953Y0082176D03*
X0126903Y0082326D03*
X0126853Y0082526D03*
X0126803Y0082726D03*
X0126253Y0082826D03*
X0126203Y0082626D03*
X0126153Y0082426D03*
X0126103Y0082276D03*
X0126053Y0082076D03*
X0126003Y0081926D03*
X0126003Y0081876D03*
X0125953Y0081726D03*
X0125953Y0081676D03*
X0125903Y0081576D03*
X0125903Y0081526D03*
X0125903Y0081476D03*
X0125603Y0081476D03*
X0125603Y0081426D03*
X0125553Y0081576D03*
X0125553Y0081626D03*
X0125503Y0081776D03*
X0125503Y0081826D03*
X0125453Y0081926D03*
X0125453Y0081976D03*
X0125403Y0082076D03*
X0125403Y0082126D03*
X0125353Y0082226D03*
X0125353Y0082276D03*
X0125303Y0082376D03*
X0125303Y0082426D03*
X0125303Y0082476D03*
X0125253Y0082576D03*
X0125253Y0082626D03*
X0124953Y0082576D03*
X0124953Y0082526D03*
X0124953Y0082476D03*
X0124903Y0082426D03*
X0124903Y0082376D03*
X0124903Y0082326D03*
X0124853Y0082226D03*
X0124853Y0082176D03*
X0124803Y0082076D03*
X0124803Y0082026D03*
X0124753Y0081926D03*
X0124753Y0081876D03*
X0124703Y0081776D03*
X0124703Y0081726D03*
X0124703Y0081676D03*
X0124653Y0081626D03*
X0124653Y0081576D03*
X0124653Y0081526D03*
X0124603Y0081426D03*
X0124353Y0081426D03*
X0124303Y0081526D03*
X0124303Y0081576D03*
X0124303Y0081626D03*
X0124253Y0081776D03*
X0124253Y0081826D03*
X0124203Y0081976D03*
X0124153Y0082176D03*
X0124103Y0082326D03*
X0124053Y0082526D03*
X0124003Y0082726D03*
X0123453Y0082826D03*
X0123403Y0082626D03*
X0123353Y0082426D03*
X0123303Y0082276D03*
X0123253Y0082076D03*
X0123203Y0081926D03*
X0123203Y0081876D03*
X0123153Y0081726D03*
X0123153Y0081676D03*
X0123103Y0081576D03*
X0123103Y0081526D03*
X0123103Y0081476D03*
X0122803Y0081476D03*
X0122803Y0081426D03*
X0122753Y0081576D03*
X0122753Y0081626D03*
X0122703Y0081776D03*
X0122703Y0081826D03*
X0122653Y0081926D03*
X0122653Y0081976D03*
X0122603Y0082076D03*
X0122603Y0082126D03*
X0122553Y0082226D03*
X0122553Y0082276D03*
X0122503Y0082376D03*
X0122503Y0082426D03*
X0122503Y0082476D03*
X0122453Y0082576D03*
X0122453Y0082626D03*
X0122153Y0082576D03*
X0122153Y0082526D03*
X0122153Y0082476D03*
X0122103Y0082426D03*
X0122103Y0082376D03*
X0122103Y0082326D03*
X0122053Y0082226D03*
X0122053Y0082176D03*
X0122003Y0082076D03*
X0122003Y0082026D03*
X0121953Y0081926D03*
X0121953Y0081876D03*
X0121903Y0081776D03*
X0121903Y0081726D03*
X0121903Y0081676D03*
X0121853Y0081626D03*
X0121853Y0081576D03*
X0121853Y0081526D03*
X0121803Y0081426D03*
X0121553Y0081426D03*
X0121503Y0081526D03*
X0121503Y0081576D03*
X0121503Y0081626D03*
X0121453Y0081776D03*
X0121453Y0081826D03*
X0121403Y0081976D03*
X0121353Y0082176D03*
X0121303Y0082326D03*
X0121253Y0082526D03*
X0121203Y0082726D03*
X0129003Y0082626D03*
X0129053Y0082826D03*
X0108453Y0082826D03*
X0101353Y0086926D03*
X0092403Y0086026D03*
X0132253Y0094876D03*
X0103203Y0104376D03*
D24*
X0102703Y0104176D03*
X0101303Y0097076D03*
X0103053Y0096926D03*
X0108103Y0095626D03*
X0108753Y0094776D03*
X0097303Y0094776D03*
X0105203Y0088276D03*
X0113503Y0086226D03*
X0127653Y0090626D03*
X0133103Y0090626D03*
X0131053Y0094376D03*
X0130003Y0094826D03*
X0127753Y0094776D03*
X0125403Y0095276D03*
X0125403Y0095326D03*
X0123353Y0095026D03*
X0123303Y0094976D03*
X0120453Y0095026D03*
X0120403Y0095076D03*
X0125403Y0097826D03*
X0125403Y0097876D03*
X0123353Y0099576D03*
X0123303Y0099626D03*
X0120453Y0099576D03*
X0120403Y0099526D03*
X0133453Y0097876D03*
X0135853Y0098376D03*
X0139253Y0097876D03*
X0141403Y0096826D03*
X0141453Y0096776D03*
X0141403Y0094926D03*
X0143303Y0094826D03*
X0145203Y0094826D03*
X0147353Y0094776D03*
X0149753Y0095226D03*
X0151203Y0097776D03*
X0151203Y0097826D03*
X0151953Y0098426D03*
X0155903Y0098426D03*
X0157403Y0094826D03*
X0158453Y0094376D03*
X0154153Y0094826D03*
X0152603Y0090626D03*
X0157803Y0090626D03*
X0156053Y0086876D03*
X0154353Y0086826D03*
X0155653Y0082926D03*
X0156853Y0082926D03*
X0148603Y0082076D03*
X0146753Y0082926D03*
X0141903Y0082926D03*
X0139653Y0082926D03*
X0137603Y0082926D03*
X0135503Y0081126D03*
X0133403Y0082076D03*
X0134853Y0086826D03*
X0129403Y0086826D03*
X0145203Y0098326D03*
X0139353Y0099776D03*
D25*
X0143478Y0098426D03*
X0139578Y0097676D03*
X0139478Y0097726D03*
X0141128Y0094776D03*
X0144978Y0094726D03*
X0154378Y0094726D03*
X0157628Y0094726D03*
X0159378Y0094726D03*
X0156128Y0086826D03*
X0152828Y0085476D03*
X0151628Y0082926D03*
X0148678Y0082926D03*
X0146878Y0081126D03*
X0139778Y0081126D03*
X0137728Y0081126D03*
X0135528Y0081176D03*
X0135528Y0082876D03*
X0133478Y0082926D03*
X0133328Y0085476D03*
X0127878Y0085476D03*
X0113428Y0086326D03*
X0108028Y0092476D03*
X0098078Y0095726D03*
X0097228Y0094676D03*
X0092678Y0086326D03*
X0123128Y0094876D03*
X0125478Y0098076D03*
X0127678Y0098426D03*
X0133528Y0098076D03*
X0131978Y0094726D03*
X0130228Y0094726D03*
X0127628Y0094726D03*
X0123128Y0099726D03*
X0102628Y0104076D03*
X0155678Y0082876D03*
D26*
X0151603Y0081126D03*
X0158903Y0089326D03*
X0157503Y0094776D03*
X0154253Y0094776D03*
X0149703Y0095076D03*
X0149703Y0095126D03*
X0149003Y0094726D03*
X0147453Y0094726D03*
X0143503Y0094726D03*
X0140053Y0094376D03*
X0141253Y0096926D03*
X0141153Y0096976D03*
X0139403Y0097776D03*
X0135753Y0098426D03*
X0134203Y0098426D03*
X0133503Y0098026D03*
X0130203Y0098426D03*
X0125453Y0098026D03*
X0125453Y0097976D03*
X0120703Y0099726D03*
X0120603Y0099676D03*
X0120603Y0094926D03*
X0120703Y0094876D03*
X0125453Y0095126D03*
X0125453Y0095176D03*
X0130103Y0094776D03*
X0139453Y0099826D03*
X0141503Y0099826D03*
X0151253Y0097926D03*
X0157603Y0098426D03*
X0108803Y0094726D03*
X0108053Y0095676D03*
X0101103Y0087226D03*
X0108453Y0082976D03*
X0103453Y0104076D03*
D27*
X0102578Y0104026D03*
X0098128Y0095776D03*
X0097178Y0094626D03*
X0106378Y0092676D03*
X0107978Y0092426D03*
X0108878Y0094626D03*
X0107978Y0095776D03*
X0108428Y0088626D03*
X0113378Y0086376D03*
X0108428Y0083026D03*
X0097628Y0083026D03*
X0131478Y0081176D03*
X0143078Y0091126D03*
X0138978Y0094726D03*
X0139778Y0097576D03*
X0139678Y0097626D03*
X0140978Y0097076D03*
X0153378Y0081176D03*
D28*
X0153353Y0081226D03*
X0153353Y0082826D03*
X0151553Y0082776D03*
X0151553Y0081276D03*
X0148553Y0081176D03*
X0146903Y0081176D03*
X0148703Y0082876D03*
X0155653Y0082776D03*
X0156853Y0082776D03*
X0156253Y0086776D03*
X0144253Y0094426D03*
X0140503Y0097276D03*
X0140253Y0097376D03*
X0140153Y0097426D03*
X0144253Y0098726D03*
X0152653Y0098726D03*
X0158303Y0098726D03*
X0130903Y0098726D03*
X0126903Y0094426D03*
X0120953Y0094776D03*
X0120953Y0099826D03*
X0103603Y0103926D03*
X0102503Y0103926D03*
X0101303Y0096976D03*
X0098203Y0095876D03*
X0097103Y0094526D03*
X0097653Y0088576D03*
X0100953Y0087376D03*
X0092803Y0086476D03*
X0113303Y0086476D03*
X0131453Y0082826D03*
X0131453Y0081226D03*
X0133353Y0081176D03*
X0133503Y0082876D03*
X0137753Y0081176D03*
X0139803Y0081176D03*
D29*
X0131453Y0082876D03*
X0151603Y0082876D03*
X0151603Y0081176D03*
X0153353Y0082876D03*
X0155653Y0082826D03*
X0156853Y0082826D03*
X0158853Y0089376D03*
X0143103Y0092526D03*
X0141003Y0094726D03*
X0140853Y0097126D03*
X0140753Y0097176D03*
X0139903Y0097526D03*
X0105203Y0088326D03*
X0101003Y0087326D03*
X0092753Y0086426D03*
X0099853Y0092626D03*
X0098153Y0095826D03*
X0102553Y0103976D03*
X0103553Y0103976D03*
D30*
X0102453Y0103876D03*
X0101303Y0096926D03*
X0098253Y0095926D03*
X0097053Y0094476D03*
X0107853Y0095926D03*
X0109003Y0094476D03*
X0113253Y0086526D03*
X0131453Y0082776D03*
X0131453Y0081276D03*
X0133353Y0081226D03*
X0133453Y0082776D03*
X0139453Y0090576D03*
X0143103Y0091176D03*
X0148203Y0094426D03*
X0148653Y0082776D03*
X0148553Y0081226D03*
X0153353Y0081276D03*
X0153353Y0082776D03*
X0092853Y0086526D03*
D31*
X0108428Y0088576D03*
X0113328Y0086426D03*
X0107928Y0092376D03*
X0108928Y0094576D03*
X0107928Y0095826D03*
X0097128Y0094576D03*
X0122878Y0094776D03*
X0122878Y0099826D03*
X0140028Y0097476D03*
X0140628Y0097226D03*
X0141378Y0099876D03*
X0141878Y0082826D03*
X0139678Y0082826D03*
X0137628Y0082826D03*
X0135528Y0082826D03*
X0135528Y0081226D03*
X0146778Y0082826D03*
X0151578Y0082826D03*
X0151578Y0081226D03*
D32*
X0148578Y0081276D03*
X0146878Y0081226D03*
X0139778Y0081226D03*
X0137728Y0081226D03*
X0133378Y0081276D03*
X0143078Y0092476D03*
X0152578Y0098676D03*
X0155228Y0098726D03*
X0158728Y0089426D03*
X0108428Y0088526D03*
X0105228Y0088376D03*
X0100878Y0087476D03*
X0092878Y0086576D03*
X0099828Y0092576D03*
X0103028Y0093776D03*
X0103678Y0103826D03*
D33*
X0103628Y0103876D03*
X0107878Y0095876D03*
X0108978Y0094526D03*
X0106378Y0092626D03*
X0100928Y0087426D03*
X0097628Y0083076D03*
X0108428Y0083076D03*
X0129178Y0086726D03*
X0134628Y0086726D03*
X0135528Y0082776D03*
X0135528Y0081276D03*
X0133478Y0082826D03*
X0137628Y0082776D03*
X0139678Y0082776D03*
X0141878Y0082776D03*
X0146778Y0082776D03*
X0148678Y0082826D03*
X0154128Y0086726D03*
X0140378Y0097326D03*
X0135028Y0098726D03*
X0126928Y0098726D03*
D34*
X0121903Y0094426D03*
X0109053Y0094426D03*
X0107803Y0095976D03*
X0098303Y0095976D03*
X0097003Y0094426D03*
X0097653Y0088526D03*
X0108453Y0083126D03*
X0113203Y0086576D03*
X0137703Y0081276D03*
X0139753Y0081276D03*
X0146853Y0081276D03*
X0155203Y0094426D03*
X0152503Y0098626D03*
X0102403Y0103826D03*
D35*
X0103328Y0104226D03*
X0119778Y0098626D03*
X0119828Y0098726D03*
X0119878Y0098826D03*
X0119928Y0098926D03*
X0119978Y0099026D03*
X0120028Y0099076D03*
X0120028Y0099126D03*
X0120078Y0099176D03*
X0120128Y0099226D03*
X0119728Y0098476D03*
X0119678Y0098276D03*
X0119628Y0098026D03*
X0119578Y0097576D03*
X0119578Y0097526D03*
X0119578Y0097476D03*
X0119578Y0097426D03*
X0119578Y0097176D03*
X0119578Y0097126D03*
X0119578Y0097076D03*
X0119578Y0097026D03*
X0119628Y0096576D03*
X0119678Y0096326D03*
X0119828Y0095876D03*
X0119878Y0095776D03*
X0119928Y0095676D03*
X0119978Y0095576D03*
X0120028Y0095526D03*
X0120028Y0095476D03*
X0120078Y0095426D03*
X0120128Y0095376D03*
X0123578Y0095226D03*
X0123628Y0095276D03*
X0123678Y0095326D03*
X0123728Y0095426D03*
X0123778Y0095476D03*
X0123828Y0095526D03*
X0123828Y0095576D03*
X0123878Y0095626D03*
X0123928Y0095726D03*
X0123978Y0095826D03*
X0124028Y0095976D03*
X0124128Y0096276D03*
X0124228Y0096876D03*
X0124228Y0097726D03*
X0124128Y0098326D03*
X0123978Y0098776D03*
X0123928Y0098876D03*
X0123878Y0098976D03*
X0123828Y0099076D03*
X0123778Y0099126D03*
X0123728Y0099176D03*
X0123728Y0099226D03*
X0123678Y0099276D03*
X0123628Y0099326D03*
X0125328Y0097476D03*
X0125328Y0097426D03*
X0125328Y0097376D03*
X0125328Y0097326D03*
X0125978Y0098326D03*
X0126928Y0098776D03*
X0128028Y0098176D03*
X0128078Y0098126D03*
X0128128Y0098076D03*
X0128178Y0097976D03*
X0129678Y0098026D03*
X0129728Y0098076D03*
X0129778Y0098126D03*
X0129828Y0098176D03*
X0131878Y0098226D03*
X0131928Y0098176D03*
X0131978Y0098126D03*
X0132028Y0098026D03*
X0133378Y0097526D03*
X0133378Y0097476D03*
X0133378Y0097426D03*
X0133378Y0097376D03*
X0133928Y0098276D03*
X0136028Y0098226D03*
X0136078Y0098176D03*
X0138928Y0098226D03*
X0138978Y0098176D03*
X0139028Y0098076D03*
X0138928Y0099326D03*
X0138978Y0099426D03*
X0139028Y0099476D03*
X0139078Y0099526D03*
X0141578Y0099776D03*
X0143028Y0098076D03*
X0142978Y0098026D03*
X0142928Y0097976D03*
X0141678Y0096526D03*
X0141728Y0096476D03*
X0141728Y0096426D03*
X0141778Y0096376D03*
X0141778Y0096326D03*
X0141828Y0096176D03*
X0141728Y0095326D03*
X0141678Y0095226D03*
X0141628Y0095176D03*
X0142878Y0095276D03*
X0142978Y0095126D03*
X0143028Y0095076D03*
X0143078Y0095026D03*
X0144228Y0094376D03*
X0145428Y0095026D03*
X0145478Y0095076D03*
X0145528Y0095126D03*
X0145578Y0095226D03*
X0145628Y0095276D03*
X0145678Y0095376D03*
X0147178Y0094926D03*
X0147228Y0094876D03*
X0148178Y0094376D03*
X0149228Y0094826D03*
X0149828Y0095526D03*
X0149828Y0095576D03*
X0149828Y0095626D03*
X0149828Y0095676D03*
X0151128Y0097326D03*
X0151128Y0097376D03*
X0151128Y0097426D03*
X0151128Y0097476D03*
X0152628Y0098776D03*
X0153878Y0098076D03*
X0153928Y0098126D03*
X0153978Y0098176D03*
X0157078Y0098026D03*
X0157128Y0098076D03*
X0157178Y0098126D03*
X0157228Y0098176D03*
X0159278Y0098226D03*
X0159328Y0098176D03*
X0159378Y0098126D03*
X0159428Y0098026D03*
X0157028Y0095176D03*
X0157078Y0095126D03*
X0157128Y0095076D03*
X0153878Y0095076D03*
X0153828Y0095126D03*
X0153778Y0095176D03*
X0153778Y0095226D03*
X0153728Y0095276D03*
X0153678Y0095376D03*
X0145678Y0097776D03*
X0145628Y0097876D03*
X0145528Y0098026D03*
X0145478Y0098076D03*
X0145428Y0098126D03*
X0143078Y0092576D03*
X0129728Y0095076D03*
X0129678Y0095126D03*
X0129628Y0095176D03*
X0128128Y0095126D03*
X0128078Y0095076D03*
X0128028Y0095026D03*
X0126928Y0094376D03*
X0125328Y0095676D03*
X0125328Y0095726D03*
X0125328Y0095776D03*
X0125328Y0095826D03*
X0125328Y0095876D03*
X0125328Y0095926D03*
X0108678Y0094876D03*
X0108178Y0095526D03*
X0108178Y0092626D03*
X0108428Y0088726D03*
X0101228Y0087076D03*
X0097628Y0088726D03*
X0092528Y0086176D03*
X0101328Y0097126D03*
X0122328Y0082676D03*
X0122928Y0081376D03*
X0121678Y0081376D03*
X0121678Y0081326D03*
X0124478Y0081326D03*
X0124478Y0081376D03*
X0125728Y0081376D03*
X0125128Y0082676D03*
X0127278Y0081376D03*
X0127278Y0081326D03*
X0128528Y0081376D03*
X0127928Y0082676D03*
X0133728Y0081926D03*
X0134878Y0082676D03*
X0144778Y0081326D03*
X0144778Y0081276D03*
X0148928Y0081926D03*
X0155028Y0082676D03*
X0156178Y0082626D03*
D36*
X0151978Y0081326D03*
X0154578Y0086976D03*
X0155828Y0087026D03*
X0156128Y0094826D03*
X0153028Y0098426D03*
X0141728Y0099676D03*
X0138628Y0094876D03*
X0135078Y0086976D03*
X0129628Y0086976D03*
X0127778Y0082626D03*
X0127428Y0081476D03*
X0124978Y0082626D03*
X0124628Y0081476D03*
X0122178Y0082626D03*
X0121828Y0081476D03*
X0113728Y0085976D03*
X0108428Y0088826D03*
X0108328Y0092776D03*
X0108528Y0095026D03*
X0108328Y0095376D03*
X0101328Y0097226D03*
X0097778Y0095376D03*
X0097528Y0095026D03*
X0102928Y0104426D03*
X0097628Y0082826D03*
D37*
X0108453Y0082926D03*
X0113553Y0086176D03*
X0108703Y0094826D03*
X0108153Y0095576D03*
X0097953Y0095576D03*
X0097353Y0094826D03*
X0102753Y0104226D03*
X0120153Y0099276D03*
X0120203Y0099326D03*
X0120253Y0099376D03*
X0120303Y0099426D03*
X0123553Y0099426D03*
X0123603Y0099376D03*
X0125353Y0097676D03*
X0125353Y0097626D03*
X0125353Y0097576D03*
X0125353Y0097526D03*
X0126053Y0098376D03*
X0128003Y0098226D03*
X0129853Y0098226D03*
X0131753Y0098326D03*
X0131803Y0098276D03*
X0133403Y0097676D03*
X0133403Y0097626D03*
X0133403Y0097576D03*
X0134003Y0098326D03*
X0135053Y0098776D03*
X0136003Y0098276D03*
X0139003Y0098126D03*
X0139103Y0098026D03*
X0139103Y0099576D03*
X0139153Y0099626D03*
X0139203Y0099676D03*
X0143053Y0098126D03*
X0143103Y0098176D03*
X0143153Y0098226D03*
X0144253Y0098776D03*
X0145403Y0098176D03*
X0141653Y0096576D03*
X0141603Y0096626D03*
X0141553Y0096676D03*
X0141603Y0095126D03*
X0141553Y0095076D03*
X0141503Y0095026D03*
X0141453Y0094976D03*
X0143103Y0094976D03*
X0143153Y0094926D03*
X0145353Y0094926D03*
X0145403Y0094976D03*
X0147303Y0094826D03*
X0149803Y0095426D03*
X0149803Y0095476D03*
X0151153Y0097526D03*
X0151153Y0097576D03*
X0151153Y0097626D03*
X0151853Y0098376D03*
X0154053Y0098226D03*
X0154103Y0098276D03*
X0157253Y0098226D03*
X0159153Y0098326D03*
X0159203Y0098276D03*
X0157153Y0095026D03*
X0157203Y0094976D03*
X0157253Y0094926D03*
X0159503Y0094776D03*
X0153953Y0094976D03*
X0153903Y0095026D03*
X0139453Y0090626D03*
X0132103Y0094776D03*
X0129853Y0094926D03*
X0129803Y0094976D03*
X0129753Y0095026D03*
X0128003Y0094976D03*
X0127953Y0094926D03*
X0127903Y0094876D03*
X0125953Y0094826D03*
X0125353Y0095526D03*
X0125353Y0095576D03*
X0125353Y0095626D03*
X0123703Y0095376D03*
X0120303Y0095176D03*
X0120253Y0095226D03*
X0120203Y0095276D03*
X0120153Y0095326D03*
X0141253Y0082676D03*
X0134903Y0081376D03*
X0133603Y0081976D03*
X0133303Y0082126D03*
X0133203Y0082176D03*
X0148403Y0082176D03*
X0148503Y0082126D03*
X0148803Y0081976D03*
D38*
X0146728Y0081976D03*
X0146728Y0082026D03*
X0146728Y0082076D03*
X0146728Y0082126D03*
X0139628Y0082126D03*
X0139628Y0082076D03*
X0139628Y0082026D03*
X0139628Y0081976D03*
X0137578Y0081976D03*
X0137578Y0082026D03*
X0137578Y0082076D03*
X0137578Y0082126D03*
X0146228Y0087826D03*
X0146178Y0087976D03*
X0146178Y0088026D03*
X0146128Y0088126D03*
X0146128Y0088176D03*
X0146078Y0088226D03*
X0146078Y0088276D03*
X0146078Y0088326D03*
X0146028Y0088426D03*
X0145978Y0088576D03*
X0148128Y0087926D03*
X0148128Y0087876D03*
X0148128Y0087826D03*
X0148078Y0087726D03*
X0148078Y0087676D03*
X0148028Y0087576D03*
X0148178Y0087976D03*
X0148178Y0088026D03*
X0148228Y0088126D03*
X0148228Y0088176D03*
X0154078Y0089176D03*
X0154128Y0089076D03*
X0154128Y0089026D03*
X0154178Y0088926D03*
X0154178Y0088876D03*
X0154178Y0088826D03*
X0154178Y0088776D03*
X0155228Y0094476D03*
X0134678Y0088926D03*
X0134678Y0088876D03*
X0134678Y0088826D03*
X0134678Y0088776D03*
X0134628Y0089026D03*
X0134628Y0089076D03*
X0134578Y0089176D03*
X0129228Y0088926D03*
X0129228Y0088876D03*
X0129228Y0088826D03*
X0129228Y0088776D03*
X0129178Y0089026D03*
X0129178Y0089076D03*
X0129128Y0089176D03*
X0126928Y0094526D03*
X0126928Y0098626D03*
X0109228Y0094226D03*
X0107628Y0096176D03*
X0099878Y0092476D03*
X0096828Y0094226D03*
X0108428Y0088426D03*
X0113028Y0086776D03*
X0108428Y0083226D03*
X0097628Y0083226D03*
X0102228Y0103626D03*
D39*
X0103378Y0104176D03*
X0120328Y0099476D03*
X0121928Y0100226D03*
X0123428Y0099526D03*
X0123478Y0099476D03*
X0125378Y0097776D03*
X0125378Y0097726D03*
X0125378Y0095476D03*
X0125378Y0095426D03*
X0125378Y0095376D03*
X0126028Y0094776D03*
X0127828Y0094826D03*
X0129928Y0094876D03*
X0133428Y0097726D03*
X0133428Y0097776D03*
X0133428Y0097826D03*
X0134078Y0098376D03*
X0135928Y0098326D03*
X0139128Y0097976D03*
X0139178Y0097926D03*
X0139278Y0099726D03*
X0140428Y0100226D03*
X0143228Y0098276D03*
X0143278Y0098326D03*
X0145278Y0098276D03*
X0145328Y0098226D03*
X0141528Y0096726D03*
X0143228Y0094876D03*
X0145278Y0094876D03*
X0149128Y0094776D03*
X0149778Y0095276D03*
X0149778Y0095326D03*
X0149778Y0095376D03*
X0151178Y0097676D03*
X0151178Y0097726D03*
X0154178Y0098326D03*
X0155228Y0098776D03*
X0157328Y0098276D03*
X0157378Y0098326D03*
X0159078Y0098376D03*
X0157328Y0094876D03*
X0155928Y0094726D03*
X0155178Y0094376D03*
X0154078Y0094876D03*
X0154028Y0094926D03*
X0158978Y0089276D03*
X0148728Y0082026D03*
X0133528Y0082026D03*
X0108128Y0092576D03*
X0099828Y0092676D03*
X0097978Y0095626D03*
X0101178Y0087126D03*
X0097628Y0082926D03*
X0092578Y0086226D03*
X0120328Y0095126D03*
X0121928Y0094376D03*
X0123428Y0095076D03*
X0123478Y0095126D03*
X0123528Y0095176D03*
X0127878Y0098326D03*
X0127928Y0098276D03*
X0129928Y0098276D03*
X0129978Y0098326D03*
X0131678Y0098376D03*
X0138828Y0094776D03*
D40*
X0143103Y0092326D03*
X0143103Y0091326D03*
X0146153Y0088076D03*
X0146203Y0087926D03*
X0146203Y0087876D03*
X0146253Y0087776D03*
X0146253Y0087726D03*
X0146303Y0087676D03*
X0146303Y0087626D03*
X0146303Y0087576D03*
X0146353Y0087476D03*
X0146353Y0087426D03*
X0147953Y0087376D03*
X0147953Y0087326D03*
X0147953Y0087276D03*
X0148003Y0087426D03*
X0148003Y0087476D03*
X0148003Y0087526D03*
X0148053Y0087626D03*
X0148103Y0087776D03*
X0154203Y0088676D03*
X0154203Y0088726D03*
X0154153Y0088976D03*
X0146753Y0082176D03*
X0139653Y0082176D03*
X0137603Y0082176D03*
X0134703Y0088676D03*
X0134703Y0088726D03*
X0134653Y0088976D03*
X0129253Y0088726D03*
X0129253Y0088676D03*
X0129203Y0088976D03*
X0130903Y0098626D03*
X0155253Y0098676D03*
X0158303Y0098626D03*
X0105253Y0088476D03*
X0100703Y0087676D03*
X0097653Y0088426D03*
X0093053Y0086776D03*
X0098453Y0096176D03*
X0103853Y0103626D03*
D41*
X0103728Y0103776D03*
X0102378Y0103776D03*
X0098328Y0096026D03*
X0100828Y0087526D03*
X0092928Y0086626D03*
X0097628Y0083126D03*
X0131078Y0094426D03*
X0130878Y0098676D03*
X0140478Y0100176D03*
X0152478Y0098576D03*
X0158278Y0098676D03*
X0158478Y0094426D03*
X0156378Y0086726D03*
X0121928Y0100176D03*
D42*
X0126928Y0098676D03*
X0127678Y0090576D03*
X0133128Y0090576D03*
X0113128Y0086676D03*
X0108428Y0088476D03*
X0105228Y0088426D03*
X0100778Y0087576D03*
X0097628Y0088476D03*
X0092978Y0086676D03*
X0097628Y0083176D03*
X0099878Y0092526D03*
X0096928Y0094326D03*
X0098378Y0096076D03*
X0103028Y0096876D03*
X0102328Y0103726D03*
X0152628Y0090576D03*
D43*
X0157803Y0090576D03*
X0148203Y0094476D03*
X0143103Y0091276D03*
X0139453Y0090526D03*
X0146403Y0087276D03*
X0146403Y0087226D03*
X0146453Y0087126D03*
X0147903Y0087126D03*
X0144253Y0098676D03*
X0135003Y0098676D03*
X0152403Y0098476D03*
X0109153Y0094326D03*
X0107703Y0096076D03*
X0103803Y0103676D03*
X0093003Y0086726D03*
X0108453Y0083176D03*
D44*
X0097628Y0083276D03*
X0093178Y0086926D03*
X0106328Y0092426D03*
X0109328Y0094126D03*
X0107528Y0096276D03*
X0120428Y0090676D03*
X0120428Y0090626D03*
X0120428Y0090576D03*
X0120428Y0090526D03*
X0120428Y0090476D03*
X0120428Y0090426D03*
X0120428Y0090376D03*
X0120428Y0090326D03*
X0120428Y0090276D03*
X0120428Y0090226D03*
X0120428Y0090176D03*
X0120428Y0090126D03*
X0120428Y0090076D03*
X0120428Y0090026D03*
X0120428Y0089976D03*
X0120428Y0089926D03*
X0120428Y0089876D03*
X0120428Y0089826D03*
X0120428Y0089776D03*
X0120428Y0089726D03*
X0120428Y0089676D03*
X0120428Y0089626D03*
X0120428Y0089576D03*
X0120428Y0088226D03*
X0120428Y0088176D03*
X0120428Y0088126D03*
X0120428Y0088076D03*
X0120428Y0088026D03*
X0120428Y0087976D03*
X0120428Y0087926D03*
X0120428Y0087876D03*
X0120428Y0087826D03*
X0120428Y0087776D03*
X0120428Y0087726D03*
X0120428Y0087676D03*
X0120428Y0087626D03*
X0120428Y0087576D03*
X0120428Y0087526D03*
X0120428Y0087476D03*
X0120428Y0087426D03*
X0120428Y0087376D03*
X0120428Y0087326D03*
X0120428Y0087276D03*
X0120428Y0087226D03*
X0120428Y0087176D03*
X0120428Y0087126D03*
X0120428Y0087076D03*
X0120428Y0087026D03*
X0120428Y0086976D03*
X0120428Y0086926D03*
X0123628Y0087726D03*
X0123628Y0087776D03*
X0123628Y0087826D03*
X0123428Y0089826D03*
X0123478Y0089876D03*
X0123478Y0089926D03*
X0123478Y0089976D03*
X0123528Y0090076D03*
X0123528Y0090126D03*
X0123528Y0090176D03*
X0123528Y0090226D03*
X0123528Y0090276D03*
X0126228Y0089176D03*
X0126228Y0089126D03*
X0126278Y0089226D03*
X0126178Y0089026D03*
X0126128Y0088826D03*
X0127678Y0090526D03*
X0128978Y0089376D03*
X0131578Y0088826D03*
X0131628Y0089026D03*
X0131678Y0089126D03*
X0131678Y0089176D03*
X0131728Y0089226D03*
X0133128Y0090526D03*
X0134428Y0089376D03*
X0137178Y0088476D03*
X0137178Y0088426D03*
X0137178Y0088376D03*
X0137178Y0088326D03*
X0137178Y0088276D03*
X0137178Y0088226D03*
X0137178Y0088176D03*
X0137178Y0088126D03*
X0137178Y0088076D03*
X0137178Y0088026D03*
X0137178Y0087976D03*
X0137178Y0087926D03*
X0137178Y0087876D03*
X0137178Y0087826D03*
X0140328Y0088476D03*
X0140328Y0088526D03*
X0140328Y0088576D03*
X0140328Y0088626D03*
X0140328Y0088676D03*
X0140328Y0088726D03*
X0140328Y0088776D03*
X0143078Y0088776D03*
X0143078Y0088826D03*
X0143078Y0088876D03*
X0143078Y0088926D03*
X0143078Y0088976D03*
X0143078Y0089026D03*
X0143078Y0089076D03*
X0143078Y0089126D03*
X0143078Y0089176D03*
X0143078Y0089226D03*
X0143078Y0089276D03*
X0143078Y0089326D03*
X0143078Y0089376D03*
X0143078Y0089426D03*
X0143078Y0089476D03*
X0143078Y0089526D03*
X0143078Y0089576D03*
X0143078Y0089626D03*
X0143078Y0089676D03*
X0143078Y0089726D03*
X0143078Y0089776D03*
X0143078Y0089826D03*
X0143078Y0089876D03*
X0143078Y0089926D03*
X0143078Y0089976D03*
X0143078Y0090026D03*
X0143078Y0090076D03*
X0143078Y0090126D03*
X0143078Y0090176D03*
X0143078Y0090226D03*
X0143078Y0090276D03*
X0143078Y0090326D03*
X0143078Y0090376D03*
X0143078Y0090426D03*
X0143078Y0090476D03*
X0143078Y0090526D03*
X0143078Y0090576D03*
X0143078Y0091526D03*
X0143078Y0091576D03*
X0143078Y0092076D03*
X0143078Y0092126D03*
X0145328Y0090576D03*
X0145328Y0090526D03*
X0145378Y0090426D03*
X0145378Y0090376D03*
X0145428Y0090276D03*
X0145428Y0090226D03*
X0145478Y0090126D03*
X0145478Y0090076D03*
X0145528Y0089976D03*
X0145528Y0089926D03*
X0143078Y0088726D03*
X0143078Y0088676D03*
X0143078Y0088626D03*
X0143078Y0088576D03*
X0143078Y0088526D03*
X0143078Y0088476D03*
X0143078Y0088426D03*
X0143078Y0088376D03*
X0143078Y0088326D03*
X0143078Y0088276D03*
X0143078Y0088226D03*
X0143078Y0088176D03*
X0143078Y0088126D03*
X0143078Y0088076D03*
X0143078Y0088026D03*
X0143078Y0087976D03*
X0143078Y0087926D03*
X0143078Y0087876D03*
X0143078Y0087826D03*
X0143078Y0087776D03*
X0143078Y0087726D03*
X0143078Y0087676D03*
X0143078Y0087626D03*
X0143078Y0087576D03*
X0143078Y0087526D03*
X0143078Y0087476D03*
X0143078Y0087426D03*
X0143078Y0087376D03*
X0143078Y0087326D03*
X0143078Y0087276D03*
X0143078Y0087226D03*
X0143078Y0087176D03*
X0143078Y0087126D03*
X0143078Y0087076D03*
X0143078Y0087026D03*
X0143078Y0086976D03*
X0143078Y0086926D03*
X0143078Y0086876D03*
X0143078Y0086826D03*
X0143078Y0086776D03*
X0143078Y0086726D03*
X0143078Y0086676D03*
X0143078Y0086626D03*
X0143078Y0086576D03*
X0143078Y0086526D03*
X0143078Y0086476D03*
X0143078Y0086426D03*
X0143078Y0086376D03*
X0143078Y0086326D03*
X0143078Y0086276D03*
X0143078Y0086226D03*
X0143078Y0086176D03*
X0143078Y0086126D03*
X0143078Y0086076D03*
X0143078Y0086026D03*
X0143078Y0085976D03*
X0143078Y0085926D03*
X0143078Y0085876D03*
X0143078Y0085826D03*
X0143078Y0085776D03*
X0143078Y0085726D03*
X0143078Y0085676D03*
X0143078Y0085626D03*
X0143078Y0085576D03*
X0147178Y0085626D03*
X0147178Y0085676D03*
X0151128Y0087126D03*
X0151178Y0087026D03*
X0151078Y0088826D03*
X0151128Y0089026D03*
X0151178Y0089126D03*
X0151178Y0089176D03*
X0151228Y0089226D03*
X0152628Y0090526D03*
X0153928Y0089376D03*
X0156628Y0089426D03*
X0156628Y0089026D03*
X0149028Y0090476D03*
X0149028Y0090526D03*
X0148978Y0090426D03*
X0148978Y0090376D03*
X0148978Y0090326D03*
X0148928Y0090276D03*
X0148928Y0090226D03*
X0148928Y0090176D03*
X0148878Y0090126D03*
X0148878Y0090076D03*
X0148828Y0089926D03*
X0148778Y0089776D03*
X0131678Y0087026D03*
X0131628Y0087126D03*
X0126228Y0087026D03*
X0126178Y0087126D03*
X0126928Y0094576D03*
X0126928Y0098576D03*
X0103978Y0103476D03*
D45*
X0102153Y0103526D03*
X0098553Y0096276D03*
X0096753Y0094126D03*
X0097653Y0088376D03*
X0100603Y0087776D03*
X0105253Y0088526D03*
X0112953Y0086876D03*
X0108453Y0083276D03*
X0093153Y0086876D03*
X0123503Y0090026D03*
X0126153Y0088976D03*
X0126153Y0088926D03*
X0126153Y0088876D03*
X0126103Y0088776D03*
X0126103Y0088726D03*
X0126103Y0088676D03*
X0126203Y0089076D03*
X0126103Y0087476D03*
X0126103Y0087426D03*
X0126103Y0087376D03*
X0126103Y0087326D03*
X0126103Y0087276D03*
X0126153Y0087226D03*
X0126153Y0087176D03*
X0131553Y0087276D03*
X0131553Y0087326D03*
X0131553Y0087376D03*
X0131553Y0087426D03*
X0131553Y0087476D03*
X0131603Y0087226D03*
X0131603Y0087176D03*
X0131553Y0088676D03*
X0131553Y0088726D03*
X0131553Y0088776D03*
X0131603Y0088876D03*
X0131603Y0088926D03*
X0131603Y0088976D03*
X0131653Y0089076D03*
X0137153Y0090276D03*
X0137153Y0090326D03*
X0137153Y0090376D03*
X0137153Y0090426D03*
X0137153Y0090476D03*
X0137153Y0090526D03*
X0137153Y0090576D03*
X0137153Y0090626D03*
X0137153Y0090676D03*
X0137153Y0090726D03*
X0137153Y0090776D03*
X0137153Y0090826D03*
X0137153Y0090876D03*
X0137153Y0090926D03*
X0137153Y0090976D03*
X0137153Y0091026D03*
X0137153Y0091076D03*
X0137153Y0091126D03*
X0137153Y0091176D03*
X0137153Y0091226D03*
X0137153Y0091276D03*
X0137153Y0091326D03*
X0137153Y0091376D03*
X0137153Y0091426D03*
X0137153Y0091476D03*
X0137153Y0091526D03*
X0137153Y0091576D03*
X0137153Y0091626D03*
X0137153Y0091676D03*
X0137153Y0091726D03*
X0137153Y0091776D03*
X0137153Y0091826D03*
X0137153Y0091876D03*
X0137153Y0091926D03*
X0137153Y0091976D03*
X0137153Y0092026D03*
X0137153Y0092076D03*
X0137153Y0092126D03*
X0137153Y0092176D03*
X0137153Y0092226D03*
X0137153Y0092276D03*
X0137153Y0092326D03*
X0137153Y0092376D03*
X0137153Y0092426D03*
X0143103Y0092176D03*
X0143103Y0091476D03*
X0145453Y0090176D03*
X0145503Y0090026D03*
X0145553Y0089876D03*
X0145553Y0089826D03*
X0145603Y0089776D03*
X0145603Y0089726D03*
X0145603Y0089676D03*
X0145653Y0089626D03*
X0145653Y0089576D03*
X0145703Y0089426D03*
X0148603Y0089276D03*
X0148653Y0089376D03*
X0148653Y0089426D03*
X0148703Y0089526D03*
X0148703Y0089576D03*
X0148703Y0089626D03*
X0148753Y0089676D03*
X0148753Y0089726D03*
X0148803Y0089826D03*
X0148803Y0089876D03*
X0148853Y0089976D03*
X0148853Y0090026D03*
X0151103Y0088976D03*
X0151103Y0088926D03*
X0151103Y0088876D03*
X0151053Y0088776D03*
X0151053Y0088726D03*
X0151053Y0088676D03*
X0151153Y0089076D03*
X0151053Y0087476D03*
X0151053Y0087426D03*
X0151053Y0087376D03*
X0151053Y0087326D03*
X0151053Y0087276D03*
X0151103Y0087226D03*
X0151103Y0087176D03*
X0147203Y0085576D03*
X0140353Y0085576D03*
X0140353Y0085626D03*
X0140353Y0085676D03*
X0140353Y0085726D03*
X0140353Y0085776D03*
X0140353Y0085826D03*
X0140353Y0085876D03*
X0140353Y0085926D03*
X0140353Y0085976D03*
X0140353Y0086026D03*
X0140353Y0086076D03*
X0140353Y0086126D03*
X0140353Y0086176D03*
X0140353Y0086226D03*
X0140353Y0086276D03*
X0140353Y0086326D03*
X0140353Y0086376D03*
X0140353Y0086426D03*
X0140353Y0086476D03*
X0140353Y0086526D03*
X0140353Y0086576D03*
X0140353Y0086626D03*
X0140353Y0086676D03*
X0140353Y0086726D03*
X0140353Y0086776D03*
X0140353Y0086826D03*
X0140353Y0086876D03*
X0140353Y0086926D03*
X0140353Y0086976D03*
X0140353Y0087026D03*
X0140353Y0087076D03*
X0140353Y0087126D03*
X0140353Y0087176D03*
X0140353Y0087226D03*
X0140353Y0087276D03*
X0140353Y0087326D03*
X0140353Y0087376D03*
X0140353Y0087426D03*
X0140353Y0087476D03*
X0140353Y0087526D03*
X0140353Y0087576D03*
X0140353Y0087626D03*
X0140353Y0087676D03*
X0140353Y0087726D03*
X0140353Y0087776D03*
X0140353Y0087826D03*
X0140353Y0087876D03*
X0140353Y0087926D03*
X0140353Y0087976D03*
X0140353Y0088026D03*
X0140353Y0088076D03*
X0140353Y0088126D03*
X0140353Y0088176D03*
X0140353Y0088226D03*
X0140353Y0088276D03*
X0140353Y0088326D03*
X0140353Y0088376D03*
X0140353Y0088426D03*
X0137153Y0087776D03*
X0137153Y0087726D03*
X0137153Y0087676D03*
X0137153Y0087626D03*
X0137153Y0087576D03*
X0137153Y0087526D03*
X0137153Y0087476D03*
X0137153Y0087426D03*
X0137153Y0087376D03*
X0137153Y0087326D03*
X0137153Y0087276D03*
X0137153Y0087226D03*
X0137153Y0087176D03*
X0137153Y0087126D03*
X0137153Y0087076D03*
X0137153Y0087026D03*
X0137153Y0086976D03*
X0137153Y0086926D03*
X0137153Y0086876D03*
X0137153Y0086826D03*
X0137153Y0086776D03*
X0137153Y0086726D03*
X0137153Y0086676D03*
X0137153Y0086626D03*
X0137153Y0086576D03*
X0137153Y0086526D03*
X0137153Y0086476D03*
X0137153Y0086426D03*
X0137153Y0086376D03*
X0137153Y0086326D03*
X0137153Y0086276D03*
X0137153Y0086226D03*
X0137153Y0086176D03*
X0137153Y0086126D03*
X0137153Y0086076D03*
X0137153Y0086026D03*
X0137153Y0085976D03*
X0137153Y0085926D03*
X0137153Y0085876D03*
X0137153Y0085826D03*
X0137153Y0085776D03*
X0137153Y0085726D03*
X0137153Y0085676D03*
X0137153Y0085626D03*
X0137153Y0085576D03*
X0156603Y0089076D03*
X0156603Y0089376D03*
X0158803Y0087176D03*
X0158803Y0086776D03*
X0157403Y0085526D03*
X0140503Y0100126D03*
D46*
X0140528Y0100076D03*
X0130878Y0098476D03*
X0126928Y0098526D03*
X0121928Y0100076D03*
X0131128Y0094526D03*
X0137278Y0089026D03*
X0137278Y0088976D03*
X0140178Y0089226D03*
X0140228Y0089176D03*
X0147178Y0085926D03*
X0147178Y0085876D03*
X0151328Y0086826D03*
X0156728Y0088926D03*
X0158528Y0094526D03*
X0158278Y0098476D03*
X0148228Y0094626D03*
X0131828Y0086826D03*
X0126378Y0086826D03*
X0123528Y0087076D03*
X0123428Y0090576D03*
X0105278Y0088626D03*
X0100478Y0087926D03*
X0093278Y0087026D03*
X0097628Y0083326D03*
X0098678Y0096426D03*
X0102028Y0103376D03*
X0104078Y0103376D03*
D47*
X0107453Y0096376D03*
X0109403Y0094026D03*
X0106303Y0092376D03*
X0099903Y0092326D03*
X0096653Y0094026D03*
X0097653Y0088326D03*
X0108453Y0083326D03*
X0112853Y0086976D03*
X0123453Y0088126D03*
X0123503Y0088076D03*
X0123553Y0087126D03*
X0126353Y0086876D03*
X0126403Y0089376D03*
X0123253Y0089626D03*
X0123453Y0090526D03*
X0121903Y0094526D03*
X0126903Y0094626D03*
X0131853Y0089376D03*
X0137253Y0088926D03*
X0137253Y0088876D03*
X0140253Y0089076D03*
X0140253Y0089126D03*
X0147203Y0085826D03*
X0151303Y0086876D03*
X0151353Y0089376D03*
X0158703Y0087276D03*
X0131803Y0086876D03*
D48*
X0131928Y0086776D03*
X0126478Y0086776D03*
X0127678Y0090476D03*
X0133128Y0090476D03*
X0137328Y0089126D03*
X0140128Y0089276D03*
X0147178Y0086076D03*
X0147178Y0086026D03*
X0147178Y0085976D03*
X0151428Y0086776D03*
X0156778Y0088876D03*
X0152628Y0090476D03*
X0139928Y0094476D03*
X0126928Y0094676D03*
X0123378Y0090626D03*
X0112778Y0087076D03*
X0108428Y0088276D03*
X0100428Y0088276D03*
X0100428Y0088326D03*
X0100428Y0088226D03*
X0100428Y0088176D03*
X0100428Y0088126D03*
X0100428Y0088076D03*
X0100428Y0088026D03*
X0100428Y0087976D03*
X0097628Y0088276D03*
X0093328Y0087076D03*
X0097628Y0083376D03*
X0099928Y0092276D03*
X0096578Y0093926D03*
X0098728Y0096476D03*
X0107378Y0096476D03*
X0101978Y0103326D03*
X0126928Y0098476D03*
D49*
X0109503Y0093926D03*
X0105303Y0088676D03*
X0108453Y0083376D03*
X0123453Y0086976D03*
X0127953Y0085576D03*
X0133403Y0085576D03*
X0137353Y0089176D03*
X0144253Y0094676D03*
X0144253Y0098476D03*
X0155153Y0098476D03*
X0155203Y0098526D03*
X0155153Y0094626D03*
X0158603Y0087376D03*
X0152903Y0085576D03*
X0104153Y0103276D03*
X0093353Y0087126D03*
D50*
X0097628Y0083426D03*
X0100528Y0088426D03*
X0105328Y0088776D03*
X0108428Y0088226D03*
X0112678Y0087176D03*
X0108428Y0083426D03*
X0109578Y0093826D03*
X0107278Y0096576D03*
X0096478Y0093826D03*
X0104228Y0103176D03*
X0140528Y0100026D03*
X0139478Y0090276D03*
X0147178Y0086326D03*
X0147178Y0086276D03*
X0156928Y0088776D03*
D51*
X0157828Y0090426D03*
X0158528Y0094676D03*
X0147178Y0086576D03*
X0147178Y0086526D03*
X0152928Y0085626D03*
X0139478Y0090176D03*
X0133428Y0085626D03*
X0127978Y0085626D03*
X0131128Y0094676D03*
X0140578Y0099976D03*
X0109678Y0093726D03*
X0098928Y0096726D03*
X0104328Y0103076D03*
X0100628Y0088576D03*
X0093528Y0087326D03*
X0097628Y0083476D03*
D52*
X0097653Y0088176D03*
X0100603Y0088526D03*
X0105353Y0088876D03*
X0108403Y0088176D03*
X0112603Y0087276D03*
X0108453Y0083476D03*
X0093503Y0087276D03*
X0100003Y0092076D03*
X0096403Y0093726D03*
X0098903Y0096676D03*
X0107203Y0096676D03*
X0101803Y0103126D03*
X0121903Y0099976D03*
X0121903Y0094626D03*
X0131153Y0094626D03*
X0139903Y0094526D03*
X0157003Y0088726D03*
X0158403Y0087526D03*
X0158553Y0094626D03*
D53*
X0121903Y0094676D03*
X0109753Y0093626D03*
X0107103Y0096776D03*
X0096303Y0093626D03*
X0100703Y0088776D03*
X0097653Y0088126D03*
X0105403Y0089026D03*
X0112503Y0087376D03*
X0108453Y0083526D03*
X0097603Y0083526D03*
X0104403Y0102976D03*
D54*
X0101628Y0102926D03*
X0099078Y0096876D03*
X0096228Y0093526D03*
X0100078Y0091826D03*
X0102978Y0094026D03*
X0107028Y0096876D03*
X0109828Y0093526D03*
X0105428Y0089126D03*
X0108428Y0088076D03*
X0112428Y0087476D03*
X0100778Y0089026D03*
X0100778Y0089076D03*
X0097628Y0083576D03*
X0127978Y0085676D03*
X0133428Y0085676D03*
X0139478Y0090026D03*
X0133128Y0090326D03*
X0127678Y0090326D03*
X0139928Y0094626D03*
X0152628Y0090326D03*
X0147178Y0086976D03*
X0147178Y0086926D03*
X0152928Y0085676D03*
X0121928Y0099876D03*
D55*
X0104503Y0102876D03*
X0101603Y0102876D03*
X0099103Y0096926D03*
X0100053Y0091776D03*
X0100803Y0089176D03*
X0100803Y0089126D03*
X0105453Y0089176D03*
X0093703Y0087526D03*
X0108453Y0083576D03*
X0139503Y0089976D03*
X0147203Y0087026D03*
X0157253Y0088526D03*
X0158203Y0087676D03*
X0139953Y0094676D03*
D56*
X0133428Y0085726D03*
X0127978Y0085726D03*
X0112328Y0087576D03*
X0108428Y0088026D03*
X0105478Y0089326D03*
X0100778Y0089326D03*
X0102978Y0094076D03*
X0106928Y0096976D03*
X0109928Y0093426D03*
X0096128Y0093426D03*
X0104578Y0102776D03*
X0108428Y0083626D03*
X0097628Y0083626D03*
X0152928Y0085726D03*
X0157378Y0088426D03*
X0158078Y0087776D03*
X0157878Y0090326D03*
D57*
X0152628Y0090176D03*
X0157828Y0088026D03*
X0133128Y0090176D03*
X0127678Y0090176D03*
X0106828Y0092276D03*
X0102978Y0094126D03*
X0100178Y0091426D03*
X0100178Y0091376D03*
X0100678Y0089626D03*
X0100678Y0089576D03*
X0105528Y0089576D03*
X0105528Y0089526D03*
X0093878Y0087726D03*
X0097628Y0083676D03*
X0099278Y0097126D03*
X0101428Y0102676D03*
X0104678Y0102676D03*
D58*
X0101453Y0102726D03*
X0099253Y0097076D03*
X0106853Y0097076D03*
X0106853Y0092326D03*
X0110003Y0093326D03*
X0105503Y0089476D03*
X0108403Y0087976D03*
X0112253Y0087676D03*
X0108453Y0083676D03*
X0097653Y0087976D03*
X0100703Y0089526D03*
X0100153Y0091476D03*
X0096053Y0093326D03*
X0157503Y0088326D03*
X0157553Y0088276D03*
X0157603Y0088226D03*
X0157853Y0087976D03*
X0157903Y0087926D03*
X0157353Y0085726D03*
X0157903Y0090276D03*
D59*
X0157378Y0085776D03*
X0121178Y0085626D03*
X0108428Y0087926D03*
X0105578Y0089676D03*
X0105578Y0089726D03*
X0105578Y0089776D03*
X0100628Y0089776D03*
X0100628Y0089726D03*
X0100228Y0091226D03*
X0106778Y0092226D03*
X0099328Y0097176D03*
X0101378Y0102626D03*
X0093928Y0087776D03*
X0097628Y0083726D03*
D60*
X0097653Y0087926D03*
X0100603Y0089826D03*
X0100603Y0089876D03*
X0100253Y0091126D03*
X0100253Y0091176D03*
X0095953Y0093226D03*
X0102953Y0094176D03*
X0106753Y0092176D03*
X0110103Y0093226D03*
X0105653Y0090026D03*
X0105653Y0089976D03*
X0105603Y0089876D03*
X0105603Y0089826D03*
X0112153Y0087776D03*
X0108453Y0083726D03*
X0127653Y0090126D03*
X0133103Y0090126D03*
X0152603Y0090126D03*
X0157403Y0085826D03*
X0106753Y0097176D03*
X0104753Y0102576D03*
D61*
X0101278Y0102526D03*
X0106678Y0097276D03*
X0106678Y0092026D03*
X0105828Y0090526D03*
X0105778Y0090476D03*
X0100528Y0090176D03*
X0100528Y0090126D03*
X0100478Y0090276D03*
X0100478Y0090326D03*
X0100478Y0090376D03*
X0100428Y0090476D03*
X0100428Y0090526D03*
X0100378Y0090626D03*
X0100378Y0090676D03*
X0100378Y0090726D03*
X0100328Y0090826D03*
X0095878Y0093126D03*
X0108428Y0087876D03*
X0112078Y0087876D03*
X0110178Y0093126D03*
X0121278Y0091926D03*
X0097628Y0083776D03*
X0157478Y0085926D03*
X0157828Y0090076D03*
X0157878Y0090126D03*
D62*
X0157803Y0090026D03*
X0157553Y0089476D03*
X0157503Y0085976D03*
X0152903Y0085876D03*
X0133403Y0085876D03*
X0127953Y0085876D03*
X0121303Y0085676D03*
X0108453Y0083776D03*
X0094053Y0087926D03*
X0100453Y0090426D03*
X0100403Y0090576D03*
X0102953Y0094226D03*
X0106653Y0091976D03*
X0099453Y0097326D03*
X0101253Y0102476D03*
X0104853Y0102476D03*
D63*
X0104928Y0102376D03*
X0106578Y0097376D03*
X0102278Y0096776D03*
X0106578Y0091826D03*
X0106578Y0091776D03*
X0105978Y0090676D03*
X0105928Y0090626D03*
X0110278Y0093026D03*
X0121378Y0091876D03*
X0121378Y0085726D03*
X0127878Y0085976D03*
X0133328Y0085976D03*
X0152828Y0085976D03*
X0157578Y0086126D03*
X0157578Y0086176D03*
X0097628Y0083826D03*
D64*
X0097653Y0087826D03*
X0094103Y0087976D03*
X0095803Y0093026D03*
X0102953Y0094276D03*
X0106603Y0091876D03*
X0108403Y0087826D03*
X0112003Y0087976D03*
X0108453Y0083826D03*
X0127653Y0089976D03*
X0133103Y0089976D03*
X0152603Y0089976D03*
X0157603Y0089626D03*
X0157653Y0089726D03*
X0157553Y0086076D03*
X0101203Y0102426D03*
X0099503Y0097376D03*
D65*
X0102303Y0096726D03*
X0106503Y0097476D03*
X0110353Y0092926D03*
X0106503Y0091626D03*
X0106503Y0091576D03*
X0108403Y0087776D03*
X0111903Y0088076D03*
X0108453Y0083876D03*
X0097603Y0083876D03*
X0097653Y0087776D03*
X0095703Y0092926D03*
X0121453Y0085776D03*
X0127803Y0086126D03*
X0133253Y0086126D03*
X0133103Y0089876D03*
X0127653Y0089876D03*
X0152603Y0089876D03*
X0152753Y0086126D03*
X0157653Y0086376D03*
X0157653Y0086426D03*
D66*
X0152678Y0086276D03*
X0152628Y0089776D03*
X0133128Y0089776D03*
X0127678Y0089776D03*
X0127728Y0086276D03*
X0133178Y0086276D03*
X0121528Y0089026D03*
X0121528Y0091776D03*
X0111828Y0088176D03*
X0108428Y0087726D03*
X0106178Y0090876D03*
X0106428Y0091326D03*
X0106428Y0091376D03*
X0102928Y0094426D03*
X0099678Y0097576D03*
X0101028Y0102226D03*
X0095628Y0092826D03*
X0094278Y0088176D03*
X0097628Y0083926D03*
D67*
X0097653Y0087726D03*
X0094303Y0088226D03*
X0106253Y0090926D03*
X0106403Y0091276D03*
X0110453Y0092826D03*
X0106403Y0097576D03*
X0105103Y0102176D03*
X0127653Y0089726D03*
X0133103Y0089726D03*
X0133153Y0086326D03*
X0127703Y0086326D03*
X0121553Y0085876D03*
X0108453Y0083926D03*
X0152653Y0086326D03*
X0152603Y0089726D03*
D68*
X0152628Y0089626D03*
X0152578Y0086576D03*
X0152578Y0086526D03*
X0133078Y0086526D03*
X0133078Y0086576D03*
X0127628Y0086576D03*
X0127628Y0086526D03*
X0127678Y0089626D03*
X0133128Y0089626D03*
X0121628Y0089126D03*
X0121628Y0088826D03*
X0121628Y0091676D03*
X0111728Y0088276D03*
X0108428Y0087676D03*
X0106328Y0091026D03*
X0110528Y0092726D03*
X0102928Y0094526D03*
X0106328Y0097676D03*
X0105178Y0102076D03*
X0095528Y0092726D03*
X0097628Y0083976D03*
D69*
X0094403Y0088326D03*
X0108453Y0083976D03*
X0121653Y0085976D03*
X0127603Y0086626D03*
X0127603Y0086676D03*
X0133053Y0086676D03*
X0133053Y0086626D03*
X0133103Y0089576D03*
X0127653Y0089576D03*
X0152603Y0089576D03*
X0152553Y0086676D03*
X0152553Y0086626D03*
X0099803Y0097726D03*
X0100903Y0102076D03*
D70*
X0105278Y0101976D03*
X0102328Y0096576D03*
X0099878Y0097826D03*
X0102928Y0094676D03*
X0110628Y0092626D03*
X0121728Y0088726D03*
X0121728Y0086076D03*
X0097628Y0084026D03*
X0094478Y0088426D03*
D71*
X0094453Y0088376D03*
X0097653Y0087626D03*
X0095453Y0092626D03*
X0102953Y0094626D03*
X0099853Y0097776D03*
X0106253Y0097776D03*
X0100853Y0102026D03*
X0121703Y0091576D03*
X0121703Y0089226D03*
X0127653Y0089476D03*
X0133103Y0089476D03*
X0152603Y0089476D03*
X0111653Y0088376D03*
X0108403Y0087626D03*
X0108453Y0084026D03*
D72*
X0108453Y0084076D03*
X0108403Y0087576D03*
X0111553Y0088476D03*
X0110703Y0092526D03*
X0102953Y0094776D03*
X0106153Y0097876D03*
X0105353Y0101876D03*
X0095353Y0092526D03*
X0097653Y0087576D03*
X0097603Y0084076D03*
X0121803Y0086226D03*
X0121803Y0088626D03*
X0121803Y0089376D03*
X0121803Y0091426D03*
D73*
X0121878Y0091226D03*
X0121878Y0088476D03*
X0121878Y0086376D03*
X0111478Y0088576D03*
X0108428Y0087526D03*
X0097628Y0084126D03*
X0094628Y0088576D03*
X0095278Y0092426D03*
X0102928Y0094876D03*
X0102928Y0094926D03*
X0102928Y0094976D03*
X0100028Y0097976D03*
X0100678Y0101826D03*
X0106078Y0097976D03*
X0138628Y0089876D03*
X0138628Y0089826D03*
D74*
X0138653Y0089776D03*
X0138653Y0089726D03*
X0121903Y0088426D03*
X0121903Y0086476D03*
X0121903Y0086426D03*
X0121903Y0091126D03*
X0121903Y0091176D03*
X0110803Y0092426D03*
X0102903Y0095726D03*
X0102303Y0096476D03*
X0100053Y0098026D03*
X0105453Y0101776D03*
X0097653Y0087526D03*
X0094653Y0088626D03*
X0108453Y0084126D03*
D75*
X0108428Y0087476D03*
X0111378Y0088676D03*
X0110878Y0092326D03*
X0121978Y0090776D03*
X0121978Y0090726D03*
X0127628Y0088476D03*
X0127628Y0088426D03*
X0127628Y0088376D03*
X0127628Y0088326D03*
X0127628Y0088276D03*
X0127628Y0088226D03*
X0127628Y0088176D03*
X0127628Y0088126D03*
X0127628Y0088076D03*
X0127628Y0088026D03*
X0127628Y0087976D03*
X0127628Y0087926D03*
X0127628Y0087876D03*
X0127628Y0087826D03*
X0127628Y0087776D03*
X0127628Y0087726D03*
X0127628Y0087676D03*
X0127628Y0087626D03*
X0127628Y0087576D03*
X0133078Y0087576D03*
X0133078Y0087626D03*
X0133078Y0087676D03*
X0133078Y0087726D03*
X0133078Y0087776D03*
X0133078Y0087826D03*
X0133078Y0087876D03*
X0133078Y0087926D03*
X0133078Y0087976D03*
X0133078Y0088026D03*
X0133078Y0088076D03*
X0133078Y0088126D03*
X0133078Y0088176D03*
X0133078Y0088226D03*
X0133078Y0088276D03*
X0133078Y0088326D03*
X0133078Y0088376D03*
X0133078Y0088426D03*
X0133078Y0088476D03*
X0138728Y0089326D03*
X0138728Y0089376D03*
X0138728Y0089426D03*
X0152578Y0088476D03*
X0152578Y0088426D03*
X0152578Y0088376D03*
X0152578Y0088326D03*
X0152578Y0088276D03*
X0152578Y0088226D03*
X0152578Y0088176D03*
X0152578Y0088126D03*
X0152578Y0088076D03*
X0152578Y0088026D03*
X0152578Y0087976D03*
X0152578Y0087926D03*
X0152578Y0087876D03*
X0152578Y0087826D03*
X0152578Y0087776D03*
X0152578Y0087726D03*
X0152578Y0087676D03*
X0152578Y0087626D03*
X0152578Y0087576D03*
X0121978Y0086776D03*
X0121978Y0086726D03*
X0121978Y0086676D03*
X0097628Y0084176D03*
X0095178Y0092326D03*
X0105978Y0098076D03*
X0105528Y0101676D03*
D76*
X0105503Y0101726D03*
X0100603Y0101726D03*
X0100103Y0098076D03*
X0102803Y0095826D03*
X0102853Y0095776D03*
X0102953Y0095426D03*
X0102953Y0095376D03*
X0102953Y0095326D03*
X0102953Y0095276D03*
X0102953Y0095226D03*
X0097653Y0087476D03*
X0094703Y0088676D03*
X0108453Y0084176D03*
X0121953Y0086576D03*
X0121953Y0086626D03*
X0121953Y0088276D03*
X0121953Y0090826D03*
X0121953Y0090876D03*
X0121953Y0090926D03*
X0127603Y0088526D03*
X0133053Y0088526D03*
X0138703Y0089476D03*
X0138703Y0089526D03*
X0138703Y0089576D03*
X0152553Y0088526D03*
D77*
X0111303Y0088776D03*
X0108403Y0087426D03*
X0108453Y0084226D03*
X0097603Y0084226D03*
X0097653Y0087426D03*
X0094803Y0088776D03*
X0095103Y0092226D03*
X0102303Y0096376D03*
X0102653Y0095976D03*
X0100203Y0098176D03*
X0100503Y0101626D03*
X0105903Y0098176D03*
D78*
X0105803Y0098276D03*
X0105703Y0101476D03*
X0102403Y0096176D03*
X0111053Y0092126D03*
X0111203Y0088876D03*
X0108403Y0087376D03*
X0108453Y0084276D03*
X0097603Y0084276D03*
X0097653Y0087376D03*
X0095003Y0092126D03*
D79*
X0108428Y0087326D03*
X0111128Y0088976D03*
X0111128Y0089026D03*
X0111128Y0089076D03*
X0111128Y0089126D03*
X0111128Y0089176D03*
X0111128Y0089226D03*
X0111128Y0089276D03*
X0111128Y0089326D03*
X0111128Y0089376D03*
X0111128Y0089426D03*
X0111128Y0089476D03*
X0111128Y0089526D03*
X0111128Y0089576D03*
X0111128Y0089626D03*
X0111128Y0089676D03*
X0111128Y0089726D03*
X0111128Y0089776D03*
X0111128Y0089826D03*
X0111128Y0089876D03*
X0111128Y0089926D03*
X0111128Y0089976D03*
X0111128Y0090026D03*
X0111128Y0090076D03*
X0111128Y0090126D03*
X0111128Y0090176D03*
X0111128Y0090226D03*
X0111128Y0090276D03*
X0111128Y0090326D03*
X0111128Y0090376D03*
X0111128Y0090426D03*
X0111128Y0090476D03*
X0111128Y0090526D03*
X0111128Y0090576D03*
X0111128Y0090626D03*
X0111128Y0090676D03*
X0111128Y0090726D03*
X0111128Y0090776D03*
X0111128Y0090826D03*
X0111128Y0090876D03*
X0111128Y0090926D03*
X0111128Y0090976D03*
X0111128Y0091026D03*
X0111128Y0091076D03*
X0111128Y0091126D03*
X0111128Y0091176D03*
X0111128Y0091226D03*
X0111128Y0091276D03*
X0111128Y0091326D03*
X0111128Y0091376D03*
X0111128Y0091426D03*
X0111128Y0091476D03*
X0111128Y0091526D03*
X0111128Y0091576D03*
X0111128Y0091626D03*
X0111128Y0091676D03*
X0111128Y0091726D03*
X0111128Y0091776D03*
X0111128Y0091826D03*
X0111128Y0091876D03*
X0111128Y0091926D03*
X0111128Y0091976D03*
X0111128Y0092026D03*
X0097628Y0084326D03*
D80*
X0097653Y0087326D03*
X0108453Y0084326D03*
D81*
X0108428Y0087276D03*
X0097678Y0087276D03*
X0097628Y0084376D03*
D82*
X0108453Y0084376D03*
D83*
X0108453Y0084426D03*
X0108403Y0087226D03*
X0097653Y0087226D03*
X0097603Y0084426D03*
D84*
X0097603Y0084476D03*
X0097653Y0087176D03*
X0108403Y0087176D03*
X0108453Y0084476D03*
D85*
X0108478Y0084526D03*
X0108428Y0087126D03*
X0097678Y0087126D03*
X0097628Y0084526D03*
D86*
X0097628Y0084576D03*
X0097678Y0087076D03*
X0108428Y0087076D03*
D87*
X0108453Y0084576D03*
D88*
X0108453Y0084626D03*
X0108403Y0087026D03*
X0097653Y0087026D03*
X0097603Y0084626D03*
D89*
X0097603Y0084676D03*
X0097653Y0086976D03*
X0108403Y0086976D03*
X0108453Y0084676D03*
D90*
X0108478Y0084726D03*
X0097628Y0084726D03*
X0097678Y0086926D03*
D91*
X0097603Y0084776D03*
X0108453Y0084776D03*
X0108403Y0086876D03*
D92*
X0108403Y0086826D03*
X0108453Y0084826D03*
X0097603Y0084826D03*
X0097653Y0086826D03*
D93*
X0097653Y0086776D03*
X0097603Y0084876D03*
X0108453Y0084876D03*
X0108403Y0086776D03*
D94*
X0108478Y0084926D03*
X0097628Y0084926D03*
X0097678Y0086726D03*
D95*
X0097603Y0084976D03*
X0108453Y0084976D03*
X0108403Y0086676D03*
D96*
X0108403Y0086626D03*
X0108453Y0085026D03*
X0097603Y0085026D03*
X0097653Y0086626D03*
D97*
X0097628Y0085076D03*
X0108478Y0085076D03*
D98*
X0097603Y0085126D03*
D99*
X0097678Y0086526D03*
X0108478Y0085126D03*
D100*
X0108453Y0085176D03*
X0108403Y0086476D03*
X0097603Y0085176D03*
D101*
X0097603Y0085226D03*
X0097653Y0086426D03*
X0108403Y0086426D03*
X0108453Y0085226D03*
D102*
X0108478Y0085276D03*
X0097628Y0085276D03*
X0097678Y0086376D03*
D103*
X0097603Y0085326D03*
D104*
X0097678Y0086326D03*
X0108478Y0085326D03*
D105*
X0108453Y0085376D03*
X0108403Y0086276D03*
X0097603Y0085376D03*
D106*
X0097603Y0085426D03*
X0097653Y0086226D03*
X0108403Y0086226D03*
D107*
X0108478Y0085426D03*
D108*
X0108478Y0085476D03*
X0097678Y0086176D03*
X0097628Y0085476D03*
D109*
X0097603Y0085526D03*
X0108453Y0085526D03*
D110*
X0100653Y0087726D03*
X0093103Y0086826D03*
X0106303Y0092476D03*
X0098503Y0096226D03*
X0102203Y0103576D03*
X0103903Y0103576D03*
X0121903Y0094476D03*
X0129103Y0089226D03*
X0129153Y0089126D03*
X0134553Y0089226D03*
X0134603Y0089126D03*
X0139453Y0090476D03*
X0143103Y0091376D03*
X0143103Y0092276D03*
X0144253Y0094526D03*
X0139953Y0094426D03*
X0131103Y0094476D03*
X0144253Y0098626D03*
X0158503Y0094476D03*
X0156553Y0089276D03*
X0156553Y0089226D03*
X0154103Y0089126D03*
X0154053Y0089226D03*
X0148503Y0088976D03*
X0148453Y0088826D03*
X0148403Y0088676D03*
X0148403Y0088626D03*
X0148353Y0088576D03*
X0148353Y0088526D03*
X0148353Y0088476D03*
X0148303Y0088426D03*
X0148303Y0088376D03*
X0148303Y0088326D03*
X0148253Y0088276D03*
X0148253Y0088226D03*
X0148203Y0088076D03*
X0146053Y0088376D03*
X0146003Y0088476D03*
X0146003Y0088526D03*
X0145953Y0088626D03*
X0145953Y0088676D03*
X0145953Y0088726D03*
X0145903Y0088776D03*
X0145903Y0088826D03*
X0145853Y0088926D03*
X0145853Y0088976D03*
X0145803Y0089126D03*
X0152903Y0085526D03*
X0158853Y0086876D03*
X0158853Y0086926D03*
X0158853Y0086976D03*
X0158853Y0087026D03*
X0158853Y0087076D03*
X0133403Y0085526D03*
X0127953Y0085526D03*
D111*
X0108453Y0085576D03*
X0108403Y0086076D03*
X0097603Y0085576D03*
D112*
X0100778Y0089226D03*
X0100778Y0089276D03*
X0100078Y0091726D03*
X0096178Y0093476D03*
X0106978Y0096926D03*
X0109878Y0093476D03*
X0112378Y0087526D03*
X0120978Y0085576D03*
X0127678Y0090276D03*
X0133128Y0090276D03*
X0147178Y0087076D03*
X0152628Y0090276D03*
X0157328Y0088476D03*
X0158128Y0087726D03*
X0157378Y0085676D03*
D113*
X0157403Y0085576D03*
X0158553Y0087426D03*
X0156853Y0088826D03*
X0151503Y0086726D03*
X0147203Y0086226D03*
X0137403Y0089226D03*
X0132003Y0086726D03*
X0126553Y0086726D03*
X0123303Y0090676D03*
X0121903Y0094576D03*
X0104203Y0103226D03*
X0101903Y0103226D03*
X0098803Y0096576D03*
X0099953Y0092176D03*
X0097653Y0088226D03*
X0093403Y0087176D03*
D114*
X0097603Y0085626D03*
X0108403Y0086026D03*
D115*
X0108478Y0085626D03*
D116*
X0108428Y0088126D03*
X0105378Y0088976D03*
X0100678Y0088726D03*
X0100678Y0088676D03*
X0093578Y0087376D03*
X0100028Y0091976D03*
X0102978Y0093976D03*
X0098978Y0096776D03*
X0101728Y0103026D03*
X0104378Y0103026D03*
X0121928Y0099926D03*
X0127678Y0090376D03*
X0133128Y0090376D03*
X0139478Y0090126D03*
X0147178Y0086726D03*
X0147178Y0086676D03*
X0152628Y0090376D03*
X0158328Y0087576D03*
X0157378Y0085626D03*
D117*
X0097603Y0085676D03*
D118*
X0097678Y0085976D03*
X0108478Y0085676D03*
D119*
X0108453Y0085726D03*
X0097603Y0085726D03*
D120*
X0100528Y0087876D03*
X0105278Y0088576D03*
X0108428Y0088326D03*
X0123328Y0089676D03*
X0123478Y0090476D03*
X0123528Y0088026D03*
X0123628Y0087276D03*
X0123628Y0087226D03*
X0123578Y0087176D03*
X0126278Y0086926D03*
X0128928Y0089426D03*
X0131728Y0086926D03*
X0137228Y0088726D03*
X0137228Y0088776D03*
X0137228Y0088826D03*
X0134378Y0089426D03*
X0140278Y0089026D03*
X0140278Y0088976D03*
X0147178Y0085776D03*
X0147178Y0085726D03*
X0151228Y0086926D03*
X0153878Y0089426D03*
X0156678Y0088976D03*
X0157828Y0090526D03*
X0155228Y0094526D03*
X0148228Y0094576D03*
X0155278Y0098626D03*
X0158278Y0098526D03*
X0130878Y0098526D03*
X0104028Y0103426D03*
X0102078Y0103426D03*
X0098628Y0096376D03*
X0093228Y0086976D03*
D121*
X0097603Y0085776D03*
X0108403Y0085876D03*
D122*
X0108478Y0085776D03*
D123*
X0112203Y0087726D03*
X0105553Y0089626D03*
X0100653Y0089676D03*
X0100203Y0091276D03*
X0100203Y0091326D03*
X0096003Y0093276D03*
X0106803Y0097126D03*
X0110053Y0093276D03*
X0121153Y0091976D03*
X0128003Y0085776D03*
X0133453Y0085776D03*
X0152953Y0085776D03*
X0157653Y0088176D03*
X0157703Y0088126D03*
X0157753Y0088076D03*
X0104703Y0102626D03*
D124*
X0097628Y0085826D03*
D125*
X0108453Y0085826D03*
D126*
X0111853Y0088126D03*
X0106453Y0091426D03*
X0106453Y0091476D03*
X0110403Y0092876D03*
X0106453Y0097526D03*
X0105053Y0102226D03*
X0095653Y0092876D03*
X0121503Y0085826D03*
X0127753Y0086226D03*
X0133203Y0086226D03*
X0133103Y0089826D03*
X0127653Y0089826D03*
X0152603Y0089826D03*
X0152703Y0086226D03*
X0157703Y0086676D03*
D127*
X0157453Y0085876D03*
X0152953Y0085826D03*
X0152603Y0090076D03*
X0157903Y0090176D03*
X0158203Y0096526D03*
X0158203Y0096576D03*
X0158203Y0096626D03*
X0158203Y0096676D03*
X0158203Y0096726D03*
X0158203Y0096776D03*
X0158203Y0096826D03*
X0133103Y0090076D03*
X0127653Y0090076D03*
X0128003Y0085826D03*
X0133453Y0085826D03*
X0110153Y0093176D03*
X0106703Y0092076D03*
X0105753Y0090426D03*
X0105753Y0090376D03*
X0105753Y0090326D03*
X0105703Y0090276D03*
X0105703Y0090226D03*
X0105703Y0090176D03*
X0100553Y0090076D03*
X0100553Y0090026D03*
X0100503Y0090226D03*
X0100353Y0090776D03*
X0100303Y0090876D03*
X0100303Y0090926D03*
X0100303Y0090976D03*
X0097653Y0087876D03*
X0094003Y0087876D03*
X0099403Y0097276D03*
X0104803Y0102526D03*
X0130803Y0096826D03*
X0130803Y0096776D03*
X0130803Y0096726D03*
X0130803Y0096676D03*
X0130803Y0096626D03*
X0130803Y0096576D03*
X0130803Y0096526D03*
D128*
X0097678Y0085876D03*
D129*
X0097678Y0085926D03*
X0108378Y0085926D03*
D130*
X0106303Y0090976D03*
X0106353Y0091076D03*
X0106353Y0091126D03*
X0097653Y0087676D03*
X0094353Y0088276D03*
X0099753Y0097676D03*
X0100953Y0102126D03*
X0105153Y0102126D03*
X0127653Y0089676D03*
X0133103Y0089676D03*
X0133103Y0086476D03*
X0127653Y0086476D03*
X0121603Y0085926D03*
X0152603Y0086476D03*
X0152603Y0089676D03*
D131*
X0152628Y0090026D03*
X0157578Y0089576D03*
X0157578Y0089526D03*
X0157628Y0089676D03*
X0157678Y0089776D03*
X0157678Y0089826D03*
X0157728Y0089876D03*
X0157728Y0089926D03*
X0157778Y0089976D03*
X0157528Y0086026D03*
X0152878Y0085926D03*
X0133378Y0085926D03*
X0127928Y0085926D03*
X0127678Y0090026D03*
X0133128Y0090026D03*
X0112028Y0087926D03*
X0105878Y0090576D03*
X0106628Y0091926D03*
X0110228Y0093076D03*
X0106628Y0097326D03*
X0104878Y0102426D03*
X0095828Y0093076D03*
D132*
X0108403Y0085976D03*
D133*
X0097678Y0086026D03*
D134*
X0095478Y0092676D03*
X0102928Y0094576D03*
X0102328Y0096626D03*
X0106278Y0097726D03*
X0105228Y0102026D03*
X0110578Y0092676D03*
X0111678Y0088326D03*
X0121678Y0088776D03*
X0121678Y0089176D03*
X0121678Y0091626D03*
X0127678Y0089526D03*
X0133128Y0089526D03*
X0121678Y0086026D03*
X0152628Y0089526D03*
D135*
X0152603Y0089926D03*
X0152803Y0086026D03*
X0157603Y0086226D03*
X0133303Y0086026D03*
X0127853Y0086026D03*
X0127653Y0089926D03*
X0133103Y0089926D03*
X0111953Y0088026D03*
X0106553Y0091726D03*
X0102953Y0094326D03*
X0099553Y0097426D03*
X0106553Y0097426D03*
X0101153Y0102376D03*
X0095753Y0092976D03*
X0094153Y0088026D03*
D136*
X0097678Y0086076D03*
D137*
X0094178Y0088076D03*
X0106028Y0090726D03*
X0106528Y0091676D03*
X0110328Y0092976D03*
X0099578Y0097476D03*
X0101128Y0102326D03*
X0104978Y0102326D03*
X0127828Y0086076D03*
X0133278Y0086076D03*
X0152778Y0086076D03*
X0157628Y0086276D03*
X0157628Y0086326D03*
D138*
X0108378Y0086126D03*
X0097678Y0086126D03*
D139*
X0095403Y0092576D03*
X0106203Y0097826D03*
X0100803Y0101976D03*
X0110653Y0092576D03*
X0111603Y0088426D03*
X0121753Y0089276D03*
X0121753Y0091526D03*
X0121753Y0086126D03*
D140*
X0123378Y0086926D03*
X0123328Y0088226D03*
X0112728Y0087126D03*
X0105328Y0088726D03*
X0100478Y0088376D03*
X0099928Y0092226D03*
X0096528Y0093876D03*
X0098778Y0096526D03*
X0107328Y0096526D03*
X0109528Y0093876D03*
X0121928Y0100026D03*
X0131128Y0094576D03*
X0139478Y0090326D03*
X0148228Y0094676D03*
X0155128Y0094676D03*
X0158528Y0094576D03*
X0157828Y0090476D03*
X0147178Y0086176D03*
X0147178Y0086126D03*
X0134978Y0098476D03*
X0101928Y0103276D03*
D141*
X0108403Y0086176D03*
D142*
X0121778Y0086176D03*
X0121778Y0088676D03*
X0121778Y0089326D03*
X0121778Y0091476D03*
X0102928Y0094726D03*
X0099928Y0097876D03*
X0100778Y0101926D03*
X0105328Y0101926D03*
X0094528Y0088476D03*
D143*
X0094228Y0088126D03*
X0102928Y0094376D03*
X0106478Y0091526D03*
X0106128Y0090826D03*
X0106078Y0090776D03*
X0099628Y0097526D03*
X0101078Y0102276D03*
X0105028Y0102276D03*
X0121478Y0091826D03*
X0121478Y0088976D03*
X0121478Y0088926D03*
X0127778Y0086176D03*
X0133228Y0086176D03*
X0152728Y0086176D03*
X0157678Y0086476D03*
X0157678Y0086526D03*
X0157678Y0086576D03*
X0157678Y0086626D03*
D144*
X0097678Y0086276D03*
D145*
X0094578Y0088526D03*
X0102928Y0094826D03*
X0102328Y0096526D03*
X0099978Y0097926D03*
X0100728Y0101876D03*
X0121828Y0091376D03*
X0121828Y0089476D03*
X0121828Y0089426D03*
X0121828Y0088576D03*
X0121828Y0086276D03*
D146*
X0108403Y0086326D03*
D147*
X0111503Y0088526D03*
X0110753Y0092476D03*
X0121853Y0091326D03*
X0121853Y0091276D03*
X0121853Y0089526D03*
X0121853Y0088526D03*
X0121853Y0086326D03*
X0138603Y0089926D03*
X0106103Y0097926D03*
X0105403Y0101826D03*
X0095303Y0092476D03*
D148*
X0108403Y0086376D03*
D149*
X0111778Y0088226D03*
X0106378Y0091176D03*
X0106378Y0091226D03*
X0110478Y0092776D03*
X0102928Y0094476D03*
X0102328Y0096676D03*
X0099728Y0097626D03*
X0106378Y0097626D03*
X0100978Y0102176D03*
X0095578Y0092776D03*
X0121578Y0091726D03*
X0121578Y0089076D03*
X0121578Y0088876D03*
X0127678Y0086426D03*
X0127678Y0086376D03*
X0133128Y0086376D03*
X0133128Y0086426D03*
X0152628Y0086426D03*
X0152628Y0086376D03*
D150*
X0158478Y0087476D03*
X0152628Y0090426D03*
X0147178Y0086476D03*
X0147178Y0086426D03*
X0147178Y0086376D03*
X0139478Y0090226D03*
X0133128Y0090426D03*
X0127678Y0090426D03*
X0109628Y0093776D03*
X0107228Y0096626D03*
X0099978Y0092126D03*
X0105328Y0088826D03*
X0104278Y0103126D03*
D151*
X0097678Y0086476D03*
D152*
X0108403Y0086526D03*
D153*
X0111428Y0088626D03*
X0110828Y0092376D03*
X0102928Y0095026D03*
X0102928Y0095076D03*
X0102928Y0095126D03*
X0102928Y0095176D03*
X0102928Y0095476D03*
X0102928Y0095526D03*
X0102928Y0095576D03*
X0102928Y0095626D03*
X0102928Y0095676D03*
X0106028Y0098026D03*
X0100628Y0101776D03*
X0095228Y0092376D03*
X0121928Y0091076D03*
X0121928Y0091026D03*
X0121928Y0090976D03*
X0121928Y0088376D03*
X0121928Y0088326D03*
X0121928Y0086526D03*
X0127628Y0088576D03*
X0127628Y0088626D03*
X0133078Y0088626D03*
X0133078Y0088576D03*
X0138678Y0089626D03*
X0138678Y0089676D03*
X0152578Y0088626D03*
X0152578Y0088576D03*
D154*
X0108403Y0086576D03*
X0097653Y0086576D03*
D155*
X0106353Y0092576D03*
X0109103Y0094376D03*
X0107753Y0096026D03*
X0101303Y0096876D03*
X0096953Y0094376D03*
X0113153Y0086626D03*
X0126903Y0094476D03*
X0143103Y0092426D03*
X0143103Y0091226D03*
X0144253Y0094476D03*
X0152453Y0098526D03*
X0103753Y0103726D03*
D156*
X0101753Y0103076D03*
X0107153Y0096726D03*
X0109703Y0093676D03*
X0105353Y0088926D03*
X0100653Y0088626D03*
X0100003Y0092026D03*
X0096353Y0093676D03*
X0112553Y0087326D03*
X0147203Y0086626D03*
X0157053Y0088676D03*
D157*
X0097678Y0086676D03*
D158*
X0108403Y0086726D03*
D159*
X0113078Y0086726D03*
X0106328Y0092526D03*
X0109178Y0094276D03*
X0107678Y0096126D03*
X0101278Y0096826D03*
X0098428Y0096126D03*
X0096878Y0094276D03*
X0100728Y0087626D03*
X0102278Y0103676D03*
X0143078Y0092376D03*
X0146328Y0087526D03*
X0146378Y0087376D03*
X0146378Y0087326D03*
X0146428Y0087176D03*
X0147928Y0087176D03*
X0147928Y0087226D03*
D160*
X0151153Y0087076D03*
X0151203Y0086976D03*
X0151253Y0089276D03*
X0151303Y0089326D03*
X0149053Y0090576D03*
X0145403Y0090326D03*
X0145353Y0090476D03*
X0143103Y0091626D03*
X0143103Y0091676D03*
X0143103Y0091726D03*
X0143103Y0091776D03*
X0143103Y0091826D03*
X0143103Y0091876D03*
X0143103Y0091926D03*
X0143103Y0091976D03*
X0143103Y0092026D03*
X0144253Y0094576D03*
X0139453Y0090426D03*
X0140303Y0088926D03*
X0140303Y0088876D03*
X0140303Y0088826D03*
X0137203Y0088676D03*
X0137203Y0088626D03*
X0137203Y0088576D03*
X0137203Y0088526D03*
X0131803Y0089326D03*
X0131753Y0089276D03*
X0131653Y0087076D03*
X0131703Y0086976D03*
X0126253Y0086976D03*
X0126203Y0087076D03*
X0123653Y0087326D03*
X0123653Y0087376D03*
X0123653Y0087426D03*
X0123653Y0087476D03*
X0123653Y0087526D03*
X0123653Y0087576D03*
X0123653Y0087626D03*
X0123653Y0087676D03*
X0123603Y0087876D03*
X0123603Y0087926D03*
X0123553Y0087976D03*
X0123353Y0089726D03*
X0123403Y0089776D03*
X0123503Y0090326D03*
X0123503Y0090376D03*
X0123503Y0090426D03*
X0126303Y0089276D03*
X0126353Y0089326D03*
X0112903Y0086926D03*
X0100553Y0087826D03*
X0099903Y0092376D03*
X0096703Y0094076D03*
X0098603Y0096326D03*
X0103003Y0096826D03*
X0107503Y0096326D03*
X0109353Y0094076D03*
X0102103Y0103476D03*
X0135003Y0098576D03*
X0144253Y0098576D03*
X0158753Y0087226D03*
X0158753Y0086726D03*
D161*
X0158278Y0087626D03*
X0157128Y0088626D03*
X0147178Y0086826D03*
X0147178Y0086776D03*
X0139478Y0090076D03*
X0139878Y0094576D03*
X0140578Y0099926D03*
X0112478Y0087426D03*
X0100728Y0088826D03*
X0100728Y0088876D03*
X0100028Y0091926D03*
X0096278Y0093576D03*
X0099028Y0096826D03*
X0101678Y0102976D03*
X0093628Y0087426D03*
D162*
X0099878Y0092426D03*
X0103028Y0093826D03*
X0107578Y0096226D03*
X0109278Y0094176D03*
X0096778Y0094176D03*
X0108428Y0088376D03*
X0112978Y0086826D03*
X0126078Y0087526D03*
X0129028Y0089326D03*
X0129078Y0089276D03*
X0131528Y0087526D03*
X0134478Y0089326D03*
X0134528Y0089276D03*
X0137128Y0089976D03*
X0137128Y0090026D03*
X0137128Y0090076D03*
X0137128Y0090126D03*
X0137128Y0090176D03*
X0137128Y0090226D03*
X0143078Y0091426D03*
X0143078Y0092226D03*
X0148228Y0094526D03*
X0148678Y0089476D03*
X0148628Y0089326D03*
X0148578Y0089226D03*
X0148578Y0089176D03*
X0148578Y0089126D03*
X0148528Y0089076D03*
X0148528Y0089026D03*
X0148478Y0088926D03*
X0148478Y0088876D03*
X0148428Y0088776D03*
X0148428Y0088726D03*
X0145878Y0088876D03*
X0145828Y0089026D03*
X0145828Y0089076D03*
X0145778Y0089176D03*
X0145778Y0089226D03*
X0145728Y0089276D03*
X0145728Y0089326D03*
X0145728Y0089376D03*
X0145678Y0089476D03*
X0145678Y0089526D03*
X0151028Y0087526D03*
X0153978Y0089326D03*
X0154028Y0089276D03*
X0156578Y0089326D03*
X0156578Y0089176D03*
X0156578Y0089126D03*
X0158828Y0087126D03*
X0158828Y0086826D03*
X0158278Y0098576D03*
X0135028Y0098626D03*
X0130878Y0098576D03*
X0121928Y0100126D03*
X0103928Y0103526D03*
D163*
X0100553Y0101676D03*
X0100153Y0098126D03*
X0102303Y0096426D03*
X0102753Y0095876D03*
X0095153Y0092276D03*
X0094753Y0088726D03*
X0122003Y0086876D03*
X0122003Y0086826D03*
D164*
X0097678Y0086876D03*
D165*
X0097653Y0088076D03*
X0100753Y0088926D03*
X0100753Y0088976D03*
X0105403Y0089076D03*
X0100053Y0091876D03*
X0093653Y0087476D03*
X0109803Y0093576D03*
X0107053Y0096826D03*
X0104453Y0102926D03*
X0121903Y0094726D03*
X0120903Y0092026D03*
X0147203Y0086876D03*
X0157203Y0088576D03*
X0157853Y0090376D03*
D166*
X0108403Y0086926D03*
D167*
X0112803Y0087026D03*
X0123403Y0088176D03*
X0123503Y0087026D03*
X0123203Y0089576D03*
X0126453Y0089426D03*
X0131903Y0089426D03*
X0137303Y0089076D03*
X0139453Y0090376D03*
X0144253Y0094626D03*
X0144253Y0098526D03*
X0135003Y0098526D03*
X0155253Y0098576D03*
X0155203Y0094576D03*
X0151403Y0089426D03*
X0158653Y0087326D03*
X0109453Y0093976D03*
X0107403Y0096426D03*
X0103003Y0093876D03*
X0096603Y0093976D03*
X0104103Y0103326D03*
D168*
X0101853Y0103176D03*
X0098853Y0096626D03*
X0096453Y0093776D03*
X0103003Y0093926D03*
X0100553Y0088476D03*
X0093453Y0087226D03*
X0112653Y0087226D03*
X0137453Y0089276D03*
D169*
X0105453Y0089276D03*
X0105453Y0089226D03*
X0100103Y0091676D03*
X0097653Y0088026D03*
X0093753Y0087576D03*
X0099153Y0096976D03*
X0101553Y0102826D03*
X0104553Y0102826D03*
D170*
X0101503Y0102776D03*
X0099203Y0097026D03*
X0096103Y0093376D03*
X0100103Y0091626D03*
X0100753Y0089376D03*
X0105503Y0089376D03*
X0112303Y0087626D03*
X0093803Y0087626D03*
X0157453Y0088376D03*
X0158003Y0087826D03*
D171*
X0157978Y0087876D03*
X0152628Y0090226D03*
X0133128Y0090226D03*
X0127678Y0090226D03*
X0109978Y0093376D03*
X0106878Y0097026D03*
X0104628Y0102726D03*
X0100128Y0091576D03*
X0100128Y0091526D03*
X0100728Y0089476D03*
X0100728Y0089426D03*
X0105528Y0089426D03*
X0093828Y0087676D03*
D172*
X0093978Y0087826D03*
X0100578Y0089926D03*
X0100578Y0089976D03*
X0100278Y0091026D03*
X0100278Y0091076D03*
X0095928Y0093176D03*
X0105678Y0090126D03*
X0105678Y0090076D03*
X0105628Y0089926D03*
X0106728Y0092126D03*
X0106728Y0097226D03*
X0099378Y0097226D03*
X0101328Y0102576D03*
X0112128Y0087826D03*
X0157928Y0090226D03*
D173*
X0111328Y0088726D03*
X0110928Y0092276D03*
X0102678Y0095926D03*
X0105928Y0098126D03*
X0105578Y0101626D03*
D174*
X0105628Y0101576D03*
X0100478Y0101576D03*
X0100228Y0098226D03*
X0102578Y0096026D03*
X0110978Y0092226D03*
X0094828Y0088826D03*
D175*
X0095053Y0092176D03*
X0105853Y0098226D03*
X0105653Y0101526D03*
X0111003Y0092176D03*
X0111253Y0088826D03*
D176*
X0102528Y0096076D03*
X0102478Y0096126D03*
X0102278Y0096326D03*
X0100278Y0098276D03*
X0100428Y0101526D03*
X0094878Y0088876D03*
D177*
X0094928Y0088926D03*
X0094978Y0092076D03*
X0102278Y0096276D03*
X0102328Y0096226D03*
X0100328Y0098326D03*
X0105778Y0098326D03*
X0100378Y0101476D03*
X0111178Y0088926D03*
D178*
X0111103Y0092076D03*
X0105753Y0098376D03*
X0105753Y0098426D03*
X0105753Y0098476D03*
X0105753Y0098526D03*
X0105753Y0098576D03*
X0105753Y0098626D03*
X0105753Y0098676D03*
X0105753Y0098726D03*
X0105753Y0098776D03*
X0105753Y0098826D03*
X0105753Y0098876D03*
X0105753Y0098926D03*
X0105753Y0098976D03*
X0105753Y0099026D03*
X0105753Y0099076D03*
X0105753Y0099126D03*
X0105753Y0099176D03*
X0105753Y0099226D03*
X0105753Y0099276D03*
X0105753Y0099326D03*
X0105753Y0099376D03*
X0105753Y0099426D03*
X0105753Y0099476D03*
X0105753Y0099526D03*
X0105753Y0099576D03*
X0105753Y0099626D03*
X0105753Y0099676D03*
X0105753Y0099726D03*
X0105753Y0099776D03*
X0105753Y0099826D03*
X0105753Y0099876D03*
X0105753Y0099926D03*
X0105753Y0099976D03*
X0105753Y0100026D03*
X0105753Y0100076D03*
X0105753Y0100126D03*
X0105753Y0100176D03*
X0105753Y0100226D03*
X0105753Y0100276D03*
X0105753Y0100326D03*
X0105753Y0100376D03*
X0105753Y0100426D03*
X0105753Y0100476D03*
X0105753Y0100526D03*
X0105753Y0100576D03*
X0105753Y0100626D03*
X0105753Y0100676D03*
X0105753Y0100726D03*
X0105753Y0100776D03*
X0105753Y0100826D03*
X0105753Y0100876D03*
X0105753Y0100926D03*
X0105753Y0100976D03*
X0105753Y0101026D03*
X0105753Y0101076D03*
X0105753Y0101126D03*
X0105753Y0101176D03*
X0105753Y0101226D03*
X0105753Y0101276D03*
X0105753Y0101326D03*
X0105753Y0101376D03*
X0105753Y0101426D03*
X0100353Y0101426D03*
X0100353Y0101376D03*
X0100353Y0101326D03*
X0100353Y0101276D03*
X0100353Y0101226D03*
X0100353Y0101176D03*
X0100353Y0101126D03*
X0100353Y0101076D03*
X0100353Y0101026D03*
X0100353Y0100976D03*
X0100353Y0100926D03*
X0100353Y0100876D03*
X0100353Y0100826D03*
X0100353Y0100776D03*
X0100353Y0100726D03*
X0100353Y0100676D03*
X0100353Y0100626D03*
X0100353Y0100576D03*
X0100353Y0100526D03*
X0100353Y0100476D03*
X0100353Y0100426D03*
X0100353Y0100376D03*
X0100353Y0100326D03*
X0100353Y0100276D03*
X0100353Y0100226D03*
X0100353Y0100176D03*
X0100353Y0100126D03*
X0100353Y0100076D03*
X0100353Y0100026D03*
X0100353Y0099976D03*
X0100353Y0099926D03*
X0100353Y0099876D03*
X0100353Y0099826D03*
X0100353Y0099776D03*
X0100353Y0099726D03*
X0100353Y0099676D03*
X0100353Y0099626D03*
X0100353Y0099576D03*
X0100353Y0099526D03*
X0100353Y0099476D03*
X0100353Y0099426D03*
X0100353Y0099376D03*
X0100353Y0099326D03*
X0100353Y0099276D03*
X0100353Y0099226D03*
X0100353Y0099176D03*
X0100353Y0099126D03*
X0100353Y0099076D03*
X0100353Y0099026D03*
X0100353Y0098976D03*
X0100353Y0098926D03*
X0100353Y0098876D03*
X0100353Y0098826D03*
X0100353Y0098776D03*
X0100353Y0098726D03*
X0100353Y0098676D03*
X0100353Y0098626D03*
X0100353Y0098576D03*
X0100353Y0098526D03*
X0100353Y0098476D03*
X0100353Y0098426D03*
X0100353Y0098376D03*
X0094953Y0092026D03*
X0094953Y0091976D03*
X0094953Y0091926D03*
X0094953Y0091876D03*
X0094953Y0091826D03*
X0094953Y0091776D03*
X0094953Y0091726D03*
X0094953Y0091676D03*
X0094953Y0091626D03*
X0094953Y0091576D03*
X0094953Y0091526D03*
X0094953Y0091476D03*
X0094953Y0091426D03*
X0094953Y0091376D03*
X0094953Y0091326D03*
X0094953Y0091276D03*
X0094953Y0091226D03*
X0094953Y0091176D03*
X0094953Y0091126D03*
X0094953Y0091076D03*
X0094953Y0091026D03*
X0094953Y0090976D03*
X0094953Y0090926D03*
X0094953Y0090876D03*
X0094953Y0090826D03*
X0094953Y0090776D03*
X0094953Y0090726D03*
X0094953Y0090676D03*
X0094953Y0090626D03*
X0094953Y0090576D03*
X0094953Y0090526D03*
X0094953Y0090476D03*
X0094953Y0090426D03*
X0094953Y0090376D03*
X0094953Y0090326D03*
X0094953Y0090276D03*
X0094953Y0090226D03*
X0094953Y0090176D03*
X0094953Y0090126D03*
X0094953Y0090076D03*
X0094953Y0090026D03*
X0094953Y0089976D03*
X0094953Y0089926D03*
X0094953Y0089876D03*
X0094953Y0089826D03*
X0094953Y0089776D03*
X0094953Y0089726D03*
X0094953Y0089676D03*
X0094953Y0089626D03*
X0094953Y0089576D03*
X0094953Y0089526D03*
X0094953Y0089476D03*
X0094953Y0089426D03*
X0094953Y0089376D03*
X0094953Y0089326D03*
X0094953Y0089276D03*
X0094953Y0089226D03*
X0094953Y0089176D03*
X0094953Y0089126D03*
X0094953Y0089076D03*
X0094953Y0089026D03*
X0094953Y0088976D03*
D179*
X0290050Y0123700D03*
X0292150Y0124300D03*
X0294850Y0125800D03*
X0296650Y0128200D03*
X0297250Y0129100D03*
X0297250Y0129400D03*
X0297850Y0131500D03*
X0297850Y0131800D03*
X0297850Y0132100D03*
X0297850Y0132400D03*
X0297250Y0133600D03*
X0296350Y0135100D03*
X0290950Y0134500D03*
X0290650Y0133000D03*
X0290650Y0132700D03*
X0290950Y0131800D03*
X0290950Y0131500D03*
X0300850Y0131500D03*
X0308050Y0135100D03*
X0308350Y0136000D03*
X0311650Y0136900D03*
X0311650Y0137200D03*
X0311650Y0137500D03*
X0311950Y0135700D03*
X0311950Y0135400D03*
X0311950Y0135100D03*
X0311950Y0134800D03*
X0311950Y0134500D03*
X0311650Y0133600D03*
X0308950Y0137800D03*
X0309250Y0138400D03*
X0311050Y0139300D03*
X0312250Y0139600D03*
X0312550Y0140800D03*
X0315250Y0140500D03*
X0315250Y0140200D03*
X0315250Y0141400D03*
X0311950Y0143500D03*
X0311950Y0143800D03*
X0311950Y0144100D03*
X0311650Y0145000D03*
X0309850Y0145300D03*
X0302350Y0140800D03*
X0302350Y0140500D03*
X0302350Y0139600D03*
X0302350Y0139300D03*
X0302650Y0136600D03*
X0302650Y0136300D03*
D180*
X0302650Y0135100D03*
X0308350Y0136600D03*
X0311650Y0138400D03*
X0312550Y0141700D03*
X0314950Y0141700D03*
X0311350Y0145300D03*
X0291550Y0135400D03*
X0291250Y0135100D03*
X0298150Y0130600D03*
X0293050Y0130000D03*
X0295450Y0126700D03*
X0290050Y0124000D03*
X0309850Y0132100D03*
D181*
X0308500Y0133000D03*
X0311200Y0133000D03*
X0311500Y0133300D03*
X0311800Y0133900D03*
X0311800Y0134200D03*
X0311800Y0136000D03*
X0311800Y0136300D03*
X0311800Y0136600D03*
X0311500Y0137800D03*
X0311500Y0138100D03*
X0312100Y0139300D03*
X0312400Y0139900D03*
X0312400Y0140200D03*
X0312400Y0140500D03*
X0312400Y0141100D03*
X0312400Y0141400D03*
X0311800Y0143200D03*
X0311800Y0144400D03*
X0311800Y0144700D03*
X0315400Y0141100D03*
X0315400Y0140800D03*
X0310900Y0139600D03*
X0309400Y0139000D03*
X0309400Y0138700D03*
X0309100Y0138100D03*
X0308500Y0136300D03*
X0308200Y0135700D03*
X0308200Y0135400D03*
X0304900Y0132400D03*
X0301300Y0132100D03*
X0301000Y0131800D03*
X0297100Y0133900D03*
X0297100Y0134200D03*
X0296800Y0134500D03*
X0296500Y0134800D03*
X0291700Y0135700D03*
X0291100Y0134800D03*
X0290800Y0132400D03*
X0290800Y0132100D03*
X0292300Y0130600D03*
X0295600Y0127000D03*
X0295300Y0126400D03*
X0295000Y0126100D03*
X0293200Y0125200D03*
X0290200Y0124300D03*
X0296800Y0128500D03*
X0297100Y0128800D03*
X0302500Y0135400D03*
X0302500Y0135700D03*
X0302500Y0136000D03*
X0302800Y0136900D03*
X0302800Y0138700D03*
X0302500Y0139000D03*
X0302200Y0139900D03*
X0302200Y0140200D03*
X0302500Y0141100D03*
X0302800Y0141400D03*
D182*
X0310000Y0140800D03*
X0310300Y0140500D03*
X0311500Y0139000D03*
X0311500Y0138700D03*
X0308200Y0136900D03*
X0307600Y0133600D03*
X0302800Y0134800D03*
X0310600Y0145900D03*
X0292900Y0124900D03*
X0292600Y0124600D03*
D183*
X0296500Y0127900D03*
X0297400Y0129700D03*
X0296200Y0130600D03*
X0294700Y0135400D03*
X0315100Y0139900D03*
D184*
X0307450Y0137800D03*
X0307150Y0138100D03*
X0307150Y0139000D03*
X0304750Y0136600D03*
X0304450Y0136900D03*
X0305050Y0136300D03*
X0305350Y0136000D03*
X0305650Y0135700D03*
X0305950Y0135400D03*
X0306250Y0135100D03*
X0307450Y0133900D03*
X0302950Y0134500D03*
X0298450Y0130900D03*
X0295750Y0130300D03*
X0295750Y0130000D03*
X0292750Y0130300D03*
X0294250Y0135700D03*
X0293950Y0136000D03*
X0303550Y0141700D03*
D185*
X0303700Y0137800D03*
X0303700Y0137500D03*
X0308200Y0137200D03*
X0307300Y0134200D03*
X0303100Y0134200D03*
X0298600Y0131200D03*
X0310000Y0140200D03*
X0309400Y0141100D03*
X0311200Y0142900D03*
X0313600Y0142300D03*
X0310600Y0145600D03*
D186*
X0308350Y0141400D03*
X0308950Y0139600D03*
X0308050Y0137500D03*
X0307150Y0134500D03*
X0307450Y0133300D03*
X0309850Y0132400D03*
X0303550Y0133600D03*
X0303250Y0133900D03*
D187*
X0304900Y0132700D03*
X0310300Y0142300D03*
D188*
X0310000Y0132700D03*
D189*
X0304900Y0133000D03*
X0305200Y0138400D03*
D190*
X0304300Y0138100D03*
X0303700Y0137200D03*
X0306400Y0138700D03*
X0309700Y0139900D03*
X0310600Y0142600D03*
X0307000Y0134800D03*
X0303700Y0133300D03*
D191*
X0308650Y0139300D03*
X0305050Y0142300D03*
D192*
X0307450Y0141700D03*
X0313450Y0142000D03*
D193*
X0306250Y0142000D03*
D194*
X0281500Y0134900D02*
X0281500Y0131000D01*
X0281500Y0127100D01*
X0280400Y0126000D01*
X0280500Y0131000D02*
X0281500Y0131000D01*
X0272500Y0131000D02*
X0270500Y0131000D01*
X0262500Y0131000D02*
X0260500Y0131000D01*
X0252500Y0131000D02*
X0251500Y0131000D01*
X0251500Y0127100D01*
X0252600Y0126000D01*
X0251500Y0131000D02*
X0251500Y0134900D01*
X0252600Y0136000D01*
X0241500Y0134900D02*
X0241500Y0131000D01*
X0241500Y0127100D01*
X0240400Y0126000D01*
X0240500Y0131000D02*
X0241500Y0131000D01*
X0241500Y0134900D02*
X0240400Y0136000D01*
X0232500Y0131000D02*
X0230500Y0131000D01*
X0222500Y0131000D02*
X0220500Y0131000D01*
X0212500Y0131000D02*
X0211500Y0131000D01*
X0211500Y0127100D01*
X0212600Y0126000D01*
X0211500Y0131000D02*
X0211500Y0134900D01*
X0212600Y0136000D01*
X0201500Y0134000D02*
X0201500Y0129000D01*
X0199000Y0126500D01*
X0194000Y0126500D01*
X0191500Y0129000D01*
X0189000Y0126500D01*
X0184000Y0126500D01*
X0181500Y0129000D01*
X0179000Y0126500D01*
X0174000Y0126500D01*
X0171500Y0129000D01*
X0169000Y0126500D01*
X0164000Y0126500D01*
X0161500Y0129000D01*
X0161500Y0134000D01*
X0164000Y0136500D01*
X0169000Y0136500D01*
X0171500Y0134000D01*
X0174000Y0136500D01*
X0179000Y0136500D01*
X0181500Y0134000D01*
X0184000Y0136500D01*
X0189000Y0136500D01*
X0191500Y0134000D01*
X0194000Y0136500D01*
X0199000Y0136500D01*
X0201500Y0134000D01*
X0251500Y0114900D02*
X0252600Y0116000D01*
X0251500Y0114900D02*
X0251500Y0111000D01*
X0251500Y0107100D01*
X0252600Y0106000D01*
X0252500Y0111000D02*
X0251500Y0111000D01*
X0260500Y0111000D02*
X0262500Y0111000D01*
X0270500Y0111000D02*
X0272500Y0111000D01*
X0280500Y0111000D02*
X0281500Y0111000D01*
X0281500Y0114900D01*
X0280400Y0116000D01*
X0281500Y0111000D02*
X0281500Y0107100D01*
X0280400Y0106000D01*
X0228191Y0082100D02*
X0224809Y0082100D01*
X0223309Y0077557D02*
X0223309Y0075443D01*
X0224809Y0070900D02*
X0228191Y0070900D01*
X0268626Y0066815D02*
X0270988Y0066815D01*
X0273350Y0066815D02*
X0279650Y0066815D01*
X0282012Y0066815D02*
X0284374Y0066815D01*
X0284374Y0066421D01*
X0292917Y0074217D02*
X0299610Y0074217D01*
X0292917Y0074217D02*
X0292917Y0038783D01*
X0299217Y0038783D01*
X0315358Y0038783D02*
X0323626Y0038783D01*
X0331500Y0046657D02*
X0345280Y0046657D01*
X0345280Y0066343D01*
X0331500Y0066343D01*
X0345280Y0066343D02*
X0345280Y0074217D01*
X0339374Y0074217D01*
X0323626Y0074217D02*
X0315358Y0074217D01*
X0331500Y0066343D02*
X0331272Y0066330D01*
X0331045Y0066311D01*
X0330818Y0066287D01*
X0330592Y0066258D01*
X0330367Y0066223D01*
X0330143Y0066183D01*
X0329920Y0066137D01*
X0329697Y0066086D01*
X0329477Y0066030D01*
X0329257Y0065968D01*
X0329039Y0065901D01*
X0328823Y0065829D01*
X0328609Y0065751D01*
X0328397Y0065669D01*
X0328186Y0065581D01*
X0327978Y0065488D01*
X0327772Y0065390D01*
X0327569Y0065288D01*
X0327368Y0065180D01*
X0327170Y0065068D01*
X0326974Y0064950D01*
X0326782Y0064829D01*
X0326592Y0064702D01*
X0326405Y0064571D01*
X0326222Y0064436D01*
X0326042Y0064296D01*
X0325866Y0064151D01*
X0325693Y0064003D01*
X0325524Y0063850D01*
X0325358Y0063694D01*
X0325196Y0063533D01*
X0325038Y0063369D01*
X0324885Y0063201D01*
X0324735Y0063029D01*
X0324589Y0062853D01*
X0324448Y0062674D01*
X0324311Y0062492D01*
X0324179Y0062307D01*
X0324051Y0062118D01*
X0323928Y0061926D01*
X0323809Y0061732D01*
X0323695Y0061534D01*
X0323586Y0061334D01*
X0323482Y0061132D01*
X0323383Y0060926D01*
X0323289Y0060719D01*
X0323199Y0060509D01*
X0323115Y0060297D01*
X0323036Y0060084D01*
X0322962Y0059868D01*
X0322894Y0059651D01*
X0322830Y0059432D01*
X0322772Y0059211D01*
X0322720Y0058990D01*
X0322672Y0058767D01*
X0322630Y0058543D01*
X0322594Y0058318D01*
X0322563Y0058092D01*
X0322537Y0057865D01*
X0322517Y0057638D01*
X0322503Y0057411D01*
X0322494Y0057183D01*
X0322490Y0056955D01*
X0322492Y0056728D01*
X0322499Y0056500D01*
X0322492Y0056272D01*
X0322490Y0056045D01*
X0322494Y0055817D01*
X0322503Y0055589D01*
X0322517Y0055362D01*
X0322537Y0055135D01*
X0322563Y0054908D01*
X0322594Y0054682D01*
X0322630Y0054457D01*
X0322672Y0054233D01*
X0322720Y0054010D01*
X0322772Y0053789D01*
X0322830Y0053568D01*
X0322894Y0053349D01*
X0322962Y0053132D01*
X0323036Y0052916D01*
X0323115Y0052703D01*
X0323199Y0052491D01*
X0323289Y0052281D01*
X0323383Y0052074D01*
X0323482Y0051868D01*
X0323586Y0051666D01*
X0323695Y0051466D01*
X0323809Y0051268D01*
X0323928Y0051074D01*
X0324051Y0050882D01*
X0324179Y0050693D01*
X0324311Y0050508D01*
X0324448Y0050326D01*
X0324589Y0050147D01*
X0324735Y0049971D01*
X0324885Y0049799D01*
X0325038Y0049631D01*
X0325196Y0049467D01*
X0325358Y0049306D01*
X0325524Y0049150D01*
X0325693Y0048997D01*
X0325866Y0048849D01*
X0326042Y0048704D01*
X0326222Y0048564D01*
X0326405Y0048429D01*
X0326592Y0048298D01*
X0326782Y0048171D01*
X0326974Y0048050D01*
X0327170Y0047932D01*
X0327368Y0047820D01*
X0327569Y0047712D01*
X0327772Y0047610D01*
X0327978Y0047512D01*
X0328186Y0047419D01*
X0328397Y0047331D01*
X0328609Y0047249D01*
X0328823Y0047171D01*
X0329039Y0047099D01*
X0329257Y0047032D01*
X0329477Y0046970D01*
X0329697Y0046914D01*
X0329920Y0046863D01*
X0330143Y0046817D01*
X0330367Y0046777D01*
X0330592Y0046742D01*
X0330818Y0046713D01*
X0331045Y0046689D01*
X0331272Y0046670D01*
X0331500Y0046657D01*
X0345280Y0046657D02*
X0345280Y0038783D01*
X0339374Y0038783D01*
X0284374Y0056185D02*
X0282012Y0056185D01*
X0279650Y0056185D02*
X0273350Y0056185D01*
X0270988Y0056185D02*
X0268626Y0056185D01*
X0268626Y0056579D01*
X0265673Y0038193D02*
X0268193Y0035673D01*
X0257327Y0037799D02*
X0255201Y0037799D01*
X0255201Y0035673D01*
X0255201Y0027327D02*
X0255201Y0025201D01*
X0257327Y0025201D01*
X0265673Y0025201D02*
X0267799Y0025201D01*
X0267799Y0027327D01*
X0238311Y0022169D02*
X0236500Y0022169D01*
X0237420Y0020949D01*
X0236500Y0022169D02*
X0234689Y0022169D01*
X0235640Y0020949D02*
X0236400Y0022109D01*
X0084000Y0048882D02*
X0084000Y0068173D01*
X0084000Y0078803D02*
X0084000Y0090614D01*
X0084000Y0101244D02*
X0084000Y0104000D01*
X0036362Y0104000D01*
X0030457Y0097701D02*
X0030457Y0064630D01*
X0030452Y0064504D01*
X0030443Y0064379D01*
X0030430Y0064254D01*
X0030413Y0064130D01*
X0030393Y0064006D01*
X0030369Y0063883D01*
X0030341Y0063761D01*
X0030309Y0063640D01*
X0030273Y0063520D01*
X0030234Y0063401D01*
X0030191Y0063283D01*
X0030144Y0063167D01*
X0030094Y0063052D01*
X0030040Y0062938D01*
X0029982Y0062827D01*
X0029922Y0062717D01*
X0029857Y0062610D01*
X0029790Y0062504D01*
X0029719Y0062400D01*
X0029645Y0062299D01*
X0029568Y0062200D01*
X0029488Y0062103D01*
X0029405Y0062009D01*
X0029320Y0061918D01*
X0029231Y0061829D01*
X0029140Y0061744D01*
X0029046Y0061661D01*
X0028949Y0061581D01*
X0028850Y0061504D01*
X0028749Y0061430D01*
X0028645Y0061359D01*
X0028539Y0061292D01*
X0028432Y0061227D01*
X0028322Y0061167D01*
X0028211Y0061109D01*
X0028097Y0061055D01*
X0027982Y0061005D01*
X0027866Y0060958D01*
X0027748Y0060915D01*
X0027629Y0060876D01*
X0027509Y0060840D01*
X0027388Y0060808D01*
X0027266Y0060780D01*
X0027143Y0060756D01*
X0027019Y0060736D01*
X0026895Y0060719D01*
X0026770Y0060706D01*
X0026645Y0060697D01*
X0026519Y0060692D01*
X0026520Y0060693D02*
X0026419Y0060699D01*
X0026319Y0060701D01*
X0026218Y0060699D01*
X0026118Y0060693D01*
X0026018Y0060683D01*
X0025918Y0060669D01*
X0025819Y0060651D01*
X0025721Y0060629D01*
X0025624Y0060604D01*
X0025527Y0060575D01*
X0025432Y0060542D01*
X0025339Y0060505D01*
X0025247Y0060464D01*
X0025156Y0060420D01*
X0025067Y0060373D01*
X0024981Y0060322D01*
X0024896Y0060268D01*
X0024813Y0060210D01*
X0024733Y0060150D01*
X0024656Y0060086D01*
X0024580Y0060019D01*
X0024508Y0059949D01*
X0024438Y0059877D01*
X0024371Y0059801D01*
X0024307Y0059724D01*
X0024247Y0059644D01*
X0024189Y0059561D01*
X0024135Y0059476D01*
X0024084Y0059390D01*
X0024037Y0059301D01*
X0023993Y0059210D01*
X0023952Y0059118D01*
X0023915Y0059025D01*
X0023882Y0058930D01*
X0023853Y0058833D01*
X0023828Y0058736D01*
X0023806Y0058638D01*
X0023788Y0058539D01*
X0023774Y0058439D01*
X0023764Y0058339D01*
X0023758Y0058239D01*
X0023756Y0058138D01*
X0023758Y0058038D01*
X0023764Y0057937D01*
X0023764Y0054787D01*
X0032031Y0048882D02*
X0084000Y0048882D01*
X0280400Y0136000D02*
X0281500Y0134900D01*
D195*
X0320649Y0101078D02*
X0320899Y0100577D01*
X0321399Y0100077D01*
X0321399Y0100827D01*
X0321650Y0101078D01*
X0321900Y0101078D01*
X0322150Y0100827D01*
X0322150Y0100327D01*
X0321900Y0100077D01*
X0321399Y0100077D01*
X0321399Y0099604D02*
X0321650Y0099354D01*
X0321650Y0098603D01*
X0322150Y0098603D02*
X0320649Y0098603D01*
X0320649Y0099354D01*
X0320899Y0099604D01*
X0321399Y0099604D01*
X0320649Y0098131D02*
X0320649Y0097631D01*
X0320649Y0097881D02*
X0321900Y0097881D01*
X0322150Y0097631D01*
X0322150Y0097380D01*
X0321900Y0097130D01*
X0293050Y0088124D02*
X0293050Y0087123D01*
X0293050Y0086651D02*
X0292550Y0086150D01*
X0292550Y0086401D02*
X0292550Y0085650D01*
X0293050Y0085650D02*
X0291549Y0085650D01*
X0291549Y0086401D01*
X0291799Y0086651D01*
X0292299Y0086651D01*
X0292550Y0086401D01*
X0292049Y0087123D02*
X0291549Y0087624D01*
X0293050Y0087624D01*
X0272778Y0081451D02*
X0272778Y0081201D01*
X0271777Y0080200D01*
X0271777Y0079950D01*
X0271304Y0079950D02*
X0270804Y0080450D01*
X0271054Y0080450D02*
X0270303Y0080450D01*
X0270303Y0079950D02*
X0270303Y0081451D01*
X0271054Y0081451D01*
X0271304Y0081201D01*
X0271304Y0080701D01*
X0271054Y0080450D01*
X0271777Y0081451D02*
X0272778Y0081451D01*
X0259124Y0083550D02*
X0259124Y0084551D01*
X0258874Y0084801D01*
X0258373Y0084801D01*
X0258123Y0084551D01*
X0258123Y0084301D01*
X0258373Y0084051D01*
X0259124Y0084051D01*
X0259124Y0083550D02*
X0258874Y0083300D01*
X0258373Y0083300D01*
X0258123Y0083550D01*
X0257651Y0083300D02*
X0257150Y0083800D01*
X0257401Y0083800D02*
X0256650Y0083800D01*
X0256650Y0083300D02*
X0256650Y0084801D01*
X0257401Y0084801D01*
X0257651Y0084551D01*
X0257651Y0084051D01*
X0257401Y0083800D01*
X0257154Y0079401D02*
X0256654Y0079401D01*
X0256403Y0079151D01*
X0256403Y0078150D01*
X0256654Y0077900D01*
X0257154Y0077900D01*
X0257404Y0078150D01*
X0257877Y0078150D02*
X0258127Y0077900D01*
X0258627Y0077900D01*
X0258878Y0078150D01*
X0258878Y0078400D01*
X0258627Y0078651D01*
X0258127Y0078651D01*
X0257877Y0078901D01*
X0257877Y0079151D01*
X0258127Y0079401D01*
X0258627Y0079401D01*
X0258878Y0079151D01*
X0258878Y0078901D01*
X0258627Y0078651D01*
X0258127Y0078651D02*
X0257877Y0078400D01*
X0257877Y0078150D01*
X0257404Y0079151D02*
X0257154Y0079401D01*
X0257481Y0088800D02*
X0256981Y0089300D01*
X0257231Y0089300D02*
X0256480Y0089300D01*
X0256480Y0088800D02*
X0256480Y0090301D01*
X0257231Y0090301D01*
X0257481Y0090051D01*
X0257481Y0089551D01*
X0257231Y0089300D01*
X0257953Y0088800D02*
X0258954Y0088800D01*
X0258454Y0088800D02*
X0258454Y0090301D01*
X0257953Y0089801D01*
X0259427Y0090051D02*
X0259677Y0090301D01*
X0260177Y0090301D01*
X0260428Y0090051D01*
X0259427Y0089050D01*
X0259677Y0088800D01*
X0260177Y0088800D01*
X0260428Y0089050D01*
X0260428Y0090051D01*
X0259427Y0090051D02*
X0259427Y0089050D01*
X0267549Y0089157D02*
X0269050Y0089157D01*
X0269050Y0090158D01*
X0268800Y0090630D02*
X0269050Y0090880D01*
X0269050Y0091381D01*
X0268800Y0091631D01*
X0268550Y0091631D01*
X0268299Y0091381D01*
X0268299Y0090880D01*
X0268049Y0090630D01*
X0267799Y0090630D01*
X0267549Y0090880D01*
X0267549Y0091381D01*
X0267799Y0091631D01*
X0267549Y0092103D02*
X0267549Y0092854D01*
X0267799Y0093104D01*
X0268800Y0093104D01*
X0269050Y0092854D01*
X0269050Y0092103D01*
X0267549Y0092103D01*
X0268049Y0093577D02*
X0267549Y0094077D01*
X0269050Y0094077D01*
X0269050Y0093577D02*
X0269050Y0094578D01*
X0262097Y0096600D02*
X0261847Y0096350D01*
X0261347Y0096350D01*
X0261097Y0096600D01*
X0262097Y0097601D01*
X0262097Y0096600D01*
X0261097Y0096600D02*
X0261097Y0097601D01*
X0261347Y0097851D01*
X0261847Y0097851D01*
X0262097Y0097601D01*
X0260624Y0096350D02*
X0259623Y0096350D01*
X0260124Y0096350D02*
X0260124Y0097851D01*
X0259623Y0097351D01*
X0259151Y0097601D02*
X0258901Y0097851D01*
X0258400Y0097851D01*
X0258150Y0097601D01*
X0258150Y0096600D01*
X0258400Y0096350D01*
X0258901Y0096350D01*
X0259151Y0096600D01*
X0267549Y0090158D02*
X0267549Y0089157D01*
X0268299Y0089157D02*
X0268299Y0089657D01*
X0228597Y0089600D02*
X0227597Y0089600D01*
X0228597Y0090601D01*
X0228597Y0090851D01*
X0228347Y0091101D01*
X0227847Y0091101D01*
X0227597Y0090851D01*
X0226624Y0091101D02*
X0226624Y0089600D01*
X0227124Y0089600D02*
X0226123Y0089600D01*
X0225651Y0089600D02*
X0225150Y0090100D01*
X0225401Y0090100D02*
X0224650Y0090100D01*
X0224650Y0089600D02*
X0224650Y0091101D01*
X0225401Y0091101D01*
X0225651Y0090851D01*
X0225651Y0090351D01*
X0225401Y0090100D01*
X0226123Y0090601D02*
X0226624Y0091101D01*
X0226523Y0099300D02*
X0226523Y0099550D01*
X0227524Y0100551D01*
X0227524Y0100801D01*
X0226523Y0100801D01*
X0226051Y0100551D02*
X0225801Y0100801D01*
X0225300Y0100801D01*
X0225050Y0100551D01*
X0225050Y0099550D01*
X0225300Y0099300D01*
X0225801Y0099300D01*
X0226051Y0099550D01*
X0194678Y0095700D02*
X0193677Y0095700D01*
X0193204Y0095700D02*
X0192203Y0095700D01*
X0191731Y0095700D02*
X0191231Y0096200D01*
X0191481Y0096200D02*
X0190730Y0096200D01*
X0190730Y0095700D02*
X0190730Y0097201D01*
X0191481Y0097201D01*
X0191731Y0096951D01*
X0191731Y0096451D01*
X0191481Y0096200D01*
X0192203Y0096701D02*
X0192704Y0097201D01*
X0192704Y0095700D01*
X0193677Y0096701D02*
X0194177Y0097201D01*
X0194177Y0095700D01*
X0193927Y0087251D02*
X0193427Y0087251D01*
X0193177Y0087001D01*
X0193177Y0086751D01*
X0193427Y0086501D01*
X0194178Y0086501D01*
X0194178Y0087001D02*
X0193927Y0087251D01*
X0194178Y0087001D02*
X0194178Y0086000D01*
X0193927Y0085750D01*
X0193427Y0085750D01*
X0193177Y0086000D01*
X0192704Y0086000D02*
X0192454Y0085750D01*
X0191954Y0085750D01*
X0191703Y0086000D01*
X0191703Y0087001D01*
X0191954Y0087251D01*
X0192454Y0087251D01*
X0192704Y0087001D01*
X0219949Y0077274D02*
X0220699Y0076523D01*
X0220699Y0077524D01*
X0219949Y0077274D02*
X0221450Y0077274D01*
X0221200Y0076051D02*
X0219949Y0076051D01*
X0219949Y0075050D02*
X0221200Y0075050D01*
X0221450Y0075300D01*
X0221450Y0075801D01*
X0221200Y0076051D01*
X0224280Y0063501D02*
X0224030Y0063251D01*
X0224030Y0062250D01*
X0224280Y0062000D01*
X0224781Y0062000D01*
X0225031Y0062250D01*
X0225503Y0062000D02*
X0226504Y0062000D01*
X0226004Y0062000D02*
X0226004Y0063501D01*
X0225503Y0063001D01*
X0225031Y0063251D02*
X0224781Y0063501D01*
X0224280Y0063501D01*
X0226977Y0063251D02*
X0226977Y0063001D01*
X0227227Y0062751D01*
X0227727Y0062751D01*
X0227978Y0062500D01*
X0227978Y0062250D01*
X0227727Y0062000D01*
X0227227Y0062000D01*
X0226977Y0062250D01*
X0226977Y0062500D01*
X0227227Y0062751D01*
X0227727Y0062751D02*
X0227978Y0063001D01*
X0227978Y0063251D01*
X0227727Y0063501D01*
X0227227Y0063501D01*
X0226977Y0063251D01*
X0213970Y0057315D02*
X0213719Y0057315D01*
X0212719Y0058315D01*
X0212468Y0058315D01*
X0212468Y0057315D01*
X0212468Y0056842D02*
X0213719Y0056842D01*
X0213970Y0056592D01*
X0213970Y0056092D01*
X0213719Y0055841D01*
X0212468Y0055841D01*
X0193178Y0055600D02*
X0192927Y0055350D01*
X0192427Y0055350D01*
X0192177Y0055600D01*
X0191704Y0055600D02*
X0191454Y0055350D01*
X0190954Y0055350D01*
X0190703Y0055600D01*
X0190703Y0056601D01*
X0190954Y0056851D01*
X0191454Y0056851D01*
X0191704Y0056601D01*
X0192177Y0056851D02*
X0192177Y0056101D01*
X0192677Y0056351D01*
X0192927Y0056351D01*
X0193178Y0056101D01*
X0193178Y0055600D01*
X0193178Y0056851D02*
X0192177Y0056851D01*
X0192024Y0047351D02*
X0192024Y0045850D01*
X0192524Y0045850D02*
X0191523Y0045850D01*
X0191051Y0046100D02*
X0190801Y0045850D01*
X0190300Y0045850D01*
X0190050Y0046100D01*
X0190050Y0047101D01*
X0190300Y0047351D01*
X0190801Y0047351D01*
X0191051Y0047101D01*
X0191523Y0046851D02*
X0192024Y0047351D01*
X0192997Y0047101D02*
X0193247Y0047351D01*
X0193747Y0047351D01*
X0193997Y0047101D01*
X0193997Y0046851D01*
X0192997Y0045850D01*
X0193997Y0045850D01*
X0220050Y0030401D02*
X0220300Y0030651D01*
X0220801Y0030651D01*
X0221051Y0030401D01*
X0221523Y0030151D02*
X0222024Y0030651D01*
X0222024Y0029150D01*
X0222524Y0029150D02*
X0221523Y0029150D01*
X0221051Y0029400D02*
X0220801Y0029150D01*
X0220300Y0029150D01*
X0220050Y0029400D01*
X0220050Y0030401D01*
X0222997Y0029901D02*
X0223747Y0029901D01*
X0223997Y0029650D01*
X0223997Y0029400D01*
X0223747Y0029150D01*
X0223247Y0029150D01*
X0222997Y0029400D01*
X0222997Y0029901D01*
X0223497Y0030401D01*
X0223997Y0030651D01*
X0251149Y0030627D02*
X0252566Y0030627D01*
X0252850Y0030343D01*
X0252850Y0029776D01*
X0252566Y0029493D01*
X0251149Y0029493D01*
X0251716Y0031150D02*
X0251149Y0031717D01*
X0252850Y0031717D01*
X0252850Y0031150D02*
X0252850Y0032284D01*
X0250988Y0044710D02*
X0249987Y0044710D01*
X0249514Y0044710D02*
X0248513Y0044710D01*
X0249014Y0044710D02*
X0249014Y0046211D01*
X0248513Y0045711D01*
X0248041Y0045961D02*
X0247791Y0046211D01*
X0247290Y0046211D01*
X0247040Y0045961D01*
X0247040Y0044960D01*
X0247290Y0044710D01*
X0247791Y0044710D01*
X0248041Y0044960D01*
X0249987Y0045711D02*
X0250487Y0046211D01*
X0250487Y0044710D01*
X0248910Y0050387D02*
X0247909Y0050387D01*
X0248409Y0050387D02*
X0248409Y0051888D01*
X0247909Y0051388D01*
X0247436Y0051638D02*
X0247186Y0051888D01*
X0246686Y0051888D01*
X0246435Y0051638D01*
X0246435Y0050637D01*
X0246686Y0050387D01*
X0247186Y0050387D01*
X0247436Y0050637D01*
X0247549Y0059286D02*
X0247049Y0059286D01*
X0246798Y0059536D01*
X0246798Y0060537D01*
X0247049Y0060787D01*
X0247549Y0060787D01*
X0247799Y0060537D01*
X0248272Y0060037D02*
X0249273Y0060037D01*
X0249022Y0060787D02*
X0248272Y0060037D01*
X0247799Y0059536D02*
X0247549Y0059286D01*
X0249022Y0059286D02*
X0249022Y0060787D01*
X0274793Y0054751D02*
X0274793Y0053334D01*
X0275076Y0053050D01*
X0275643Y0053050D01*
X0275927Y0053334D01*
X0275927Y0054751D01*
X0276450Y0054468D02*
X0276734Y0054751D01*
X0277301Y0054751D01*
X0277584Y0054468D01*
X0277584Y0054184D01*
X0276450Y0053050D01*
X0277584Y0053050D01*
X0291450Y0035497D02*
X0291450Y0034497D01*
X0291450Y0034024D02*
X0291450Y0033023D01*
X0290449Y0034024D01*
X0290199Y0034024D01*
X0289949Y0033774D01*
X0289949Y0033273D01*
X0290199Y0033023D01*
X0290199Y0032551D02*
X0290699Y0032551D01*
X0290950Y0032301D01*
X0290950Y0031550D01*
X0291450Y0031550D02*
X0289949Y0031550D01*
X0289949Y0032301D01*
X0290199Y0032551D01*
X0290950Y0032050D02*
X0291450Y0032551D01*
X0290449Y0034497D02*
X0289949Y0034997D01*
X0291450Y0034997D01*
X0281450Y0034024D02*
X0281450Y0033023D01*
X0280449Y0034024D01*
X0280199Y0034024D01*
X0279949Y0033774D01*
X0279949Y0033273D01*
X0280199Y0033023D01*
X0280199Y0032551D02*
X0280699Y0032551D01*
X0280950Y0032301D01*
X0280950Y0031550D01*
X0281450Y0031550D02*
X0279949Y0031550D01*
X0279949Y0032301D01*
X0280199Y0032551D01*
X0280950Y0032050D02*
X0281450Y0032551D01*
X0281300Y0023051D02*
X0281050Y0022801D01*
X0281050Y0021800D01*
X0281300Y0021550D01*
X0281801Y0021550D01*
X0282051Y0021800D01*
X0282523Y0021550D02*
X0283524Y0022551D01*
X0283524Y0022801D01*
X0283274Y0023051D01*
X0282773Y0023051D01*
X0282523Y0022801D01*
X0282051Y0022801D02*
X0281801Y0023051D01*
X0281300Y0023051D01*
X0282523Y0021550D02*
X0283524Y0021550D01*
X0262550Y0018127D02*
X0262550Y0017627D01*
X0262300Y0017377D01*
X0262550Y0016904D02*
X0262050Y0016404D01*
X0262050Y0016654D02*
X0262050Y0015903D01*
X0262550Y0015903D02*
X0261049Y0015903D01*
X0261049Y0016654D01*
X0261299Y0016904D01*
X0261799Y0016904D01*
X0262050Y0016654D01*
X0261299Y0017377D02*
X0261049Y0017627D01*
X0261049Y0018127D01*
X0261299Y0018378D01*
X0261549Y0018378D01*
X0261799Y0018127D01*
X0262050Y0018378D01*
X0262300Y0018378D01*
X0262550Y0018127D01*
X0261799Y0018127D02*
X0261799Y0017877D01*
X0247813Y0013272D02*
X0246312Y0013272D01*
X0247062Y0012522D01*
X0247062Y0013522D01*
X0247062Y0012049D02*
X0247313Y0011799D01*
X0247313Y0011048D01*
X0247813Y0011048D02*
X0246312Y0011048D01*
X0246312Y0011799D01*
X0246562Y0012049D01*
X0247062Y0012049D01*
X0247313Y0011549D02*
X0247813Y0012049D01*
X0237350Y0011777D02*
X0237350Y0012528D01*
X0237099Y0012778D01*
X0236099Y0012778D01*
X0235848Y0012528D01*
X0235848Y0011777D01*
X0237350Y0011777D01*
X0237350Y0013251D02*
X0237350Y0014252D01*
X0237350Y0013751D02*
X0235848Y0013751D01*
X0236349Y0013251D01*
X0222237Y0013381D02*
X0221987Y0013631D01*
X0222237Y0013381D02*
X0222237Y0012881D01*
X0221987Y0012630D01*
X0220986Y0012630D01*
X0220736Y0012881D01*
X0220736Y0013381D01*
X0220986Y0013631D01*
X0220986Y0014104D02*
X0220736Y0014354D01*
X0220736Y0014854D01*
X0220986Y0015104D01*
X0221236Y0015104D01*
X0221486Y0014854D01*
X0221737Y0015104D01*
X0221987Y0015104D01*
X0222237Y0014854D01*
X0222237Y0014354D01*
X0221987Y0014104D01*
X0221486Y0014604D02*
X0221486Y0014854D01*
X0211950Y0013077D02*
X0211700Y0013077D01*
X0210699Y0014078D01*
X0210449Y0014078D01*
X0210449Y0013077D01*
X0210449Y0012104D02*
X0211950Y0012104D01*
X0211950Y0012604D02*
X0211950Y0011603D01*
X0211950Y0011131D02*
X0211450Y0010631D01*
X0211450Y0010881D02*
X0211450Y0010130D01*
X0211950Y0010130D02*
X0210449Y0010130D01*
X0210449Y0010881D01*
X0210699Y0011131D01*
X0211199Y0011131D01*
X0211450Y0010881D01*
X0210949Y0011603D02*
X0210449Y0012104D01*
D196*
X0251500Y0084000D03*
X0251500Y0089500D03*
X0226500Y0086500D03*
X0201500Y0096500D03*
D197*
X0226500Y0096620D02*
X0226500Y0096380D01*
X0251500Y0078620D02*
X0251500Y0078380D01*
X0226500Y0066620D02*
X0226500Y0066380D01*
D198*
X0267839Y0067602D03*
D199*
X0256500Y0059610D02*
X0256500Y0059390D01*
X0256500Y0051610D02*
X0256500Y0051390D01*
X0201500Y0086390D02*
X0201500Y0086610D01*
X0251500Y0096390D02*
X0251500Y0096610D01*
D200*
X0268193Y0038193D03*
D201*
X0276500Y0031500D03*
X0266500Y0016500D03*
D202*
X0246500Y0021500D03*
X0211500Y0021500D03*
X0286500Y0031500D03*
D203*
X0257500Y0043880D02*
X0257500Y0044120D01*
X0221500Y0034120D02*
X0221500Y0033880D01*
X0221380Y0021500D02*
X0221620Y0021500D01*
X0201500Y0046380D02*
X0201500Y0046620D01*
X0201500Y0056380D02*
X0201500Y0056620D01*
X0282000Y0016620D02*
X0282000Y0016380D01*
D204*
X0198900Y0016967D02*
X0198533Y0016600D01*
X0198900Y0016967D02*
X0198900Y0017701D01*
X0198533Y0018068D01*
X0198166Y0018068D01*
X0197799Y0017701D01*
X0197799Y0016967D01*
X0197432Y0016600D01*
X0197065Y0016600D01*
X0196698Y0016967D01*
X0196698Y0017701D01*
X0197065Y0018068D01*
X0197432Y0018810D02*
X0196698Y0019544D01*
X0198900Y0019544D01*
X0198900Y0018810D02*
X0198900Y0020278D01*
X0205527Y0068886D02*
X0207862Y0068886D01*
X0208329Y0069353D01*
X0208329Y0070288D01*
X0207862Y0070755D01*
X0205527Y0070755D01*
X0205527Y0071649D02*
X0206928Y0071649D01*
X0206461Y0072583D01*
X0206461Y0073050D01*
X0206928Y0073517D01*
X0207862Y0073517D01*
X0208329Y0073050D01*
X0208329Y0072116D01*
X0207862Y0071649D01*
X0205527Y0071649D02*
X0205527Y0073517D01*
D205*
X0271500Y0076500D03*
D206*
X0227406Y0057406D02*
X0227406Y0054820D01*
X0227406Y0057406D02*
X0226788Y0057406D01*
X0216212Y0057406D02*
X0215594Y0057406D01*
X0215594Y0054820D01*
X0215594Y0048180D02*
X0215594Y0045594D01*
X0216212Y0045594D01*
X0226788Y0045594D02*
X0227406Y0045594D01*
X0227406Y0048180D01*
D207*
X0271500Y0091500D03*
D208*
X0186741Y0139801D02*
X0186140Y0139200D01*
X0184939Y0139200D01*
X0184339Y0139801D01*
X0184339Y0142203D01*
X0184939Y0142803D01*
X0186140Y0142803D01*
X0186741Y0142203D01*
X0183057Y0142203D02*
X0182457Y0142803D01*
X0181256Y0142803D01*
X0180655Y0142203D01*
X0179401Y0142803D02*
X0178200Y0142803D01*
X0178801Y0142803D02*
X0178801Y0139200D01*
X0179401Y0139200D02*
X0178200Y0139200D01*
X0180655Y0139200D02*
X0183057Y0141602D01*
X0183057Y0142203D01*
X0183057Y0139200D02*
X0180655Y0139200D01*
D209*
X0031500Y0036500D02*
X0031500Y0016500D01*
X0151500Y0016500D01*
X0151500Y0036500D01*
X0163500Y0042500D01*
X0163500Y0110500D01*
X0151500Y0116500D01*
X0151500Y0136500D01*
X0031500Y0136500D01*
X0031500Y0116500D01*
X0019500Y0116500D01*
X0019500Y0092500D01*
X0012000Y0092500D01*
X0012000Y0060500D01*
X0019500Y0060500D01*
X0019500Y0036500D01*
X0031500Y0036500D01*
M02*
