G75*
%MOIN*%
%OFA0B0*%
%FSLAX25Y25*%
%IPPOS*%
%LPD*%
%AMOC8*
5,1,8,0,0,1.08239X$1,22.5*
%
%ADD10R,0.04724X0.02165*%
%ADD11R,0.02756X0.03543*%
%ADD12R,0.18110X0.03937*%
%ADD13R,0.13386X0.06299*%
%ADD14R,0.03937X0.03150*%
%ADD15R,0.00984X0.02067*%
%ADD16R,0.03150X0.00787*%
%ADD17R,0.07087X0.06299*%
%ADD18R,0.04331X0.03937*%
%ADD19R,0.00906X0.03150*%
%ADD20R,0.03150X0.00906*%
%ADD21R,0.02756X0.02756*%
%ADD22R,0.03937X0.04331*%
%ADD23C,0.01181*%
%ADD24R,0.04724X0.03150*%
%ADD25R,0.06299X0.07087*%
%ADD26R,0.03150X0.04724*%
%ADD27R,0.05906X0.03150*%
%ADD28R,0.07480X0.05512*%
%ADD29R,0.05512X0.07087*%
%ADD30C,0.02756*%
%ADD31C,0.03543*%
%ADD32C,0.00114*%
%ADD33R,0.03150X0.01181*%
%ADD34R,0.01181X0.03150*%
%ADD35R,0.01693X0.01102*%
%ADD36R,0.03937X0.06299*%
%ADD37R,0.11024X0.09449*%
D10*
X0221381Y0072760D03*
X0231619Y0072760D03*
X0231619Y0076500D03*
X0231619Y0080240D03*
X0221381Y0080240D03*
D11*
X0223941Y0086500D03*
X0229059Y0086500D03*
X0248941Y0084000D03*
X0254059Y0084000D03*
X0254059Y0078500D03*
X0248941Y0078500D03*
X0248941Y0089500D03*
X0254059Y0089500D03*
X0229059Y0096500D03*
X0223941Y0096500D03*
X0204059Y0096500D03*
X0198941Y0096500D03*
X0223941Y0066500D03*
X0229059Y0066500D03*
D12*
X0301933Y0102563D03*
X0301933Y0110437D03*
D13*
X0322406Y0119886D03*
X0322406Y0093114D03*
D14*
X0278862Y0063469D03*
X0274138Y0063469D03*
X0274138Y0059531D03*
X0278862Y0059531D03*
D15*
X0280831Y0056136D03*
X0272169Y0056136D03*
X0272169Y0066864D03*
X0280831Y0066864D03*
D16*
X0284276Y0065437D03*
X0284276Y0063862D03*
X0284276Y0062287D03*
X0284276Y0060713D03*
X0284276Y0059138D03*
X0284276Y0059138D03*
X0284276Y0057563D03*
X0268724Y0057563D03*
X0268724Y0059138D03*
X0268724Y0060713D03*
X0268724Y0062287D03*
X0268724Y0063862D03*
X0268724Y0065437D03*
D17*
X0286500Y0080988D03*
X0286500Y0092012D03*
D18*
X0254846Y0096500D03*
X0248154Y0096500D03*
X0204846Y0086500D03*
X0198154Y0086500D03*
X0253154Y0059500D03*
X0259846Y0059500D03*
X0259846Y0051500D03*
X0253154Y0051500D03*
X0224846Y0034000D03*
X0218154Y0034000D03*
X0204846Y0046500D03*
X0198154Y0046500D03*
X0198154Y0056500D03*
X0204846Y0056500D03*
X0268154Y0076500D03*
X0274846Y0076500D03*
D19*
X0264453Y0037307D03*
X0262484Y0037307D03*
X0260516Y0037307D03*
X0258547Y0037307D03*
X0258547Y0025693D03*
X0260516Y0025693D03*
X0262484Y0025693D03*
X0264453Y0025693D03*
D20*
X0267307Y0028547D03*
X0267307Y0030516D03*
X0267307Y0032484D03*
X0267307Y0034453D03*
X0255693Y0034453D03*
X0255693Y0032484D03*
X0255693Y0030516D03*
X0255693Y0028547D03*
D21*
X0259728Y0029728D03*
X0263272Y0029728D03*
X0263272Y0033272D03*
X0259728Y0033272D03*
D22*
X0246500Y0024846D03*
X0246500Y0018154D03*
X0266500Y0019846D03*
X0266500Y0013154D03*
X0276500Y0028154D03*
X0286500Y0028154D03*
X0286500Y0034846D03*
X0276500Y0034846D03*
X0211500Y0024846D03*
X0211500Y0018154D03*
D23*
X0235122Y0016669D02*
X0237878Y0016669D01*
X0235122Y0016669D02*
X0235122Y0019425D01*
X0237878Y0019425D01*
X0237878Y0016669D01*
X0237878Y0017849D02*
X0235122Y0017849D01*
X0235122Y0019029D02*
X0237878Y0019029D01*
X0237878Y0023575D02*
X0235122Y0023575D01*
X0235122Y0026331D01*
X0237878Y0026331D01*
X0237878Y0023575D01*
X0237878Y0024755D02*
X0235122Y0024755D01*
X0235122Y0025935D02*
X0237878Y0025935D01*
D24*
X0221500Y0025043D03*
X0221500Y0017957D03*
D25*
X0276488Y0016500D03*
X0287512Y0016500D03*
D26*
X0261043Y0044000D03*
X0253957Y0044000D03*
D27*
X0043449Y0073134D03*
X0041874Y0077465D03*
X0041087Y0081795D03*
X0041874Y0086126D03*
X0041087Y0090457D03*
X0041874Y0094787D03*
X0041874Y0099118D03*
X0041874Y0068803D03*
D28*
X0026717Y0050457D03*
X0030654Y0102228D03*
D29*
X0082425Y0095929D03*
X0082425Y0073488D03*
D30*
X0198390Y0076500D03*
X0198390Y0066500D03*
D31*
X0211815Y0066776D03*
X0211815Y0071500D03*
X0211815Y0076224D03*
D32*
X0204525Y0072669D02*
X0203555Y0072326D01*
X0203556Y0072327D02*
X0203521Y0072413D01*
X0203482Y0072497D01*
X0203440Y0072580D01*
X0203395Y0072661D01*
X0203346Y0072739D01*
X0203294Y0072816D01*
X0203238Y0072890D01*
X0203180Y0072962D01*
X0203119Y0073032D01*
X0203054Y0073099D01*
X0202987Y0073163D01*
X0202918Y0073224D01*
X0202846Y0073282D01*
X0202771Y0073337D01*
X0202694Y0073389D01*
X0202615Y0073438D01*
X0202534Y0073483D01*
X0202452Y0073525D01*
X0202367Y0073564D01*
X0202281Y0073598D01*
X0202194Y0073629D01*
X0202105Y0073657D01*
X0202016Y0073680D01*
X0201925Y0073700D01*
X0201834Y0073716D01*
X0201742Y0073729D01*
X0201650Y0073737D01*
X0201557Y0073741D01*
X0201557Y0074769D01*
X0201558Y0074769D01*
X0201668Y0074766D01*
X0201778Y0074758D01*
X0201888Y0074747D01*
X0201997Y0074731D01*
X0202106Y0074713D01*
X0202214Y0074690D01*
X0202321Y0074664D01*
X0202427Y0074634D01*
X0202532Y0074600D01*
X0202636Y0074563D01*
X0202739Y0074523D01*
X0202840Y0074479D01*
X0202939Y0074431D01*
X0203037Y0074380D01*
X0203133Y0074326D01*
X0203227Y0074269D01*
X0203320Y0074208D01*
X0203410Y0074144D01*
X0203497Y0074078D01*
X0203583Y0074008D01*
X0203666Y0073935D01*
X0203747Y0073860D01*
X0203824Y0073782D01*
X0203900Y0073701D01*
X0203972Y0073618D01*
X0204042Y0073532D01*
X0204108Y0073444D01*
X0204172Y0073354D01*
X0204232Y0073262D01*
X0204289Y0073167D01*
X0204343Y0073071D01*
X0204394Y0072973D01*
X0204441Y0072873D01*
X0204485Y0072772D01*
X0204525Y0072669D01*
X0204424Y0072634D01*
X0204384Y0072736D01*
X0204340Y0072836D01*
X0204293Y0072935D01*
X0204242Y0073033D01*
X0204188Y0073128D01*
X0204131Y0073222D01*
X0204070Y0073313D01*
X0204006Y0073402D01*
X0203939Y0073489D01*
X0203869Y0073573D01*
X0203796Y0073655D01*
X0203721Y0073735D01*
X0203642Y0073811D01*
X0203561Y0073885D01*
X0203478Y0073956D01*
X0203391Y0074024D01*
X0203303Y0074089D01*
X0203212Y0074151D01*
X0203120Y0074210D01*
X0203025Y0074265D01*
X0202928Y0074317D01*
X0202830Y0074365D01*
X0202730Y0074410D01*
X0202628Y0074452D01*
X0202525Y0074490D01*
X0202421Y0074524D01*
X0202316Y0074554D01*
X0202209Y0074581D01*
X0202102Y0074604D01*
X0201994Y0074623D01*
X0201886Y0074639D01*
X0201777Y0074651D01*
X0201667Y0074658D01*
X0201558Y0074662D01*
X0201558Y0074555D01*
X0201667Y0074551D01*
X0201775Y0074543D01*
X0201884Y0074531D01*
X0201991Y0074516D01*
X0202099Y0074496D01*
X0202205Y0074472D01*
X0202311Y0074445D01*
X0202415Y0074414D01*
X0202518Y0074379D01*
X0202620Y0074340D01*
X0202721Y0074297D01*
X0202820Y0074252D01*
X0202917Y0074202D01*
X0203012Y0074149D01*
X0203105Y0074093D01*
X0203196Y0074033D01*
X0203285Y0073970D01*
X0203372Y0073904D01*
X0203456Y0073835D01*
X0203538Y0073762D01*
X0203617Y0073687D01*
X0203693Y0073609D01*
X0203767Y0073529D01*
X0203837Y0073445D01*
X0203904Y0073360D01*
X0203968Y0073272D01*
X0204029Y0073181D01*
X0204087Y0073089D01*
X0204141Y0072994D01*
X0204192Y0072898D01*
X0204239Y0072799D01*
X0204283Y0072700D01*
X0204323Y0072598D01*
X0204222Y0072563D01*
X0204184Y0072660D01*
X0204142Y0072756D01*
X0204096Y0072851D01*
X0204047Y0072944D01*
X0203995Y0073035D01*
X0203939Y0073124D01*
X0203880Y0073211D01*
X0203818Y0073296D01*
X0203753Y0073378D01*
X0203686Y0073459D01*
X0203615Y0073536D01*
X0203541Y0073611D01*
X0203465Y0073684D01*
X0203387Y0073753D01*
X0203306Y0073820D01*
X0203222Y0073884D01*
X0203136Y0073944D01*
X0203048Y0074002D01*
X0202959Y0074056D01*
X0202867Y0074107D01*
X0202773Y0074155D01*
X0202678Y0074199D01*
X0202581Y0074240D01*
X0202483Y0074278D01*
X0202384Y0074311D01*
X0202283Y0074341D01*
X0202181Y0074368D01*
X0202079Y0074391D01*
X0201975Y0074410D01*
X0201872Y0074425D01*
X0201767Y0074437D01*
X0201662Y0074444D01*
X0201558Y0074448D01*
X0201557Y0074341D01*
X0201662Y0074337D01*
X0201765Y0074329D01*
X0201869Y0074317D01*
X0201972Y0074302D01*
X0202074Y0074282D01*
X0202176Y0074259D01*
X0202277Y0074232D01*
X0202376Y0074201D01*
X0202474Y0074167D01*
X0202571Y0074129D01*
X0202667Y0074087D01*
X0202761Y0074042D01*
X0202853Y0073993D01*
X0202943Y0073941D01*
X0203031Y0073886D01*
X0203118Y0073827D01*
X0203202Y0073765D01*
X0203283Y0073701D01*
X0203362Y0073633D01*
X0203439Y0073562D01*
X0203513Y0073489D01*
X0203584Y0073412D01*
X0203652Y0073334D01*
X0203717Y0073252D01*
X0203779Y0073169D01*
X0203838Y0073083D01*
X0203894Y0072995D01*
X0203946Y0072905D01*
X0203995Y0072813D01*
X0204041Y0072719D01*
X0204083Y0072624D01*
X0204121Y0072527D01*
X0204021Y0072491D01*
X0203983Y0072584D01*
X0203943Y0072676D01*
X0203899Y0072766D01*
X0203852Y0072854D01*
X0203802Y0072940D01*
X0203748Y0073025D01*
X0203691Y0073107D01*
X0203632Y0073188D01*
X0203569Y0073266D01*
X0203503Y0073341D01*
X0203435Y0073415D01*
X0203364Y0073485D01*
X0203291Y0073553D01*
X0203215Y0073618D01*
X0203136Y0073681D01*
X0203056Y0073740D01*
X0202973Y0073796D01*
X0202888Y0073849D01*
X0202802Y0073899D01*
X0202713Y0073946D01*
X0202623Y0073989D01*
X0202531Y0074029D01*
X0202438Y0074066D01*
X0202344Y0074099D01*
X0202248Y0074129D01*
X0202151Y0074155D01*
X0202054Y0074177D01*
X0201956Y0074196D01*
X0201857Y0074211D01*
X0201757Y0074223D01*
X0201657Y0074230D01*
X0201557Y0074234D01*
X0201557Y0074127D01*
X0201656Y0074123D01*
X0201755Y0074115D01*
X0201853Y0074104D01*
X0201951Y0074088D01*
X0202048Y0074069D01*
X0202145Y0074046D01*
X0202240Y0074020D01*
X0202335Y0073989D01*
X0202428Y0073956D01*
X0202520Y0073918D01*
X0202610Y0073877D01*
X0202698Y0073833D01*
X0202785Y0073786D01*
X0202870Y0073735D01*
X0202953Y0073681D01*
X0203034Y0073624D01*
X0203113Y0073563D01*
X0203189Y0073500D01*
X0203263Y0073434D01*
X0203334Y0073365D01*
X0203402Y0073293D01*
X0203468Y0073219D01*
X0203531Y0073143D01*
X0203591Y0073064D01*
X0203648Y0072983D01*
X0203701Y0072899D01*
X0203752Y0072814D01*
X0203799Y0072727D01*
X0203843Y0072638D01*
X0203883Y0072548D01*
X0203920Y0072456D01*
X0203819Y0072420D01*
X0203782Y0072511D01*
X0203742Y0072600D01*
X0203698Y0072688D01*
X0203651Y0072774D01*
X0203601Y0072858D01*
X0203547Y0072940D01*
X0203490Y0073020D01*
X0203431Y0073097D01*
X0203368Y0073172D01*
X0203302Y0073245D01*
X0203233Y0073314D01*
X0203162Y0073382D01*
X0203088Y0073446D01*
X0203011Y0073507D01*
X0202932Y0073565D01*
X0202851Y0073620D01*
X0202768Y0073672D01*
X0202683Y0073720D01*
X0202596Y0073765D01*
X0202507Y0073807D01*
X0202417Y0073845D01*
X0202325Y0073879D01*
X0202232Y0073910D01*
X0202138Y0073937D01*
X0202043Y0073961D01*
X0201947Y0073980D01*
X0201850Y0073996D01*
X0201753Y0074008D01*
X0201655Y0074016D01*
X0201557Y0074020D01*
X0201557Y0073913D01*
X0201654Y0073909D01*
X0201750Y0073901D01*
X0201846Y0073888D01*
X0201942Y0073872D01*
X0202037Y0073852D01*
X0202130Y0073828D01*
X0202223Y0073801D01*
X0202315Y0073769D01*
X0202405Y0073734D01*
X0202494Y0073696D01*
X0202581Y0073653D01*
X0202666Y0073607D01*
X0202749Y0073558D01*
X0202831Y0073505D01*
X0202910Y0073449D01*
X0202986Y0073390D01*
X0203060Y0073328D01*
X0203132Y0073263D01*
X0203201Y0073195D01*
X0203267Y0073124D01*
X0203330Y0073051D01*
X0203390Y0072975D01*
X0203447Y0072897D01*
X0203501Y0072816D01*
X0203551Y0072733D01*
X0203598Y0072649D01*
X0203642Y0072562D01*
X0203682Y0072474D01*
X0203718Y0072384D01*
X0203617Y0072349D01*
X0203582Y0072434D01*
X0203544Y0072518D01*
X0203503Y0072601D01*
X0203458Y0072681D01*
X0203410Y0072760D01*
X0203359Y0072837D01*
X0203304Y0072911D01*
X0203247Y0072984D01*
X0203187Y0073054D01*
X0203124Y0073121D01*
X0203058Y0073186D01*
X0202990Y0073248D01*
X0202919Y0073307D01*
X0202846Y0073363D01*
X0202771Y0073417D01*
X0202693Y0073467D01*
X0202614Y0073514D01*
X0202533Y0073558D01*
X0202450Y0073598D01*
X0202365Y0073635D01*
X0202279Y0073669D01*
X0202192Y0073699D01*
X0202103Y0073725D01*
X0202014Y0073748D01*
X0201924Y0073767D01*
X0201833Y0073782D01*
X0201741Y0073794D01*
X0201649Y0073802D01*
X0201557Y0073806D01*
X0200370Y0074564D02*
X0200713Y0073594D01*
X0200712Y0073595D02*
X0200626Y0073560D01*
X0200542Y0073521D01*
X0200459Y0073479D01*
X0200378Y0073434D01*
X0200300Y0073385D01*
X0200223Y0073333D01*
X0200149Y0073277D01*
X0200077Y0073219D01*
X0200007Y0073158D01*
X0199940Y0073093D01*
X0199876Y0073026D01*
X0199815Y0072957D01*
X0199757Y0072885D01*
X0199702Y0072810D01*
X0199650Y0072733D01*
X0199601Y0072654D01*
X0199556Y0072573D01*
X0199514Y0072491D01*
X0199475Y0072406D01*
X0199441Y0072320D01*
X0199410Y0072233D01*
X0199382Y0072144D01*
X0199359Y0072055D01*
X0199339Y0071964D01*
X0199323Y0071873D01*
X0199310Y0071781D01*
X0199302Y0071689D01*
X0199298Y0071596D01*
X0198270Y0071596D01*
X0198270Y0071597D01*
X0198273Y0071707D01*
X0198281Y0071817D01*
X0198292Y0071927D01*
X0198308Y0072036D01*
X0198326Y0072145D01*
X0198349Y0072253D01*
X0198375Y0072360D01*
X0198405Y0072466D01*
X0198439Y0072571D01*
X0198476Y0072675D01*
X0198516Y0072778D01*
X0198560Y0072879D01*
X0198608Y0072978D01*
X0198659Y0073076D01*
X0198713Y0073172D01*
X0198770Y0073266D01*
X0198831Y0073359D01*
X0198895Y0073449D01*
X0198961Y0073536D01*
X0199031Y0073622D01*
X0199104Y0073705D01*
X0199179Y0073786D01*
X0199257Y0073863D01*
X0199338Y0073939D01*
X0199421Y0074011D01*
X0199507Y0074081D01*
X0199595Y0074147D01*
X0199685Y0074211D01*
X0199777Y0074271D01*
X0199872Y0074328D01*
X0199968Y0074382D01*
X0200066Y0074433D01*
X0200166Y0074480D01*
X0200267Y0074524D01*
X0200370Y0074564D01*
X0200405Y0074463D01*
X0200303Y0074423D01*
X0200203Y0074379D01*
X0200104Y0074332D01*
X0200006Y0074281D01*
X0199911Y0074227D01*
X0199817Y0074170D01*
X0199726Y0074109D01*
X0199637Y0074045D01*
X0199550Y0073978D01*
X0199466Y0073908D01*
X0199384Y0073835D01*
X0199304Y0073760D01*
X0199228Y0073681D01*
X0199154Y0073600D01*
X0199083Y0073517D01*
X0199015Y0073430D01*
X0198950Y0073342D01*
X0198888Y0073251D01*
X0198829Y0073159D01*
X0198774Y0073064D01*
X0198722Y0072967D01*
X0198674Y0072869D01*
X0198629Y0072769D01*
X0198587Y0072667D01*
X0198549Y0072564D01*
X0198515Y0072460D01*
X0198485Y0072355D01*
X0198458Y0072248D01*
X0198435Y0072141D01*
X0198416Y0072033D01*
X0198400Y0071925D01*
X0198388Y0071816D01*
X0198381Y0071706D01*
X0198377Y0071597D01*
X0198484Y0071597D01*
X0198488Y0071706D01*
X0198496Y0071814D01*
X0198508Y0071923D01*
X0198523Y0072030D01*
X0198543Y0072138D01*
X0198567Y0072244D01*
X0198594Y0072350D01*
X0198625Y0072454D01*
X0198660Y0072557D01*
X0198699Y0072659D01*
X0198742Y0072760D01*
X0198787Y0072859D01*
X0198837Y0072956D01*
X0198890Y0073051D01*
X0198946Y0073144D01*
X0199006Y0073235D01*
X0199069Y0073324D01*
X0199135Y0073411D01*
X0199204Y0073495D01*
X0199277Y0073577D01*
X0199352Y0073656D01*
X0199430Y0073732D01*
X0199510Y0073806D01*
X0199594Y0073876D01*
X0199679Y0073943D01*
X0199767Y0074007D01*
X0199858Y0074068D01*
X0199950Y0074126D01*
X0200045Y0074180D01*
X0200141Y0074231D01*
X0200240Y0074278D01*
X0200339Y0074322D01*
X0200441Y0074362D01*
X0200476Y0074261D01*
X0200379Y0074223D01*
X0200283Y0074181D01*
X0200188Y0074135D01*
X0200095Y0074086D01*
X0200004Y0074034D01*
X0199915Y0073978D01*
X0199828Y0073919D01*
X0199743Y0073857D01*
X0199661Y0073792D01*
X0199580Y0073725D01*
X0199503Y0073654D01*
X0199428Y0073580D01*
X0199355Y0073504D01*
X0199286Y0073426D01*
X0199219Y0073345D01*
X0199155Y0073261D01*
X0199095Y0073175D01*
X0199037Y0073087D01*
X0198983Y0072998D01*
X0198932Y0072906D01*
X0198884Y0072812D01*
X0198840Y0072717D01*
X0198799Y0072620D01*
X0198761Y0072522D01*
X0198728Y0072423D01*
X0198698Y0072322D01*
X0198671Y0072220D01*
X0198648Y0072118D01*
X0198629Y0072014D01*
X0198614Y0071911D01*
X0198602Y0071806D01*
X0198595Y0071701D01*
X0198591Y0071597D01*
X0198698Y0071596D01*
X0198702Y0071701D01*
X0198710Y0071804D01*
X0198722Y0071908D01*
X0198737Y0072011D01*
X0198757Y0072113D01*
X0198780Y0072215D01*
X0198807Y0072316D01*
X0198838Y0072415D01*
X0198872Y0072513D01*
X0198910Y0072610D01*
X0198952Y0072706D01*
X0198997Y0072800D01*
X0199046Y0072892D01*
X0199098Y0072982D01*
X0199153Y0073070D01*
X0199212Y0073157D01*
X0199274Y0073241D01*
X0199338Y0073322D01*
X0199406Y0073401D01*
X0199477Y0073478D01*
X0199550Y0073552D01*
X0199627Y0073623D01*
X0199705Y0073691D01*
X0199787Y0073756D01*
X0199870Y0073818D01*
X0199956Y0073877D01*
X0200044Y0073933D01*
X0200134Y0073985D01*
X0200226Y0074034D01*
X0200320Y0074080D01*
X0200415Y0074122D01*
X0200512Y0074160D01*
X0200548Y0074060D01*
X0200455Y0074022D01*
X0200363Y0073982D01*
X0200273Y0073938D01*
X0200185Y0073891D01*
X0200099Y0073841D01*
X0200014Y0073787D01*
X0199932Y0073730D01*
X0199851Y0073671D01*
X0199773Y0073608D01*
X0199698Y0073542D01*
X0199624Y0073474D01*
X0199554Y0073403D01*
X0199486Y0073330D01*
X0199421Y0073254D01*
X0199358Y0073175D01*
X0199299Y0073095D01*
X0199243Y0073012D01*
X0199190Y0072927D01*
X0199140Y0072841D01*
X0199093Y0072752D01*
X0199050Y0072662D01*
X0199010Y0072570D01*
X0198973Y0072477D01*
X0198940Y0072383D01*
X0198910Y0072287D01*
X0198884Y0072190D01*
X0198862Y0072093D01*
X0198843Y0071995D01*
X0198828Y0071896D01*
X0198816Y0071796D01*
X0198809Y0071696D01*
X0198805Y0071596D01*
X0198912Y0071596D01*
X0198916Y0071695D01*
X0198924Y0071794D01*
X0198935Y0071892D01*
X0198951Y0071990D01*
X0198970Y0072087D01*
X0198993Y0072184D01*
X0199019Y0072279D01*
X0199050Y0072374D01*
X0199083Y0072467D01*
X0199121Y0072559D01*
X0199162Y0072649D01*
X0199206Y0072737D01*
X0199253Y0072824D01*
X0199304Y0072909D01*
X0199358Y0072992D01*
X0199415Y0073073D01*
X0199476Y0073152D01*
X0199539Y0073228D01*
X0199605Y0073302D01*
X0199674Y0073373D01*
X0199746Y0073441D01*
X0199820Y0073507D01*
X0199896Y0073570D01*
X0199975Y0073630D01*
X0200056Y0073687D01*
X0200140Y0073740D01*
X0200225Y0073791D01*
X0200312Y0073838D01*
X0200401Y0073882D01*
X0200491Y0073922D01*
X0200583Y0073959D01*
X0200619Y0073858D01*
X0200528Y0073821D01*
X0200439Y0073781D01*
X0200351Y0073737D01*
X0200265Y0073690D01*
X0200181Y0073640D01*
X0200099Y0073586D01*
X0200019Y0073529D01*
X0199942Y0073470D01*
X0199867Y0073407D01*
X0199794Y0073341D01*
X0199725Y0073272D01*
X0199657Y0073201D01*
X0199593Y0073127D01*
X0199532Y0073050D01*
X0199474Y0072971D01*
X0199419Y0072890D01*
X0199367Y0072807D01*
X0199319Y0072722D01*
X0199274Y0072635D01*
X0199232Y0072546D01*
X0199194Y0072456D01*
X0199160Y0072364D01*
X0199129Y0072271D01*
X0199102Y0072177D01*
X0199078Y0072082D01*
X0199059Y0071986D01*
X0199043Y0071889D01*
X0199031Y0071792D01*
X0199023Y0071694D01*
X0199019Y0071596D01*
X0199126Y0071596D01*
X0199130Y0071693D01*
X0199138Y0071789D01*
X0199151Y0071885D01*
X0199167Y0071981D01*
X0199187Y0072076D01*
X0199211Y0072169D01*
X0199238Y0072262D01*
X0199270Y0072354D01*
X0199305Y0072444D01*
X0199343Y0072533D01*
X0199386Y0072620D01*
X0199432Y0072705D01*
X0199481Y0072788D01*
X0199534Y0072870D01*
X0199590Y0072949D01*
X0199649Y0073025D01*
X0199711Y0073099D01*
X0199776Y0073171D01*
X0199844Y0073240D01*
X0199915Y0073306D01*
X0199988Y0073369D01*
X0200064Y0073429D01*
X0200142Y0073486D01*
X0200223Y0073540D01*
X0200306Y0073590D01*
X0200390Y0073637D01*
X0200477Y0073681D01*
X0200565Y0073721D01*
X0200655Y0073757D01*
X0200690Y0073656D01*
X0200605Y0073621D01*
X0200521Y0073583D01*
X0200438Y0073542D01*
X0200358Y0073497D01*
X0200279Y0073449D01*
X0200202Y0073398D01*
X0200128Y0073343D01*
X0200055Y0073286D01*
X0199985Y0073226D01*
X0199918Y0073163D01*
X0199853Y0073097D01*
X0199791Y0073029D01*
X0199732Y0072958D01*
X0199676Y0072885D01*
X0199622Y0072810D01*
X0199572Y0072732D01*
X0199525Y0072653D01*
X0199481Y0072572D01*
X0199441Y0072489D01*
X0199404Y0072404D01*
X0199370Y0072318D01*
X0199340Y0072231D01*
X0199314Y0072142D01*
X0199291Y0072053D01*
X0199272Y0071963D01*
X0199257Y0071872D01*
X0199245Y0071780D01*
X0199237Y0071688D01*
X0199233Y0071596D01*
X0198436Y0070370D02*
X0199406Y0070713D01*
X0199405Y0070712D02*
X0199440Y0070626D01*
X0199479Y0070542D01*
X0199521Y0070459D01*
X0199566Y0070378D01*
X0199615Y0070300D01*
X0199667Y0070223D01*
X0199723Y0070149D01*
X0199781Y0070077D01*
X0199842Y0070007D01*
X0199907Y0069940D01*
X0199974Y0069876D01*
X0200043Y0069815D01*
X0200115Y0069757D01*
X0200190Y0069702D01*
X0200267Y0069650D01*
X0200346Y0069601D01*
X0200427Y0069556D01*
X0200509Y0069514D01*
X0200594Y0069475D01*
X0200680Y0069441D01*
X0200767Y0069410D01*
X0200856Y0069382D01*
X0200945Y0069359D01*
X0201036Y0069339D01*
X0201127Y0069323D01*
X0201219Y0069310D01*
X0201311Y0069302D01*
X0201404Y0069298D01*
X0201404Y0068270D01*
X0201403Y0068270D01*
X0201293Y0068273D01*
X0201183Y0068281D01*
X0201073Y0068292D01*
X0200964Y0068308D01*
X0200855Y0068326D01*
X0200747Y0068349D01*
X0200640Y0068375D01*
X0200534Y0068405D01*
X0200429Y0068439D01*
X0200325Y0068476D01*
X0200222Y0068516D01*
X0200121Y0068560D01*
X0200022Y0068608D01*
X0199924Y0068659D01*
X0199828Y0068713D01*
X0199734Y0068770D01*
X0199641Y0068831D01*
X0199551Y0068895D01*
X0199464Y0068961D01*
X0199378Y0069031D01*
X0199295Y0069104D01*
X0199214Y0069179D01*
X0199137Y0069257D01*
X0199061Y0069338D01*
X0198989Y0069421D01*
X0198919Y0069507D01*
X0198853Y0069595D01*
X0198789Y0069685D01*
X0198729Y0069777D01*
X0198672Y0069872D01*
X0198618Y0069968D01*
X0198567Y0070066D01*
X0198520Y0070166D01*
X0198476Y0070267D01*
X0198436Y0070370D01*
X0198537Y0070405D01*
X0198577Y0070303D01*
X0198621Y0070203D01*
X0198668Y0070104D01*
X0198719Y0070006D01*
X0198773Y0069911D01*
X0198830Y0069817D01*
X0198891Y0069726D01*
X0198955Y0069637D01*
X0199022Y0069550D01*
X0199092Y0069466D01*
X0199165Y0069384D01*
X0199240Y0069304D01*
X0199319Y0069228D01*
X0199400Y0069154D01*
X0199483Y0069083D01*
X0199570Y0069015D01*
X0199658Y0068950D01*
X0199749Y0068888D01*
X0199841Y0068829D01*
X0199936Y0068774D01*
X0200033Y0068722D01*
X0200131Y0068674D01*
X0200231Y0068629D01*
X0200333Y0068587D01*
X0200436Y0068549D01*
X0200540Y0068515D01*
X0200645Y0068485D01*
X0200752Y0068458D01*
X0200859Y0068435D01*
X0200967Y0068416D01*
X0201075Y0068400D01*
X0201184Y0068388D01*
X0201294Y0068381D01*
X0201403Y0068377D01*
X0201403Y0068484D01*
X0201294Y0068488D01*
X0201186Y0068496D01*
X0201077Y0068508D01*
X0200970Y0068523D01*
X0200862Y0068543D01*
X0200756Y0068567D01*
X0200650Y0068594D01*
X0200546Y0068625D01*
X0200443Y0068660D01*
X0200341Y0068699D01*
X0200240Y0068742D01*
X0200141Y0068787D01*
X0200044Y0068837D01*
X0199949Y0068890D01*
X0199856Y0068946D01*
X0199765Y0069006D01*
X0199676Y0069069D01*
X0199589Y0069135D01*
X0199505Y0069204D01*
X0199423Y0069277D01*
X0199344Y0069352D01*
X0199268Y0069430D01*
X0199194Y0069510D01*
X0199124Y0069594D01*
X0199057Y0069679D01*
X0198993Y0069767D01*
X0198932Y0069858D01*
X0198874Y0069950D01*
X0198820Y0070045D01*
X0198769Y0070141D01*
X0198722Y0070240D01*
X0198678Y0070339D01*
X0198638Y0070441D01*
X0198739Y0070476D01*
X0198777Y0070379D01*
X0198819Y0070283D01*
X0198865Y0070188D01*
X0198914Y0070095D01*
X0198966Y0070004D01*
X0199022Y0069915D01*
X0199081Y0069828D01*
X0199143Y0069743D01*
X0199208Y0069661D01*
X0199275Y0069580D01*
X0199346Y0069503D01*
X0199420Y0069428D01*
X0199496Y0069355D01*
X0199574Y0069286D01*
X0199655Y0069219D01*
X0199739Y0069155D01*
X0199825Y0069095D01*
X0199913Y0069037D01*
X0200002Y0068983D01*
X0200094Y0068932D01*
X0200188Y0068884D01*
X0200283Y0068840D01*
X0200380Y0068799D01*
X0200478Y0068761D01*
X0200577Y0068728D01*
X0200678Y0068698D01*
X0200780Y0068671D01*
X0200882Y0068648D01*
X0200986Y0068629D01*
X0201089Y0068614D01*
X0201194Y0068602D01*
X0201299Y0068595D01*
X0201403Y0068591D01*
X0201404Y0068698D01*
X0201299Y0068702D01*
X0201196Y0068710D01*
X0201092Y0068722D01*
X0200989Y0068737D01*
X0200887Y0068757D01*
X0200785Y0068780D01*
X0200684Y0068807D01*
X0200585Y0068838D01*
X0200487Y0068872D01*
X0200390Y0068910D01*
X0200294Y0068952D01*
X0200200Y0068997D01*
X0200108Y0069046D01*
X0200018Y0069098D01*
X0199930Y0069153D01*
X0199843Y0069212D01*
X0199759Y0069274D01*
X0199678Y0069338D01*
X0199599Y0069406D01*
X0199522Y0069477D01*
X0199448Y0069550D01*
X0199377Y0069627D01*
X0199309Y0069705D01*
X0199244Y0069787D01*
X0199182Y0069870D01*
X0199123Y0069956D01*
X0199067Y0070044D01*
X0199015Y0070134D01*
X0198966Y0070226D01*
X0198920Y0070320D01*
X0198878Y0070415D01*
X0198840Y0070512D01*
X0198940Y0070548D01*
X0198978Y0070455D01*
X0199018Y0070363D01*
X0199062Y0070273D01*
X0199109Y0070185D01*
X0199159Y0070099D01*
X0199213Y0070014D01*
X0199270Y0069932D01*
X0199329Y0069851D01*
X0199392Y0069773D01*
X0199458Y0069698D01*
X0199526Y0069624D01*
X0199597Y0069554D01*
X0199670Y0069486D01*
X0199746Y0069421D01*
X0199825Y0069358D01*
X0199905Y0069299D01*
X0199988Y0069243D01*
X0200073Y0069190D01*
X0200159Y0069140D01*
X0200248Y0069093D01*
X0200338Y0069050D01*
X0200430Y0069010D01*
X0200523Y0068973D01*
X0200617Y0068940D01*
X0200713Y0068910D01*
X0200810Y0068884D01*
X0200907Y0068862D01*
X0201005Y0068843D01*
X0201104Y0068828D01*
X0201204Y0068816D01*
X0201304Y0068809D01*
X0201404Y0068805D01*
X0201404Y0068912D01*
X0201305Y0068916D01*
X0201206Y0068924D01*
X0201108Y0068935D01*
X0201010Y0068951D01*
X0200913Y0068970D01*
X0200816Y0068993D01*
X0200721Y0069019D01*
X0200626Y0069050D01*
X0200533Y0069083D01*
X0200441Y0069121D01*
X0200351Y0069162D01*
X0200263Y0069206D01*
X0200176Y0069253D01*
X0200091Y0069304D01*
X0200008Y0069358D01*
X0199927Y0069415D01*
X0199848Y0069476D01*
X0199772Y0069539D01*
X0199698Y0069605D01*
X0199627Y0069674D01*
X0199559Y0069746D01*
X0199493Y0069820D01*
X0199430Y0069896D01*
X0199370Y0069975D01*
X0199313Y0070056D01*
X0199260Y0070140D01*
X0199209Y0070225D01*
X0199162Y0070312D01*
X0199118Y0070401D01*
X0199078Y0070491D01*
X0199041Y0070583D01*
X0199142Y0070619D01*
X0199179Y0070528D01*
X0199219Y0070439D01*
X0199263Y0070351D01*
X0199310Y0070265D01*
X0199360Y0070181D01*
X0199414Y0070099D01*
X0199471Y0070019D01*
X0199530Y0069942D01*
X0199593Y0069867D01*
X0199659Y0069794D01*
X0199728Y0069725D01*
X0199799Y0069657D01*
X0199873Y0069593D01*
X0199950Y0069532D01*
X0200029Y0069474D01*
X0200110Y0069419D01*
X0200193Y0069367D01*
X0200278Y0069319D01*
X0200365Y0069274D01*
X0200454Y0069232D01*
X0200544Y0069194D01*
X0200636Y0069160D01*
X0200729Y0069129D01*
X0200823Y0069102D01*
X0200918Y0069078D01*
X0201014Y0069059D01*
X0201111Y0069043D01*
X0201208Y0069031D01*
X0201306Y0069023D01*
X0201404Y0069019D01*
X0201404Y0069126D01*
X0201307Y0069130D01*
X0201211Y0069138D01*
X0201115Y0069151D01*
X0201019Y0069167D01*
X0200924Y0069187D01*
X0200831Y0069211D01*
X0200738Y0069238D01*
X0200646Y0069270D01*
X0200556Y0069305D01*
X0200467Y0069343D01*
X0200380Y0069386D01*
X0200295Y0069432D01*
X0200212Y0069481D01*
X0200130Y0069534D01*
X0200051Y0069590D01*
X0199975Y0069649D01*
X0199901Y0069711D01*
X0199829Y0069776D01*
X0199760Y0069844D01*
X0199694Y0069915D01*
X0199631Y0069988D01*
X0199571Y0070064D01*
X0199514Y0070142D01*
X0199460Y0070223D01*
X0199410Y0070306D01*
X0199363Y0070390D01*
X0199319Y0070477D01*
X0199279Y0070565D01*
X0199243Y0070655D01*
X0199344Y0070690D01*
X0199379Y0070605D01*
X0199417Y0070521D01*
X0199458Y0070438D01*
X0199503Y0070358D01*
X0199551Y0070279D01*
X0199602Y0070202D01*
X0199657Y0070128D01*
X0199714Y0070055D01*
X0199774Y0069985D01*
X0199837Y0069918D01*
X0199903Y0069853D01*
X0199971Y0069791D01*
X0200042Y0069732D01*
X0200115Y0069676D01*
X0200190Y0069622D01*
X0200268Y0069572D01*
X0200347Y0069525D01*
X0200428Y0069481D01*
X0200511Y0069441D01*
X0200596Y0069404D01*
X0200682Y0069370D01*
X0200769Y0069340D01*
X0200858Y0069314D01*
X0200947Y0069291D01*
X0201037Y0069272D01*
X0201128Y0069257D01*
X0201220Y0069245D01*
X0201312Y0069237D01*
X0201404Y0069233D01*
X0202630Y0068475D02*
X0202287Y0069445D01*
X0202288Y0069444D02*
X0202374Y0069479D01*
X0202458Y0069518D01*
X0202541Y0069560D01*
X0202622Y0069605D01*
X0202700Y0069654D01*
X0202777Y0069706D01*
X0202851Y0069762D01*
X0202923Y0069820D01*
X0202993Y0069881D01*
X0203060Y0069946D01*
X0203124Y0070013D01*
X0203185Y0070082D01*
X0203243Y0070154D01*
X0203298Y0070229D01*
X0203350Y0070306D01*
X0203399Y0070385D01*
X0203444Y0070466D01*
X0203486Y0070548D01*
X0203525Y0070633D01*
X0203559Y0070719D01*
X0203590Y0070806D01*
X0203618Y0070895D01*
X0203641Y0070984D01*
X0203661Y0071075D01*
X0203677Y0071166D01*
X0203690Y0071258D01*
X0203698Y0071350D01*
X0203702Y0071443D01*
X0204730Y0071443D01*
X0204730Y0071442D01*
X0204727Y0071332D01*
X0204719Y0071222D01*
X0204708Y0071112D01*
X0204692Y0071003D01*
X0204674Y0070894D01*
X0204651Y0070786D01*
X0204625Y0070679D01*
X0204595Y0070573D01*
X0204561Y0070468D01*
X0204524Y0070364D01*
X0204484Y0070261D01*
X0204440Y0070160D01*
X0204392Y0070061D01*
X0204341Y0069963D01*
X0204287Y0069867D01*
X0204230Y0069773D01*
X0204169Y0069680D01*
X0204105Y0069590D01*
X0204039Y0069503D01*
X0203969Y0069417D01*
X0203896Y0069334D01*
X0203821Y0069253D01*
X0203743Y0069176D01*
X0203662Y0069100D01*
X0203579Y0069028D01*
X0203493Y0068958D01*
X0203405Y0068892D01*
X0203315Y0068828D01*
X0203223Y0068768D01*
X0203128Y0068711D01*
X0203032Y0068657D01*
X0202934Y0068606D01*
X0202834Y0068559D01*
X0202733Y0068515D01*
X0202630Y0068475D01*
X0202595Y0068576D01*
X0202697Y0068616D01*
X0202797Y0068660D01*
X0202896Y0068707D01*
X0202994Y0068758D01*
X0203089Y0068812D01*
X0203183Y0068869D01*
X0203274Y0068930D01*
X0203363Y0068994D01*
X0203450Y0069061D01*
X0203534Y0069131D01*
X0203616Y0069204D01*
X0203696Y0069279D01*
X0203772Y0069358D01*
X0203846Y0069439D01*
X0203917Y0069522D01*
X0203985Y0069609D01*
X0204050Y0069697D01*
X0204112Y0069788D01*
X0204171Y0069880D01*
X0204226Y0069975D01*
X0204278Y0070072D01*
X0204326Y0070170D01*
X0204371Y0070270D01*
X0204413Y0070372D01*
X0204451Y0070475D01*
X0204485Y0070579D01*
X0204515Y0070684D01*
X0204542Y0070791D01*
X0204565Y0070898D01*
X0204584Y0071006D01*
X0204600Y0071114D01*
X0204612Y0071223D01*
X0204619Y0071333D01*
X0204623Y0071442D01*
X0204516Y0071442D01*
X0204512Y0071333D01*
X0204504Y0071225D01*
X0204492Y0071116D01*
X0204477Y0071009D01*
X0204457Y0070901D01*
X0204433Y0070795D01*
X0204406Y0070689D01*
X0204375Y0070585D01*
X0204340Y0070482D01*
X0204301Y0070380D01*
X0204258Y0070279D01*
X0204213Y0070180D01*
X0204163Y0070083D01*
X0204110Y0069988D01*
X0204054Y0069895D01*
X0203994Y0069804D01*
X0203931Y0069715D01*
X0203865Y0069628D01*
X0203796Y0069544D01*
X0203723Y0069462D01*
X0203648Y0069383D01*
X0203570Y0069307D01*
X0203490Y0069233D01*
X0203406Y0069163D01*
X0203321Y0069096D01*
X0203233Y0069032D01*
X0203142Y0068971D01*
X0203050Y0068913D01*
X0202955Y0068859D01*
X0202859Y0068808D01*
X0202760Y0068761D01*
X0202661Y0068717D01*
X0202559Y0068677D01*
X0202524Y0068778D01*
X0202621Y0068816D01*
X0202717Y0068858D01*
X0202812Y0068904D01*
X0202905Y0068953D01*
X0202996Y0069005D01*
X0203085Y0069061D01*
X0203172Y0069120D01*
X0203257Y0069182D01*
X0203339Y0069247D01*
X0203420Y0069314D01*
X0203497Y0069385D01*
X0203572Y0069459D01*
X0203645Y0069535D01*
X0203714Y0069613D01*
X0203781Y0069694D01*
X0203845Y0069778D01*
X0203905Y0069864D01*
X0203963Y0069952D01*
X0204017Y0070041D01*
X0204068Y0070133D01*
X0204116Y0070227D01*
X0204160Y0070322D01*
X0204201Y0070419D01*
X0204239Y0070517D01*
X0204272Y0070616D01*
X0204302Y0070717D01*
X0204329Y0070819D01*
X0204352Y0070921D01*
X0204371Y0071025D01*
X0204386Y0071128D01*
X0204398Y0071233D01*
X0204405Y0071338D01*
X0204409Y0071442D01*
X0204302Y0071443D01*
X0204298Y0071338D01*
X0204290Y0071235D01*
X0204278Y0071131D01*
X0204263Y0071028D01*
X0204243Y0070926D01*
X0204220Y0070824D01*
X0204193Y0070723D01*
X0204162Y0070624D01*
X0204128Y0070526D01*
X0204090Y0070429D01*
X0204048Y0070333D01*
X0204003Y0070239D01*
X0203954Y0070147D01*
X0203902Y0070057D01*
X0203847Y0069969D01*
X0203788Y0069882D01*
X0203726Y0069798D01*
X0203662Y0069717D01*
X0203594Y0069638D01*
X0203523Y0069561D01*
X0203450Y0069487D01*
X0203373Y0069416D01*
X0203295Y0069348D01*
X0203213Y0069283D01*
X0203130Y0069221D01*
X0203044Y0069162D01*
X0202956Y0069106D01*
X0202866Y0069054D01*
X0202774Y0069005D01*
X0202680Y0068959D01*
X0202585Y0068917D01*
X0202488Y0068879D01*
X0202452Y0068979D01*
X0202545Y0069017D01*
X0202637Y0069057D01*
X0202727Y0069101D01*
X0202815Y0069148D01*
X0202901Y0069198D01*
X0202986Y0069252D01*
X0203068Y0069309D01*
X0203149Y0069368D01*
X0203227Y0069431D01*
X0203302Y0069497D01*
X0203376Y0069565D01*
X0203446Y0069636D01*
X0203514Y0069709D01*
X0203579Y0069785D01*
X0203642Y0069864D01*
X0203701Y0069944D01*
X0203757Y0070027D01*
X0203810Y0070112D01*
X0203860Y0070198D01*
X0203907Y0070287D01*
X0203950Y0070377D01*
X0203990Y0070469D01*
X0204027Y0070562D01*
X0204060Y0070656D01*
X0204090Y0070752D01*
X0204116Y0070849D01*
X0204138Y0070946D01*
X0204157Y0071044D01*
X0204172Y0071143D01*
X0204184Y0071243D01*
X0204191Y0071343D01*
X0204195Y0071443D01*
X0204088Y0071443D01*
X0204084Y0071344D01*
X0204076Y0071245D01*
X0204065Y0071147D01*
X0204049Y0071049D01*
X0204030Y0070952D01*
X0204007Y0070855D01*
X0203981Y0070760D01*
X0203950Y0070665D01*
X0203917Y0070572D01*
X0203879Y0070480D01*
X0203838Y0070390D01*
X0203794Y0070302D01*
X0203747Y0070215D01*
X0203696Y0070130D01*
X0203642Y0070047D01*
X0203585Y0069966D01*
X0203524Y0069887D01*
X0203461Y0069811D01*
X0203395Y0069737D01*
X0203326Y0069666D01*
X0203254Y0069598D01*
X0203180Y0069532D01*
X0203104Y0069469D01*
X0203025Y0069409D01*
X0202944Y0069352D01*
X0202860Y0069299D01*
X0202775Y0069248D01*
X0202688Y0069201D01*
X0202599Y0069157D01*
X0202509Y0069117D01*
X0202417Y0069080D01*
X0202381Y0069181D01*
X0202472Y0069218D01*
X0202561Y0069258D01*
X0202649Y0069302D01*
X0202735Y0069349D01*
X0202819Y0069399D01*
X0202901Y0069453D01*
X0202981Y0069510D01*
X0203058Y0069569D01*
X0203133Y0069632D01*
X0203206Y0069698D01*
X0203275Y0069767D01*
X0203343Y0069838D01*
X0203407Y0069912D01*
X0203468Y0069989D01*
X0203526Y0070068D01*
X0203581Y0070149D01*
X0203633Y0070232D01*
X0203681Y0070317D01*
X0203726Y0070404D01*
X0203768Y0070493D01*
X0203806Y0070583D01*
X0203840Y0070675D01*
X0203871Y0070768D01*
X0203898Y0070862D01*
X0203922Y0070957D01*
X0203941Y0071053D01*
X0203957Y0071150D01*
X0203969Y0071247D01*
X0203977Y0071345D01*
X0203981Y0071443D01*
X0203874Y0071443D01*
X0203870Y0071346D01*
X0203862Y0071250D01*
X0203849Y0071154D01*
X0203833Y0071058D01*
X0203813Y0070963D01*
X0203789Y0070870D01*
X0203762Y0070777D01*
X0203730Y0070685D01*
X0203695Y0070595D01*
X0203657Y0070506D01*
X0203614Y0070419D01*
X0203568Y0070334D01*
X0203519Y0070251D01*
X0203466Y0070169D01*
X0203410Y0070090D01*
X0203351Y0070014D01*
X0203289Y0069940D01*
X0203224Y0069868D01*
X0203156Y0069799D01*
X0203085Y0069733D01*
X0203012Y0069670D01*
X0202936Y0069610D01*
X0202858Y0069553D01*
X0202777Y0069499D01*
X0202694Y0069449D01*
X0202610Y0069402D01*
X0202523Y0069358D01*
X0202435Y0069318D01*
X0202345Y0069282D01*
X0202310Y0069383D01*
X0202395Y0069418D01*
X0202479Y0069456D01*
X0202562Y0069497D01*
X0202642Y0069542D01*
X0202721Y0069590D01*
X0202798Y0069641D01*
X0202872Y0069696D01*
X0202945Y0069753D01*
X0203015Y0069813D01*
X0203082Y0069876D01*
X0203147Y0069942D01*
X0203209Y0070010D01*
X0203268Y0070081D01*
X0203324Y0070154D01*
X0203378Y0070229D01*
X0203428Y0070307D01*
X0203475Y0070386D01*
X0203519Y0070467D01*
X0203559Y0070550D01*
X0203596Y0070635D01*
X0203630Y0070721D01*
X0203660Y0070808D01*
X0203686Y0070897D01*
X0203709Y0070986D01*
X0203728Y0071076D01*
X0203743Y0071167D01*
X0203755Y0071259D01*
X0203763Y0071351D01*
X0203767Y0071443D01*
D33*
X0216480Y0053469D03*
X0216480Y0051500D03*
X0216480Y0049531D03*
X0226520Y0049531D03*
X0226520Y0051500D03*
X0226520Y0053469D03*
D34*
X0225437Y0056520D03*
X0223469Y0056520D03*
X0221500Y0056520D03*
X0219531Y0056520D03*
X0217563Y0056520D03*
X0217563Y0046480D03*
X0219531Y0046480D03*
X0221500Y0046480D03*
X0223469Y0046480D03*
X0225437Y0046480D03*
D35*
X0271500Y0090496D03*
X0271500Y0092504D03*
D36*
X0193843Y0026224D03*
X0184000Y0026224D03*
X0174157Y0026224D03*
X0174157Y0016776D03*
X0184000Y0016776D03*
X0193843Y0016776D03*
D37*
X0307484Y0034059D03*
X0331500Y0034059D03*
X0331500Y0078941D03*
X0307484Y0078941D03*
M02*
