G75*
%MOIN*%
%OFA0B0*%
%FSLAX25Y25*%
%IPPOS*%
%LPD*%
%AMOC8*
5,1,8,0,0,1.08239X$1,22.5*
%
%ADD10C,0.01000*%
%ADD11C,0.00000*%
D10*
X0001500Y0001500D02*
X0001500Y0151500D01*
X0351500Y0151500D01*
X0351500Y0001500D01*
X0001500Y0001500D01*
D11*
X0009025Y0016500D02*
X0009027Y0016683D01*
X0009034Y0016867D01*
X0009045Y0017050D01*
X0009061Y0017233D01*
X0009081Y0017415D01*
X0009106Y0017597D01*
X0009135Y0017778D01*
X0009169Y0017958D01*
X0009207Y0018138D01*
X0009249Y0018316D01*
X0009296Y0018494D01*
X0009347Y0018670D01*
X0009402Y0018845D01*
X0009462Y0019018D01*
X0009526Y0019190D01*
X0009594Y0019361D01*
X0009666Y0019529D01*
X0009743Y0019696D01*
X0009823Y0019861D01*
X0009908Y0020024D01*
X0009996Y0020184D01*
X0010088Y0020343D01*
X0010185Y0020499D01*
X0010285Y0020653D01*
X0010389Y0020804D01*
X0010496Y0020953D01*
X0010607Y0021099D01*
X0010722Y0021242D01*
X0010840Y0021382D01*
X0010961Y0021520D01*
X0011086Y0021654D01*
X0011214Y0021786D01*
X0011346Y0021914D01*
X0011480Y0022039D01*
X0011618Y0022160D01*
X0011758Y0022278D01*
X0011901Y0022393D01*
X0012047Y0022504D01*
X0012196Y0022611D01*
X0012347Y0022715D01*
X0012501Y0022815D01*
X0012657Y0022912D01*
X0012816Y0023004D01*
X0012976Y0023092D01*
X0013139Y0023177D01*
X0013304Y0023257D01*
X0013471Y0023334D01*
X0013639Y0023406D01*
X0013810Y0023474D01*
X0013982Y0023538D01*
X0014155Y0023598D01*
X0014330Y0023653D01*
X0014506Y0023704D01*
X0014684Y0023751D01*
X0014862Y0023793D01*
X0015042Y0023831D01*
X0015222Y0023865D01*
X0015403Y0023894D01*
X0015585Y0023919D01*
X0015767Y0023939D01*
X0015950Y0023955D01*
X0016133Y0023966D01*
X0016317Y0023973D01*
X0016500Y0023975D01*
X0016683Y0023973D01*
X0016867Y0023966D01*
X0017050Y0023955D01*
X0017233Y0023939D01*
X0017415Y0023919D01*
X0017597Y0023894D01*
X0017778Y0023865D01*
X0017958Y0023831D01*
X0018138Y0023793D01*
X0018316Y0023751D01*
X0018494Y0023704D01*
X0018670Y0023653D01*
X0018845Y0023598D01*
X0019018Y0023538D01*
X0019190Y0023474D01*
X0019361Y0023406D01*
X0019529Y0023334D01*
X0019696Y0023257D01*
X0019861Y0023177D01*
X0020024Y0023092D01*
X0020184Y0023004D01*
X0020343Y0022912D01*
X0020499Y0022815D01*
X0020653Y0022715D01*
X0020804Y0022611D01*
X0020953Y0022504D01*
X0021099Y0022393D01*
X0021242Y0022278D01*
X0021382Y0022160D01*
X0021520Y0022039D01*
X0021654Y0021914D01*
X0021786Y0021786D01*
X0021914Y0021654D01*
X0022039Y0021520D01*
X0022160Y0021382D01*
X0022278Y0021242D01*
X0022393Y0021099D01*
X0022504Y0020953D01*
X0022611Y0020804D01*
X0022715Y0020653D01*
X0022815Y0020499D01*
X0022912Y0020343D01*
X0023004Y0020184D01*
X0023092Y0020024D01*
X0023177Y0019861D01*
X0023257Y0019696D01*
X0023334Y0019529D01*
X0023406Y0019361D01*
X0023474Y0019190D01*
X0023538Y0019018D01*
X0023598Y0018845D01*
X0023653Y0018670D01*
X0023704Y0018494D01*
X0023751Y0018316D01*
X0023793Y0018138D01*
X0023831Y0017958D01*
X0023865Y0017778D01*
X0023894Y0017597D01*
X0023919Y0017415D01*
X0023939Y0017233D01*
X0023955Y0017050D01*
X0023966Y0016867D01*
X0023973Y0016683D01*
X0023975Y0016500D01*
X0023973Y0016317D01*
X0023966Y0016133D01*
X0023955Y0015950D01*
X0023939Y0015767D01*
X0023919Y0015585D01*
X0023894Y0015403D01*
X0023865Y0015222D01*
X0023831Y0015042D01*
X0023793Y0014862D01*
X0023751Y0014684D01*
X0023704Y0014506D01*
X0023653Y0014330D01*
X0023598Y0014155D01*
X0023538Y0013982D01*
X0023474Y0013810D01*
X0023406Y0013639D01*
X0023334Y0013471D01*
X0023257Y0013304D01*
X0023177Y0013139D01*
X0023092Y0012976D01*
X0023004Y0012816D01*
X0022912Y0012657D01*
X0022815Y0012501D01*
X0022715Y0012347D01*
X0022611Y0012196D01*
X0022504Y0012047D01*
X0022393Y0011901D01*
X0022278Y0011758D01*
X0022160Y0011618D01*
X0022039Y0011480D01*
X0021914Y0011346D01*
X0021786Y0011214D01*
X0021654Y0011086D01*
X0021520Y0010961D01*
X0021382Y0010840D01*
X0021242Y0010722D01*
X0021099Y0010607D01*
X0020953Y0010496D01*
X0020804Y0010389D01*
X0020653Y0010285D01*
X0020499Y0010185D01*
X0020343Y0010088D01*
X0020184Y0009996D01*
X0020024Y0009908D01*
X0019861Y0009823D01*
X0019696Y0009743D01*
X0019529Y0009666D01*
X0019361Y0009594D01*
X0019190Y0009526D01*
X0019018Y0009462D01*
X0018845Y0009402D01*
X0018670Y0009347D01*
X0018494Y0009296D01*
X0018316Y0009249D01*
X0018138Y0009207D01*
X0017958Y0009169D01*
X0017778Y0009135D01*
X0017597Y0009106D01*
X0017415Y0009081D01*
X0017233Y0009061D01*
X0017050Y0009045D01*
X0016867Y0009034D01*
X0016683Y0009027D01*
X0016500Y0009025D01*
X0016317Y0009027D01*
X0016133Y0009034D01*
X0015950Y0009045D01*
X0015767Y0009061D01*
X0015585Y0009081D01*
X0015403Y0009106D01*
X0015222Y0009135D01*
X0015042Y0009169D01*
X0014862Y0009207D01*
X0014684Y0009249D01*
X0014506Y0009296D01*
X0014330Y0009347D01*
X0014155Y0009402D01*
X0013982Y0009462D01*
X0013810Y0009526D01*
X0013639Y0009594D01*
X0013471Y0009666D01*
X0013304Y0009743D01*
X0013139Y0009823D01*
X0012976Y0009908D01*
X0012816Y0009996D01*
X0012657Y0010088D01*
X0012501Y0010185D01*
X0012347Y0010285D01*
X0012196Y0010389D01*
X0012047Y0010496D01*
X0011901Y0010607D01*
X0011758Y0010722D01*
X0011618Y0010840D01*
X0011480Y0010961D01*
X0011346Y0011086D01*
X0011214Y0011214D01*
X0011086Y0011346D01*
X0010961Y0011480D01*
X0010840Y0011618D01*
X0010722Y0011758D01*
X0010607Y0011901D01*
X0010496Y0012047D01*
X0010389Y0012196D01*
X0010285Y0012347D01*
X0010185Y0012501D01*
X0010088Y0012657D01*
X0009996Y0012816D01*
X0009908Y0012976D01*
X0009823Y0013139D01*
X0009743Y0013304D01*
X0009666Y0013471D01*
X0009594Y0013639D01*
X0009526Y0013810D01*
X0009462Y0013982D01*
X0009402Y0014155D01*
X0009347Y0014330D01*
X0009296Y0014506D01*
X0009249Y0014684D01*
X0009207Y0014862D01*
X0009169Y0015042D01*
X0009135Y0015222D01*
X0009106Y0015403D01*
X0009081Y0015585D01*
X0009061Y0015767D01*
X0009045Y0015950D01*
X0009034Y0016133D01*
X0009027Y0016317D01*
X0009025Y0016500D01*
X0200516Y0071500D02*
X0200518Y0071562D01*
X0200524Y0071625D01*
X0200534Y0071686D01*
X0200548Y0071747D01*
X0200565Y0071807D01*
X0200586Y0071866D01*
X0200612Y0071923D01*
X0200640Y0071978D01*
X0200672Y0072032D01*
X0200708Y0072083D01*
X0200746Y0072133D01*
X0200788Y0072179D01*
X0200832Y0072223D01*
X0200880Y0072264D01*
X0200929Y0072302D01*
X0200981Y0072336D01*
X0201035Y0072367D01*
X0201091Y0072395D01*
X0201149Y0072419D01*
X0201208Y0072440D01*
X0201268Y0072456D01*
X0201329Y0072469D01*
X0201391Y0072478D01*
X0201453Y0072483D01*
X0201516Y0072484D01*
X0201578Y0072481D01*
X0201640Y0072474D01*
X0201702Y0072463D01*
X0201762Y0072448D01*
X0201822Y0072430D01*
X0201880Y0072408D01*
X0201937Y0072382D01*
X0201992Y0072352D01*
X0202045Y0072319D01*
X0202096Y0072283D01*
X0202144Y0072244D01*
X0202190Y0072201D01*
X0202233Y0072156D01*
X0202273Y0072108D01*
X0202310Y0072058D01*
X0202344Y0072005D01*
X0202375Y0071951D01*
X0202401Y0071895D01*
X0202425Y0071837D01*
X0202444Y0071777D01*
X0202460Y0071717D01*
X0202472Y0071655D01*
X0202480Y0071594D01*
X0202484Y0071531D01*
X0202484Y0071469D01*
X0202480Y0071406D01*
X0202472Y0071345D01*
X0202460Y0071283D01*
X0202444Y0071223D01*
X0202425Y0071163D01*
X0202401Y0071105D01*
X0202375Y0071049D01*
X0202344Y0070995D01*
X0202310Y0070942D01*
X0202273Y0070892D01*
X0202233Y0070844D01*
X0202190Y0070799D01*
X0202144Y0070756D01*
X0202096Y0070717D01*
X0202045Y0070681D01*
X0201992Y0070648D01*
X0201937Y0070618D01*
X0201880Y0070592D01*
X0201822Y0070570D01*
X0201762Y0070552D01*
X0201702Y0070537D01*
X0201640Y0070526D01*
X0201578Y0070519D01*
X0201516Y0070516D01*
X0201453Y0070517D01*
X0201391Y0070522D01*
X0201329Y0070531D01*
X0201268Y0070544D01*
X0201208Y0070560D01*
X0201149Y0070581D01*
X0201091Y0070605D01*
X0201035Y0070633D01*
X0200981Y0070664D01*
X0200929Y0070698D01*
X0200880Y0070736D01*
X0200832Y0070777D01*
X0200788Y0070821D01*
X0200746Y0070867D01*
X0200708Y0070917D01*
X0200672Y0070968D01*
X0200640Y0071022D01*
X0200612Y0071077D01*
X0200586Y0071134D01*
X0200565Y0071193D01*
X0200548Y0071253D01*
X0200534Y0071314D01*
X0200524Y0071375D01*
X0200518Y0071438D01*
X0200516Y0071500D01*
X0309500Y0056500D02*
X0309502Y0056626D01*
X0309508Y0056752D01*
X0309518Y0056878D01*
X0309532Y0057004D01*
X0309550Y0057129D01*
X0309572Y0057253D01*
X0309597Y0057377D01*
X0309627Y0057500D01*
X0309660Y0057621D01*
X0309698Y0057742D01*
X0309739Y0057861D01*
X0309784Y0057980D01*
X0309832Y0058096D01*
X0309884Y0058211D01*
X0309940Y0058324D01*
X0310000Y0058436D01*
X0310063Y0058545D01*
X0310129Y0058653D01*
X0310198Y0058758D01*
X0310271Y0058861D01*
X0310348Y0058962D01*
X0310427Y0059060D01*
X0310509Y0059156D01*
X0310595Y0059249D01*
X0310683Y0059340D01*
X0310774Y0059427D01*
X0310868Y0059512D01*
X0310964Y0059593D01*
X0311063Y0059672D01*
X0311164Y0059747D01*
X0311268Y0059819D01*
X0311374Y0059888D01*
X0311482Y0059954D01*
X0311592Y0060016D01*
X0311704Y0060074D01*
X0311817Y0060129D01*
X0311933Y0060180D01*
X0312050Y0060228D01*
X0312168Y0060272D01*
X0312288Y0060312D01*
X0312409Y0060348D01*
X0312531Y0060381D01*
X0312654Y0060410D01*
X0312778Y0060434D01*
X0312902Y0060455D01*
X0313027Y0060472D01*
X0313153Y0060485D01*
X0313279Y0060494D01*
X0313405Y0060499D01*
X0313532Y0060500D01*
X0313658Y0060497D01*
X0313784Y0060490D01*
X0313910Y0060479D01*
X0314035Y0060464D01*
X0314160Y0060445D01*
X0314284Y0060422D01*
X0314408Y0060396D01*
X0314530Y0060365D01*
X0314652Y0060331D01*
X0314772Y0060292D01*
X0314891Y0060250D01*
X0315009Y0060205D01*
X0315125Y0060155D01*
X0315240Y0060102D01*
X0315352Y0060045D01*
X0315463Y0059985D01*
X0315572Y0059921D01*
X0315679Y0059854D01*
X0315784Y0059784D01*
X0315887Y0059710D01*
X0315987Y0059633D01*
X0316085Y0059553D01*
X0316180Y0059470D01*
X0316272Y0059384D01*
X0316362Y0059295D01*
X0316449Y0059203D01*
X0316532Y0059109D01*
X0316613Y0059012D01*
X0316691Y0058912D01*
X0316766Y0058810D01*
X0316837Y0058706D01*
X0316905Y0058599D01*
X0316969Y0058491D01*
X0317030Y0058380D01*
X0317088Y0058268D01*
X0317142Y0058154D01*
X0317192Y0058038D01*
X0317239Y0057921D01*
X0317282Y0057802D01*
X0317321Y0057682D01*
X0317357Y0057561D01*
X0317388Y0057438D01*
X0317416Y0057315D01*
X0317440Y0057191D01*
X0317460Y0057066D01*
X0317476Y0056941D01*
X0317488Y0056815D01*
X0317496Y0056689D01*
X0317500Y0056563D01*
X0317500Y0056437D01*
X0317496Y0056311D01*
X0317488Y0056185D01*
X0317476Y0056059D01*
X0317460Y0055934D01*
X0317440Y0055809D01*
X0317416Y0055685D01*
X0317388Y0055562D01*
X0317357Y0055439D01*
X0317321Y0055318D01*
X0317282Y0055198D01*
X0317239Y0055079D01*
X0317192Y0054962D01*
X0317142Y0054846D01*
X0317088Y0054732D01*
X0317030Y0054620D01*
X0316969Y0054509D01*
X0316905Y0054401D01*
X0316837Y0054294D01*
X0316766Y0054190D01*
X0316691Y0054088D01*
X0316613Y0053988D01*
X0316532Y0053891D01*
X0316449Y0053797D01*
X0316362Y0053705D01*
X0316272Y0053616D01*
X0316180Y0053530D01*
X0316085Y0053447D01*
X0315987Y0053367D01*
X0315887Y0053290D01*
X0315784Y0053216D01*
X0315679Y0053146D01*
X0315572Y0053079D01*
X0315463Y0053015D01*
X0315352Y0052955D01*
X0315240Y0052898D01*
X0315125Y0052845D01*
X0315009Y0052795D01*
X0314891Y0052750D01*
X0314772Y0052708D01*
X0314652Y0052669D01*
X0314530Y0052635D01*
X0314408Y0052604D01*
X0314284Y0052578D01*
X0314160Y0052555D01*
X0314035Y0052536D01*
X0313910Y0052521D01*
X0313784Y0052510D01*
X0313658Y0052503D01*
X0313532Y0052500D01*
X0313405Y0052501D01*
X0313279Y0052506D01*
X0313153Y0052515D01*
X0313027Y0052528D01*
X0312902Y0052545D01*
X0312778Y0052566D01*
X0312654Y0052590D01*
X0312531Y0052619D01*
X0312409Y0052652D01*
X0312288Y0052688D01*
X0312168Y0052728D01*
X0312050Y0052772D01*
X0311933Y0052820D01*
X0311817Y0052871D01*
X0311704Y0052926D01*
X0311592Y0052984D01*
X0311482Y0053046D01*
X0311374Y0053112D01*
X0311268Y0053181D01*
X0311164Y0053253D01*
X0311063Y0053328D01*
X0310964Y0053407D01*
X0310868Y0053488D01*
X0310774Y0053573D01*
X0310683Y0053660D01*
X0310595Y0053751D01*
X0310509Y0053844D01*
X0310427Y0053940D01*
X0310348Y0054038D01*
X0310271Y0054139D01*
X0310198Y0054242D01*
X0310129Y0054347D01*
X0310063Y0054455D01*
X0310000Y0054564D01*
X0309940Y0054676D01*
X0309884Y0054789D01*
X0309832Y0054904D01*
X0309784Y0055020D01*
X0309739Y0055139D01*
X0309698Y0055258D01*
X0309660Y0055379D01*
X0309627Y0055500D01*
X0309597Y0055623D01*
X0309572Y0055747D01*
X0309550Y0055871D01*
X0309532Y0055996D01*
X0309518Y0056122D01*
X0309508Y0056248D01*
X0309502Y0056374D01*
X0309500Y0056500D01*
X0327500Y0056500D02*
X0327502Y0056626D01*
X0327508Y0056752D01*
X0327518Y0056878D01*
X0327532Y0057004D01*
X0327550Y0057129D01*
X0327572Y0057253D01*
X0327597Y0057377D01*
X0327627Y0057500D01*
X0327660Y0057621D01*
X0327698Y0057742D01*
X0327739Y0057861D01*
X0327784Y0057980D01*
X0327832Y0058096D01*
X0327884Y0058211D01*
X0327940Y0058324D01*
X0328000Y0058436D01*
X0328063Y0058545D01*
X0328129Y0058653D01*
X0328198Y0058758D01*
X0328271Y0058861D01*
X0328348Y0058962D01*
X0328427Y0059060D01*
X0328509Y0059156D01*
X0328595Y0059249D01*
X0328683Y0059340D01*
X0328774Y0059427D01*
X0328868Y0059512D01*
X0328964Y0059593D01*
X0329063Y0059672D01*
X0329164Y0059747D01*
X0329268Y0059819D01*
X0329374Y0059888D01*
X0329482Y0059954D01*
X0329592Y0060016D01*
X0329704Y0060074D01*
X0329817Y0060129D01*
X0329933Y0060180D01*
X0330050Y0060228D01*
X0330168Y0060272D01*
X0330288Y0060312D01*
X0330409Y0060348D01*
X0330531Y0060381D01*
X0330654Y0060410D01*
X0330778Y0060434D01*
X0330902Y0060455D01*
X0331027Y0060472D01*
X0331153Y0060485D01*
X0331279Y0060494D01*
X0331405Y0060499D01*
X0331532Y0060500D01*
X0331658Y0060497D01*
X0331784Y0060490D01*
X0331910Y0060479D01*
X0332035Y0060464D01*
X0332160Y0060445D01*
X0332284Y0060422D01*
X0332408Y0060396D01*
X0332530Y0060365D01*
X0332652Y0060331D01*
X0332772Y0060292D01*
X0332891Y0060250D01*
X0333009Y0060205D01*
X0333125Y0060155D01*
X0333240Y0060102D01*
X0333352Y0060045D01*
X0333463Y0059985D01*
X0333572Y0059921D01*
X0333679Y0059854D01*
X0333784Y0059784D01*
X0333887Y0059710D01*
X0333987Y0059633D01*
X0334085Y0059553D01*
X0334180Y0059470D01*
X0334272Y0059384D01*
X0334362Y0059295D01*
X0334449Y0059203D01*
X0334532Y0059109D01*
X0334613Y0059012D01*
X0334691Y0058912D01*
X0334766Y0058810D01*
X0334837Y0058706D01*
X0334905Y0058599D01*
X0334969Y0058491D01*
X0335030Y0058380D01*
X0335088Y0058268D01*
X0335142Y0058154D01*
X0335192Y0058038D01*
X0335239Y0057921D01*
X0335282Y0057802D01*
X0335321Y0057682D01*
X0335357Y0057561D01*
X0335388Y0057438D01*
X0335416Y0057315D01*
X0335440Y0057191D01*
X0335460Y0057066D01*
X0335476Y0056941D01*
X0335488Y0056815D01*
X0335496Y0056689D01*
X0335500Y0056563D01*
X0335500Y0056437D01*
X0335496Y0056311D01*
X0335488Y0056185D01*
X0335476Y0056059D01*
X0335460Y0055934D01*
X0335440Y0055809D01*
X0335416Y0055685D01*
X0335388Y0055562D01*
X0335357Y0055439D01*
X0335321Y0055318D01*
X0335282Y0055198D01*
X0335239Y0055079D01*
X0335192Y0054962D01*
X0335142Y0054846D01*
X0335088Y0054732D01*
X0335030Y0054620D01*
X0334969Y0054509D01*
X0334905Y0054401D01*
X0334837Y0054294D01*
X0334766Y0054190D01*
X0334691Y0054088D01*
X0334613Y0053988D01*
X0334532Y0053891D01*
X0334449Y0053797D01*
X0334362Y0053705D01*
X0334272Y0053616D01*
X0334180Y0053530D01*
X0334085Y0053447D01*
X0333987Y0053367D01*
X0333887Y0053290D01*
X0333784Y0053216D01*
X0333679Y0053146D01*
X0333572Y0053079D01*
X0333463Y0053015D01*
X0333352Y0052955D01*
X0333240Y0052898D01*
X0333125Y0052845D01*
X0333009Y0052795D01*
X0332891Y0052750D01*
X0332772Y0052708D01*
X0332652Y0052669D01*
X0332530Y0052635D01*
X0332408Y0052604D01*
X0332284Y0052578D01*
X0332160Y0052555D01*
X0332035Y0052536D01*
X0331910Y0052521D01*
X0331784Y0052510D01*
X0331658Y0052503D01*
X0331532Y0052500D01*
X0331405Y0052501D01*
X0331279Y0052506D01*
X0331153Y0052515D01*
X0331027Y0052528D01*
X0330902Y0052545D01*
X0330778Y0052566D01*
X0330654Y0052590D01*
X0330531Y0052619D01*
X0330409Y0052652D01*
X0330288Y0052688D01*
X0330168Y0052728D01*
X0330050Y0052772D01*
X0329933Y0052820D01*
X0329817Y0052871D01*
X0329704Y0052926D01*
X0329592Y0052984D01*
X0329482Y0053046D01*
X0329374Y0053112D01*
X0329268Y0053181D01*
X0329164Y0053253D01*
X0329063Y0053328D01*
X0328964Y0053407D01*
X0328868Y0053488D01*
X0328774Y0053573D01*
X0328683Y0053660D01*
X0328595Y0053751D01*
X0328509Y0053844D01*
X0328427Y0053940D01*
X0328348Y0054038D01*
X0328271Y0054139D01*
X0328198Y0054242D01*
X0328129Y0054347D01*
X0328063Y0054455D01*
X0328000Y0054564D01*
X0327940Y0054676D01*
X0327884Y0054789D01*
X0327832Y0054904D01*
X0327784Y0055020D01*
X0327739Y0055139D01*
X0327698Y0055258D01*
X0327660Y0055379D01*
X0327627Y0055500D01*
X0327597Y0055623D01*
X0327572Y0055747D01*
X0327550Y0055871D01*
X0327532Y0055996D01*
X0327518Y0056122D01*
X0327508Y0056248D01*
X0327502Y0056374D01*
X0327500Y0056500D01*
X0329025Y0016500D02*
X0329027Y0016683D01*
X0329034Y0016867D01*
X0329045Y0017050D01*
X0329061Y0017233D01*
X0329081Y0017415D01*
X0329106Y0017597D01*
X0329135Y0017778D01*
X0329169Y0017958D01*
X0329207Y0018138D01*
X0329249Y0018316D01*
X0329296Y0018494D01*
X0329347Y0018670D01*
X0329402Y0018845D01*
X0329462Y0019018D01*
X0329526Y0019190D01*
X0329594Y0019361D01*
X0329666Y0019529D01*
X0329743Y0019696D01*
X0329823Y0019861D01*
X0329908Y0020024D01*
X0329996Y0020184D01*
X0330088Y0020343D01*
X0330185Y0020499D01*
X0330285Y0020653D01*
X0330389Y0020804D01*
X0330496Y0020953D01*
X0330607Y0021099D01*
X0330722Y0021242D01*
X0330840Y0021382D01*
X0330961Y0021520D01*
X0331086Y0021654D01*
X0331214Y0021786D01*
X0331346Y0021914D01*
X0331480Y0022039D01*
X0331618Y0022160D01*
X0331758Y0022278D01*
X0331901Y0022393D01*
X0332047Y0022504D01*
X0332196Y0022611D01*
X0332347Y0022715D01*
X0332501Y0022815D01*
X0332657Y0022912D01*
X0332816Y0023004D01*
X0332976Y0023092D01*
X0333139Y0023177D01*
X0333304Y0023257D01*
X0333471Y0023334D01*
X0333639Y0023406D01*
X0333810Y0023474D01*
X0333982Y0023538D01*
X0334155Y0023598D01*
X0334330Y0023653D01*
X0334506Y0023704D01*
X0334684Y0023751D01*
X0334862Y0023793D01*
X0335042Y0023831D01*
X0335222Y0023865D01*
X0335403Y0023894D01*
X0335585Y0023919D01*
X0335767Y0023939D01*
X0335950Y0023955D01*
X0336133Y0023966D01*
X0336317Y0023973D01*
X0336500Y0023975D01*
X0336683Y0023973D01*
X0336867Y0023966D01*
X0337050Y0023955D01*
X0337233Y0023939D01*
X0337415Y0023919D01*
X0337597Y0023894D01*
X0337778Y0023865D01*
X0337958Y0023831D01*
X0338138Y0023793D01*
X0338316Y0023751D01*
X0338494Y0023704D01*
X0338670Y0023653D01*
X0338845Y0023598D01*
X0339018Y0023538D01*
X0339190Y0023474D01*
X0339361Y0023406D01*
X0339529Y0023334D01*
X0339696Y0023257D01*
X0339861Y0023177D01*
X0340024Y0023092D01*
X0340184Y0023004D01*
X0340343Y0022912D01*
X0340499Y0022815D01*
X0340653Y0022715D01*
X0340804Y0022611D01*
X0340953Y0022504D01*
X0341099Y0022393D01*
X0341242Y0022278D01*
X0341382Y0022160D01*
X0341520Y0022039D01*
X0341654Y0021914D01*
X0341786Y0021786D01*
X0341914Y0021654D01*
X0342039Y0021520D01*
X0342160Y0021382D01*
X0342278Y0021242D01*
X0342393Y0021099D01*
X0342504Y0020953D01*
X0342611Y0020804D01*
X0342715Y0020653D01*
X0342815Y0020499D01*
X0342912Y0020343D01*
X0343004Y0020184D01*
X0343092Y0020024D01*
X0343177Y0019861D01*
X0343257Y0019696D01*
X0343334Y0019529D01*
X0343406Y0019361D01*
X0343474Y0019190D01*
X0343538Y0019018D01*
X0343598Y0018845D01*
X0343653Y0018670D01*
X0343704Y0018494D01*
X0343751Y0018316D01*
X0343793Y0018138D01*
X0343831Y0017958D01*
X0343865Y0017778D01*
X0343894Y0017597D01*
X0343919Y0017415D01*
X0343939Y0017233D01*
X0343955Y0017050D01*
X0343966Y0016867D01*
X0343973Y0016683D01*
X0343975Y0016500D01*
X0343973Y0016317D01*
X0343966Y0016133D01*
X0343955Y0015950D01*
X0343939Y0015767D01*
X0343919Y0015585D01*
X0343894Y0015403D01*
X0343865Y0015222D01*
X0343831Y0015042D01*
X0343793Y0014862D01*
X0343751Y0014684D01*
X0343704Y0014506D01*
X0343653Y0014330D01*
X0343598Y0014155D01*
X0343538Y0013982D01*
X0343474Y0013810D01*
X0343406Y0013639D01*
X0343334Y0013471D01*
X0343257Y0013304D01*
X0343177Y0013139D01*
X0343092Y0012976D01*
X0343004Y0012816D01*
X0342912Y0012657D01*
X0342815Y0012501D01*
X0342715Y0012347D01*
X0342611Y0012196D01*
X0342504Y0012047D01*
X0342393Y0011901D01*
X0342278Y0011758D01*
X0342160Y0011618D01*
X0342039Y0011480D01*
X0341914Y0011346D01*
X0341786Y0011214D01*
X0341654Y0011086D01*
X0341520Y0010961D01*
X0341382Y0010840D01*
X0341242Y0010722D01*
X0341099Y0010607D01*
X0340953Y0010496D01*
X0340804Y0010389D01*
X0340653Y0010285D01*
X0340499Y0010185D01*
X0340343Y0010088D01*
X0340184Y0009996D01*
X0340024Y0009908D01*
X0339861Y0009823D01*
X0339696Y0009743D01*
X0339529Y0009666D01*
X0339361Y0009594D01*
X0339190Y0009526D01*
X0339018Y0009462D01*
X0338845Y0009402D01*
X0338670Y0009347D01*
X0338494Y0009296D01*
X0338316Y0009249D01*
X0338138Y0009207D01*
X0337958Y0009169D01*
X0337778Y0009135D01*
X0337597Y0009106D01*
X0337415Y0009081D01*
X0337233Y0009061D01*
X0337050Y0009045D01*
X0336867Y0009034D01*
X0336683Y0009027D01*
X0336500Y0009025D01*
X0336317Y0009027D01*
X0336133Y0009034D01*
X0335950Y0009045D01*
X0335767Y0009061D01*
X0335585Y0009081D01*
X0335403Y0009106D01*
X0335222Y0009135D01*
X0335042Y0009169D01*
X0334862Y0009207D01*
X0334684Y0009249D01*
X0334506Y0009296D01*
X0334330Y0009347D01*
X0334155Y0009402D01*
X0333982Y0009462D01*
X0333810Y0009526D01*
X0333639Y0009594D01*
X0333471Y0009666D01*
X0333304Y0009743D01*
X0333139Y0009823D01*
X0332976Y0009908D01*
X0332816Y0009996D01*
X0332657Y0010088D01*
X0332501Y0010185D01*
X0332347Y0010285D01*
X0332196Y0010389D01*
X0332047Y0010496D01*
X0331901Y0010607D01*
X0331758Y0010722D01*
X0331618Y0010840D01*
X0331480Y0010961D01*
X0331346Y0011086D01*
X0331214Y0011214D01*
X0331086Y0011346D01*
X0330961Y0011480D01*
X0330840Y0011618D01*
X0330722Y0011758D01*
X0330607Y0011901D01*
X0330496Y0012047D01*
X0330389Y0012196D01*
X0330285Y0012347D01*
X0330185Y0012501D01*
X0330088Y0012657D01*
X0329996Y0012816D01*
X0329908Y0012976D01*
X0329823Y0013139D01*
X0329743Y0013304D01*
X0329666Y0013471D01*
X0329594Y0013639D01*
X0329526Y0013810D01*
X0329462Y0013982D01*
X0329402Y0014155D01*
X0329347Y0014330D01*
X0329296Y0014506D01*
X0329249Y0014684D01*
X0329207Y0014862D01*
X0329169Y0015042D01*
X0329135Y0015222D01*
X0329106Y0015403D01*
X0329081Y0015585D01*
X0329061Y0015767D01*
X0329045Y0015950D01*
X0329034Y0016133D01*
X0329027Y0016317D01*
X0329025Y0016500D01*
X0329025Y0136500D02*
X0329027Y0136683D01*
X0329034Y0136867D01*
X0329045Y0137050D01*
X0329061Y0137233D01*
X0329081Y0137415D01*
X0329106Y0137597D01*
X0329135Y0137778D01*
X0329169Y0137958D01*
X0329207Y0138138D01*
X0329249Y0138316D01*
X0329296Y0138494D01*
X0329347Y0138670D01*
X0329402Y0138845D01*
X0329462Y0139018D01*
X0329526Y0139190D01*
X0329594Y0139361D01*
X0329666Y0139529D01*
X0329743Y0139696D01*
X0329823Y0139861D01*
X0329908Y0140024D01*
X0329996Y0140184D01*
X0330088Y0140343D01*
X0330185Y0140499D01*
X0330285Y0140653D01*
X0330389Y0140804D01*
X0330496Y0140953D01*
X0330607Y0141099D01*
X0330722Y0141242D01*
X0330840Y0141382D01*
X0330961Y0141520D01*
X0331086Y0141654D01*
X0331214Y0141786D01*
X0331346Y0141914D01*
X0331480Y0142039D01*
X0331618Y0142160D01*
X0331758Y0142278D01*
X0331901Y0142393D01*
X0332047Y0142504D01*
X0332196Y0142611D01*
X0332347Y0142715D01*
X0332501Y0142815D01*
X0332657Y0142912D01*
X0332816Y0143004D01*
X0332976Y0143092D01*
X0333139Y0143177D01*
X0333304Y0143257D01*
X0333471Y0143334D01*
X0333639Y0143406D01*
X0333810Y0143474D01*
X0333982Y0143538D01*
X0334155Y0143598D01*
X0334330Y0143653D01*
X0334506Y0143704D01*
X0334684Y0143751D01*
X0334862Y0143793D01*
X0335042Y0143831D01*
X0335222Y0143865D01*
X0335403Y0143894D01*
X0335585Y0143919D01*
X0335767Y0143939D01*
X0335950Y0143955D01*
X0336133Y0143966D01*
X0336317Y0143973D01*
X0336500Y0143975D01*
X0336683Y0143973D01*
X0336867Y0143966D01*
X0337050Y0143955D01*
X0337233Y0143939D01*
X0337415Y0143919D01*
X0337597Y0143894D01*
X0337778Y0143865D01*
X0337958Y0143831D01*
X0338138Y0143793D01*
X0338316Y0143751D01*
X0338494Y0143704D01*
X0338670Y0143653D01*
X0338845Y0143598D01*
X0339018Y0143538D01*
X0339190Y0143474D01*
X0339361Y0143406D01*
X0339529Y0143334D01*
X0339696Y0143257D01*
X0339861Y0143177D01*
X0340024Y0143092D01*
X0340184Y0143004D01*
X0340343Y0142912D01*
X0340499Y0142815D01*
X0340653Y0142715D01*
X0340804Y0142611D01*
X0340953Y0142504D01*
X0341099Y0142393D01*
X0341242Y0142278D01*
X0341382Y0142160D01*
X0341520Y0142039D01*
X0341654Y0141914D01*
X0341786Y0141786D01*
X0341914Y0141654D01*
X0342039Y0141520D01*
X0342160Y0141382D01*
X0342278Y0141242D01*
X0342393Y0141099D01*
X0342504Y0140953D01*
X0342611Y0140804D01*
X0342715Y0140653D01*
X0342815Y0140499D01*
X0342912Y0140343D01*
X0343004Y0140184D01*
X0343092Y0140024D01*
X0343177Y0139861D01*
X0343257Y0139696D01*
X0343334Y0139529D01*
X0343406Y0139361D01*
X0343474Y0139190D01*
X0343538Y0139018D01*
X0343598Y0138845D01*
X0343653Y0138670D01*
X0343704Y0138494D01*
X0343751Y0138316D01*
X0343793Y0138138D01*
X0343831Y0137958D01*
X0343865Y0137778D01*
X0343894Y0137597D01*
X0343919Y0137415D01*
X0343939Y0137233D01*
X0343955Y0137050D01*
X0343966Y0136867D01*
X0343973Y0136683D01*
X0343975Y0136500D01*
X0343973Y0136317D01*
X0343966Y0136133D01*
X0343955Y0135950D01*
X0343939Y0135767D01*
X0343919Y0135585D01*
X0343894Y0135403D01*
X0343865Y0135222D01*
X0343831Y0135042D01*
X0343793Y0134862D01*
X0343751Y0134684D01*
X0343704Y0134506D01*
X0343653Y0134330D01*
X0343598Y0134155D01*
X0343538Y0133982D01*
X0343474Y0133810D01*
X0343406Y0133639D01*
X0343334Y0133471D01*
X0343257Y0133304D01*
X0343177Y0133139D01*
X0343092Y0132976D01*
X0343004Y0132816D01*
X0342912Y0132657D01*
X0342815Y0132501D01*
X0342715Y0132347D01*
X0342611Y0132196D01*
X0342504Y0132047D01*
X0342393Y0131901D01*
X0342278Y0131758D01*
X0342160Y0131618D01*
X0342039Y0131480D01*
X0341914Y0131346D01*
X0341786Y0131214D01*
X0341654Y0131086D01*
X0341520Y0130961D01*
X0341382Y0130840D01*
X0341242Y0130722D01*
X0341099Y0130607D01*
X0340953Y0130496D01*
X0340804Y0130389D01*
X0340653Y0130285D01*
X0340499Y0130185D01*
X0340343Y0130088D01*
X0340184Y0129996D01*
X0340024Y0129908D01*
X0339861Y0129823D01*
X0339696Y0129743D01*
X0339529Y0129666D01*
X0339361Y0129594D01*
X0339190Y0129526D01*
X0339018Y0129462D01*
X0338845Y0129402D01*
X0338670Y0129347D01*
X0338494Y0129296D01*
X0338316Y0129249D01*
X0338138Y0129207D01*
X0337958Y0129169D01*
X0337778Y0129135D01*
X0337597Y0129106D01*
X0337415Y0129081D01*
X0337233Y0129061D01*
X0337050Y0129045D01*
X0336867Y0129034D01*
X0336683Y0129027D01*
X0336500Y0129025D01*
X0336317Y0129027D01*
X0336133Y0129034D01*
X0335950Y0129045D01*
X0335767Y0129061D01*
X0335585Y0129081D01*
X0335403Y0129106D01*
X0335222Y0129135D01*
X0335042Y0129169D01*
X0334862Y0129207D01*
X0334684Y0129249D01*
X0334506Y0129296D01*
X0334330Y0129347D01*
X0334155Y0129402D01*
X0333982Y0129462D01*
X0333810Y0129526D01*
X0333639Y0129594D01*
X0333471Y0129666D01*
X0333304Y0129743D01*
X0333139Y0129823D01*
X0332976Y0129908D01*
X0332816Y0129996D01*
X0332657Y0130088D01*
X0332501Y0130185D01*
X0332347Y0130285D01*
X0332196Y0130389D01*
X0332047Y0130496D01*
X0331901Y0130607D01*
X0331758Y0130722D01*
X0331618Y0130840D01*
X0331480Y0130961D01*
X0331346Y0131086D01*
X0331214Y0131214D01*
X0331086Y0131346D01*
X0330961Y0131480D01*
X0330840Y0131618D01*
X0330722Y0131758D01*
X0330607Y0131901D01*
X0330496Y0132047D01*
X0330389Y0132196D01*
X0330285Y0132347D01*
X0330185Y0132501D01*
X0330088Y0132657D01*
X0329996Y0132816D01*
X0329908Y0132976D01*
X0329823Y0133139D01*
X0329743Y0133304D01*
X0329666Y0133471D01*
X0329594Y0133639D01*
X0329526Y0133810D01*
X0329462Y0133982D01*
X0329402Y0134155D01*
X0329347Y0134330D01*
X0329296Y0134506D01*
X0329249Y0134684D01*
X0329207Y0134862D01*
X0329169Y0135042D01*
X0329135Y0135222D01*
X0329106Y0135403D01*
X0329081Y0135585D01*
X0329061Y0135767D01*
X0329045Y0135950D01*
X0329034Y0136133D01*
X0329027Y0136317D01*
X0329025Y0136500D01*
X0009025Y0136500D02*
X0009027Y0136683D01*
X0009034Y0136867D01*
X0009045Y0137050D01*
X0009061Y0137233D01*
X0009081Y0137415D01*
X0009106Y0137597D01*
X0009135Y0137778D01*
X0009169Y0137958D01*
X0009207Y0138138D01*
X0009249Y0138316D01*
X0009296Y0138494D01*
X0009347Y0138670D01*
X0009402Y0138845D01*
X0009462Y0139018D01*
X0009526Y0139190D01*
X0009594Y0139361D01*
X0009666Y0139529D01*
X0009743Y0139696D01*
X0009823Y0139861D01*
X0009908Y0140024D01*
X0009996Y0140184D01*
X0010088Y0140343D01*
X0010185Y0140499D01*
X0010285Y0140653D01*
X0010389Y0140804D01*
X0010496Y0140953D01*
X0010607Y0141099D01*
X0010722Y0141242D01*
X0010840Y0141382D01*
X0010961Y0141520D01*
X0011086Y0141654D01*
X0011214Y0141786D01*
X0011346Y0141914D01*
X0011480Y0142039D01*
X0011618Y0142160D01*
X0011758Y0142278D01*
X0011901Y0142393D01*
X0012047Y0142504D01*
X0012196Y0142611D01*
X0012347Y0142715D01*
X0012501Y0142815D01*
X0012657Y0142912D01*
X0012816Y0143004D01*
X0012976Y0143092D01*
X0013139Y0143177D01*
X0013304Y0143257D01*
X0013471Y0143334D01*
X0013639Y0143406D01*
X0013810Y0143474D01*
X0013982Y0143538D01*
X0014155Y0143598D01*
X0014330Y0143653D01*
X0014506Y0143704D01*
X0014684Y0143751D01*
X0014862Y0143793D01*
X0015042Y0143831D01*
X0015222Y0143865D01*
X0015403Y0143894D01*
X0015585Y0143919D01*
X0015767Y0143939D01*
X0015950Y0143955D01*
X0016133Y0143966D01*
X0016317Y0143973D01*
X0016500Y0143975D01*
X0016683Y0143973D01*
X0016867Y0143966D01*
X0017050Y0143955D01*
X0017233Y0143939D01*
X0017415Y0143919D01*
X0017597Y0143894D01*
X0017778Y0143865D01*
X0017958Y0143831D01*
X0018138Y0143793D01*
X0018316Y0143751D01*
X0018494Y0143704D01*
X0018670Y0143653D01*
X0018845Y0143598D01*
X0019018Y0143538D01*
X0019190Y0143474D01*
X0019361Y0143406D01*
X0019529Y0143334D01*
X0019696Y0143257D01*
X0019861Y0143177D01*
X0020024Y0143092D01*
X0020184Y0143004D01*
X0020343Y0142912D01*
X0020499Y0142815D01*
X0020653Y0142715D01*
X0020804Y0142611D01*
X0020953Y0142504D01*
X0021099Y0142393D01*
X0021242Y0142278D01*
X0021382Y0142160D01*
X0021520Y0142039D01*
X0021654Y0141914D01*
X0021786Y0141786D01*
X0021914Y0141654D01*
X0022039Y0141520D01*
X0022160Y0141382D01*
X0022278Y0141242D01*
X0022393Y0141099D01*
X0022504Y0140953D01*
X0022611Y0140804D01*
X0022715Y0140653D01*
X0022815Y0140499D01*
X0022912Y0140343D01*
X0023004Y0140184D01*
X0023092Y0140024D01*
X0023177Y0139861D01*
X0023257Y0139696D01*
X0023334Y0139529D01*
X0023406Y0139361D01*
X0023474Y0139190D01*
X0023538Y0139018D01*
X0023598Y0138845D01*
X0023653Y0138670D01*
X0023704Y0138494D01*
X0023751Y0138316D01*
X0023793Y0138138D01*
X0023831Y0137958D01*
X0023865Y0137778D01*
X0023894Y0137597D01*
X0023919Y0137415D01*
X0023939Y0137233D01*
X0023955Y0137050D01*
X0023966Y0136867D01*
X0023973Y0136683D01*
X0023975Y0136500D01*
X0023973Y0136317D01*
X0023966Y0136133D01*
X0023955Y0135950D01*
X0023939Y0135767D01*
X0023919Y0135585D01*
X0023894Y0135403D01*
X0023865Y0135222D01*
X0023831Y0135042D01*
X0023793Y0134862D01*
X0023751Y0134684D01*
X0023704Y0134506D01*
X0023653Y0134330D01*
X0023598Y0134155D01*
X0023538Y0133982D01*
X0023474Y0133810D01*
X0023406Y0133639D01*
X0023334Y0133471D01*
X0023257Y0133304D01*
X0023177Y0133139D01*
X0023092Y0132976D01*
X0023004Y0132816D01*
X0022912Y0132657D01*
X0022815Y0132501D01*
X0022715Y0132347D01*
X0022611Y0132196D01*
X0022504Y0132047D01*
X0022393Y0131901D01*
X0022278Y0131758D01*
X0022160Y0131618D01*
X0022039Y0131480D01*
X0021914Y0131346D01*
X0021786Y0131214D01*
X0021654Y0131086D01*
X0021520Y0130961D01*
X0021382Y0130840D01*
X0021242Y0130722D01*
X0021099Y0130607D01*
X0020953Y0130496D01*
X0020804Y0130389D01*
X0020653Y0130285D01*
X0020499Y0130185D01*
X0020343Y0130088D01*
X0020184Y0129996D01*
X0020024Y0129908D01*
X0019861Y0129823D01*
X0019696Y0129743D01*
X0019529Y0129666D01*
X0019361Y0129594D01*
X0019190Y0129526D01*
X0019018Y0129462D01*
X0018845Y0129402D01*
X0018670Y0129347D01*
X0018494Y0129296D01*
X0018316Y0129249D01*
X0018138Y0129207D01*
X0017958Y0129169D01*
X0017778Y0129135D01*
X0017597Y0129106D01*
X0017415Y0129081D01*
X0017233Y0129061D01*
X0017050Y0129045D01*
X0016867Y0129034D01*
X0016683Y0129027D01*
X0016500Y0129025D01*
X0016317Y0129027D01*
X0016133Y0129034D01*
X0015950Y0129045D01*
X0015767Y0129061D01*
X0015585Y0129081D01*
X0015403Y0129106D01*
X0015222Y0129135D01*
X0015042Y0129169D01*
X0014862Y0129207D01*
X0014684Y0129249D01*
X0014506Y0129296D01*
X0014330Y0129347D01*
X0014155Y0129402D01*
X0013982Y0129462D01*
X0013810Y0129526D01*
X0013639Y0129594D01*
X0013471Y0129666D01*
X0013304Y0129743D01*
X0013139Y0129823D01*
X0012976Y0129908D01*
X0012816Y0129996D01*
X0012657Y0130088D01*
X0012501Y0130185D01*
X0012347Y0130285D01*
X0012196Y0130389D01*
X0012047Y0130496D01*
X0011901Y0130607D01*
X0011758Y0130722D01*
X0011618Y0130840D01*
X0011480Y0130961D01*
X0011346Y0131086D01*
X0011214Y0131214D01*
X0011086Y0131346D01*
X0010961Y0131480D01*
X0010840Y0131618D01*
X0010722Y0131758D01*
X0010607Y0131901D01*
X0010496Y0132047D01*
X0010389Y0132196D01*
X0010285Y0132347D01*
X0010185Y0132501D01*
X0010088Y0132657D01*
X0009996Y0132816D01*
X0009908Y0132976D01*
X0009823Y0133139D01*
X0009743Y0133304D01*
X0009666Y0133471D01*
X0009594Y0133639D01*
X0009526Y0133810D01*
X0009462Y0133982D01*
X0009402Y0134155D01*
X0009347Y0134330D01*
X0009296Y0134506D01*
X0009249Y0134684D01*
X0009207Y0134862D01*
X0009169Y0135042D01*
X0009135Y0135222D01*
X0009106Y0135403D01*
X0009081Y0135585D01*
X0009061Y0135767D01*
X0009045Y0135950D01*
X0009034Y0136133D01*
X0009027Y0136317D01*
X0009025Y0136500D01*
M02*
