G75*
%MOIN*%
%OFA0B0*%
%FSLAX25Y25*%
%IPPOS*%
%LPD*%
%AMOC8*
5,1,8,0,0,1.08239X$1,22.5*
%
%ADD10R,0.05524X0.02965*%
%ADD11R,0.03556X0.04343*%
%ADD12R,0.18910X0.04737*%
%ADD13R,0.14186X0.07099*%
%ADD14R,0.04146X0.01587*%
%ADD15R,0.08477X0.08477*%
%ADD16R,0.01784X0.04737*%
%ADD17R,0.01772X0.13780*%
%ADD18R,0.07887X0.07099*%
%ADD19R,0.05131X0.04737*%
%ADD20R,0.01902X0.04146*%
%ADD21R,0.04146X0.01902*%
%ADD22R,0.07493X0.07493*%
%ADD23R,0.04737X0.05131*%
%ADD24C,0.01421*%
%ADD25R,0.05524X0.03950*%
%ADD26R,0.07099X0.07887*%
%ADD27R,0.03950X0.05524*%
%ADD28R,0.06706X0.03950*%
%ADD29R,0.08280X0.06312*%
%ADD30R,0.06312X0.07887*%
%ADD31C,0.01969*%
%ADD32C,0.03556*%
%ADD33C,0.04343*%
%ADD34C,0.02769*%
%ADD35R,0.03950X0.01981*%
%ADD36R,0.01981X0.03950*%
%ADD37R,0.02493X0.01902*%
%ADD38R,0.04737X0.07099*%
%ADD39C,0.15750*%
%ADD40R,0.08200X0.08200*%
%ADD41C,0.08200*%
%ADD42C,0.06800*%
%ADD43R,0.11824X0.10249*%
%ADD44C,0.08800*%
%ADD45C,0.04369*%
D10*
X0221381Y0072760D03*
X0231619Y0072760D03*
X0231619Y0076500D03*
X0231619Y0080240D03*
X0221381Y0080240D03*
D11*
X0223941Y0086500D03*
X0229059Y0086500D03*
X0248941Y0084000D03*
X0254059Y0084000D03*
X0254059Y0078500D03*
X0248941Y0078500D03*
X0248941Y0089500D03*
X0254059Y0089500D03*
X0229059Y0096500D03*
X0223941Y0096500D03*
X0204059Y0096500D03*
X0198941Y0096500D03*
X0223941Y0066500D03*
X0229059Y0066500D03*
D12*
X0301933Y0102563D03*
X0301933Y0110437D03*
D13*
X0322406Y0119886D03*
X0322406Y0093114D03*
D14*
X0284276Y0065437D03*
X0284276Y0063862D03*
X0284276Y0062287D03*
X0284276Y0060713D03*
X0284276Y0059138D03*
X0284276Y0057563D03*
X0268724Y0057563D03*
X0268724Y0059138D03*
X0268724Y0060713D03*
X0268724Y0062287D03*
X0268724Y0063862D03*
X0268724Y0065437D03*
D15*
X0276500Y0061500D03*
D16*
X0272169Y0056972D03*
X0280831Y0056972D03*
X0280831Y0066028D03*
X0272169Y0066028D03*
D17*
X0272169Y0061500D03*
X0280831Y0061500D03*
D18*
X0286500Y0080988D03*
X0286500Y0092012D03*
D19*
X0254846Y0096500D03*
X0248154Y0096500D03*
X0204846Y0086500D03*
X0198154Y0086500D03*
X0253154Y0059500D03*
X0259846Y0059500D03*
X0259846Y0051500D03*
X0253154Y0051500D03*
X0224846Y0034000D03*
X0218154Y0034000D03*
X0204846Y0046500D03*
X0198154Y0046500D03*
X0198154Y0056500D03*
X0204846Y0056500D03*
X0268154Y0076500D03*
X0274846Y0076500D03*
D20*
X0264453Y0037307D03*
X0262484Y0037307D03*
X0260516Y0037307D03*
X0258547Y0037307D03*
X0258547Y0025693D03*
X0260516Y0025693D03*
X0262484Y0025693D03*
X0264453Y0025693D03*
D21*
X0267307Y0028547D03*
X0267307Y0030516D03*
X0267307Y0032484D03*
X0267307Y0034453D03*
X0255693Y0034453D03*
X0255693Y0032484D03*
X0255693Y0030516D03*
X0255693Y0028547D03*
D22*
X0261500Y0031500D03*
D23*
X0276500Y0028154D03*
X0286500Y0028154D03*
X0286500Y0034846D03*
X0276500Y0034846D03*
X0246500Y0024846D03*
X0246500Y0018154D03*
X0266500Y0019846D03*
X0266500Y0013154D03*
X0211500Y0018154D03*
X0211500Y0024846D03*
D24*
X0234842Y0023295D02*
X0238158Y0023295D01*
X0234842Y0023295D02*
X0234842Y0026611D01*
X0238158Y0026611D01*
X0238158Y0023295D01*
X0238158Y0024715D02*
X0234842Y0024715D01*
X0234842Y0026135D02*
X0238158Y0026135D01*
X0238158Y0016389D02*
X0234842Y0016389D01*
X0234842Y0019705D01*
X0238158Y0019705D01*
X0238158Y0016389D01*
X0238158Y0017809D02*
X0234842Y0017809D01*
X0234842Y0019229D02*
X0238158Y0019229D01*
D25*
X0221500Y0017957D03*
X0221500Y0025043D03*
D26*
X0276488Y0016500D03*
X0287512Y0016500D03*
D27*
X0261043Y0044000D03*
X0253957Y0044000D03*
D28*
X0043449Y0073134D03*
X0041874Y0077465D03*
X0041087Y0081795D03*
X0041874Y0086126D03*
X0041087Y0090457D03*
X0041874Y0094787D03*
X0041874Y0099118D03*
X0041874Y0068803D03*
D29*
X0026717Y0050457D03*
X0030654Y0102228D03*
D30*
X0082425Y0095929D03*
X0082425Y0073488D03*
D31*
X0198764Y0071500D02*
X0198766Y0071604D01*
X0198772Y0071708D01*
X0198782Y0071812D01*
X0198796Y0071915D01*
X0198813Y0072018D01*
X0198835Y0072120D01*
X0198861Y0072221D01*
X0198890Y0072321D01*
X0198923Y0072419D01*
X0198960Y0072517D01*
X0199001Y0072613D01*
X0199045Y0072707D01*
X0199092Y0072800D01*
X0199144Y0072890D01*
X0199198Y0072979D01*
X0199256Y0073066D01*
X0199318Y0073150D01*
X0199382Y0073232D01*
X0199449Y0073311D01*
X0199520Y0073388D01*
X0199593Y0073462D01*
X0199669Y0073533D01*
X0199748Y0073601D01*
X0199829Y0073667D01*
X0199913Y0073729D01*
X0199999Y0073787D01*
X0200087Y0073843D01*
X0200177Y0073895D01*
X0200269Y0073944D01*
X0200363Y0073989D01*
X0200459Y0074030D01*
X0200556Y0074068D01*
X0200655Y0074102D01*
X0200754Y0074132D01*
X0200855Y0074159D01*
X0200957Y0074182D01*
X0201059Y0074200D01*
X0201162Y0074215D01*
X0201266Y0074226D01*
X0201370Y0074233D01*
X0201474Y0074236D01*
X0201578Y0074235D01*
X0201682Y0074230D01*
X0201786Y0074221D01*
X0201889Y0074208D01*
X0201992Y0074191D01*
X0202094Y0074171D01*
X0202196Y0074146D01*
X0202296Y0074118D01*
X0202395Y0074086D01*
X0202493Y0074050D01*
X0202589Y0074010D01*
X0202684Y0073967D01*
X0202777Y0073920D01*
X0202868Y0073869D01*
X0202957Y0073816D01*
X0203044Y0073758D01*
X0203129Y0073698D01*
X0203212Y0073634D01*
X0203292Y0073568D01*
X0203369Y0073498D01*
X0203444Y0073425D01*
X0203516Y0073350D01*
X0203585Y0073272D01*
X0203651Y0073191D01*
X0203713Y0073108D01*
X0203773Y0073023D01*
X0203829Y0072935D01*
X0203882Y0072845D01*
X0203932Y0072754D01*
X0203978Y0072660D01*
X0204020Y0072565D01*
X0204059Y0072468D01*
X0204094Y0072370D01*
X0204125Y0072271D01*
X0204153Y0072170D01*
X0204176Y0072069D01*
X0204196Y0071967D01*
X0204212Y0071864D01*
X0204224Y0071760D01*
X0204232Y0071656D01*
X0204236Y0071552D01*
X0204236Y0071448D01*
X0204232Y0071344D01*
X0204224Y0071240D01*
X0204212Y0071136D01*
X0204196Y0071033D01*
X0204176Y0070931D01*
X0204153Y0070830D01*
X0204125Y0070729D01*
X0204094Y0070630D01*
X0204059Y0070532D01*
X0204020Y0070435D01*
X0203978Y0070340D01*
X0203932Y0070246D01*
X0203882Y0070155D01*
X0203829Y0070065D01*
X0203773Y0069977D01*
X0203713Y0069892D01*
X0203651Y0069809D01*
X0203585Y0069728D01*
X0203516Y0069650D01*
X0203444Y0069575D01*
X0203369Y0069502D01*
X0203292Y0069432D01*
X0203212Y0069366D01*
X0203129Y0069302D01*
X0203044Y0069242D01*
X0202957Y0069184D01*
X0202868Y0069131D01*
X0202777Y0069080D01*
X0202684Y0069033D01*
X0202589Y0068990D01*
X0202493Y0068950D01*
X0202395Y0068914D01*
X0202296Y0068882D01*
X0202196Y0068854D01*
X0202094Y0068829D01*
X0201992Y0068809D01*
X0201889Y0068792D01*
X0201786Y0068779D01*
X0201682Y0068770D01*
X0201578Y0068765D01*
X0201474Y0068764D01*
X0201370Y0068767D01*
X0201266Y0068774D01*
X0201162Y0068785D01*
X0201059Y0068800D01*
X0200957Y0068818D01*
X0200855Y0068841D01*
X0200754Y0068868D01*
X0200655Y0068898D01*
X0200556Y0068932D01*
X0200459Y0068970D01*
X0200363Y0069011D01*
X0200269Y0069056D01*
X0200177Y0069105D01*
X0200087Y0069157D01*
X0199999Y0069213D01*
X0199913Y0069271D01*
X0199829Y0069333D01*
X0199748Y0069399D01*
X0199669Y0069467D01*
X0199593Y0069538D01*
X0199520Y0069612D01*
X0199449Y0069689D01*
X0199382Y0069768D01*
X0199318Y0069850D01*
X0199256Y0069934D01*
X0199198Y0070021D01*
X0199144Y0070110D01*
X0199092Y0070200D01*
X0199045Y0070293D01*
X0199001Y0070387D01*
X0198960Y0070483D01*
X0198923Y0070581D01*
X0198890Y0070679D01*
X0198861Y0070779D01*
X0198835Y0070880D01*
X0198813Y0070982D01*
X0198796Y0071085D01*
X0198782Y0071188D01*
X0198772Y0071292D01*
X0198766Y0071396D01*
X0198764Y0071500D01*
D32*
X0198390Y0066500D03*
X0198390Y0076500D03*
D33*
X0211815Y0076224D03*
X0211815Y0071500D03*
X0211815Y0066776D03*
D34*
X0201500Y0071500D03*
D35*
X0216480Y0053469D03*
X0216480Y0051500D03*
X0216480Y0049531D03*
X0226520Y0049531D03*
X0226520Y0051500D03*
X0226520Y0053469D03*
D36*
X0225437Y0056520D03*
X0223469Y0056520D03*
X0221500Y0056520D03*
X0219531Y0056520D03*
X0217563Y0056520D03*
X0217563Y0046480D03*
X0219531Y0046480D03*
X0221500Y0046480D03*
X0223469Y0046480D03*
X0225437Y0046480D03*
D37*
X0271500Y0090496D03*
X0271500Y0092504D03*
D38*
X0193843Y0026224D03*
X0184000Y0026224D03*
X0174157Y0026224D03*
X0174157Y0016776D03*
X0184000Y0016776D03*
X0193843Y0016776D03*
D39*
X0016500Y0016500D03*
X0016500Y0136500D03*
X0336500Y0136500D03*
X0336500Y0016500D03*
D40*
X0166500Y0131500D03*
D41*
X0176500Y0131500D03*
X0186500Y0131500D03*
X0196500Y0131500D03*
X0146500Y0131500D03*
X0136500Y0131500D03*
X0126500Y0131500D03*
X0116500Y0131500D03*
X0106500Y0131500D03*
X0096500Y0131500D03*
X0086500Y0131500D03*
X0076500Y0131500D03*
X0066500Y0131500D03*
X0056500Y0131500D03*
X0046500Y0131500D03*
X0036500Y0131500D03*
X0036500Y0111500D03*
X0046500Y0111500D03*
X0056500Y0111500D03*
X0066500Y0111500D03*
X0076500Y0111500D03*
X0086500Y0111500D03*
X0096500Y0111500D03*
X0106500Y0111500D03*
X0116500Y0111500D03*
X0126500Y0111500D03*
X0136500Y0111500D03*
X0146500Y0111500D03*
X0146500Y0041500D03*
X0136500Y0041500D03*
X0126500Y0041500D03*
X0116500Y0041500D03*
X0106500Y0041500D03*
X0096500Y0041500D03*
X0086500Y0041500D03*
X0076500Y0041500D03*
X0066500Y0041500D03*
X0056500Y0041500D03*
X0046500Y0041500D03*
X0036500Y0041500D03*
X0036500Y0021500D03*
X0046500Y0021500D03*
X0056500Y0021500D03*
X0066500Y0021500D03*
X0076500Y0021500D03*
X0086500Y0021500D03*
X0096500Y0021500D03*
X0106500Y0021500D03*
X0116500Y0021500D03*
X0126500Y0021500D03*
X0136500Y0021500D03*
X0146500Y0021500D03*
D42*
X0256500Y0108500D02*
X0256500Y0114500D01*
X0266500Y0113500D02*
X0266500Y0107500D01*
X0276500Y0108500D02*
X0276500Y0114500D01*
X0276500Y0128500D02*
X0276500Y0134500D01*
X0266500Y0133500D02*
X0266500Y0127500D01*
X0256500Y0128500D02*
X0256500Y0134500D01*
X0236500Y0134500D02*
X0236500Y0128500D01*
X0226500Y0127500D02*
X0226500Y0133500D01*
X0216500Y0134500D02*
X0216500Y0128500D01*
D43*
X0307484Y0078941D03*
X0331500Y0078941D03*
X0331500Y0034059D03*
X0307484Y0034059D03*
D44*
X0313500Y0056500D03*
X0331500Y0056500D03*
D45*
X0321500Y0066500D03*
X0306500Y0066500D03*
X0279000Y0063500D03*
X0274000Y0063500D03*
X0274000Y0059500D03*
X0279000Y0059500D03*
X0281500Y0051500D03*
X0271500Y0051500D03*
X0246500Y0056500D03*
X0231500Y0056500D03*
X0221500Y0051500D03*
X0211500Y0046500D03*
X0226500Y0039500D03*
X0231500Y0034500D03*
X0247500Y0030500D03*
X0261500Y0031500D03*
X0246500Y0041500D03*
X0236500Y0046500D03*
X0231500Y0046500D03*
X0211500Y0036500D03*
X0201500Y0036500D03*
X0191500Y0036500D03*
X0181500Y0036500D03*
X0171500Y0036500D03*
X0229000Y0024500D03*
X0216500Y0061500D03*
X0236500Y0066500D03*
X0239500Y0071500D03*
X0261500Y0071500D03*
X0271500Y0071500D03*
X0296500Y0086500D03*
X0296500Y0096500D03*
X0321500Y0106500D03*
X0296500Y0121500D03*
X0286500Y0121500D03*
X0286500Y0111500D03*
X0236500Y0106500D03*
X0216500Y0101500D03*
X0206500Y0101500D03*
X0196500Y0101500D03*
X0186500Y0099000D03*
X0166500Y0086500D03*
X0176500Y0081500D03*
X0206500Y0076500D03*
X0236500Y0086500D03*
X0216500Y0091500D03*
X0236500Y0096500D03*
X0236500Y0116500D03*
X0216500Y0116500D03*
X0206500Y0116500D03*
X0161500Y0116500D03*
X0116500Y0141500D03*
X0071500Y0096500D03*
X0071500Y0076500D03*
X0096500Y0076500D03*
X0116500Y0061500D03*
X0126500Y0061500D03*
X0101500Y0056500D03*
X0091500Y0051500D03*
X0051500Y0056500D03*
X0036500Y0056500D03*
X0011500Y0031500D03*
X0176500Y0061500D03*
X0186500Y0061500D03*
X0011500Y0121500D03*
M02*
