%
M48
M72
T01C0.01969
T02C0.04000
T03C0.08000
T04C0.14950
%
T01
X11500Y31500
X36500Y56500
X51500Y56500
X91500Y51500
X101500Y56500
X116500Y61500
X126500Y61500
X96500Y76500
X71500Y76500
X71500Y96500
X11500Y121500
X116500Y141500
X161500Y116500
X196500Y101500
X206500Y101500
X216500Y101500
X236500Y96500
X216500Y91500
X236500Y86500
X206500Y76500
X201500Y71500
X186500Y61500
X176500Y61500
X211500Y46500
X221500Y51500
X231500Y46500
X236500Y46500
X246500Y41500
X231500Y34500
X226500Y39500
X211500Y36500
X201500Y36500
X191500Y36500
X181500Y36500
X171500Y36500
X229000Y24500
X247500Y30500
X261500Y31500
X271500Y51500
X281500Y51500
X279000Y59500
X274000Y59500
X274000Y63500
X279000Y63500
X271500Y71500
X261500Y71500
X239500Y71500
X236500Y66500
X216500Y61500
X231500Y56500
X246500Y56500
X306500Y66500
X321500Y66500
X296500Y86500
X296500Y96500
X321500Y106500
X296500Y121500
X286500Y121500
X286500Y111500
X236500Y106500
X236500Y116500
X216500Y116500
X206500Y116500
X186500Y99000
X166500Y86500
X176500Y81500
T02
X146500Y111500
X136500Y111500
X126500Y111500
X116500Y111500
X106500Y111500
X96500Y111500
X86500Y111500
X76500Y111500
X66500Y111500
X56500Y111500
X46500Y111500
X36500Y111500
X36500Y131500
X46500Y131500
X56500Y131500
X66500Y131500
X76500Y131500
X86500Y131500
X96500Y131500
X106500Y131500
X116500Y131500
X126500Y131500
X136500Y131500
X146500Y131500
X166500Y131500
X176500Y131500
X186500Y131500
X196500Y131500
X216500Y131500
X226500Y130500
X236500Y131500
X256500Y131500
X266500Y130500
X276500Y131500
X276500Y111500
X266500Y110500
X256500Y111500
X146500Y41500
X136500Y41500
X126500Y41500
X116500Y41500
X106500Y41500
X96500Y41500
X86500Y41500
X76500Y41500
X66500Y41500
X56500Y41500
X46500Y41500
X36500Y41500
X36500Y21500
X46500Y21500
X56500Y21500
X66500Y21500
X76500Y21500
X86500Y21500
X96500Y21500
X106500Y21500
X116500Y21500
X126500Y21500
X136500Y21500
X146500Y21500
T03
X313500Y56500
X331500Y56500
T04
X16500Y16500
X16500Y136500
X336500Y136500
X336500Y16500
M30
