G75*
%MOIN*%
%OFA0B0*%
%FSLAX25Y25*%
%IPPOS*%
%LPD*%
%AMOC8*
5,1,8,0,0,1.08239X$1,22.5*
%
%ADD10R,0.04724X0.02165*%
%ADD11R,0.02756X0.03543*%
%ADD12R,0.18110X0.03937*%
%ADD13R,0.13386X0.06299*%
%ADD14R,0.03346X0.00787*%
%ADD15R,0.07677X0.07677*%
%ADD16C,0.00050*%
%ADD17R,0.00984X0.03937*%
%ADD18R,0.07087X0.06299*%
%ADD19R,0.04331X0.03937*%
%ADD20R,0.01102X0.03346*%
%ADD21R,0.03346X0.01102*%
%ADD22R,0.06693X0.06693*%
%ADD23R,0.03937X0.04331*%
%ADD24C,0.01181*%
%ADD25R,0.04724X0.03150*%
%ADD26R,0.06299X0.07087*%
%ADD27R,0.03150X0.04724*%
%ADD28R,0.05906X0.03150*%
%ADD29R,0.07480X0.05512*%
%ADD30R,0.05512X0.07087*%
%ADD31C,0.01142*%
%ADD32C,0.02756*%
%ADD33C,0.03543*%
%ADD34R,0.03150X0.01181*%
%ADD35R,0.01181X0.03150*%
%ADD36R,0.01693X0.01102*%
%ADD37R,0.03937X0.06299*%
%ADD38R,0.07400X0.07400*%
%ADD39C,0.07400*%
%ADD40C,0.06000*%
%ADD41R,0.11024X0.09449*%
%ADD42C,0.01000*%
%ADD43C,0.03569*%
%ADD44C,0.00800*%
%ADD45C,0.01600*%
%ADD46C,0.05000*%
%ADD47C,0.03200*%
%ADD48C,0.01200*%
%ADD49C,0.02400*%
%ADD50C,0.00100*%
%ADD51C,0.04000*%
D10*
X0221381Y0072760D03*
X0231619Y0072760D03*
X0231619Y0076500D03*
X0231619Y0080240D03*
X0221381Y0080240D03*
D11*
X0223941Y0086500D03*
X0229059Y0086500D03*
X0248941Y0084000D03*
X0254059Y0084000D03*
X0254059Y0078500D03*
X0248941Y0078500D03*
X0248941Y0089500D03*
X0254059Y0089500D03*
X0229059Y0096500D03*
X0223941Y0096500D03*
X0204059Y0096500D03*
X0198941Y0096500D03*
X0223941Y0066500D03*
X0229059Y0066500D03*
D12*
X0301933Y0102563D03*
X0301933Y0110437D03*
D13*
X0322406Y0119886D03*
X0322406Y0093114D03*
D14*
X0284276Y0065437D03*
X0284276Y0063862D03*
X0284276Y0062287D03*
X0284276Y0060713D03*
X0284276Y0059138D03*
X0284276Y0057563D03*
X0268724Y0057563D03*
X0268724Y0059138D03*
X0268724Y0060713D03*
X0268724Y0062287D03*
X0268724Y0063862D03*
X0268724Y0065437D03*
D15*
X0276500Y0061500D03*
D16*
X0271677Y0061509D02*
X0281323Y0061509D01*
X0281323Y0061557D02*
X0271677Y0061557D01*
X0271677Y0061606D02*
X0281323Y0061606D01*
X0281323Y0061654D02*
X0271677Y0061654D01*
X0271677Y0061703D02*
X0281323Y0061703D01*
X0281323Y0061751D02*
X0271677Y0061751D01*
X0271677Y0061800D02*
X0281323Y0061800D01*
X0281323Y0061848D02*
X0271677Y0061848D01*
X0271677Y0061897D02*
X0281323Y0061897D01*
X0281323Y0061945D02*
X0271677Y0061945D01*
X0271677Y0061994D02*
X0281323Y0061994D01*
X0281323Y0062042D02*
X0271677Y0062042D01*
X0271677Y0062091D02*
X0281323Y0062091D01*
X0281323Y0062139D02*
X0271677Y0062139D01*
X0271677Y0062188D02*
X0281323Y0062188D01*
X0281323Y0062236D02*
X0271677Y0062236D01*
X0271677Y0062285D02*
X0281323Y0062285D01*
X0281323Y0062333D02*
X0271677Y0062333D01*
X0271677Y0062382D02*
X0281323Y0062382D01*
X0281323Y0062430D02*
X0271677Y0062430D01*
X0271677Y0062479D02*
X0281323Y0062479D01*
X0281323Y0062527D02*
X0271677Y0062527D01*
X0271677Y0062576D02*
X0281323Y0062576D01*
X0281323Y0062624D02*
X0271677Y0062624D01*
X0271677Y0062673D02*
X0281323Y0062673D01*
X0281323Y0062721D02*
X0271677Y0062721D01*
X0271677Y0062770D02*
X0281323Y0062770D01*
X0281323Y0062818D02*
X0271677Y0062818D01*
X0271677Y0062867D02*
X0281323Y0062867D01*
X0281323Y0062915D02*
X0271677Y0062915D01*
X0271677Y0062964D02*
X0281323Y0062964D01*
X0281323Y0063012D02*
X0271677Y0063012D01*
X0271677Y0063061D02*
X0281323Y0063061D01*
X0281323Y0063109D02*
X0271677Y0063109D01*
X0271677Y0063158D02*
X0281323Y0063158D01*
X0281323Y0063206D02*
X0271677Y0063206D01*
X0271677Y0063255D02*
X0281323Y0063255D01*
X0281323Y0063303D02*
X0271677Y0063303D01*
X0271677Y0063352D02*
X0281323Y0063352D01*
X0281323Y0063400D02*
X0271677Y0063400D01*
X0271677Y0063449D02*
X0281323Y0063449D01*
X0281323Y0063497D02*
X0271677Y0063497D01*
X0271677Y0063546D02*
X0281323Y0063546D01*
X0281323Y0063594D02*
X0271677Y0063594D01*
X0271677Y0063643D02*
X0281323Y0063643D01*
X0281323Y0063692D02*
X0271677Y0063692D01*
X0271677Y0063740D02*
X0281323Y0063740D01*
X0281323Y0063789D02*
X0271677Y0063789D01*
X0271677Y0063837D02*
X0281323Y0063837D01*
X0281323Y0063886D02*
X0271677Y0063886D01*
X0271677Y0063934D02*
X0281323Y0063934D01*
X0281323Y0063983D02*
X0271677Y0063983D01*
X0271677Y0064031D02*
X0281323Y0064031D01*
X0281323Y0064080D02*
X0271677Y0064080D01*
X0271677Y0064128D02*
X0281323Y0064128D01*
X0281323Y0064177D02*
X0271677Y0064177D01*
X0271677Y0064225D02*
X0281323Y0064225D01*
X0281323Y0064274D02*
X0271677Y0064274D01*
X0271677Y0064322D02*
X0281323Y0064322D01*
X0281323Y0064371D02*
X0271677Y0064371D01*
X0271677Y0064419D02*
X0281323Y0064419D01*
X0281323Y0064468D02*
X0271677Y0064468D01*
X0271677Y0064516D02*
X0281323Y0064516D01*
X0281323Y0064565D02*
X0271677Y0064565D01*
X0271677Y0064613D02*
X0281323Y0064613D01*
X0281323Y0064662D02*
X0271677Y0064662D01*
X0271677Y0064710D02*
X0281323Y0064710D01*
X0281323Y0064759D02*
X0271677Y0064759D01*
X0271677Y0064807D02*
X0281323Y0064807D01*
X0281323Y0064856D02*
X0271677Y0064856D01*
X0271677Y0064904D02*
X0281323Y0064904D01*
X0281323Y0064953D02*
X0271677Y0064953D01*
X0271677Y0065001D02*
X0281323Y0065001D01*
X0281323Y0065050D02*
X0271677Y0065050D01*
X0271677Y0065098D02*
X0281323Y0065098D01*
X0281323Y0065147D02*
X0271677Y0065147D01*
X0271677Y0065195D02*
X0281323Y0065195D01*
X0281323Y0065244D02*
X0271677Y0065244D01*
X0271677Y0065292D02*
X0281323Y0065292D01*
X0281323Y0065341D02*
X0280339Y0065341D01*
X0280339Y0065339D02*
X0272661Y0065339D01*
X0272661Y0067996D01*
X0271677Y0067996D01*
X0271677Y0055004D01*
X0272661Y0055004D01*
X0272661Y0057661D01*
X0280339Y0057661D01*
X0280339Y0055004D01*
X0281323Y0055004D01*
X0281323Y0067996D01*
X0280339Y0067996D01*
X0280339Y0065339D01*
X0280339Y0065389D02*
X0281323Y0065389D01*
X0281323Y0065438D02*
X0280339Y0065438D01*
X0280339Y0065486D02*
X0281323Y0065486D01*
X0281323Y0065535D02*
X0280339Y0065535D01*
X0280339Y0065583D02*
X0281323Y0065583D01*
X0281323Y0065632D02*
X0280339Y0065632D01*
X0280339Y0065680D02*
X0281323Y0065680D01*
X0281323Y0065729D02*
X0280339Y0065729D01*
X0280339Y0065777D02*
X0281323Y0065777D01*
X0281323Y0065826D02*
X0280339Y0065826D01*
X0280339Y0065875D02*
X0281323Y0065875D01*
X0281323Y0065923D02*
X0280339Y0065923D01*
X0280339Y0065972D02*
X0281323Y0065972D01*
X0281323Y0066020D02*
X0280339Y0066020D01*
X0280339Y0066069D02*
X0281323Y0066069D01*
X0281323Y0066117D02*
X0280339Y0066117D01*
X0280339Y0066166D02*
X0281323Y0066166D01*
X0281323Y0066214D02*
X0280339Y0066214D01*
X0280339Y0066263D02*
X0281323Y0066263D01*
X0281323Y0066311D02*
X0280339Y0066311D01*
X0280339Y0066360D02*
X0281323Y0066360D01*
X0281323Y0066408D02*
X0280339Y0066408D01*
X0280339Y0066457D02*
X0281323Y0066457D01*
X0281323Y0066505D02*
X0280339Y0066505D01*
X0280339Y0066554D02*
X0281323Y0066554D01*
X0281323Y0066602D02*
X0280339Y0066602D01*
X0280339Y0066651D02*
X0281323Y0066651D01*
X0281323Y0066699D02*
X0280339Y0066699D01*
X0280339Y0066748D02*
X0281323Y0066748D01*
X0281323Y0066796D02*
X0280339Y0066796D01*
X0280339Y0066845D02*
X0281323Y0066845D01*
X0281323Y0066893D02*
X0280339Y0066893D01*
X0280339Y0066942D02*
X0281323Y0066942D01*
X0281323Y0066990D02*
X0280339Y0066990D01*
X0280339Y0067039D02*
X0281323Y0067039D01*
X0281323Y0067087D02*
X0280339Y0067087D01*
X0280339Y0067136D02*
X0281323Y0067136D01*
X0281323Y0067184D02*
X0280339Y0067184D01*
X0280339Y0067233D02*
X0281323Y0067233D01*
X0281323Y0067281D02*
X0280339Y0067281D01*
X0280339Y0067330D02*
X0281323Y0067330D01*
X0281323Y0067378D02*
X0280339Y0067378D01*
X0280339Y0067427D02*
X0281323Y0067427D01*
X0281323Y0067475D02*
X0280339Y0067475D01*
X0280339Y0067524D02*
X0281323Y0067524D01*
X0281323Y0067572D02*
X0280339Y0067572D01*
X0280339Y0067621D02*
X0281323Y0067621D01*
X0281323Y0067669D02*
X0280339Y0067669D01*
X0280339Y0067718D02*
X0281323Y0067718D01*
X0281323Y0067766D02*
X0280339Y0067766D01*
X0280339Y0067815D02*
X0281323Y0067815D01*
X0281323Y0067863D02*
X0280339Y0067863D01*
X0280339Y0067912D02*
X0281323Y0067912D01*
X0281323Y0067961D02*
X0280339Y0067961D01*
X0272661Y0067961D02*
X0271677Y0067961D01*
X0271677Y0067912D02*
X0272661Y0067912D01*
X0272661Y0067863D02*
X0271677Y0067863D01*
X0271677Y0067815D02*
X0272661Y0067815D01*
X0272661Y0067766D02*
X0271677Y0067766D01*
X0271677Y0067718D02*
X0272661Y0067718D01*
X0272661Y0067669D02*
X0271677Y0067669D01*
X0271677Y0067621D02*
X0272661Y0067621D01*
X0272661Y0067572D02*
X0271677Y0067572D01*
X0271677Y0067524D02*
X0272661Y0067524D01*
X0272661Y0067475D02*
X0271677Y0067475D01*
X0271677Y0067427D02*
X0272661Y0067427D01*
X0272661Y0067378D02*
X0271677Y0067378D01*
X0271677Y0067330D02*
X0272661Y0067330D01*
X0272661Y0067281D02*
X0271677Y0067281D01*
X0271677Y0067233D02*
X0272661Y0067233D01*
X0272661Y0067184D02*
X0271677Y0067184D01*
X0271677Y0067136D02*
X0272661Y0067136D01*
X0272661Y0067087D02*
X0271677Y0067087D01*
X0271677Y0067039D02*
X0272661Y0067039D01*
X0272661Y0066990D02*
X0271677Y0066990D01*
X0271677Y0066942D02*
X0272661Y0066942D01*
X0272661Y0066893D02*
X0271677Y0066893D01*
X0271677Y0066845D02*
X0272661Y0066845D01*
X0272661Y0066796D02*
X0271677Y0066796D01*
X0271677Y0066748D02*
X0272661Y0066748D01*
X0272661Y0066699D02*
X0271677Y0066699D01*
X0271677Y0066651D02*
X0272661Y0066651D01*
X0272661Y0066602D02*
X0271677Y0066602D01*
X0271677Y0066554D02*
X0272661Y0066554D01*
X0272661Y0066505D02*
X0271677Y0066505D01*
X0271677Y0066457D02*
X0272661Y0066457D01*
X0272661Y0066408D02*
X0271677Y0066408D01*
X0271677Y0066360D02*
X0272661Y0066360D01*
X0272661Y0066311D02*
X0271677Y0066311D01*
X0271677Y0066263D02*
X0272661Y0066263D01*
X0272661Y0066214D02*
X0271677Y0066214D01*
X0271677Y0066166D02*
X0272661Y0066166D01*
X0272661Y0066117D02*
X0271677Y0066117D01*
X0271677Y0066069D02*
X0272661Y0066069D01*
X0272661Y0066020D02*
X0271677Y0066020D01*
X0271677Y0065972D02*
X0272661Y0065972D01*
X0272661Y0065923D02*
X0271677Y0065923D01*
X0271677Y0065875D02*
X0272661Y0065875D01*
X0272661Y0065826D02*
X0271677Y0065826D01*
X0271677Y0065777D02*
X0272661Y0065777D01*
X0272661Y0065729D02*
X0271677Y0065729D01*
X0271677Y0065680D02*
X0272661Y0065680D01*
X0272661Y0065632D02*
X0271677Y0065632D01*
X0271677Y0065583D02*
X0272661Y0065583D01*
X0272661Y0065535D02*
X0271677Y0065535D01*
X0271677Y0065486D02*
X0272661Y0065486D01*
X0272661Y0065438D02*
X0271677Y0065438D01*
X0271677Y0065389D02*
X0272661Y0065389D01*
X0272661Y0065341D02*
X0271677Y0065341D01*
X0271677Y0061460D02*
X0281323Y0061460D01*
X0281323Y0061411D02*
X0271677Y0061411D01*
X0271677Y0061363D02*
X0281323Y0061363D01*
X0281323Y0061314D02*
X0271677Y0061314D01*
X0271677Y0061266D02*
X0281323Y0061266D01*
X0281323Y0061217D02*
X0271677Y0061217D01*
X0271677Y0061169D02*
X0281323Y0061169D01*
X0281323Y0061120D02*
X0271677Y0061120D01*
X0271677Y0061072D02*
X0281323Y0061072D01*
X0281323Y0061023D02*
X0271677Y0061023D01*
X0271677Y0060975D02*
X0281323Y0060975D01*
X0281323Y0060926D02*
X0271677Y0060926D01*
X0271677Y0060878D02*
X0281323Y0060878D01*
X0281323Y0060829D02*
X0271677Y0060829D01*
X0271677Y0060781D02*
X0281323Y0060781D01*
X0281323Y0060732D02*
X0271677Y0060732D01*
X0271677Y0060684D02*
X0281323Y0060684D01*
X0281323Y0060635D02*
X0271677Y0060635D01*
X0271677Y0060587D02*
X0281323Y0060587D01*
X0281323Y0060538D02*
X0271677Y0060538D01*
X0271677Y0060490D02*
X0281323Y0060490D01*
X0281323Y0060441D02*
X0271677Y0060441D01*
X0271677Y0060393D02*
X0281323Y0060393D01*
X0281323Y0060344D02*
X0271677Y0060344D01*
X0271677Y0060296D02*
X0281323Y0060296D01*
X0281323Y0060247D02*
X0271677Y0060247D01*
X0271677Y0060199D02*
X0281323Y0060199D01*
X0281323Y0060150D02*
X0271677Y0060150D01*
X0271677Y0060102D02*
X0281323Y0060102D01*
X0281323Y0060053D02*
X0271677Y0060053D01*
X0271677Y0060005D02*
X0281323Y0060005D01*
X0281323Y0059956D02*
X0271677Y0059956D01*
X0271677Y0059908D02*
X0281323Y0059908D01*
X0281323Y0059859D02*
X0271677Y0059859D01*
X0271677Y0059811D02*
X0281323Y0059811D01*
X0281323Y0059762D02*
X0271677Y0059762D01*
X0271677Y0059714D02*
X0281323Y0059714D01*
X0281323Y0059665D02*
X0271677Y0059665D01*
X0271677Y0059617D02*
X0281323Y0059617D01*
X0281323Y0059568D02*
X0271677Y0059568D01*
X0271677Y0059520D02*
X0281323Y0059520D01*
X0281323Y0059471D02*
X0271677Y0059471D01*
X0271677Y0059423D02*
X0281323Y0059423D01*
X0281323Y0059374D02*
X0271677Y0059374D01*
X0271677Y0059325D02*
X0281323Y0059325D01*
X0281323Y0059277D02*
X0271677Y0059277D01*
X0271677Y0059228D02*
X0281323Y0059228D01*
X0281323Y0059180D02*
X0271677Y0059180D01*
X0271677Y0059131D02*
X0281323Y0059131D01*
X0281323Y0059083D02*
X0271677Y0059083D01*
X0271677Y0059034D02*
X0281323Y0059034D01*
X0281323Y0058986D02*
X0271677Y0058986D01*
X0271677Y0058937D02*
X0281323Y0058937D01*
X0281323Y0058889D02*
X0271677Y0058889D01*
X0271677Y0058840D02*
X0281323Y0058840D01*
X0281323Y0058792D02*
X0271677Y0058792D01*
X0271677Y0058743D02*
X0281323Y0058743D01*
X0281323Y0058695D02*
X0271677Y0058695D01*
X0271677Y0058646D02*
X0281323Y0058646D01*
X0281323Y0058598D02*
X0271677Y0058598D01*
X0271677Y0058549D02*
X0281323Y0058549D01*
X0281323Y0058501D02*
X0271677Y0058501D01*
X0271677Y0058452D02*
X0281323Y0058452D01*
X0281323Y0058404D02*
X0271677Y0058404D01*
X0271677Y0058355D02*
X0281323Y0058355D01*
X0281323Y0058307D02*
X0271677Y0058307D01*
X0271677Y0058258D02*
X0281323Y0058258D01*
X0281323Y0058210D02*
X0271677Y0058210D01*
X0271677Y0058161D02*
X0281323Y0058161D01*
X0281323Y0058113D02*
X0271677Y0058113D01*
X0271677Y0058064D02*
X0281323Y0058064D01*
X0281323Y0058016D02*
X0271677Y0058016D01*
X0271677Y0057967D02*
X0281323Y0057967D01*
X0281323Y0057919D02*
X0271677Y0057919D01*
X0271677Y0057870D02*
X0281323Y0057870D01*
X0281323Y0057822D02*
X0271677Y0057822D01*
X0271677Y0057773D02*
X0281323Y0057773D01*
X0281323Y0057725D02*
X0271677Y0057725D01*
X0271677Y0057676D02*
X0281323Y0057676D01*
X0281323Y0057628D02*
X0280339Y0057628D01*
X0280339Y0057579D02*
X0281323Y0057579D01*
X0281323Y0057531D02*
X0280339Y0057531D01*
X0280339Y0057482D02*
X0281323Y0057482D01*
X0281323Y0057434D02*
X0280339Y0057434D01*
X0280339Y0057385D02*
X0281323Y0057385D01*
X0281323Y0057337D02*
X0280339Y0057337D01*
X0280339Y0057288D02*
X0281323Y0057288D01*
X0281323Y0057240D02*
X0280339Y0057240D01*
X0280339Y0057191D02*
X0281323Y0057191D01*
X0281323Y0057142D02*
X0280339Y0057142D01*
X0280339Y0057094D02*
X0281323Y0057094D01*
X0281323Y0057045D02*
X0280339Y0057045D01*
X0280339Y0056997D02*
X0281323Y0056997D01*
X0281323Y0056948D02*
X0280339Y0056948D01*
X0280339Y0056900D02*
X0281323Y0056900D01*
X0281323Y0056851D02*
X0280339Y0056851D01*
X0280339Y0056803D02*
X0281323Y0056803D01*
X0281323Y0056754D02*
X0280339Y0056754D01*
X0280339Y0056706D02*
X0281323Y0056706D01*
X0281323Y0056657D02*
X0280339Y0056657D01*
X0280339Y0056609D02*
X0281323Y0056609D01*
X0281323Y0056560D02*
X0280339Y0056560D01*
X0280339Y0056512D02*
X0281323Y0056512D01*
X0281323Y0056463D02*
X0280339Y0056463D01*
X0280339Y0056415D02*
X0281323Y0056415D01*
X0281323Y0056366D02*
X0280339Y0056366D01*
X0280339Y0056318D02*
X0281323Y0056318D01*
X0281323Y0056269D02*
X0280339Y0056269D01*
X0280339Y0056221D02*
X0281323Y0056221D01*
X0281323Y0056172D02*
X0280339Y0056172D01*
X0280339Y0056124D02*
X0281323Y0056124D01*
X0281323Y0056075D02*
X0280339Y0056075D01*
X0280339Y0056027D02*
X0281323Y0056027D01*
X0281323Y0055978D02*
X0280339Y0055978D01*
X0280339Y0055930D02*
X0281323Y0055930D01*
X0281323Y0055881D02*
X0280339Y0055881D01*
X0280339Y0055833D02*
X0281323Y0055833D01*
X0281323Y0055784D02*
X0280339Y0055784D01*
X0280339Y0055736D02*
X0281323Y0055736D01*
X0281323Y0055687D02*
X0280339Y0055687D01*
X0280339Y0055639D02*
X0281323Y0055639D01*
X0281323Y0055590D02*
X0280339Y0055590D01*
X0280339Y0055542D02*
X0281323Y0055542D01*
X0281323Y0055493D02*
X0280339Y0055493D01*
X0280339Y0055445D02*
X0281323Y0055445D01*
X0281323Y0055396D02*
X0280339Y0055396D01*
X0280339Y0055348D02*
X0281323Y0055348D01*
X0281323Y0055299D02*
X0280339Y0055299D01*
X0280339Y0055251D02*
X0281323Y0055251D01*
X0281323Y0055202D02*
X0280339Y0055202D01*
X0280339Y0055154D02*
X0281323Y0055154D01*
X0281323Y0055105D02*
X0280339Y0055105D01*
X0280339Y0055056D02*
X0281323Y0055056D01*
X0281323Y0055008D02*
X0280339Y0055008D01*
X0272661Y0055008D02*
X0271677Y0055008D01*
X0271677Y0055056D02*
X0272661Y0055056D01*
X0272661Y0055105D02*
X0271677Y0055105D01*
X0271677Y0055154D02*
X0272661Y0055154D01*
X0272661Y0055202D02*
X0271677Y0055202D01*
X0271677Y0055251D02*
X0272661Y0055251D01*
X0272661Y0055299D02*
X0271677Y0055299D01*
X0271677Y0055348D02*
X0272661Y0055348D01*
X0272661Y0055396D02*
X0271677Y0055396D01*
X0271677Y0055445D02*
X0272661Y0055445D01*
X0272661Y0055493D02*
X0271677Y0055493D01*
X0271677Y0055542D02*
X0272661Y0055542D01*
X0272661Y0055590D02*
X0271677Y0055590D01*
X0271677Y0055639D02*
X0272661Y0055639D01*
X0272661Y0055687D02*
X0271677Y0055687D01*
X0271677Y0055736D02*
X0272661Y0055736D01*
X0272661Y0055784D02*
X0271677Y0055784D01*
X0271677Y0055833D02*
X0272661Y0055833D01*
X0272661Y0055881D02*
X0271677Y0055881D01*
X0271677Y0055930D02*
X0272661Y0055930D01*
X0272661Y0055978D02*
X0271677Y0055978D01*
X0271677Y0056027D02*
X0272661Y0056027D01*
X0272661Y0056075D02*
X0271677Y0056075D01*
X0271677Y0056124D02*
X0272661Y0056124D01*
X0272661Y0056172D02*
X0271677Y0056172D01*
X0271677Y0056221D02*
X0272661Y0056221D01*
X0272661Y0056269D02*
X0271677Y0056269D01*
X0271677Y0056318D02*
X0272661Y0056318D01*
X0272661Y0056366D02*
X0271677Y0056366D01*
X0271677Y0056415D02*
X0272661Y0056415D01*
X0272661Y0056463D02*
X0271677Y0056463D01*
X0271677Y0056512D02*
X0272661Y0056512D01*
X0272661Y0056560D02*
X0271677Y0056560D01*
X0271677Y0056609D02*
X0272661Y0056609D01*
X0272661Y0056657D02*
X0271677Y0056657D01*
X0271677Y0056706D02*
X0272661Y0056706D01*
X0272661Y0056754D02*
X0271677Y0056754D01*
X0271677Y0056803D02*
X0272661Y0056803D01*
X0272661Y0056851D02*
X0271677Y0056851D01*
X0271677Y0056900D02*
X0272661Y0056900D01*
X0272661Y0056948D02*
X0271677Y0056948D01*
X0271677Y0056997D02*
X0272661Y0056997D01*
X0272661Y0057045D02*
X0271677Y0057045D01*
X0271677Y0057094D02*
X0272661Y0057094D01*
X0272661Y0057142D02*
X0271677Y0057142D01*
X0271677Y0057191D02*
X0272661Y0057191D01*
X0272661Y0057240D02*
X0271677Y0057240D01*
X0271677Y0057288D02*
X0272661Y0057288D01*
X0272661Y0057337D02*
X0271677Y0057337D01*
X0271677Y0057385D02*
X0272661Y0057385D01*
X0272661Y0057434D02*
X0271677Y0057434D01*
X0271677Y0057482D02*
X0272661Y0057482D01*
X0272661Y0057531D02*
X0271677Y0057531D01*
X0271677Y0057579D02*
X0272661Y0057579D01*
X0272661Y0057628D02*
X0271677Y0057628D01*
D17*
X0272169Y0056972D03*
X0280831Y0056972D03*
X0280831Y0066028D03*
X0272169Y0066028D03*
D18*
X0286500Y0080988D03*
X0286500Y0092012D03*
D19*
X0254846Y0096500D03*
X0248154Y0096500D03*
X0204846Y0086500D03*
X0198154Y0086500D03*
X0253154Y0059500D03*
X0259846Y0059500D03*
X0259846Y0051500D03*
X0253154Y0051500D03*
X0224846Y0034000D03*
X0218154Y0034000D03*
X0204846Y0046500D03*
X0198154Y0046500D03*
X0198154Y0056500D03*
X0204846Y0056500D03*
X0268154Y0076500D03*
X0274846Y0076500D03*
D20*
X0264453Y0037307D03*
X0262484Y0037307D03*
X0260516Y0037307D03*
X0258547Y0037307D03*
X0258547Y0025693D03*
X0260516Y0025693D03*
X0262484Y0025693D03*
X0264453Y0025693D03*
D21*
X0267307Y0028547D03*
X0267307Y0030516D03*
X0267307Y0032484D03*
X0267307Y0034453D03*
X0255693Y0034453D03*
X0255693Y0032484D03*
X0255693Y0030516D03*
X0255693Y0028547D03*
D22*
X0261500Y0031500D03*
D23*
X0276500Y0028154D03*
X0286500Y0028154D03*
X0286500Y0034846D03*
X0276500Y0034846D03*
X0246500Y0024846D03*
X0246500Y0018154D03*
X0266500Y0019846D03*
X0266500Y0013154D03*
X0211500Y0018154D03*
X0211500Y0024846D03*
D24*
X0235122Y0023575D02*
X0237878Y0023575D01*
X0235122Y0023575D02*
X0235122Y0026331D01*
X0237878Y0026331D01*
X0237878Y0023575D01*
X0237878Y0024755D02*
X0235122Y0024755D01*
X0235122Y0025935D02*
X0237878Y0025935D01*
X0237878Y0016669D02*
X0235122Y0016669D01*
X0235122Y0019425D01*
X0237878Y0019425D01*
X0237878Y0016669D01*
X0237878Y0017849D02*
X0235122Y0017849D01*
X0235122Y0019029D02*
X0237878Y0019029D01*
D25*
X0221500Y0017957D03*
X0221500Y0025043D03*
D26*
X0276488Y0016500D03*
X0287512Y0016500D03*
D27*
X0261043Y0044000D03*
X0253957Y0044000D03*
D28*
X0043449Y0073134D03*
X0041874Y0077465D03*
X0041087Y0081795D03*
X0041874Y0086126D03*
X0041087Y0090457D03*
X0041874Y0094787D03*
X0041874Y0099118D03*
X0041874Y0068803D03*
D29*
X0026717Y0050457D03*
X0030654Y0102228D03*
D30*
X0082425Y0095929D03*
X0082425Y0073488D03*
D31*
X0198764Y0071500D02*
X0198766Y0071604D01*
X0198772Y0071708D01*
X0198782Y0071812D01*
X0198796Y0071915D01*
X0198813Y0072018D01*
X0198835Y0072120D01*
X0198861Y0072221D01*
X0198890Y0072321D01*
X0198923Y0072419D01*
X0198960Y0072517D01*
X0199001Y0072613D01*
X0199045Y0072707D01*
X0199092Y0072800D01*
X0199144Y0072890D01*
X0199198Y0072979D01*
X0199256Y0073066D01*
X0199318Y0073150D01*
X0199382Y0073232D01*
X0199449Y0073311D01*
X0199520Y0073388D01*
X0199593Y0073462D01*
X0199669Y0073533D01*
X0199748Y0073601D01*
X0199829Y0073667D01*
X0199913Y0073729D01*
X0199999Y0073787D01*
X0200087Y0073843D01*
X0200177Y0073895D01*
X0200269Y0073944D01*
X0200363Y0073989D01*
X0200459Y0074030D01*
X0200556Y0074068D01*
X0200655Y0074102D01*
X0200754Y0074132D01*
X0200855Y0074159D01*
X0200957Y0074182D01*
X0201059Y0074200D01*
X0201162Y0074215D01*
X0201266Y0074226D01*
X0201370Y0074233D01*
X0201474Y0074236D01*
X0201578Y0074235D01*
X0201682Y0074230D01*
X0201786Y0074221D01*
X0201889Y0074208D01*
X0201992Y0074191D01*
X0202094Y0074171D01*
X0202196Y0074146D01*
X0202296Y0074118D01*
X0202395Y0074086D01*
X0202493Y0074050D01*
X0202589Y0074010D01*
X0202684Y0073967D01*
X0202777Y0073920D01*
X0202868Y0073869D01*
X0202957Y0073816D01*
X0203044Y0073758D01*
X0203129Y0073698D01*
X0203212Y0073634D01*
X0203292Y0073568D01*
X0203369Y0073498D01*
X0203444Y0073425D01*
X0203516Y0073350D01*
X0203585Y0073272D01*
X0203651Y0073191D01*
X0203713Y0073108D01*
X0203773Y0073023D01*
X0203829Y0072935D01*
X0203882Y0072845D01*
X0203932Y0072754D01*
X0203978Y0072660D01*
X0204020Y0072565D01*
X0204059Y0072468D01*
X0204094Y0072370D01*
X0204125Y0072271D01*
X0204153Y0072170D01*
X0204176Y0072069D01*
X0204196Y0071967D01*
X0204212Y0071864D01*
X0204224Y0071760D01*
X0204232Y0071656D01*
X0204236Y0071552D01*
X0204236Y0071448D01*
X0204232Y0071344D01*
X0204224Y0071240D01*
X0204212Y0071136D01*
X0204196Y0071033D01*
X0204176Y0070931D01*
X0204153Y0070830D01*
X0204125Y0070729D01*
X0204094Y0070630D01*
X0204059Y0070532D01*
X0204020Y0070435D01*
X0203978Y0070340D01*
X0203932Y0070246D01*
X0203882Y0070155D01*
X0203829Y0070065D01*
X0203773Y0069977D01*
X0203713Y0069892D01*
X0203651Y0069809D01*
X0203585Y0069728D01*
X0203516Y0069650D01*
X0203444Y0069575D01*
X0203369Y0069502D01*
X0203292Y0069432D01*
X0203212Y0069366D01*
X0203129Y0069302D01*
X0203044Y0069242D01*
X0202957Y0069184D01*
X0202868Y0069131D01*
X0202777Y0069080D01*
X0202684Y0069033D01*
X0202589Y0068990D01*
X0202493Y0068950D01*
X0202395Y0068914D01*
X0202296Y0068882D01*
X0202196Y0068854D01*
X0202094Y0068829D01*
X0201992Y0068809D01*
X0201889Y0068792D01*
X0201786Y0068779D01*
X0201682Y0068770D01*
X0201578Y0068765D01*
X0201474Y0068764D01*
X0201370Y0068767D01*
X0201266Y0068774D01*
X0201162Y0068785D01*
X0201059Y0068800D01*
X0200957Y0068818D01*
X0200855Y0068841D01*
X0200754Y0068868D01*
X0200655Y0068898D01*
X0200556Y0068932D01*
X0200459Y0068970D01*
X0200363Y0069011D01*
X0200269Y0069056D01*
X0200177Y0069105D01*
X0200087Y0069157D01*
X0199999Y0069213D01*
X0199913Y0069271D01*
X0199829Y0069333D01*
X0199748Y0069399D01*
X0199669Y0069467D01*
X0199593Y0069538D01*
X0199520Y0069612D01*
X0199449Y0069689D01*
X0199382Y0069768D01*
X0199318Y0069850D01*
X0199256Y0069934D01*
X0199198Y0070021D01*
X0199144Y0070110D01*
X0199092Y0070200D01*
X0199045Y0070293D01*
X0199001Y0070387D01*
X0198960Y0070483D01*
X0198923Y0070581D01*
X0198890Y0070679D01*
X0198861Y0070779D01*
X0198835Y0070880D01*
X0198813Y0070982D01*
X0198796Y0071085D01*
X0198782Y0071188D01*
X0198772Y0071292D01*
X0198766Y0071396D01*
X0198764Y0071500D01*
D32*
X0198390Y0066500D03*
X0198390Y0076500D03*
D33*
X0211815Y0076224D03*
X0211815Y0071500D03*
X0211815Y0066776D03*
D34*
X0216480Y0053469D03*
X0216480Y0051500D03*
X0216480Y0049531D03*
X0226520Y0049531D03*
X0226520Y0051500D03*
X0226520Y0053469D03*
D35*
X0225437Y0056520D03*
X0223469Y0056520D03*
X0221500Y0056520D03*
X0219531Y0056520D03*
X0217563Y0056520D03*
X0217563Y0046480D03*
X0219531Y0046480D03*
X0221500Y0046480D03*
X0223469Y0046480D03*
X0225437Y0046480D03*
D36*
X0271500Y0090496D03*
X0271500Y0092504D03*
D37*
X0193843Y0026224D03*
X0184000Y0026224D03*
X0174157Y0026224D03*
X0174157Y0016776D03*
X0184000Y0016776D03*
X0193843Y0016776D03*
D38*
X0166500Y0131500D03*
D39*
X0176500Y0131500D03*
X0186500Y0131500D03*
X0196500Y0131500D03*
X0146500Y0131500D03*
X0136500Y0131500D03*
X0126500Y0131500D03*
X0116500Y0131500D03*
X0106500Y0131500D03*
X0096500Y0131500D03*
X0086500Y0131500D03*
X0076500Y0131500D03*
X0066500Y0131500D03*
X0056500Y0131500D03*
X0046500Y0131500D03*
X0036500Y0131500D03*
X0036500Y0111500D03*
X0046500Y0111500D03*
X0056500Y0111500D03*
X0066500Y0111500D03*
X0076500Y0111500D03*
X0086500Y0111500D03*
X0096500Y0111500D03*
X0106500Y0111500D03*
X0116500Y0111500D03*
X0126500Y0111500D03*
X0136500Y0111500D03*
X0146500Y0111500D03*
X0146500Y0041500D03*
X0136500Y0041500D03*
X0126500Y0041500D03*
X0116500Y0041500D03*
X0106500Y0041500D03*
X0096500Y0041500D03*
X0086500Y0041500D03*
X0076500Y0041500D03*
X0066500Y0041500D03*
X0056500Y0041500D03*
X0046500Y0041500D03*
X0036500Y0041500D03*
X0036500Y0021500D03*
X0046500Y0021500D03*
X0056500Y0021500D03*
X0066500Y0021500D03*
X0076500Y0021500D03*
X0086500Y0021500D03*
X0096500Y0021500D03*
X0106500Y0021500D03*
X0116500Y0021500D03*
X0126500Y0021500D03*
X0136500Y0021500D03*
X0146500Y0021500D03*
D40*
X0256500Y0108500D02*
X0256500Y0114500D01*
X0266500Y0113500D02*
X0266500Y0107500D01*
X0276500Y0108500D02*
X0276500Y0114500D01*
X0276500Y0128500D02*
X0276500Y0134500D01*
X0266500Y0133500D02*
X0266500Y0127500D01*
X0256500Y0128500D02*
X0256500Y0134500D01*
X0236500Y0134500D02*
X0236500Y0128500D01*
X0226500Y0127500D02*
X0226500Y0133500D01*
X0216500Y0134500D02*
X0216500Y0128500D01*
D41*
X0307484Y0078941D03*
X0331500Y0078941D03*
X0331500Y0034059D03*
X0307484Y0034059D03*
D42*
X0003700Y0003700D02*
X0003700Y0149300D01*
X0045159Y0149300D01*
X0044744Y0149128D01*
X0043872Y0148256D01*
X0033872Y0138256D01*
X0033400Y0137117D01*
X0033400Y0135754D01*
X0032092Y0134446D01*
X0031300Y0132534D01*
X0031300Y0130466D01*
X0032092Y0128554D01*
X0032500Y0128146D01*
X0032500Y0114854D01*
X0032092Y0114446D01*
X0031300Y0112534D01*
X0031300Y0110466D01*
X0032092Y0108554D01*
X0033554Y0107092D01*
X0033800Y0106990D01*
X0033800Y0097618D01*
X0029971Y0093789D01*
X0029211Y0093029D01*
X0028800Y0092037D01*
X0028800Y0085963D01*
X0029211Y0084971D01*
X0034675Y0079506D01*
X0035668Y0079095D01*
X0037138Y0079095D01*
X0037421Y0078812D01*
X0037421Y0075268D01*
X0038300Y0074390D01*
X0038996Y0074390D01*
X0038996Y0071878D01*
X0038300Y0071878D01*
X0037421Y0070999D01*
X0037421Y0066607D01*
X0038300Y0065728D01*
X0045448Y0065728D01*
X0046327Y0066607D01*
X0046327Y0067855D01*
X0064211Y0049971D01*
X0064971Y0049211D01*
X0065963Y0048800D01*
X0089555Y0048800D01*
X0089640Y0048716D01*
X0090847Y0048216D01*
X0092153Y0048216D01*
X0093360Y0048716D01*
X0093800Y0049155D01*
X0093800Y0046010D01*
X0093554Y0045908D01*
X0092092Y0044446D01*
X0091500Y0043017D01*
X0090908Y0044446D01*
X0089446Y0045908D01*
X0087534Y0046700D01*
X0085466Y0046700D01*
X0083554Y0045908D01*
X0082092Y0044446D01*
X0081500Y0043017D01*
X0080908Y0044446D01*
X0079446Y0045908D01*
X0077534Y0046700D01*
X0075466Y0046700D01*
X0073554Y0045908D01*
X0072092Y0044446D01*
X0071500Y0043017D01*
X0070908Y0044446D01*
X0069446Y0045908D01*
X0067534Y0046700D01*
X0065466Y0046700D01*
X0063554Y0045908D01*
X0062092Y0044446D01*
X0061500Y0043017D01*
X0060908Y0044446D01*
X0059446Y0045908D01*
X0057534Y0046700D01*
X0055466Y0046700D01*
X0053554Y0045908D01*
X0052092Y0044446D01*
X0051300Y0042534D01*
X0051300Y0040466D01*
X0052092Y0038554D01*
X0053554Y0037092D01*
X0055466Y0036300D01*
X0057534Y0036300D01*
X0059446Y0037092D01*
X0060908Y0038554D01*
X0061500Y0039983D01*
X0062092Y0038554D01*
X0063554Y0037092D01*
X0065466Y0036300D01*
X0067534Y0036300D01*
X0069446Y0037092D01*
X0070908Y0038554D01*
X0071500Y0039983D01*
X0072092Y0038554D01*
X0073554Y0037092D01*
X0075466Y0036300D01*
X0077534Y0036300D01*
X0079446Y0037092D01*
X0080908Y0038554D01*
X0081500Y0039983D01*
X0082092Y0038554D01*
X0083554Y0037092D01*
X0085466Y0036300D01*
X0087534Y0036300D01*
X0089446Y0037092D01*
X0090908Y0038554D01*
X0091500Y0039983D01*
X0092092Y0038554D01*
X0092500Y0038146D01*
X0092500Y0024854D01*
X0092092Y0024446D01*
X0091500Y0023017D01*
X0090908Y0024446D01*
X0089446Y0025908D01*
X0087534Y0026700D01*
X0085466Y0026700D01*
X0083554Y0025908D01*
X0082092Y0024446D01*
X0081500Y0023017D01*
X0080908Y0024446D01*
X0079446Y0025908D01*
X0077534Y0026700D01*
X0075466Y0026700D01*
X0073554Y0025908D01*
X0072092Y0024446D01*
X0071500Y0023017D01*
X0070908Y0024446D01*
X0069446Y0025908D01*
X0067534Y0026700D01*
X0065466Y0026700D01*
X0063554Y0025908D01*
X0062092Y0024446D01*
X0061500Y0023017D01*
X0060908Y0024446D01*
X0059446Y0025908D01*
X0057534Y0026700D01*
X0055466Y0026700D01*
X0053554Y0025908D01*
X0052092Y0024446D01*
X0051300Y0022534D01*
X0051300Y0020466D01*
X0052092Y0018554D01*
X0053554Y0017092D01*
X0055466Y0016300D01*
X0057534Y0016300D01*
X0059446Y0017092D01*
X0060908Y0018554D01*
X0061500Y0019983D01*
X0062092Y0018554D01*
X0063554Y0017092D01*
X0065466Y0016300D01*
X0067534Y0016300D01*
X0069446Y0017092D01*
X0070908Y0018554D01*
X0071500Y0019983D01*
X0072092Y0018554D01*
X0073554Y0017092D01*
X0075466Y0016300D01*
X0077534Y0016300D01*
X0079446Y0017092D01*
X0080908Y0018554D01*
X0081500Y0019983D01*
X0082092Y0018554D01*
X0083554Y0017092D01*
X0085466Y0016300D01*
X0087534Y0016300D01*
X0089446Y0017092D01*
X0090908Y0018554D01*
X0091500Y0019983D01*
X0092092Y0018554D01*
X0093554Y0017092D01*
X0095466Y0016300D01*
X0097534Y0016300D01*
X0099446Y0017092D01*
X0100908Y0018554D01*
X0101500Y0019983D01*
X0102092Y0018554D01*
X0103554Y0017092D01*
X0105466Y0016300D01*
X0107534Y0016300D01*
X0109446Y0017092D01*
X0110908Y0018554D01*
X0111500Y0019983D01*
X0112092Y0018554D01*
X0113554Y0017092D01*
X0115466Y0016300D01*
X0117534Y0016300D01*
X0119446Y0017092D01*
X0120908Y0018554D01*
X0121500Y0019983D01*
X0122092Y0018554D01*
X0123554Y0017092D01*
X0125466Y0016300D01*
X0127534Y0016300D01*
X0129446Y0017092D01*
X0130908Y0018554D01*
X0131500Y0019983D01*
X0132092Y0018554D01*
X0133554Y0017092D01*
X0135466Y0016300D01*
X0137534Y0016300D01*
X0139446Y0017092D01*
X0140908Y0018554D01*
X0141500Y0019983D01*
X0142092Y0018554D01*
X0143554Y0017092D01*
X0145466Y0016300D01*
X0147534Y0016300D01*
X0149446Y0017092D01*
X0150908Y0018554D01*
X0151700Y0020466D01*
X0151700Y0022534D01*
X0150908Y0024446D01*
X0150500Y0024854D01*
X0150500Y0038146D01*
X0150908Y0038554D01*
X0151700Y0040466D01*
X0151700Y0042534D01*
X0150908Y0044446D01*
X0149600Y0045754D01*
X0149600Y0085216D01*
X0152784Y0088400D01*
X0163755Y0088400D01*
X0163716Y0088360D01*
X0163216Y0087153D01*
X0163216Y0085847D01*
X0163716Y0084640D01*
X0164640Y0083716D01*
X0165847Y0083216D01*
X0167153Y0083216D01*
X0168360Y0083716D01*
X0169045Y0084400D01*
X0174919Y0084400D01*
X0174640Y0084284D01*
X0173716Y0083360D01*
X0173216Y0082153D01*
X0173216Y0080847D01*
X0173716Y0079640D01*
X0174400Y0078955D01*
X0174400Y0064045D01*
X0173716Y0063360D01*
X0173216Y0062153D01*
X0173216Y0060847D01*
X0173716Y0059640D01*
X0174640Y0058716D01*
X0175847Y0058216D01*
X0177153Y0058216D01*
X0178360Y0058716D01*
X0179284Y0059640D01*
X0179784Y0060847D01*
X0179784Y0062153D01*
X0179284Y0063360D01*
X0178600Y0064045D01*
X0178600Y0078955D01*
X0179284Y0079640D01*
X0179784Y0080847D01*
X0179784Y0082153D01*
X0179284Y0083360D01*
X0178360Y0084284D01*
X0178081Y0084400D01*
X0180630Y0084400D01*
X0184400Y0080630D01*
X0184400Y0064045D01*
X0183716Y0063360D01*
X0183216Y0062153D01*
X0183216Y0060847D01*
X0183716Y0059640D01*
X0184640Y0058716D01*
X0185847Y0058216D01*
X0187153Y0058216D01*
X0188360Y0058716D01*
X0189284Y0059640D01*
X0189784Y0060847D01*
X0189784Y0062153D01*
X0189284Y0063360D01*
X0188600Y0064045D01*
X0188600Y0065401D01*
X0188872Y0064744D01*
X0193872Y0059744D01*
X0194744Y0058872D01*
X0195883Y0058400D01*
X0201181Y0058400D01*
X0201181Y0053910D01*
X0201746Y0053345D01*
X0201746Y0049655D01*
X0201181Y0049090D01*
X0201181Y0043910D01*
X0202060Y0043031D01*
X0202400Y0043031D01*
X0202400Y0042130D01*
X0203630Y0040900D01*
X0204130Y0040400D01*
X0215900Y0040400D01*
X0215900Y0037468D01*
X0215367Y0037468D01*
X0214488Y0036590D01*
X0214488Y0031500D01*
X0210672Y0031500D01*
X0209500Y0030328D01*
X0209500Y0028512D01*
X0208910Y0028512D01*
X0208031Y0027633D01*
X0208031Y0022060D01*
X0208591Y0021500D01*
X0208345Y0021254D01*
X0202537Y0021254D01*
X0201398Y0020782D01*
X0200216Y0019600D01*
X0197311Y0019600D01*
X0197311Y0020547D01*
X0196943Y0020915D01*
X0196943Y0022085D01*
X0197311Y0022453D01*
X0197311Y0029995D01*
X0196432Y0030874D01*
X0191253Y0030874D01*
X0190374Y0029995D01*
X0190374Y0022453D01*
X0190743Y0022085D01*
X0190743Y0020915D01*
X0190374Y0020547D01*
X0190374Y0013005D01*
X0191253Y0012126D01*
X0196432Y0012126D01*
X0197311Y0013005D01*
X0197311Y0013400D01*
X0202117Y0013400D01*
X0203256Y0013872D01*
X0204128Y0014744D01*
X0204438Y0015054D01*
X0208345Y0015054D01*
X0208910Y0014488D01*
X0214090Y0014488D01*
X0214458Y0014857D01*
X0222117Y0014857D01*
X0222177Y0014882D01*
X0224484Y0014882D01*
X0224549Y0014947D01*
X0233400Y0014947D01*
X0233400Y0010883D01*
X0233872Y0009744D01*
X0234744Y0008872D01*
X0235883Y0008400D01*
X0257117Y0008400D01*
X0258256Y0008872D01*
X0260427Y0011043D01*
X0260616Y0011039D01*
X0260627Y0011050D01*
X0260642Y0011050D01*
X0261087Y0011495D01*
X0263627Y0013950D01*
X0263642Y0013950D01*
X0264087Y0014395D01*
X0264539Y0014832D01*
X0264539Y0014847D01*
X0264550Y0014858D01*
X0264550Y0015487D01*
X0264555Y0015774D01*
X0264600Y0015883D01*
X0264600Y0016181D01*
X0269090Y0016181D01*
X0269968Y0017060D01*
X0269968Y0022633D01*
X0269090Y0023512D01*
X0267581Y0023512D01*
X0267581Y0026496D01*
X0268312Y0026496D01*
X0271450Y0023358D01*
X0271450Y0018558D01*
X0271839Y0018169D01*
X0271839Y0012335D01*
X0272717Y0011457D01*
X0273400Y0011457D01*
X0273400Y0005883D01*
X0273872Y0004744D01*
X0274744Y0003872D01*
X0275159Y0003700D01*
X0182841Y0003700D01*
X0183256Y0003872D01*
X0184128Y0004744D01*
X0186628Y0007244D01*
X0187100Y0008383D01*
X0187100Y0012636D01*
X0187468Y0013005D01*
X0187468Y0020547D01*
X0187100Y0020915D01*
X0187100Y0022085D01*
X0187468Y0022453D01*
X0187468Y0029995D01*
X0186590Y0030874D01*
X0181410Y0030874D01*
X0180531Y0029995D01*
X0180531Y0022453D01*
X0180900Y0022085D01*
X0180900Y0020915D01*
X0180531Y0020547D01*
X0180531Y0013005D01*
X0180900Y0012636D01*
X0180900Y0010284D01*
X0180216Y0009600D01*
X0047784Y0009600D01*
X0039869Y0017515D01*
X0040908Y0018554D01*
X0041700Y0020466D01*
X0041700Y0022534D01*
X0040908Y0024446D01*
X0039600Y0025754D01*
X0039600Y0037246D01*
X0040908Y0038554D01*
X0041700Y0040466D01*
X0041700Y0042534D01*
X0040908Y0044446D01*
X0039446Y0045908D01*
X0037534Y0046700D01*
X0035466Y0046700D01*
X0033554Y0045908D01*
X0032092Y0044446D01*
X0031300Y0042534D01*
X0031300Y0040466D01*
X0032092Y0038554D01*
X0033400Y0037246D01*
X0033400Y0025754D01*
X0032092Y0024446D01*
X0031300Y0022534D01*
X0031300Y0020466D01*
X0032092Y0018554D01*
X0033400Y0017246D01*
X0033400Y0015883D01*
X0033872Y0014744D01*
X0043872Y0004744D01*
X0044744Y0003872D01*
X0045159Y0003700D01*
X0003700Y0003700D01*
X0003700Y0004496D02*
X0012770Y0004496D01*
X0014286Y0003944D02*
X0010125Y0005458D01*
X0010125Y0005458D01*
X0006733Y0008304D01*
X0006733Y0008304D01*
X0006733Y0008304D01*
X0004519Y0012139D01*
X0004519Y0012139D01*
X0003750Y0016500D01*
X0003750Y0016500D01*
X0004519Y0020861D01*
X0004519Y0020861D01*
X0006733Y0024696D01*
X0006733Y0024696D01*
X0010125Y0027542D01*
X0010125Y0027542D01*
X0014286Y0029056D01*
X0018714Y0029056D01*
X0022875Y0027542D01*
X0022875Y0027542D01*
X0026267Y0024696D01*
X0026267Y0024696D01*
X0026267Y0024696D01*
X0028481Y0020861D01*
X0028481Y0020861D01*
X0029250Y0016500D01*
X0029250Y0016500D01*
X0028481Y0012139D01*
X0026267Y0008304D01*
X0026267Y0008304D01*
X0022875Y0005458D01*
X0022875Y0005458D01*
X0018714Y0003944D01*
X0014286Y0003944D01*
X0020230Y0004496D02*
X0044120Y0004496D01*
X0043122Y0005494D02*
X0022918Y0005494D01*
X0024108Y0006493D02*
X0042123Y0006493D01*
X0041125Y0007491D02*
X0025298Y0007491D01*
X0026374Y0008490D02*
X0040126Y0008490D01*
X0039128Y0009488D02*
X0026950Y0009488D01*
X0027527Y0010487D02*
X0038129Y0010487D01*
X0037131Y0011485D02*
X0028103Y0011485D01*
X0028542Y0012484D02*
X0036132Y0012484D01*
X0035134Y0013482D02*
X0028718Y0013482D01*
X0028894Y0014481D02*
X0034135Y0014481D01*
X0033567Y0015479D02*
X0029070Y0015479D01*
X0029246Y0016478D02*
X0033400Y0016478D01*
X0033170Y0017476D02*
X0029078Y0017476D01*
X0028902Y0018475D02*
X0032171Y0018475D01*
X0031711Y0019473D02*
X0028726Y0019473D01*
X0028550Y0020472D02*
X0031300Y0020472D01*
X0031300Y0021470D02*
X0028129Y0021470D01*
X0027553Y0022469D02*
X0031300Y0022469D01*
X0031686Y0023467D02*
X0026976Y0023467D01*
X0026400Y0024466D02*
X0032112Y0024466D01*
X0033110Y0025464D02*
X0025351Y0025464D01*
X0024161Y0026463D02*
X0033400Y0026463D01*
X0033400Y0027461D02*
X0022971Y0027461D01*
X0020353Y0028460D02*
X0033400Y0028460D01*
X0033400Y0029458D02*
X0003700Y0029458D01*
X0003700Y0028460D02*
X0012647Y0028460D01*
X0010029Y0027461D02*
X0003700Y0027461D01*
X0003700Y0026463D02*
X0008839Y0026463D01*
X0007649Y0025464D02*
X0003700Y0025464D01*
X0003700Y0024466D02*
X0006600Y0024466D01*
X0006024Y0023467D02*
X0003700Y0023467D01*
X0003700Y0022469D02*
X0005447Y0022469D01*
X0004871Y0021470D02*
X0003700Y0021470D01*
X0003700Y0020472D02*
X0004450Y0020472D01*
X0004274Y0019473D02*
X0003700Y0019473D01*
X0003700Y0018475D02*
X0004098Y0018475D01*
X0003922Y0017476D02*
X0003700Y0017476D01*
X0003700Y0016478D02*
X0003754Y0016478D01*
X0003700Y0015479D02*
X0003930Y0015479D01*
X0004106Y0014481D02*
X0003700Y0014481D01*
X0003700Y0013482D02*
X0004282Y0013482D01*
X0004458Y0012484D02*
X0003700Y0012484D01*
X0003700Y0011485D02*
X0004897Y0011485D01*
X0005473Y0010487D02*
X0003700Y0010487D01*
X0003700Y0009488D02*
X0006050Y0009488D01*
X0006626Y0008490D02*
X0003700Y0008490D01*
X0003700Y0007491D02*
X0007702Y0007491D01*
X0008892Y0006493D02*
X0003700Y0006493D01*
X0003700Y0005494D02*
X0010082Y0005494D01*
X0039908Y0017476D02*
X0053170Y0017476D01*
X0052171Y0018475D02*
X0040829Y0018475D01*
X0041289Y0019473D02*
X0051711Y0019473D01*
X0051300Y0020472D02*
X0041700Y0020472D01*
X0041700Y0021470D02*
X0051300Y0021470D01*
X0051300Y0022469D02*
X0041700Y0022469D01*
X0041314Y0023467D02*
X0051686Y0023467D01*
X0052112Y0024466D02*
X0040888Y0024466D01*
X0039890Y0025464D02*
X0053110Y0025464D01*
X0054893Y0026463D02*
X0039600Y0026463D01*
X0039600Y0027461D02*
X0092500Y0027461D01*
X0092500Y0026463D02*
X0088107Y0026463D01*
X0089890Y0025464D02*
X0092500Y0025464D01*
X0092112Y0024466D02*
X0090888Y0024466D01*
X0091314Y0023467D02*
X0091686Y0023467D01*
X0084893Y0026463D02*
X0078107Y0026463D01*
X0079890Y0025464D02*
X0083110Y0025464D01*
X0082112Y0024466D02*
X0080888Y0024466D01*
X0081314Y0023467D02*
X0081686Y0023467D01*
X0074893Y0026463D02*
X0068107Y0026463D01*
X0069890Y0025464D02*
X0073110Y0025464D01*
X0072112Y0024466D02*
X0070888Y0024466D01*
X0071314Y0023467D02*
X0071686Y0023467D01*
X0064893Y0026463D02*
X0058107Y0026463D01*
X0059890Y0025464D02*
X0063110Y0025464D01*
X0062112Y0024466D02*
X0060888Y0024466D01*
X0061314Y0023467D02*
X0061686Y0023467D01*
X0061711Y0019473D02*
X0061289Y0019473D01*
X0060829Y0018475D02*
X0062171Y0018475D01*
X0063170Y0017476D02*
X0059830Y0017476D01*
X0057963Y0016478D02*
X0065037Y0016478D01*
X0067963Y0016478D02*
X0075037Y0016478D01*
X0073170Y0017476D02*
X0069830Y0017476D01*
X0070829Y0018475D02*
X0072171Y0018475D01*
X0071711Y0019473D02*
X0071289Y0019473D01*
X0077963Y0016478D02*
X0085037Y0016478D01*
X0083170Y0017476D02*
X0079830Y0017476D01*
X0080829Y0018475D02*
X0082171Y0018475D01*
X0081711Y0019473D02*
X0081289Y0019473D01*
X0087963Y0016478D02*
X0095037Y0016478D01*
X0093170Y0017476D02*
X0089830Y0017476D01*
X0090829Y0018475D02*
X0092171Y0018475D01*
X0091711Y0019473D02*
X0091289Y0019473D01*
X0097963Y0016478D02*
X0105037Y0016478D01*
X0103170Y0017476D02*
X0099830Y0017476D01*
X0100829Y0018475D02*
X0102171Y0018475D01*
X0101711Y0019473D02*
X0101289Y0019473D01*
X0107963Y0016478D02*
X0115037Y0016478D01*
X0113170Y0017476D02*
X0109830Y0017476D01*
X0110829Y0018475D02*
X0112171Y0018475D01*
X0111711Y0019473D02*
X0111289Y0019473D01*
X0117963Y0016478D02*
X0125037Y0016478D01*
X0123170Y0017476D02*
X0119830Y0017476D01*
X0120829Y0018475D02*
X0122171Y0018475D01*
X0121711Y0019473D02*
X0121289Y0019473D01*
X0127963Y0016478D02*
X0135037Y0016478D01*
X0133170Y0017476D02*
X0129830Y0017476D01*
X0130829Y0018475D02*
X0132171Y0018475D01*
X0131711Y0019473D02*
X0131289Y0019473D01*
X0137963Y0016478D02*
X0145037Y0016478D01*
X0143170Y0017476D02*
X0139830Y0017476D01*
X0140829Y0018475D02*
X0142171Y0018475D01*
X0141711Y0019473D02*
X0141289Y0019473D01*
X0147963Y0016478D02*
X0170689Y0016478D01*
X0170689Y0017476D02*
X0149830Y0017476D01*
X0150829Y0018475D02*
X0170689Y0018475D01*
X0170689Y0019473D02*
X0151289Y0019473D01*
X0151700Y0020472D02*
X0170689Y0020472D01*
X0170689Y0020547D02*
X0170689Y0013005D01*
X0171568Y0012126D01*
X0176747Y0012126D01*
X0177626Y0013005D01*
X0177626Y0020547D01*
X0176747Y0021425D01*
X0171568Y0021425D01*
X0170689Y0020547D01*
X0171568Y0021575D02*
X0176747Y0021575D01*
X0177626Y0022453D01*
X0177626Y0029995D01*
X0176747Y0030874D01*
X0171568Y0030874D01*
X0170689Y0029995D01*
X0170689Y0022453D01*
X0171568Y0021575D01*
X0170689Y0022469D02*
X0151700Y0022469D01*
X0151700Y0021470D02*
X0180900Y0021470D01*
X0180531Y0020472D02*
X0177626Y0020472D01*
X0177626Y0019473D02*
X0180531Y0019473D01*
X0180531Y0018475D02*
X0177626Y0018475D01*
X0177626Y0017476D02*
X0180531Y0017476D01*
X0180531Y0016478D02*
X0177626Y0016478D01*
X0177626Y0015479D02*
X0180531Y0015479D01*
X0180531Y0014481D02*
X0177626Y0014481D01*
X0177626Y0013482D02*
X0180531Y0013482D01*
X0180900Y0012484D02*
X0177105Y0012484D01*
X0180900Y0011485D02*
X0045899Y0011485D01*
X0046897Y0010487D02*
X0180900Y0010487D01*
X0187100Y0010487D02*
X0233564Y0010487D01*
X0233400Y0011485D02*
X0187100Y0011485D01*
X0187100Y0012484D02*
X0190895Y0012484D01*
X0190374Y0013482D02*
X0187468Y0013482D01*
X0187468Y0014481D02*
X0190374Y0014481D01*
X0190374Y0015479D02*
X0187468Y0015479D01*
X0187468Y0016478D02*
X0190374Y0016478D01*
X0190374Y0017476D02*
X0187468Y0017476D01*
X0187468Y0018475D02*
X0190374Y0018475D01*
X0190374Y0019473D02*
X0187468Y0019473D01*
X0187468Y0020472D02*
X0190374Y0020472D01*
X0190743Y0021470D02*
X0187100Y0021470D01*
X0187468Y0022469D02*
X0190374Y0022469D01*
X0190374Y0023467D02*
X0187468Y0023467D01*
X0187468Y0024466D02*
X0190374Y0024466D01*
X0190374Y0025464D02*
X0187468Y0025464D01*
X0187468Y0026463D02*
X0190374Y0026463D01*
X0190374Y0027461D02*
X0187468Y0027461D01*
X0187468Y0028460D02*
X0190374Y0028460D01*
X0190374Y0029458D02*
X0187468Y0029458D01*
X0187007Y0030457D02*
X0190836Y0030457D01*
X0196850Y0030457D02*
X0209628Y0030457D01*
X0209500Y0029458D02*
X0197311Y0029458D01*
X0197311Y0028460D02*
X0208858Y0028460D01*
X0208031Y0027461D02*
X0197311Y0027461D01*
X0197311Y0026463D02*
X0208031Y0026463D01*
X0208031Y0025464D02*
X0197311Y0025464D01*
X0197311Y0024466D02*
X0208031Y0024466D01*
X0208031Y0023467D02*
X0197311Y0023467D01*
X0197311Y0022469D02*
X0208031Y0022469D01*
X0208562Y0021470D02*
X0196943Y0021470D01*
X0197311Y0020472D02*
X0201088Y0020472D01*
X0211500Y0024846D02*
X0211500Y0029500D01*
X0231500Y0029500D01*
X0233500Y0031500D01*
X0241500Y0031500D01*
X0244453Y0034453D01*
X0255693Y0034453D01*
X0255693Y0032484D02*
X0260516Y0032484D01*
X0261500Y0031500D01*
X0262484Y0030516D01*
X0267307Y0030516D01*
X0265013Y0030598D02*
X0264134Y0029720D01*
X0264134Y0028866D01*
X0258389Y0028866D01*
X0258866Y0029343D01*
X0258866Y0031688D01*
X0258070Y0032484D01*
X0258866Y0033280D01*
X0258866Y0034542D01*
X0259358Y0034050D01*
X0263642Y0034050D01*
X0263726Y0034134D01*
X0264134Y0034134D01*
X0264134Y0033280D01*
X0265013Y0032402D01*
X0269602Y0032402D01*
X0269653Y0032453D01*
X0272381Y0032453D01*
X0272728Y0032800D01*
X0273031Y0032800D01*
X0273031Y0032060D01*
X0273910Y0031181D01*
X0279090Y0031181D01*
X0279968Y0032060D01*
X0279968Y0037633D01*
X0279090Y0038512D01*
X0273910Y0038512D01*
X0273031Y0037633D01*
X0273031Y0036800D01*
X0271072Y0036800D01*
X0270724Y0036453D01*
X0269653Y0036453D01*
X0269602Y0036504D01*
X0267581Y0036504D01*
X0267581Y0039500D01*
X0283272Y0039500D01*
X0284260Y0038512D01*
X0283910Y0038512D01*
X0283031Y0037633D01*
X0283031Y0032060D01*
X0283910Y0031181D01*
X0289090Y0031181D01*
X0289968Y0032060D01*
X0289968Y0037633D01*
X0289090Y0038512D01*
X0288500Y0038512D01*
X0288500Y0039928D01*
X0285528Y0042900D01*
X0295617Y0042900D01*
X0296756Y0043372D01*
X0298256Y0044872D01*
X0299128Y0045744D01*
X0299600Y0046883D01*
X0299600Y0079117D01*
X0299128Y0080256D01*
X0296628Y0082756D01*
X0295756Y0083628D01*
X0294617Y0084100D01*
X0291543Y0084100D01*
X0291543Y0084759D01*
X0290665Y0085638D01*
X0282400Y0085638D01*
X0282400Y0087362D01*
X0290665Y0087362D01*
X0291543Y0088241D01*
X0291543Y0095783D01*
X0290665Y0096661D01*
X0290000Y0096661D01*
X0290000Y0099063D01*
X0302629Y0099063D01*
X0302705Y0099094D01*
X0311610Y0099094D01*
X0312488Y0099973D01*
X0312488Y0105153D01*
X0311610Y0106031D01*
X0302705Y0106031D01*
X0302629Y0106063D01*
X0286867Y0106063D01*
X0285580Y0105530D01*
X0284517Y0104467D01*
X0283533Y0103483D01*
X0283000Y0102196D01*
X0283000Y0096661D01*
X0282335Y0096661D01*
X0281457Y0095783D01*
X0281457Y0093900D01*
X0280713Y0093900D01*
X0279813Y0093000D01*
X0277828Y0093000D01*
X0276324Y0094504D01*
X0273019Y0094504D01*
X0272968Y0094555D01*
X0270032Y0094555D01*
X0269154Y0093676D01*
X0269154Y0091331D01*
X0270032Y0090453D01*
X0272968Y0090453D01*
X0273019Y0090504D01*
X0274668Y0090504D01*
X0275000Y0090172D01*
X0275000Y0088500D01*
X0265672Y0088500D01*
X0259500Y0082328D01*
X0259500Y0074145D01*
X0258716Y0073360D01*
X0258216Y0072153D01*
X0258216Y0070847D01*
X0258716Y0069640D01*
X0259640Y0068716D01*
X0260847Y0068216D01*
X0262153Y0068216D01*
X0263360Y0068716D01*
X0264284Y0069640D01*
X0264784Y0070847D01*
X0264784Y0072153D01*
X0264284Y0073360D01*
X0263500Y0074145D01*
X0263500Y0080672D01*
X0267328Y0084500D01*
X0277328Y0084500D01*
X0278500Y0085672D01*
X0278600Y0085772D01*
X0278600Y0078400D01*
X0278512Y0078400D01*
X0278512Y0079090D01*
X0277633Y0079968D01*
X0272060Y0079968D01*
X0271181Y0079090D01*
X0271181Y0073910D01*
X0272060Y0073031D01*
X0277281Y0073031D01*
X0280713Y0069600D01*
X0287100Y0069600D01*
X0287100Y0066801D01*
X0286570Y0067331D01*
X0281981Y0067331D01*
X0281102Y0066452D01*
X0281102Y0056548D01*
X0281981Y0055669D01*
X0283482Y0055669D01*
X0283489Y0055663D01*
X0287650Y0055663D01*
X0288100Y0055213D01*
X0289213Y0054100D01*
X0293400Y0054100D01*
X0293400Y0049100D01*
X0273745Y0049100D01*
X0274284Y0049640D01*
X0274784Y0050847D01*
X0274784Y0052153D01*
X0274284Y0053360D01*
X0273360Y0054284D01*
X0272153Y0054784D01*
X0270847Y0054784D01*
X0269640Y0054284D01*
X0268855Y0053500D01*
X0266400Y0053500D01*
X0266400Y0055663D01*
X0269511Y0055663D01*
X0269518Y0055669D01*
X0271019Y0055669D01*
X0271898Y0056548D01*
X0271898Y0061728D01*
X0271338Y0062287D01*
X0271898Y0062847D01*
X0271898Y0066452D01*
X0271019Y0067331D01*
X0269518Y0067331D01*
X0269511Y0067337D01*
X0244090Y0067337D01*
X0245953Y0069200D01*
X0254453Y0069200D01*
X0254953Y0069700D01*
X0256300Y0071047D01*
X0256300Y0075470D01*
X0256937Y0076107D01*
X0256937Y0080893D01*
X0256580Y0081250D01*
X0256937Y0081607D01*
X0256937Y0086393D01*
X0256058Y0087272D01*
X0252060Y0087272D01*
X0251500Y0086712D01*
X0251462Y0086750D01*
X0251819Y0087107D01*
X0251819Y0091893D01*
X0251241Y0092471D01*
X0251241Y0093332D01*
X0251819Y0093910D01*
X0251819Y0099090D01*
X0250940Y0099968D01*
X0245367Y0099968D01*
X0244488Y0099090D01*
X0244488Y0093910D01*
X0245367Y0093031D01*
X0246641Y0093031D01*
X0246641Y0092471D01*
X0246063Y0091893D01*
X0246063Y0087107D01*
X0246420Y0086750D01*
X0246063Y0086393D01*
X0246063Y0086300D01*
X0241047Y0086300D01*
X0239700Y0084953D01*
X0237287Y0082540D01*
X0234885Y0082540D01*
X0234602Y0082823D01*
X0228635Y0082823D01*
X0227756Y0081944D01*
X0227756Y0078536D01*
X0228635Y0077657D01*
X0234602Y0077657D01*
X0234885Y0077940D01*
X0239193Y0077940D01*
X0242953Y0081700D01*
X0246063Y0081700D01*
X0246063Y0081607D01*
X0246942Y0080728D01*
X0250940Y0080728D01*
X0251500Y0081288D01*
X0251538Y0081250D01*
X0251181Y0080893D01*
X0251181Y0076107D01*
X0251700Y0075588D01*
X0251700Y0073800D01*
X0244047Y0073800D01*
X0242700Y0072453D01*
X0242672Y0072425D01*
X0242284Y0073360D01*
X0241360Y0074284D01*
X0240153Y0074784D01*
X0238847Y0074784D01*
X0237640Y0074284D01*
X0237304Y0073949D01*
X0236193Y0075060D01*
X0234885Y0075060D01*
X0234602Y0075343D01*
X0228635Y0075343D01*
X0227756Y0074464D01*
X0227756Y0071056D01*
X0228635Y0070177D01*
X0234570Y0070177D01*
X0235547Y0069200D01*
X0237155Y0069200D01*
X0237640Y0068716D01*
X0238847Y0068216D01*
X0239200Y0068216D01*
X0239200Y0067453D01*
X0235547Y0063800D01*
X0227453Y0063800D01*
X0226819Y0064434D01*
X0226819Y0068893D01*
X0225940Y0069772D01*
X0224200Y0069772D01*
X0224200Y0070177D01*
X0224365Y0070177D01*
X0225244Y0071056D01*
X0225244Y0074464D01*
X0224365Y0075343D01*
X0218398Y0075343D01*
X0217519Y0074464D01*
X0217519Y0071056D01*
X0218398Y0070177D01*
X0218800Y0070177D01*
X0218800Y0069476D01*
X0213742Y0069476D01*
X0213668Y0069549D01*
X0212466Y0070047D01*
X0211164Y0070047D01*
X0209962Y0069549D01*
X0209041Y0068629D01*
X0208870Y0068214D01*
X0204820Y0064165D01*
X0203770Y0064600D01*
X0197784Y0064600D01*
X0194600Y0067784D01*
X0194600Y0083798D01*
X0195367Y0083031D01*
X0200940Y0083031D01*
X0201500Y0083591D01*
X0202060Y0083031D01*
X0207633Y0083031D01*
X0208402Y0083800D01*
X0209115Y0083800D01*
X0209115Y0078151D01*
X0209041Y0078078D01*
X0208543Y0076875D01*
X0208543Y0075574D01*
X0209041Y0074371D01*
X0209962Y0073451D01*
X0211164Y0072953D01*
X0212466Y0072953D01*
X0213668Y0073451D01*
X0214589Y0074371D01*
X0215087Y0075574D01*
X0215087Y0076875D01*
X0214589Y0078078D01*
X0214515Y0078151D01*
X0214515Y0086722D01*
X0214104Y0087714D01*
X0213789Y0088029D01*
X0213029Y0088789D01*
X0212037Y0089200D01*
X0208402Y0089200D01*
X0207633Y0089968D01*
X0202060Y0089968D01*
X0201641Y0089550D01*
X0201641Y0093647D01*
X0202060Y0093228D01*
X0206058Y0093228D01*
X0206630Y0093800D01*
X0221370Y0093800D01*
X0221641Y0093529D01*
X0221641Y0089471D01*
X0221063Y0088893D01*
X0221063Y0088800D01*
X0220547Y0088800D01*
X0220047Y0088300D01*
X0218700Y0086953D01*
X0218700Y0082823D01*
X0218398Y0082823D01*
X0217519Y0081944D01*
X0217519Y0078536D01*
X0218398Y0077657D01*
X0224365Y0077657D01*
X0225244Y0078536D01*
X0225244Y0081944D01*
X0224365Y0082823D01*
X0223300Y0082823D01*
X0223300Y0083228D01*
X0225940Y0083228D01*
X0226500Y0083788D01*
X0227060Y0083228D01*
X0231058Y0083228D01*
X0231937Y0084107D01*
X0231937Y0084200D01*
X0234155Y0084200D01*
X0234640Y0083716D01*
X0235847Y0083216D01*
X0237153Y0083216D01*
X0238360Y0083716D01*
X0239284Y0084640D01*
X0239784Y0085847D01*
X0239784Y0087153D01*
X0239284Y0088360D01*
X0238360Y0089284D01*
X0237153Y0089784D01*
X0235847Y0089784D01*
X0234640Y0089284D01*
X0234155Y0088800D01*
X0231937Y0088800D01*
X0231937Y0088893D01*
X0231359Y0089471D01*
X0231359Y0093529D01*
X0231937Y0094107D01*
X0231937Y0098893D01*
X0231759Y0099071D01*
X0231759Y0100560D01*
X0232100Y0101383D01*
X0232100Y0102617D01*
X0231628Y0103756D01*
X0226256Y0109128D01*
X0225117Y0109600D01*
X0223984Y0109600D01*
X0228256Y0113872D01*
X0229128Y0114744D01*
X0229600Y0115883D01*
X0229600Y0124236D01*
X0230315Y0124951D01*
X0231000Y0126605D01*
X0231000Y0134395D01*
X0230315Y0136049D01*
X0229049Y0137315D01*
X0227395Y0138000D01*
X0225605Y0138000D01*
X0223951Y0137315D01*
X0222685Y0136049D01*
X0222000Y0134395D01*
X0222000Y0126605D01*
X0222685Y0124951D01*
X0223400Y0124236D01*
X0223400Y0117784D01*
X0220216Y0114600D01*
X0193984Y0114600D01*
X0194128Y0114744D01*
X0198256Y0118872D01*
X0199128Y0119744D01*
X0199600Y0120883D01*
X0199600Y0127246D01*
X0200908Y0128554D01*
X0201700Y0130466D01*
X0201700Y0132534D01*
X0200908Y0134446D01*
X0199446Y0135908D01*
X0197534Y0136700D01*
X0195466Y0136700D01*
X0193554Y0135908D01*
X0192092Y0134446D01*
X0191500Y0133017D01*
X0190908Y0134446D01*
X0189446Y0135908D01*
X0187534Y0136700D01*
X0185466Y0136700D01*
X0183554Y0135908D01*
X0182092Y0134446D01*
X0181500Y0133017D01*
X0180908Y0134446D01*
X0179600Y0135754D01*
X0179600Y0138400D01*
X0213216Y0138400D01*
X0213244Y0138372D01*
X0213400Y0138216D01*
X0213400Y0137764D01*
X0212685Y0137049D01*
X0212000Y0135395D01*
X0212000Y0127605D01*
X0212685Y0125951D01*
X0213951Y0124685D01*
X0215605Y0124000D01*
X0217395Y0124000D01*
X0219049Y0124685D01*
X0220315Y0125951D01*
X0221000Y0127605D01*
X0221000Y0135395D01*
X0220315Y0137049D01*
X0219600Y0137764D01*
X0219600Y0138400D01*
X0253400Y0138400D01*
X0253400Y0137764D01*
X0252685Y0137049D01*
X0252000Y0135395D01*
X0252000Y0127605D01*
X0252685Y0125951D01*
X0253400Y0125236D01*
X0253400Y0117764D01*
X0252685Y0117049D01*
X0252000Y0115395D01*
X0252000Y0107605D01*
X0252685Y0105951D01*
X0253951Y0104685D01*
X0255605Y0104000D01*
X0257395Y0104000D01*
X0259049Y0104685D01*
X0260315Y0105951D01*
X0261000Y0107605D01*
X0261000Y0115395D01*
X0260315Y0117049D01*
X0259600Y0117764D01*
X0259600Y0125236D01*
X0260315Y0125951D01*
X0261000Y0127605D01*
X0261000Y0135395D01*
X0260315Y0137049D01*
X0259600Y0137764D01*
X0259600Y0140617D01*
X0259128Y0141756D01*
X0257628Y0143256D01*
X0256756Y0144128D01*
X0255617Y0144600D01*
X0177784Y0144600D01*
X0174128Y0148256D01*
X0173256Y0149128D01*
X0172841Y0149300D01*
X0349300Y0149300D01*
X0349300Y0003700D01*
X0317841Y0003700D01*
X0318256Y0003872D01*
X0319128Y0004744D01*
X0324128Y0009744D01*
X0324600Y0010883D01*
X0324600Y0011999D01*
X0326733Y0008304D01*
X0330125Y0005458D01*
X0334286Y0003944D01*
X0338714Y0003944D01*
X0342875Y0005458D01*
X0346267Y0008304D01*
X0346267Y0008304D01*
X0348481Y0012139D01*
X0348481Y0012139D01*
X0349250Y0016500D01*
X0348481Y0020861D01*
X0346267Y0024696D01*
X0342875Y0027542D01*
X0338714Y0029056D01*
X0338512Y0029056D01*
X0338512Y0039405D01*
X0337633Y0040283D01*
X0325367Y0040283D01*
X0324488Y0039405D01*
X0324488Y0037159D01*
X0323442Y0037159D01*
X0322303Y0036687D01*
X0319744Y0034128D01*
X0318872Y0033256D01*
X0318400Y0032117D01*
X0318400Y0012784D01*
X0315216Y0009600D01*
X0279600Y0009600D01*
X0279600Y0011457D01*
X0280259Y0011457D01*
X0281138Y0012335D01*
X0281138Y0018146D01*
X0281550Y0018558D01*
X0281550Y0019476D01*
X0281562Y0019488D01*
X0281550Y0020115D01*
X0281550Y0020742D01*
X0281537Y0020755D01*
X0281537Y0020772D01*
X0281085Y0021207D01*
X0280642Y0021650D01*
X0280624Y0021650D01*
X0275885Y0026207D01*
X0271542Y0030550D01*
X0269650Y0030550D01*
X0269602Y0030598D01*
X0265013Y0030598D01*
X0264871Y0030457D02*
X0258866Y0030457D01*
X0258866Y0031455D02*
X0273636Y0031455D01*
X0273031Y0032454D02*
X0272382Y0032454D01*
X0271553Y0034453D02*
X0271900Y0034800D01*
X0276454Y0034800D01*
X0276500Y0034846D01*
X0279968Y0034451D02*
X0283031Y0034451D01*
X0283031Y0035449D02*
X0279968Y0035449D01*
X0279968Y0036448D02*
X0283031Y0036448D01*
X0283031Y0037446D02*
X0279968Y0037446D01*
X0279157Y0038445D02*
X0283843Y0038445D01*
X0283328Y0039443D02*
X0267581Y0039443D01*
X0267581Y0038445D02*
X0273843Y0038445D01*
X0273031Y0037446D02*
X0267581Y0037446D01*
X0264453Y0037307D02*
X0264453Y0039453D01*
X0266500Y0041500D01*
X0284100Y0041500D01*
X0286500Y0039100D01*
X0286500Y0034846D01*
X0289968Y0034451D02*
X0300472Y0034451D01*
X0300472Y0035449D02*
X0289968Y0035449D01*
X0289968Y0036448D02*
X0300472Y0036448D01*
X0300472Y0037446D02*
X0289968Y0037446D01*
X0289157Y0038445D02*
X0300472Y0038445D01*
X0300472Y0039405D02*
X0301351Y0040283D01*
X0313617Y0040283D01*
X0314496Y0039405D01*
X0314496Y0028713D01*
X0313617Y0027835D01*
X0301351Y0027835D01*
X0300472Y0028713D01*
X0300472Y0039405D01*
X0300511Y0039443D02*
X0288500Y0039443D01*
X0287986Y0040442D02*
X0349300Y0040442D01*
X0349300Y0041440D02*
X0286988Y0041440D01*
X0285989Y0042439D02*
X0349300Y0042439D01*
X0349300Y0043437D02*
X0296822Y0043437D01*
X0297820Y0044436D02*
X0349300Y0044436D01*
X0349300Y0045434D02*
X0298819Y0045434D01*
X0299413Y0046433D02*
X0349300Y0046433D01*
X0349300Y0047432D02*
X0299600Y0047432D01*
X0299600Y0048430D02*
X0349300Y0048430D01*
X0349300Y0049429D02*
X0299600Y0049429D01*
X0299600Y0050427D02*
X0349300Y0050427D01*
X0349300Y0051426D02*
X0334144Y0051426D01*
X0334729Y0051668D02*
X0336332Y0053271D01*
X0337200Y0055366D01*
X0337200Y0057634D01*
X0336332Y0059729D01*
X0334729Y0061332D01*
X0332634Y0062200D01*
X0330366Y0062200D01*
X0328271Y0061332D01*
X0326668Y0059729D01*
X0325800Y0057634D01*
X0325800Y0055366D01*
X0326668Y0053271D01*
X0328271Y0051668D01*
X0330366Y0050800D01*
X0332634Y0050800D01*
X0334729Y0051668D01*
X0335485Y0052424D02*
X0349300Y0052424D01*
X0349300Y0053423D02*
X0336395Y0053423D01*
X0336809Y0054421D02*
X0349300Y0054421D01*
X0349300Y0055420D02*
X0337200Y0055420D01*
X0337200Y0056418D02*
X0349300Y0056418D01*
X0349300Y0057417D02*
X0337200Y0057417D01*
X0336876Y0058415D02*
X0349300Y0058415D01*
X0349300Y0059414D02*
X0336463Y0059414D01*
X0335649Y0060412D02*
X0349300Y0060412D01*
X0349300Y0061411D02*
X0334539Y0061411D01*
X0328461Y0061411D02*
X0316539Y0061411D01*
X0316729Y0061332D02*
X0314634Y0062200D01*
X0312366Y0062200D01*
X0310271Y0061332D01*
X0308668Y0059729D01*
X0307800Y0057634D01*
X0307800Y0055366D01*
X0308668Y0053271D01*
X0310271Y0051668D01*
X0312366Y0050800D01*
X0314634Y0050800D01*
X0316729Y0051668D01*
X0318332Y0053271D01*
X0319200Y0055366D01*
X0319200Y0057634D01*
X0318332Y0059729D01*
X0316729Y0061332D01*
X0317649Y0060412D02*
X0327351Y0060412D01*
X0326537Y0059414D02*
X0318463Y0059414D01*
X0318876Y0058415D02*
X0326124Y0058415D01*
X0325800Y0057417D02*
X0319200Y0057417D01*
X0319200Y0056418D02*
X0325800Y0056418D01*
X0325800Y0055420D02*
X0319200Y0055420D01*
X0318809Y0054421D02*
X0326191Y0054421D01*
X0326605Y0053423D02*
X0318395Y0053423D01*
X0317485Y0052424D02*
X0327515Y0052424D01*
X0328856Y0051426D02*
X0316144Y0051426D01*
X0310856Y0051426D02*
X0299600Y0051426D01*
X0299600Y0052424D02*
X0309515Y0052424D01*
X0308605Y0053423D02*
X0299600Y0053423D01*
X0299600Y0054421D02*
X0308191Y0054421D01*
X0307800Y0055420D02*
X0299600Y0055420D01*
X0299600Y0056418D02*
X0307800Y0056418D01*
X0307800Y0057417D02*
X0299600Y0057417D01*
X0299600Y0058415D02*
X0308124Y0058415D01*
X0308537Y0059414D02*
X0299600Y0059414D01*
X0299600Y0060412D02*
X0309351Y0060412D01*
X0310461Y0061411D02*
X0299600Y0061411D01*
X0299600Y0062409D02*
X0349300Y0062409D01*
X0349300Y0063408D02*
X0299600Y0063408D01*
X0299600Y0064406D02*
X0349300Y0064406D01*
X0349300Y0065405D02*
X0299600Y0065405D01*
X0299600Y0066403D02*
X0349300Y0066403D01*
X0349300Y0067402D02*
X0299600Y0067402D01*
X0299600Y0068400D02*
X0349300Y0068400D01*
X0349300Y0069399D02*
X0299600Y0069399D01*
X0299600Y0070397D02*
X0349300Y0070397D01*
X0349300Y0071396D02*
X0299600Y0071396D01*
X0299600Y0072394D02*
X0349300Y0072394D01*
X0349300Y0073393D02*
X0299600Y0073393D01*
X0299600Y0074391D02*
X0349300Y0074391D01*
X0349300Y0075390D02*
X0299600Y0075390D01*
X0299600Y0076388D02*
X0349300Y0076388D01*
X0349300Y0077387D02*
X0299600Y0077387D01*
X0299600Y0078385D02*
X0349300Y0078385D01*
X0349300Y0079384D02*
X0299489Y0079384D01*
X0299002Y0080382D02*
X0349300Y0080382D01*
X0349300Y0081381D02*
X0298003Y0081381D01*
X0297005Y0082379D02*
X0349300Y0082379D01*
X0349300Y0083378D02*
X0296006Y0083378D01*
X0291543Y0084376D02*
X0349300Y0084376D01*
X0349300Y0085375D02*
X0290927Y0085375D01*
X0290674Y0087372D02*
X0349300Y0087372D01*
X0349300Y0088370D02*
X0291543Y0088370D01*
X0291543Y0089369D02*
X0314213Y0089369D01*
X0314213Y0089343D02*
X0315091Y0088465D01*
X0329720Y0088465D01*
X0330598Y0089343D01*
X0330598Y0096885D01*
X0329720Y0097764D01*
X0315091Y0097764D01*
X0314213Y0096885D01*
X0314213Y0089343D01*
X0314213Y0090368D02*
X0291543Y0090368D01*
X0291543Y0091366D02*
X0314213Y0091366D01*
X0314213Y0092365D02*
X0291543Y0092365D01*
X0291543Y0093363D02*
X0314213Y0093363D01*
X0314213Y0094362D02*
X0291543Y0094362D01*
X0291543Y0095360D02*
X0314213Y0095360D01*
X0314213Y0096359D02*
X0290967Y0096359D01*
X0290000Y0097357D02*
X0314685Y0097357D01*
X0311869Y0099354D02*
X0349300Y0099354D01*
X0349300Y0098356D02*
X0290000Y0098356D01*
X0283000Y0098356D02*
X0251819Y0098356D01*
X0251819Y0097357D02*
X0283000Y0097357D01*
X0282033Y0096359D02*
X0251819Y0096359D01*
X0251819Y0095360D02*
X0281457Y0095360D01*
X0281457Y0094362D02*
X0276467Y0094362D01*
X0277465Y0093363D02*
X0280176Y0093363D01*
X0277000Y0091000D02*
X0275496Y0092504D01*
X0271500Y0092504D01*
X0269154Y0092365D02*
X0251347Y0092365D01*
X0251272Y0093363D02*
X0269154Y0093363D01*
X0269839Y0094362D02*
X0251819Y0094362D01*
X0251819Y0091366D02*
X0269154Y0091366D01*
X0274804Y0090368D02*
X0251819Y0090368D01*
X0251819Y0089369D02*
X0275000Y0089369D01*
X0277000Y0091000D02*
X0277000Y0087000D01*
X0276500Y0086500D01*
X0266500Y0086500D01*
X0261500Y0081500D01*
X0261500Y0071500D01*
X0264784Y0071396D02*
X0278917Y0071396D01*
X0277919Y0072394D02*
X0264684Y0072394D01*
X0264252Y0073393D02*
X0271698Y0073393D01*
X0271181Y0074391D02*
X0263500Y0074391D01*
X0263500Y0075390D02*
X0271181Y0075390D01*
X0271181Y0076388D02*
X0263500Y0076388D01*
X0263500Y0077387D02*
X0271181Y0077387D01*
X0271181Y0078385D02*
X0263500Y0078385D01*
X0263500Y0079384D02*
X0271475Y0079384D01*
X0278218Y0079384D02*
X0278600Y0079384D01*
X0278600Y0080382D02*
X0263500Y0080382D01*
X0264209Y0081381D02*
X0278600Y0081381D01*
X0278600Y0082379D02*
X0265208Y0082379D01*
X0266206Y0083378D02*
X0278600Y0083378D01*
X0278600Y0084376D02*
X0267205Y0084376D01*
X0263545Y0086373D02*
X0256937Y0086373D01*
X0256937Y0085375D02*
X0262547Y0085375D01*
X0261548Y0084376D02*
X0256937Y0084376D01*
X0256937Y0083378D02*
X0260550Y0083378D01*
X0259551Y0082379D02*
X0256937Y0082379D01*
X0256711Y0081381D02*
X0259500Y0081381D01*
X0259500Y0080382D02*
X0256937Y0080382D01*
X0256937Y0079384D02*
X0259500Y0079384D01*
X0259500Y0078385D02*
X0256937Y0078385D01*
X0256937Y0077387D02*
X0259500Y0077387D01*
X0259500Y0076388D02*
X0256937Y0076388D01*
X0256300Y0075390D02*
X0259500Y0075390D01*
X0259500Y0074391D02*
X0256300Y0074391D01*
X0256300Y0073393D02*
X0258748Y0073393D01*
X0258316Y0072394D02*
X0256300Y0072394D01*
X0256300Y0071396D02*
X0258216Y0071396D01*
X0258402Y0070397D02*
X0255650Y0070397D01*
X0254651Y0069399D02*
X0258957Y0069399D01*
X0260401Y0068400D02*
X0245153Y0068400D01*
X0244154Y0067402D02*
X0287100Y0067402D01*
X0287100Y0068400D02*
X0262599Y0068400D01*
X0264043Y0069399D02*
X0287100Y0069399D01*
X0281102Y0066403D02*
X0271898Y0066403D01*
X0271898Y0065405D02*
X0281102Y0065405D01*
X0281102Y0064406D02*
X0271898Y0064406D01*
X0271898Y0063408D02*
X0281102Y0063408D01*
X0281102Y0062409D02*
X0271460Y0062409D01*
X0271898Y0061411D02*
X0281102Y0061411D01*
X0281102Y0060412D02*
X0271898Y0060412D01*
X0271898Y0059414D02*
X0281102Y0059414D01*
X0281102Y0058415D02*
X0271898Y0058415D01*
X0271898Y0057417D02*
X0281102Y0057417D01*
X0281232Y0056418D02*
X0271768Y0056418D01*
X0273030Y0054421D02*
X0288892Y0054421D01*
X0287893Y0055420D02*
X0266400Y0055420D01*
X0266400Y0054421D02*
X0269970Y0054421D01*
X0274222Y0053423D02*
X0293400Y0053423D01*
X0293400Y0052424D02*
X0274672Y0052424D01*
X0274784Y0051426D02*
X0293400Y0051426D01*
X0293400Y0050427D02*
X0274610Y0050427D01*
X0274073Y0049429D02*
X0293400Y0049429D01*
X0271500Y0051500D02*
X0259846Y0051500D01*
X0263500Y0051500D01*
X0263512Y0049500D02*
X0268855Y0049500D01*
X0269255Y0049100D01*
X0265383Y0049100D01*
X0264244Y0048628D01*
X0263466Y0047850D01*
X0263252Y0047850D01*
X0263239Y0047862D01*
X0258847Y0047862D01*
X0257969Y0046984D01*
X0257969Y0046961D01*
X0257950Y0046942D01*
X0257950Y0044633D01*
X0257943Y0044617D01*
X0257943Y0043383D01*
X0257950Y0043367D01*
X0257950Y0040958D01*
X0258450Y0040458D01*
X0258450Y0040194D01*
X0257894Y0040750D01*
X0256444Y0040750D01*
X0255419Y0039725D01*
X0255419Y0036504D01*
X0253398Y0036504D01*
X0253347Y0036453D01*
X0243624Y0036453D01*
X0240672Y0033500D01*
X0232672Y0033500D01*
X0230672Y0031500D01*
X0221819Y0031500D01*
X0221819Y0036590D01*
X0220940Y0037468D01*
X0220100Y0037468D01*
X0220100Y0039630D01*
X0221631Y0041162D01*
X0221631Y0041399D01*
X0223216Y0039814D01*
X0223216Y0038847D01*
X0223716Y0037640D01*
X0224640Y0036716D01*
X0225847Y0036216D01*
X0227153Y0036216D01*
X0228081Y0036600D01*
X0242287Y0036600D01*
X0243400Y0037713D01*
X0243400Y0055713D01*
X0246762Y0059075D01*
X0246762Y0061962D01*
X0256181Y0061962D01*
X0256181Y0056910D01*
X0257060Y0056031D01*
X0262600Y0056031D01*
X0262600Y0054968D01*
X0257060Y0054968D01*
X0256181Y0054090D01*
X0256181Y0048910D01*
X0257060Y0048031D01*
X0262633Y0048031D01*
X0263512Y0048910D01*
X0263512Y0049500D01*
X0263512Y0049429D02*
X0268927Y0049429D01*
X0264046Y0048430D02*
X0263032Y0048430D01*
X0258416Y0047432D02*
X0243400Y0047432D01*
X0243400Y0048430D02*
X0256661Y0048430D01*
X0256181Y0049429D02*
X0243400Y0049429D01*
X0243400Y0050427D02*
X0256181Y0050427D01*
X0256181Y0051426D02*
X0243400Y0051426D01*
X0243400Y0052424D02*
X0256181Y0052424D01*
X0256181Y0053423D02*
X0243400Y0053423D01*
X0243400Y0054421D02*
X0256512Y0054421D01*
X0256673Y0056418D02*
X0244105Y0056418D01*
X0243400Y0055420D02*
X0262600Y0055420D01*
X0256181Y0057417D02*
X0245104Y0057417D01*
X0246102Y0058415D02*
X0256181Y0058415D01*
X0256181Y0059414D02*
X0246762Y0059414D01*
X0246762Y0060412D02*
X0256181Y0060412D01*
X0256181Y0061411D02*
X0246762Y0061411D01*
X0242962Y0061411D02*
X0242598Y0061411D01*
X0242962Y0061775D02*
X0242962Y0060649D01*
X0240713Y0058400D01*
X0239600Y0057287D01*
X0239600Y0040400D01*
X0229682Y0040400D01*
X0229284Y0041360D01*
X0228360Y0042284D01*
X0227153Y0042784D01*
X0226186Y0042784D01*
X0225600Y0043370D01*
X0225600Y0047319D01*
X0225559Y0047360D01*
X0225559Y0047441D01*
X0225640Y0047441D01*
X0225650Y0047431D01*
X0227599Y0047431D01*
X0228216Y0046814D01*
X0228216Y0045847D01*
X0228716Y0044640D01*
X0229640Y0043716D01*
X0230847Y0043216D01*
X0232153Y0043216D01*
X0233360Y0043716D01*
X0234284Y0044640D01*
X0234784Y0045847D01*
X0234784Y0047097D01*
X0238400Y0050713D01*
X0238400Y0057213D01*
X0242962Y0061775D01*
X0242725Y0060412D02*
X0241599Y0060412D01*
X0241727Y0059414D02*
X0240601Y0059414D01*
X0240728Y0058415D02*
X0239602Y0058415D01*
X0239730Y0057417D02*
X0238604Y0057417D01*
X0238400Y0056418D02*
X0239600Y0056418D01*
X0239600Y0055420D02*
X0238400Y0055420D01*
X0238400Y0054421D02*
X0239600Y0054421D01*
X0239600Y0053423D02*
X0238400Y0053423D01*
X0238400Y0052424D02*
X0239600Y0052424D01*
X0239600Y0051426D02*
X0238400Y0051426D01*
X0238114Y0050427D02*
X0239600Y0050427D01*
X0239600Y0049429D02*
X0237116Y0049429D01*
X0236117Y0048430D02*
X0239600Y0048430D01*
X0239600Y0047432D02*
X0235119Y0047432D01*
X0234784Y0046433D02*
X0239600Y0046433D01*
X0239600Y0045434D02*
X0234613Y0045434D01*
X0234081Y0044436D02*
X0239600Y0044436D01*
X0239600Y0043437D02*
X0232689Y0043437D01*
X0230311Y0043437D02*
X0225600Y0043437D01*
X0225600Y0044436D02*
X0228919Y0044436D01*
X0228386Y0045434D02*
X0225600Y0045434D01*
X0225600Y0046433D02*
X0228216Y0046433D01*
X0225650Y0047432D02*
X0225559Y0047432D01*
X0223445Y0049555D02*
X0219555Y0049555D01*
X0219555Y0054178D01*
X0220288Y0053445D01*
X0222712Y0053445D01*
X0223445Y0054178D01*
X0223445Y0052257D01*
X0224202Y0051500D01*
X0223445Y0050743D01*
X0223445Y0049555D01*
X0223445Y0050427D02*
X0219555Y0050427D01*
X0219555Y0051426D02*
X0224127Y0051426D01*
X0223445Y0052424D02*
X0219555Y0052424D01*
X0219555Y0053423D02*
X0223445Y0053423D01*
X0223469Y0053469D02*
X0221500Y0051500D01*
X0226520Y0051500D01*
X0228969Y0051631D02*
X0229594Y0052257D01*
X0229594Y0054680D01*
X0228716Y0055559D01*
X0227528Y0055559D01*
X0227528Y0058716D01*
X0227043Y0059200D01*
X0235013Y0059200D01*
X0234600Y0058787D01*
X0234600Y0052287D01*
X0232097Y0049784D01*
X0231186Y0049784D01*
X0229338Y0051631D01*
X0228969Y0051631D01*
X0229544Y0051426D02*
X0233739Y0051426D01*
X0234600Y0052424D02*
X0229594Y0052424D01*
X0229594Y0053423D02*
X0234600Y0053423D01*
X0234600Y0054421D02*
X0229594Y0054421D01*
X0228855Y0055420D02*
X0234600Y0055420D01*
X0234600Y0056418D02*
X0227528Y0056418D01*
X0227528Y0057417D02*
X0234600Y0057417D01*
X0234600Y0058415D02*
X0227528Y0058415D01*
X0223469Y0056520D02*
X0223469Y0053469D01*
X0221500Y0051500D02*
X0219531Y0053469D01*
X0219531Y0056520D01*
X0213406Y0051369D02*
X0211162Y0051369D01*
X0208512Y0054018D01*
X0208512Y0053910D01*
X0207946Y0053345D01*
X0207946Y0049655D01*
X0208512Y0049090D01*
X0208512Y0044600D01*
X0215463Y0044600D01*
X0215463Y0047350D01*
X0215472Y0047360D01*
X0215472Y0047441D01*
X0214284Y0047441D01*
X0213406Y0048320D01*
X0213406Y0051369D01*
X0213406Y0050427D02*
X0207946Y0050427D01*
X0207946Y0051426D02*
X0211105Y0051426D01*
X0210106Y0052424D02*
X0207946Y0052424D01*
X0208024Y0053423D02*
X0209108Y0053423D01*
X0208173Y0049429D02*
X0213406Y0049429D01*
X0213406Y0048430D02*
X0208512Y0048430D01*
X0208512Y0047432D02*
X0215472Y0047432D01*
X0215463Y0046433D02*
X0208512Y0046433D01*
X0208512Y0045434D02*
X0215463Y0045434D01*
X0220912Y0040442D02*
X0222588Y0040442D01*
X0223216Y0039443D02*
X0220100Y0039443D01*
X0220100Y0038445D02*
X0223382Y0038445D01*
X0223909Y0037446D02*
X0220962Y0037446D01*
X0221819Y0036448D02*
X0225286Y0036448D01*
X0227714Y0036448D02*
X0243619Y0036448D01*
X0243133Y0037446D02*
X0255419Y0037446D01*
X0255419Y0038445D02*
X0243400Y0038445D01*
X0243400Y0039443D02*
X0255419Y0039443D01*
X0256136Y0040442D02*
X0243400Y0040442D01*
X0243400Y0041440D02*
X0257950Y0041440D01*
X0257950Y0042439D02*
X0243400Y0042439D01*
X0243400Y0043437D02*
X0257943Y0043437D01*
X0257943Y0044436D02*
X0243400Y0044436D01*
X0243400Y0045434D02*
X0257950Y0045434D01*
X0257950Y0046433D02*
X0243400Y0046433D01*
X0239600Y0042439D02*
X0227987Y0042439D01*
X0229204Y0041440D02*
X0239600Y0041440D01*
X0239600Y0040442D02*
X0229665Y0040442D01*
X0221819Y0035449D02*
X0242621Y0035449D01*
X0241622Y0034451D02*
X0221819Y0034451D01*
X0221819Y0033452D02*
X0232624Y0033452D01*
X0231625Y0032454D02*
X0221819Y0032454D01*
X0214488Y0032454D02*
X0150500Y0032454D01*
X0150500Y0033452D02*
X0214488Y0033452D01*
X0214488Y0034451D02*
X0150500Y0034451D01*
X0150500Y0035449D02*
X0214488Y0035449D01*
X0214488Y0036448D02*
X0150500Y0036448D01*
X0150500Y0037446D02*
X0215345Y0037446D01*
X0215900Y0038445D02*
X0150799Y0038445D01*
X0151277Y0039443D02*
X0215900Y0039443D01*
X0204088Y0040442D02*
X0151690Y0040442D01*
X0151700Y0041440D02*
X0203090Y0041440D01*
X0202400Y0042439D02*
X0151700Y0042439D01*
X0151326Y0043437D02*
X0201654Y0043437D01*
X0201181Y0044436D02*
X0150912Y0044436D01*
X0149919Y0045434D02*
X0201181Y0045434D01*
X0201181Y0046433D02*
X0149600Y0046433D01*
X0149600Y0047432D02*
X0201181Y0047432D01*
X0201181Y0048430D02*
X0149600Y0048430D01*
X0149600Y0049429D02*
X0201520Y0049429D01*
X0201746Y0050427D02*
X0149600Y0050427D01*
X0149600Y0051426D02*
X0201746Y0051426D01*
X0201746Y0052424D02*
X0149600Y0052424D01*
X0149600Y0053423D02*
X0201669Y0053423D01*
X0201181Y0054421D02*
X0149600Y0054421D01*
X0149600Y0055420D02*
X0201181Y0055420D01*
X0201181Y0056418D02*
X0149600Y0056418D01*
X0149600Y0057417D02*
X0201181Y0057417D01*
X0195847Y0058415D02*
X0187635Y0058415D01*
X0189058Y0059414D02*
X0194202Y0059414D01*
X0193204Y0060412D02*
X0189604Y0060412D01*
X0189784Y0061411D02*
X0192205Y0061411D01*
X0191207Y0062409D02*
X0189678Y0062409D01*
X0189237Y0063408D02*
X0190208Y0063408D01*
X0189210Y0064406D02*
X0188600Y0064406D01*
X0184400Y0064406D02*
X0178600Y0064406D01*
X0178600Y0065405D02*
X0184400Y0065405D01*
X0184400Y0066403D02*
X0178600Y0066403D01*
X0178600Y0067402D02*
X0184400Y0067402D01*
X0184400Y0068400D02*
X0178600Y0068400D01*
X0178600Y0069399D02*
X0184400Y0069399D01*
X0184400Y0070397D02*
X0178600Y0070397D01*
X0178600Y0071396D02*
X0184400Y0071396D01*
X0184400Y0072394D02*
X0178600Y0072394D01*
X0178600Y0073393D02*
X0184400Y0073393D01*
X0184400Y0074391D02*
X0178600Y0074391D01*
X0178600Y0075390D02*
X0184400Y0075390D01*
X0184400Y0076388D02*
X0178600Y0076388D01*
X0178600Y0077387D02*
X0184400Y0077387D01*
X0184400Y0078385D02*
X0178600Y0078385D01*
X0179029Y0079384D02*
X0184400Y0079384D01*
X0184400Y0080382D02*
X0179592Y0080382D01*
X0179784Y0081381D02*
X0183649Y0081381D01*
X0182651Y0082379D02*
X0179691Y0082379D01*
X0179267Y0083378D02*
X0181652Y0083378D01*
X0180654Y0084376D02*
X0178138Y0084376D01*
X0174862Y0084376D02*
X0169021Y0084376D01*
X0167545Y0083378D02*
X0173733Y0083378D01*
X0173309Y0082379D02*
X0149600Y0082379D01*
X0149600Y0081381D02*
X0173216Y0081381D01*
X0173408Y0080382D02*
X0149600Y0080382D01*
X0149600Y0079384D02*
X0173971Y0079384D01*
X0174400Y0078385D02*
X0149600Y0078385D01*
X0149600Y0077387D02*
X0174400Y0077387D01*
X0174400Y0076388D02*
X0149600Y0076388D01*
X0149600Y0075390D02*
X0174400Y0075390D01*
X0174400Y0074391D02*
X0149600Y0074391D01*
X0149600Y0073393D02*
X0174400Y0073393D01*
X0174400Y0072394D02*
X0149600Y0072394D01*
X0149600Y0071396D02*
X0174400Y0071396D01*
X0174400Y0070397D02*
X0149600Y0070397D01*
X0149600Y0069399D02*
X0174400Y0069399D01*
X0174400Y0068400D02*
X0149600Y0068400D01*
X0149600Y0067402D02*
X0174400Y0067402D01*
X0174400Y0066403D02*
X0149600Y0066403D01*
X0149600Y0065405D02*
X0174400Y0065405D01*
X0174400Y0064406D02*
X0149600Y0064406D01*
X0149600Y0063408D02*
X0173763Y0063408D01*
X0173322Y0062409D02*
X0149600Y0062409D01*
X0149600Y0061411D02*
X0173216Y0061411D01*
X0173396Y0060412D02*
X0149600Y0060412D01*
X0149600Y0059414D02*
X0173942Y0059414D01*
X0175365Y0058415D02*
X0149600Y0058415D01*
X0133400Y0058415D02*
X0113403Y0058415D01*
X0112405Y0059414D02*
X0133400Y0059414D01*
X0133400Y0060412D02*
X0111406Y0060412D01*
X0110408Y0061411D02*
X0133400Y0061411D01*
X0133400Y0062409D02*
X0109409Y0062409D01*
X0108411Y0063408D02*
X0133400Y0063408D01*
X0133400Y0064406D02*
X0107412Y0064406D01*
X0106414Y0065405D02*
X0133400Y0065405D01*
X0133400Y0066403D02*
X0105415Y0066403D01*
X0104417Y0067402D02*
X0133400Y0067402D01*
X0133400Y0068400D02*
X0103418Y0068400D01*
X0103029Y0068789D02*
X0102037Y0069200D01*
X0086558Y0069200D01*
X0086681Y0069324D01*
X0086681Y0077653D01*
X0085802Y0078531D01*
X0079048Y0078531D01*
X0078169Y0077653D01*
X0078169Y0069324D01*
X0078293Y0069200D01*
X0072618Y0069200D01*
X0053403Y0088415D01*
X0052411Y0088826D01*
X0045823Y0088826D01*
X0045448Y0089201D01*
X0038300Y0089201D01*
X0037421Y0088322D01*
X0037421Y0084779D01*
X0037230Y0084588D01*
X0034200Y0087618D01*
X0034200Y0090382D01*
X0037421Y0093603D01*
X0037421Y0092591D01*
X0038300Y0091713D01*
X0045448Y0091713D01*
X0045823Y0092087D01*
X0057094Y0092087D01*
X0069211Y0079971D01*
X0069971Y0079211D01*
X0070963Y0078800D01*
X0090382Y0078800D01*
X0093216Y0075966D01*
X0093216Y0075847D01*
X0093716Y0074640D01*
X0094640Y0073716D01*
X0095847Y0073216D01*
X0097153Y0073216D01*
X0098360Y0073716D01*
X0099284Y0074640D01*
X0099784Y0075847D01*
X0099784Y0077153D01*
X0099284Y0078360D01*
X0098360Y0079284D01*
X0097153Y0079784D01*
X0097034Y0079784D01*
X0093029Y0083789D01*
X0092037Y0084200D01*
X0072618Y0084200D01*
X0059742Y0097076D01*
X0058750Y0097487D01*
X0046327Y0097487D01*
X0046327Y0101314D01*
X0045448Y0102193D01*
X0039200Y0102193D01*
X0039200Y0106990D01*
X0039446Y0107092D01*
X0040908Y0108554D01*
X0041500Y0109983D01*
X0042092Y0108554D01*
X0043554Y0107092D01*
X0045466Y0106300D01*
X0047534Y0106300D01*
X0049446Y0107092D01*
X0050908Y0108554D01*
X0051500Y0109983D01*
X0052092Y0108554D01*
X0053554Y0107092D01*
X0055466Y0106300D01*
X0057534Y0106300D01*
X0059446Y0107092D01*
X0060908Y0108554D01*
X0061700Y0110466D01*
X0061700Y0112534D01*
X0060908Y0114446D01*
X0060500Y0114854D01*
X0060500Y0128146D01*
X0060908Y0128554D01*
X0061700Y0130466D01*
X0061700Y0132534D01*
X0060908Y0134446D01*
X0059446Y0135908D01*
X0057534Y0136700D01*
X0055466Y0136700D01*
X0053554Y0135908D01*
X0052092Y0134446D01*
X0051500Y0133017D01*
X0050908Y0134446D01*
X0049446Y0135908D01*
X0047534Y0136700D01*
X0045466Y0136700D01*
X0043554Y0135908D01*
X0042092Y0134446D01*
X0041500Y0133017D01*
X0040908Y0134446D01*
X0039869Y0135485D01*
X0047784Y0143400D01*
X0099016Y0143400D01*
X0093872Y0138256D01*
X0093400Y0137117D01*
X0093400Y0135754D01*
X0092092Y0134446D01*
X0091500Y0133017D01*
X0090908Y0134446D01*
X0089446Y0135908D01*
X0087534Y0136700D01*
X0085466Y0136700D01*
X0083554Y0135908D01*
X0082092Y0134446D01*
X0081500Y0133017D01*
X0080908Y0134446D01*
X0079446Y0135908D01*
X0077534Y0136700D01*
X0075466Y0136700D01*
X0073554Y0135908D01*
X0072092Y0134446D01*
X0071300Y0132534D01*
X0071300Y0130466D01*
X0072092Y0128554D01*
X0073554Y0127092D01*
X0075466Y0126300D01*
X0077534Y0126300D01*
X0079446Y0127092D01*
X0080908Y0128554D01*
X0081500Y0129983D01*
X0082092Y0128554D01*
X0083554Y0127092D01*
X0085466Y0126300D01*
X0087534Y0126300D01*
X0089446Y0127092D01*
X0090908Y0128554D01*
X0091500Y0129983D01*
X0092092Y0128554D01*
X0092500Y0128146D01*
X0092500Y0114854D01*
X0092092Y0114446D01*
X0091500Y0113017D01*
X0090908Y0114446D01*
X0089446Y0115908D01*
X0087534Y0116700D01*
X0085466Y0116700D01*
X0083554Y0115908D01*
X0082092Y0114446D01*
X0081500Y0113017D01*
X0080908Y0114446D01*
X0079446Y0115908D01*
X0077534Y0116700D01*
X0075466Y0116700D01*
X0073554Y0115908D01*
X0072092Y0114446D01*
X0071300Y0112534D01*
X0071300Y0110466D01*
X0072092Y0108554D01*
X0073554Y0107092D01*
X0075466Y0106300D01*
X0077534Y0106300D01*
X0079446Y0107092D01*
X0080908Y0108554D01*
X0081500Y0109983D01*
X0082092Y0108554D01*
X0083554Y0107092D01*
X0085466Y0106300D01*
X0087534Y0106300D01*
X0089446Y0107092D01*
X0090908Y0108554D01*
X0091500Y0109983D01*
X0092092Y0108554D01*
X0093554Y0107092D01*
X0095466Y0106300D01*
X0097534Y0106300D01*
X0099446Y0107092D01*
X0100908Y0108554D01*
X0101500Y0109983D01*
X0102092Y0108554D01*
X0103554Y0107092D01*
X0105466Y0106300D01*
X0107534Y0106300D01*
X0109446Y0107092D01*
X0110908Y0108554D01*
X0111500Y0109983D01*
X0112092Y0108554D01*
X0113400Y0107246D01*
X0113400Y0102784D01*
X0109645Y0099029D01*
X0086681Y0099029D01*
X0086681Y0100094D01*
X0085802Y0100972D01*
X0079048Y0100972D01*
X0078169Y0100094D01*
X0078169Y0091764D01*
X0079048Y0090886D01*
X0085802Y0090886D01*
X0086681Y0091764D01*
X0086681Y0092829D01*
X0111546Y0092829D01*
X0112685Y0093301D01*
X0113557Y0094173D01*
X0118256Y0098872D01*
X0119128Y0099744D01*
X0119600Y0100883D01*
X0119600Y0107246D01*
X0120908Y0108554D01*
X0121500Y0109983D01*
X0122092Y0108554D01*
X0123554Y0107092D01*
X0125466Y0106300D01*
X0127534Y0106300D01*
X0129446Y0107092D01*
X0130908Y0108554D01*
X0131500Y0109983D01*
X0132092Y0108554D01*
X0133554Y0107092D01*
X0135466Y0106300D01*
X0137316Y0106300D01*
X0143872Y0099744D01*
X0144016Y0099600D01*
X0140883Y0099600D01*
X0139744Y0099128D01*
X0138872Y0098256D01*
X0133872Y0093256D01*
X0133400Y0092117D01*
X0133400Y0045754D01*
X0132092Y0044446D01*
X0131500Y0043017D01*
X0130908Y0044446D01*
X0129446Y0045908D01*
X0127534Y0046700D01*
X0125466Y0046700D01*
X0123554Y0045908D01*
X0122092Y0044446D01*
X0121500Y0043017D01*
X0120908Y0044446D01*
X0119446Y0045908D01*
X0119200Y0046010D01*
X0119200Y0052037D01*
X0118789Y0053029D01*
X0103029Y0068789D01*
X0097581Y0073393D02*
X0133400Y0073393D01*
X0133400Y0074391D02*
X0099036Y0074391D01*
X0099595Y0075390D02*
X0133400Y0075390D01*
X0133400Y0076388D02*
X0099784Y0076388D01*
X0099687Y0077387D02*
X0133400Y0077387D01*
X0133400Y0078385D02*
X0099259Y0078385D01*
X0098120Y0079384D02*
X0133400Y0079384D01*
X0133400Y0080382D02*
X0096436Y0080382D01*
X0095437Y0081381D02*
X0133400Y0081381D01*
X0133400Y0082379D02*
X0094439Y0082379D01*
X0093440Y0083378D02*
X0133400Y0083378D01*
X0133400Y0084376D02*
X0072442Y0084376D01*
X0071443Y0085375D02*
X0133400Y0085375D01*
X0133400Y0086373D02*
X0070445Y0086373D01*
X0069446Y0087372D02*
X0133400Y0087372D01*
X0133400Y0088370D02*
X0068448Y0088370D01*
X0067449Y0089369D02*
X0133400Y0089369D01*
X0133400Y0090368D02*
X0066451Y0090368D01*
X0065452Y0091366D02*
X0078568Y0091366D01*
X0078169Y0092365D02*
X0064454Y0092365D01*
X0063455Y0093363D02*
X0078169Y0093363D01*
X0078169Y0094362D02*
X0062457Y0094362D01*
X0061458Y0095360D02*
X0078169Y0095360D01*
X0078169Y0096359D02*
X0060460Y0096359D01*
X0059064Y0097357D02*
X0078169Y0097357D01*
X0078169Y0098356D02*
X0046327Y0098356D01*
X0046327Y0099354D02*
X0078169Y0099354D01*
X0078428Y0100353D02*
X0046327Y0100353D01*
X0046290Y0101351D02*
X0111967Y0101351D01*
X0110969Y0100353D02*
X0086422Y0100353D01*
X0086681Y0099354D02*
X0109970Y0099354D01*
X0112966Y0102350D02*
X0039200Y0102350D01*
X0039200Y0103348D02*
X0113400Y0103348D01*
X0113400Y0104347D02*
X0039200Y0104347D01*
X0039200Y0105345D02*
X0113400Y0105345D01*
X0113400Y0106344D02*
X0107640Y0106344D01*
X0105360Y0106344D02*
X0097640Y0106344D01*
X0095360Y0106344D02*
X0087640Y0106344D01*
X0085360Y0106344D02*
X0077640Y0106344D01*
X0075360Y0106344D02*
X0057640Y0106344D01*
X0055360Y0106344D02*
X0047640Y0106344D01*
X0045360Y0106344D02*
X0039200Y0106344D01*
X0039696Y0107342D02*
X0043304Y0107342D01*
X0042305Y0108341D02*
X0040695Y0108341D01*
X0041233Y0109339D02*
X0041767Y0109339D01*
X0033800Y0106344D02*
X0003700Y0106344D01*
X0003700Y0107342D02*
X0033304Y0107342D01*
X0032305Y0108341D02*
X0003700Y0108341D01*
X0003700Y0109339D02*
X0031767Y0109339D01*
X0031353Y0110338D02*
X0003700Y0110338D01*
X0003700Y0111336D02*
X0031300Y0111336D01*
X0031300Y0112335D02*
X0003700Y0112335D01*
X0003700Y0113333D02*
X0031631Y0113333D01*
X0032045Y0114332D02*
X0003700Y0114332D01*
X0003700Y0115330D02*
X0032500Y0115330D01*
X0032500Y0116329D02*
X0003700Y0116329D01*
X0003700Y0117327D02*
X0032500Y0117327D01*
X0032500Y0118326D02*
X0003700Y0118326D01*
X0003700Y0119324D02*
X0032500Y0119324D01*
X0032500Y0120323D02*
X0003700Y0120323D01*
X0003700Y0121321D02*
X0032500Y0121321D01*
X0032500Y0122320D02*
X0003700Y0122320D01*
X0003700Y0123318D02*
X0032500Y0123318D01*
X0032500Y0124317D02*
X0019739Y0124317D01*
X0018714Y0123944D02*
X0022875Y0125458D01*
X0026267Y0128304D01*
X0026267Y0128304D01*
X0028481Y0132139D01*
X0028481Y0132139D01*
X0029250Y0136500D01*
X0028481Y0140861D01*
X0026267Y0144696D01*
X0022875Y0147542D01*
X0018714Y0149056D01*
X0014286Y0149056D01*
X0010125Y0147542D01*
X0006733Y0144696D01*
X0006733Y0144696D01*
X0004519Y0140861D01*
X0004519Y0140861D01*
X0003750Y0136500D01*
X0004519Y0132139D01*
X0006733Y0128304D01*
X0010125Y0125458D01*
X0014286Y0123944D01*
X0018714Y0123944D01*
X0022483Y0125315D02*
X0032500Y0125315D01*
X0032500Y0126314D02*
X0023895Y0126314D01*
X0022875Y0125458D02*
X0022875Y0125458D01*
X0025085Y0127312D02*
X0032500Y0127312D01*
X0032335Y0128311D02*
X0026271Y0128311D01*
X0026847Y0129309D02*
X0031779Y0129309D01*
X0031365Y0130308D02*
X0027424Y0130308D01*
X0028000Y0131306D02*
X0031300Y0131306D01*
X0031300Y0132305D02*
X0028510Y0132305D01*
X0028686Y0133303D02*
X0031619Y0133303D01*
X0032032Y0134302D02*
X0028862Y0134302D01*
X0029038Y0135301D02*
X0032947Y0135301D01*
X0033400Y0136299D02*
X0029215Y0136299D01*
X0029109Y0137298D02*
X0033475Y0137298D01*
X0033912Y0138296D02*
X0028933Y0138296D01*
X0028757Y0139295D02*
X0034911Y0139295D01*
X0035909Y0140293D02*
X0028581Y0140293D01*
X0028481Y0140861D02*
X0028481Y0140861D01*
X0028232Y0141292D02*
X0036908Y0141292D01*
X0037906Y0142290D02*
X0027656Y0142290D01*
X0027079Y0143289D02*
X0038905Y0143289D01*
X0039903Y0144287D02*
X0026503Y0144287D01*
X0026267Y0144696D02*
X0026267Y0144696D01*
X0026267Y0144696D01*
X0025564Y0145286D02*
X0040902Y0145286D01*
X0041900Y0146284D02*
X0024374Y0146284D01*
X0023184Y0147283D02*
X0042899Y0147283D01*
X0043897Y0148281D02*
X0020844Y0148281D01*
X0022875Y0147542D02*
X0022875Y0147542D01*
X0012156Y0148281D02*
X0003700Y0148281D01*
X0003700Y0147283D02*
X0009816Y0147283D01*
X0010125Y0147542D02*
X0010125Y0147542D01*
X0008626Y0146284D02*
X0003700Y0146284D01*
X0003700Y0145286D02*
X0007436Y0145286D01*
X0006497Y0144287D02*
X0003700Y0144287D01*
X0003700Y0143289D02*
X0005921Y0143289D01*
X0005344Y0142290D02*
X0003700Y0142290D01*
X0003700Y0141292D02*
X0004768Y0141292D01*
X0004419Y0140293D02*
X0003700Y0140293D01*
X0003700Y0139295D02*
X0004243Y0139295D01*
X0004067Y0138296D02*
X0003700Y0138296D01*
X0003700Y0137298D02*
X0003891Y0137298D01*
X0003785Y0136299D02*
X0003700Y0136299D01*
X0003700Y0135301D02*
X0003961Y0135301D01*
X0004138Y0134302D02*
X0003700Y0134302D01*
X0003700Y0133303D02*
X0004314Y0133303D01*
X0004490Y0132305D02*
X0003700Y0132305D01*
X0004519Y0132139D02*
X0004519Y0132139D01*
X0005000Y0131306D02*
X0003700Y0131306D01*
X0003700Y0130308D02*
X0005576Y0130308D01*
X0006153Y0129309D02*
X0003700Y0129309D01*
X0003700Y0128311D02*
X0006729Y0128311D01*
X0007915Y0127312D02*
X0003700Y0127312D01*
X0003700Y0126314D02*
X0009105Y0126314D01*
X0010125Y0125458D02*
X0010125Y0125458D01*
X0010517Y0125315D02*
X0003700Y0125315D01*
X0003700Y0124317D02*
X0013261Y0124317D01*
X0040053Y0135301D02*
X0042947Y0135301D01*
X0042032Y0134302D02*
X0040968Y0134302D01*
X0041381Y0133303D02*
X0041619Y0133303D01*
X0040683Y0136299D02*
X0044498Y0136299D01*
X0042680Y0138296D02*
X0093912Y0138296D01*
X0093475Y0137298D02*
X0041682Y0137298D01*
X0043679Y0139295D02*
X0094911Y0139295D01*
X0095909Y0140293D02*
X0044677Y0140293D01*
X0045676Y0141292D02*
X0096908Y0141292D01*
X0097906Y0142290D02*
X0046674Y0142290D01*
X0047673Y0143289D02*
X0098905Y0143289D01*
X0102784Y0138400D02*
X0115402Y0138400D01*
X0115847Y0138216D01*
X0117153Y0138216D01*
X0118360Y0138716D01*
X0119284Y0139640D01*
X0119784Y0140847D01*
X0119784Y0142153D01*
X0119284Y0143360D01*
X0119245Y0143400D01*
X0170216Y0143400D01*
X0173400Y0140216D01*
X0173400Y0135754D01*
X0172092Y0134446D01*
X0171300Y0132534D01*
X0171300Y0130466D01*
X0172092Y0128554D01*
X0173554Y0127092D01*
X0175466Y0126300D01*
X0177534Y0126300D01*
X0179446Y0127092D01*
X0180908Y0128554D01*
X0181500Y0129983D01*
X0182092Y0128554D01*
X0183131Y0127515D01*
X0180216Y0124600D01*
X0162784Y0124600D01*
X0153256Y0134128D01*
X0152117Y0134600D01*
X0150754Y0134600D01*
X0149446Y0135908D01*
X0147534Y0136700D01*
X0145466Y0136700D01*
X0143554Y0135908D01*
X0142092Y0134446D01*
X0141500Y0133017D01*
X0140908Y0134446D01*
X0139446Y0135908D01*
X0137534Y0136700D01*
X0135466Y0136700D01*
X0133554Y0135908D01*
X0132092Y0134446D01*
X0131500Y0133017D01*
X0130908Y0134446D01*
X0129446Y0135908D01*
X0127534Y0136700D01*
X0125466Y0136700D01*
X0123554Y0135908D01*
X0122092Y0134446D01*
X0121500Y0133017D01*
X0120908Y0134446D01*
X0119446Y0135908D01*
X0117534Y0136700D01*
X0115466Y0136700D01*
X0113554Y0135908D01*
X0112092Y0134446D01*
X0111500Y0133017D01*
X0110908Y0134446D01*
X0109446Y0135908D01*
X0107534Y0136700D01*
X0105466Y0136700D01*
X0103554Y0135908D01*
X0102092Y0134446D01*
X0101500Y0133017D01*
X0100908Y0134446D01*
X0099869Y0135485D01*
X0102784Y0138400D01*
X0102680Y0138296D02*
X0115653Y0138296D01*
X0117347Y0138296D02*
X0173400Y0138296D01*
X0173400Y0137298D02*
X0101682Y0137298D01*
X0100683Y0136299D02*
X0104498Y0136299D01*
X0102947Y0135301D02*
X0100053Y0135301D01*
X0100968Y0134302D02*
X0102032Y0134302D01*
X0101619Y0133303D02*
X0101381Y0133303D01*
X0108502Y0136299D02*
X0114498Y0136299D01*
X0112947Y0135301D02*
X0110053Y0135301D01*
X0110968Y0134302D02*
X0112032Y0134302D01*
X0111619Y0133303D02*
X0111381Y0133303D01*
X0118502Y0136299D02*
X0124498Y0136299D01*
X0122947Y0135301D02*
X0120053Y0135301D01*
X0120968Y0134302D02*
X0122032Y0134302D01*
X0121619Y0133303D02*
X0121381Y0133303D01*
X0128502Y0136299D02*
X0134498Y0136299D01*
X0132947Y0135301D02*
X0130053Y0135301D01*
X0130968Y0134302D02*
X0132032Y0134302D01*
X0131619Y0133303D02*
X0131381Y0133303D01*
X0138502Y0136299D02*
X0144498Y0136299D01*
X0142947Y0135301D02*
X0140053Y0135301D01*
X0140968Y0134302D02*
X0142032Y0134302D01*
X0141619Y0133303D02*
X0141381Y0133303D01*
X0148502Y0136299D02*
X0173400Y0136299D01*
X0172947Y0135301D02*
X0150053Y0135301D01*
X0152836Y0134302D02*
X0172032Y0134302D01*
X0171619Y0133303D02*
X0154081Y0133303D01*
X0155079Y0132305D02*
X0171300Y0132305D01*
X0171300Y0131306D02*
X0156078Y0131306D01*
X0157076Y0130308D02*
X0171365Y0130308D01*
X0171779Y0129309D02*
X0158075Y0129309D01*
X0159073Y0128311D02*
X0172335Y0128311D01*
X0173334Y0127312D02*
X0160072Y0127312D01*
X0161070Y0126314D02*
X0175432Y0126314D01*
X0177568Y0126314D02*
X0181930Y0126314D01*
X0182928Y0127312D02*
X0179666Y0127312D01*
X0180665Y0128311D02*
X0182335Y0128311D01*
X0181779Y0129309D02*
X0181221Y0129309D01*
X0181381Y0133303D02*
X0181619Y0133303D01*
X0182032Y0134302D02*
X0180968Y0134302D01*
X0180053Y0135301D02*
X0182947Y0135301D01*
X0184498Y0136299D02*
X0179600Y0136299D01*
X0179600Y0137298D02*
X0212934Y0137298D01*
X0213320Y0138296D02*
X0179600Y0138296D01*
X0173400Y0139295D02*
X0118939Y0139295D01*
X0119555Y0140293D02*
X0173323Y0140293D01*
X0172324Y0141292D02*
X0119784Y0141292D01*
X0119728Y0142290D02*
X0171326Y0142290D01*
X0170327Y0143289D02*
X0119314Y0143289D01*
X0093400Y0136299D02*
X0088502Y0136299D01*
X0090053Y0135301D02*
X0092947Y0135301D01*
X0092032Y0134302D02*
X0090968Y0134302D01*
X0091381Y0133303D02*
X0091619Y0133303D01*
X0084498Y0136299D02*
X0078502Y0136299D01*
X0080053Y0135301D02*
X0082947Y0135301D01*
X0082032Y0134302D02*
X0080968Y0134302D01*
X0081381Y0133303D02*
X0081619Y0133303D01*
X0074498Y0136299D02*
X0058502Y0136299D01*
X0060053Y0135301D02*
X0072947Y0135301D01*
X0072032Y0134302D02*
X0060968Y0134302D01*
X0061381Y0133303D02*
X0071619Y0133303D01*
X0071300Y0132305D02*
X0061700Y0132305D01*
X0061700Y0131306D02*
X0071300Y0131306D01*
X0071365Y0130308D02*
X0061635Y0130308D01*
X0061221Y0129309D02*
X0071779Y0129309D01*
X0072335Y0128311D02*
X0060665Y0128311D01*
X0060500Y0127312D02*
X0073334Y0127312D01*
X0075432Y0126314D02*
X0060500Y0126314D01*
X0060500Y0125315D02*
X0092500Y0125315D01*
X0092500Y0124317D02*
X0060500Y0124317D01*
X0060500Y0123318D02*
X0092500Y0123318D01*
X0092500Y0122320D02*
X0060500Y0122320D01*
X0060500Y0121321D02*
X0092500Y0121321D01*
X0092500Y0120323D02*
X0060500Y0120323D01*
X0060500Y0119324D02*
X0092500Y0119324D01*
X0092500Y0118326D02*
X0060500Y0118326D01*
X0060500Y0117327D02*
X0092500Y0117327D01*
X0092500Y0116329D02*
X0088430Y0116329D01*
X0090024Y0115330D02*
X0092500Y0115330D01*
X0092045Y0114332D02*
X0090955Y0114332D01*
X0091369Y0113333D02*
X0091631Y0113333D01*
X0084570Y0116329D02*
X0078430Y0116329D01*
X0080024Y0115330D02*
X0082976Y0115330D01*
X0082045Y0114332D02*
X0080955Y0114332D01*
X0081369Y0113333D02*
X0081631Y0113333D01*
X0074570Y0116329D02*
X0060500Y0116329D01*
X0060500Y0115330D02*
X0072976Y0115330D01*
X0072045Y0114332D02*
X0060955Y0114332D01*
X0061369Y0113333D02*
X0071631Y0113333D01*
X0071300Y0112335D02*
X0061700Y0112335D01*
X0061700Y0111336D02*
X0071300Y0111336D01*
X0071353Y0110338D02*
X0061647Y0110338D01*
X0061233Y0109339D02*
X0071767Y0109339D01*
X0072305Y0108341D02*
X0060695Y0108341D01*
X0059696Y0107342D02*
X0073304Y0107342D01*
X0079696Y0107342D02*
X0083304Y0107342D01*
X0082305Y0108341D02*
X0080695Y0108341D01*
X0081233Y0109339D02*
X0081767Y0109339D01*
X0089696Y0107342D02*
X0093304Y0107342D01*
X0092305Y0108341D02*
X0090695Y0108341D01*
X0091233Y0109339D02*
X0091767Y0109339D01*
X0099696Y0107342D02*
X0103304Y0107342D01*
X0102305Y0108341D02*
X0100695Y0108341D01*
X0101233Y0109339D02*
X0101767Y0109339D01*
X0109696Y0107342D02*
X0113304Y0107342D01*
X0112305Y0108341D02*
X0110695Y0108341D01*
X0111233Y0109339D02*
X0111767Y0109339D01*
X0119696Y0107342D02*
X0123304Y0107342D01*
X0122305Y0108341D02*
X0120695Y0108341D01*
X0121233Y0109339D02*
X0121767Y0109339D01*
X0119600Y0106344D02*
X0125360Y0106344D01*
X0127640Y0106344D02*
X0135360Y0106344D01*
X0133304Y0107342D02*
X0129696Y0107342D01*
X0130695Y0108341D02*
X0132305Y0108341D01*
X0131767Y0109339D02*
X0131233Y0109339D01*
X0138271Y0105345D02*
X0119600Y0105345D01*
X0119600Y0104347D02*
X0139269Y0104347D01*
X0140268Y0103348D02*
X0119600Y0103348D01*
X0119600Y0102350D02*
X0141266Y0102350D01*
X0142265Y0101351D02*
X0119600Y0101351D01*
X0119380Y0100353D02*
X0143263Y0100353D01*
X0140290Y0099354D02*
X0118738Y0099354D01*
X0118256Y0098872D02*
X0118256Y0098872D01*
X0117740Y0098356D02*
X0138972Y0098356D01*
X0137973Y0097357D02*
X0116741Y0097357D01*
X0115743Y0096359D02*
X0136975Y0096359D01*
X0135976Y0095360D02*
X0114744Y0095360D01*
X0113746Y0094362D02*
X0134977Y0094362D01*
X0133979Y0093363D02*
X0112747Y0093363D01*
X0113557Y0094173D02*
X0113557Y0094173D01*
X0133503Y0092365D02*
X0086681Y0092365D01*
X0086283Y0091366D02*
X0133400Y0091366D01*
X0149759Y0085375D02*
X0163411Y0085375D01*
X0163216Y0086373D02*
X0150758Y0086373D01*
X0151756Y0087372D02*
X0163306Y0087372D01*
X0163726Y0088370D02*
X0152755Y0088370D01*
X0149600Y0084376D02*
X0163979Y0084376D01*
X0165455Y0083378D02*
X0149600Y0083378D01*
X0168514Y0089130D02*
X0169045Y0088600D01*
X0182370Y0088600D01*
X0187370Y0083600D01*
X0188400Y0082570D01*
X0188400Y0095216D01*
X0187716Y0095900D01*
X0187598Y0095900D01*
X0187153Y0095716D01*
X0185847Y0095716D01*
X0184640Y0096216D01*
X0183716Y0097140D01*
X0183216Y0098347D01*
X0183216Y0099653D01*
X0183716Y0100860D01*
X0184640Y0101784D01*
X0185847Y0102284D01*
X0187153Y0102284D01*
X0187598Y0102100D01*
X0189617Y0102100D01*
X0190756Y0101628D01*
X0193256Y0099128D01*
X0194128Y0098256D01*
X0194600Y0097117D01*
X0194600Y0089202D01*
X0195367Y0089968D01*
X0196241Y0089968D01*
X0196241Y0093929D01*
X0196063Y0094107D01*
X0196063Y0098893D01*
X0196942Y0099772D01*
X0200940Y0099772D01*
X0201500Y0099212D01*
X0202060Y0099772D01*
X0206058Y0099772D01*
X0206630Y0099200D01*
X0221370Y0099200D01*
X0221942Y0099772D01*
X0225940Y0099772D01*
X0226359Y0099353D01*
X0226359Y0100257D01*
X0223216Y0103400D01*
X0182784Y0103400D01*
X0168514Y0089130D01*
X0168753Y0089369D02*
X0188400Y0089369D01*
X0188400Y0088370D02*
X0182599Y0088370D01*
X0183598Y0087372D02*
X0188400Y0087372D01*
X0188400Y0086373D02*
X0184596Y0086373D01*
X0185595Y0085375D02*
X0188400Y0085375D01*
X0188400Y0084376D02*
X0186593Y0084376D01*
X0187592Y0083378D02*
X0188400Y0083378D01*
X0194600Y0083378D02*
X0195020Y0083378D01*
X0194600Y0082379D02*
X0209115Y0082379D01*
X0209115Y0081381D02*
X0194600Y0081381D01*
X0194600Y0080382D02*
X0209115Y0080382D01*
X0209115Y0079384D02*
X0194600Y0079384D01*
X0194600Y0078385D02*
X0209115Y0078385D01*
X0208755Y0077387D02*
X0194600Y0077387D01*
X0194600Y0076388D02*
X0208543Y0076388D01*
X0208619Y0075390D02*
X0204177Y0075390D01*
X0203904Y0075663D02*
X0203904Y0075663D01*
X0205663Y0073904D01*
X0205663Y0073904D01*
X0206307Y0071500D01*
X0205663Y0069096D01*
X0203904Y0067337D01*
X0203904Y0067337D01*
X0201500Y0066693D01*
X0201500Y0066693D01*
X0199096Y0067337D01*
X0199096Y0067337D01*
X0197337Y0069096D01*
X0197337Y0069096D01*
X0196693Y0071500D01*
X0196693Y0071500D01*
X0197337Y0073904D01*
X0197337Y0073904D01*
X0199096Y0075663D01*
X0199096Y0075663D01*
X0201500Y0076307D01*
X0201500Y0076307D01*
X0203904Y0075663D01*
X0205175Y0074391D02*
X0209033Y0074391D01*
X0210102Y0073393D02*
X0205800Y0073393D01*
X0206067Y0072394D02*
X0217519Y0072394D01*
X0217519Y0071396D02*
X0206279Y0071396D01*
X0206012Y0070397D02*
X0218178Y0070397D01*
X0217519Y0073393D02*
X0213528Y0073393D01*
X0214597Y0074391D02*
X0217519Y0074391D01*
X0215010Y0075390D02*
X0251700Y0075390D01*
X0251700Y0074391D02*
X0241102Y0074391D01*
X0242252Y0073393D02*
X0243640Y0073393D01*
X0237898Y0074391D02*
X0236861Y0074391D01*
X0239638Y0078385D02*
X0251181Y0078385D01*
X0251181Y0077387D02*
X0214875Y0077387D01*
X0215087Y0076388D02*
X0251181Y0076388D01*
X0251181Y0079384D02*
X0240637Y0079384D01*
X0241635Y0080382D02*
X0251181Y0080382D01*
X0246289Y0081381D02*
X0242634Y0081381D01*
X0238125Y0083378D02*
X0237545Y0083378D01*
X0239021Y0084376D02*
X0239124Y0084376D01*
X0239589Y0085375D02*
X0240122Y0085375D01*
X0239784Y0086373D02*
X0246063Y0086373D01*
X0246063Y0087372D02*
X0239694Y0087372D01*
X0239274Y0088370D02*
X0246063Y0088370D01*
X0246063Y0089369D02*
X0238156Y0089369D01*
X0234844Y0089369D02*
X0231461Y0089369D01*
X0231359Y0090368D02*
X0246063Y0090368D01*
X0246063Y0091366D02*
X0231359Y0091366D01*
X0231359Y0092365D02*
X0246535Y0092365D01*
X0245035Y0093363D02*
X0231359Y0093363D01*
X0231937Y0094362D02*
X0244488Y0094362D01*
X0244488Y0095360D02*
X0231937Y0095360D01*
X0231937Y0096359D02*
X0244488Y0096359D01*
X0244488Y0097357D02*
X0231937Y0097357D01*
X0231937Y0098356D02*
X0244488Y0098356D01*
X0244752Y0099354D02*
X0231759Y0099354D01*
X0231759Y0100353D02*
X0283000Y0100353D01*
X0283000Y0101351D02*
X0232087Y0101351D01*
X0232100Y0102350D02*
X0283064Y0102350D01*
X0283477Y0103348D02*
X0268236Y0103348D01*
X0269049Y0103685D02*
X0267395Y0103000D01*
X0265605Y0103000D01*
X0263951Y0103685D01*
X0262685Y0104951D01*
X0262000Y0106605D01*
X0262000Y0114395D01*
X0262685Y0116049D01*
X0263951Y0117315D01*
X0265605Y0118000D01*
X0267395Y0118000D01*
X0269049Y0117315D01*
X0270315Y0116049D01*
X0271000Y0114395D01*
X0271000Y0106605D01*
X0270315Y0104951D01*
X0269049Y0103685D01*
X0269711Y0104347D02*
X0284397Y0104347D01*
X0285395Y0105345D02*
X0270478Y0105345D01*
X0270892Y0106344D02*
X0349300Y0106344D01*
X0349300Y0107342D02*
X0271000Y0107342D01*
X0271000Y0108341D02*
X0349300Y0108341D01*
X0349300Y0109339D02*
X0271000Y0109339D01*
X0271000Y0110338D02*
X0349300Y0110338D01*
X0349300Y0111336D02*
X0271000Y0111336D01*
X0271000Y0112335D02*
X0349300Y0112335D01*
X0349300Y0113333D02*
X0271000Y0113333D01*
X0271000Y0114332D02*
X0349300Y0114332D01*
X0349300Y0115330D02*
X0329814Y0115330D01*
X0329720Y0115236D02*
X0330598Y0116115D01*
X0330598Y0123657D01*
X0329720Y0124535D01*
X0315091Y0124535D01*
X0314213Y0123657D01*
X0314213Y0116115D01*
X0315091Y0115236D01*
X0329720Y0115236D01*
X0330598Y0116329D02*
X0349300Y0116329D01*
X0349300Y0117327D02*
X0330598Y0117327D01*
X0330598Y0118326D02*
X0349300Y0118326D01*
X0349300Y0119324D02*
X0330598Y0119324D01*
X0330598Y0120323D02*
X0349300Y0120323D01*
X0349300Y0121321D02*
X0330598Y0121321D01*
X0330598Y0122320D02*
X0349300Y0122320D01*
X0349300Y0123318D02*
X0330598Y0123318D01*
X0329938Y0124317D02*
X0333261Y0124317D01*
X0334286Y0123944D02*
X0338714Y0123944D01*
X0342875Y0125458D01*
X0346267Y0128304D01*
X0346267Y0128304D01*
X0348481Y0132139D01*
X0348481Y0132139D01*
X0349250Y0136500D01*
X0348481Y0140861D01*
X0346267Y0144696D01*
X0342875Y0147542D01*
X0338714Y0149056D01*
X0334286Y0149056D01*
X0330125Y0147542D01*
X0326733Y0144696D01*
X0326733Y0144696D01*
X0324519Y0140861D01*
X0324519Y0140861D01*
X0323750Y0136500D01*
X0323750Y0136500D01*
X0324519Y0132139D01*
X0326733Y0128304D01*
X0330125Y0125458D01*
X0334286Y0123944D01*
X0330517Y0125315D02*
X0270466Y0125315D01*
X0270315Y0124951D02*
X0271000Y0126605D01*
X0271000Y0134395D01*
X0270315Y0136049D01*
X0269049Y0137315D01*
X0267395Y0138000D01*
X0265605Y0138000D01*
X0263951Y0137315D01*
X0262685Y0136049D01*
X0262000Y0134395D01*
X0262000Y0126605D01*
X0262685Y0124951D01*
X0263951Y0123685D01*
X0265605Y0123000D01*
X0267395Y0123000D01*
X0269049Y0123685D01*
X0270315Y0124951D01*
X0269681Y0124317D02*
X0314873Y0124317D01*
X0314213Y0123318D02*
X0268164Y0123318D01*
X0264836Y0123318D02*
X0259600Y0123318D01*
X0259600Y0122320D02*
X0314213Y0122320D01*
X0314213Y0121321D02*
X0259600Y0121321D01*
X0259600Y0120323D02*
X0314213Y0120323D01*
X0314213Y0119324D02*
X0259600Y0119324D01*
X0259600Y0118326D02*
X0314213Y0118326D01*
X0314213Y0117327D02*
X0269019Y0117327D01*
X0270035Y0116329D02*
X0314213Y0116329D01*
X0314997Y0115330D02*
X0270613Y0115330D01*
X0263981Y0117327D02*
X0260037Y0117327D01*
X0260613Y0116329D02*
X0262965Y0116329D01*
X0262387Y0115330D02*
X0261000Y0115330D01*
X0261000Y0114332D02*
X0262000Y0114332D01*
X0262000Y0113333D02*
X0261000Y0113333D01*
X0261000Y0112335D02*
X0262000Y0112335D01*
X0262000Y0111336D02*
X0261000Y0111336D01*
X0261000Y0110338D02*
X0262000Y0110338D01*
X0262000Y0109339D02*
X0261000Y0109339D01*
X0261000Y0108341D02*
X0262000Y0108341D01*
X0262000Y0107342D02*
X0260891Y0107342D01*
X0260478Y0106344D02*
X0262108Y0106344D01*
X0262522Y0105345D02*
X0259709Y0105345D01*
X0258232Y0104347D02*
X0263289Y0104347D01*
X0264764Y0103348D02*
X0231797Y0103348D01*
X0231037Y0104347D02*
X0254768Y0104347D01*
X0253291Y0105345D02*
X0230039Y0105345D01*
X0229040Y0106344D02*
X0252522Y0106344D01*
X0252109Y0107342D02*
X0228042Y0107342D01*
X0227043Y0108341D02*
X0252000Y0108341D01*
X0252000Y0109339D02*
X0225746Y0109339D01*
X0224722Y0110338D02*
X0252000Y0110338D01*
X0252000Y0111336D02*
X0225720Y0111336D01*
X0226719Y0112335D02*
X0252000Y0112335D01*
X0252000Y0113333D02*
X0227717Y0113333D01*
X0228716Y0114332D02*
X0252000Y0114332D01*
X0252000Y0115330D02*
X0229371Y0115330D01*
X0229600Y0116329D02*
X0252387Y0116329D01*
X0252963Y0117327D02*
X0229600Y0117327D01*
X0229600Y0118326D02*
X0253400Y0118326D01*
X0253400Y0119324D02*
X0229600Y0119324D01*
X0229600Y0120323D02*
X0253400Y0120323D01*
X0253400Y0121321D02*
X0229600Y0121321D01*
X0229600Y0122320D02*
X0253400Y0122320D01*
X0253400Y0123318D02*
X0229600Y0123318D01*
X0229681Y0124317D02*
X0253400Y0124317D01*
X0253321Y0125315D02*
X0230466Y0125315D01*
X0230879Y0126314D02*
X0252535Y0126314D01*
X0252121Y0127312D02*
X0231000Y0127312D01*
X0231000Y0128311D02*
X0252000Y0128311D01*
X0252000Y0129309D02*
X0231000Y0129309D01*
X0231000Y0130308D02*
X0252000Y0130308D01*
X0252000Y0131306D02*
X0231000Y0131306D01*
X0231000Y0132305D02*
X0252000Y0132305D01*
X0252000Y0133303D02*
X0231000Y0133303D01*
X0231000Y0134302D02*
X0252000Y0134302D01*
X0252000Y0135301D02*
X0230625Y0135301D01*
X0230065Y0136299D02*
X0252374Y0136299D01*
X0252934Y0137298D02*
X0229066Y0137298D01*
X0223934Y0137298D02*
X0220066Y0137298D01*
X0219600Y0138296D02*
X0253400Y0138296D01*
X0259600Y0138296D02*
X0324067Y0138296D01*
X0324243Y0139295D02*
X0259600Y0139295D01*
X0259600Y0140293D02*
X0324419Y0140293D01*
X0324768Y0141292D02*
X0259320Y0141292D01*
X0258594Y0142290D02*
X0325344Y0142290D01*
X0325921Y0143289D02*
X0257595Y0143289D01*
X0256372Y0144287D02*
X0326497Y0144287D01*
X0327436Y0145286D02*
X0177098Y0145286D01*
X0176100Y0146284D02*
X0328626Y0146284D01*
X0329816Y0147283D02*
X0175101Y0147283D01*
X0174128Y0148256D02*
X0174128Y0148256D01*
X0174103Y0148281D02*
X0332156Y0148281D01*
X0330125Y0147542D02*
X0330125Y0147542D01*
X0340844Y0148281D02*
X0349300Y0148281D01*
X0349300Y0147283D02*
X0343184Y0147283D01*
X0342875Y0147542D02*
X0342875Y0147542D01*
X0344374Y0146284D02*
X0349300Y0146284D01*
X0349300Y0145286D02*
X0345564Y0145286D01*
X0346267Y0144696D02*
X0346267Y0144696D01*
X0346267Y0144696D01*
X0346503Y0144287D02*
X0349300Y0144287D01*
X0349300Y0143289D02*
X0347079Y0143289D01*
X0347656Y0142290D02*
X0349300Y0142290D01*
X0349300Y0141292D02*
X0348232Y0141292D01*
X0348481Y0140861D02*
X0348481Y0140861D01*
X0348581Y0140293D02*
X0349300Y0140293D01*
X0349300Y0139295D02*
X0348757Y0139295D01*
X0348933Y0138296D02*
X0349300Y0138296D01*
X0349300Y0137298D02*
X0349109Y0137298D01*
X0349215Y0136299D02*
X0349300Y0136299D01*
X0349300Y0135301D02*
X0349038Y0135301D01*
X0348862Y0134302D02*
X0349300Y0134302D01*
X0349300Y0133303D02*
X0348686Y0133303D01*
X0348510Y0132305D02*
X0349300Y0132305D01*
X0349300Y0131306D02*
X0348000Y0131306D01*
X0347424Y0130308D02*
X0349300Y0130308D01*
X0349300Y0129309D02*
X0346847Y0129309D01*
X0346271Y0128311D02*
X0349300Y0128311D01*
X0349300Y0127312D02*
X0345085Y0127312D01*
X0343895Y0126314D02*
X0349300Y0126314D01*
X0349300Y0125315D02*
X0342483Y0125315D01*
X0342875Y0125458D02*
X0342875Y0125458D01*
X0339739Y0124317D02*
X0349300Y0124317D01*
X0330125Y0125458D02*
X0330125Y0125458D01*
X0329105Y0126314D02*
X0270879Y0126314D01*
X0271000Y0127312D02*
X0327915Y0127312D01*
X0326733Y0128304D02*
X0326733Y0128304D01*
X0326733Y0128304D01*
X0326729Y0128311D02*
X0271000Y0128311D01*
X0271000Y0129309D02*
X0326153Y0129309D01*
X0325576Y0130308D02*
X0271000Y0130308D01*
X0271000Y0131306D02*
X0325000Y0131306D01*
X0324519Y0132139D02*
X0324519Y0132139D01*
X0324490Y0132305D02*
X0271000Y0132305D01*
X0271000Y0133303D02*
X0324314Y0133303D01*
X0324138Y0134302D02*
X0271000Y0134302D01*
X0270625Y0135301D02*
X0323961Y0135301D01*
X0323785Y0136299D02*
X0270065Y0136299D01*
X0269066Y0137298D02*
X0323891Y0137298D01*
X0349300Y0149280D02*
X0172890Y0149280D01*
X0188502Y0136299D02*
X0194498Y0136299D01*
X0192947Y0135301D02*
X0190053Y0135301D01*
X0190968Y0134302D02*
X0192032Y0134302D01*
X0191619Y0133303D02*
X0191381Y0133303D01*
X0198502Y0136299D02*
X0212374Y0136299D01*
X0212000Y0135301D02*
X0200053Y0135301D01*
X0200968Y0134302D02*
X0212000Y0134302D01*
X0212000Y0133303D02*
X0201381Y0133303D01*
X0201700Y0132305D02*
X0212000Y0132305D01*
X0212000Y0131306D02*
X0201700Y0131306D01*
X0201635Y0130308D02*
X0212000Y0130308D01*
X0212000Y0129309D02*
X0201221Y0129309D01*
X0200665Y0128311D02*
X0212000Y0128311D01*
X0212121Y0127312D02*
X0199666Y0127312D01*
X0199600Y0126314D02*
X0212535Y0126314D01*
X0213321Y0125315D02*
X0199600Y0125315D01*
X0199600Y0124317D02*
X0214840Y0124317D01*
X0218160Y0124317D02*
X0223319Y0124317D01*
X0223400Y0123318D02*
X0199600Y0123318D01*
X0199600Y0122320D02*
X0223400Y0122320D01*
X0223400Y0121321D02*
X0199600Y0121321D01*
X0199368Y0120323D02*
X0223400Y0120323D01*
X0223400Y0119324D02*
X0198708Y0119324D01*
X0197710Y0118326D02*
X0223400Y0118326D01*
X0222943Y0117327D02*
X0196711Y0117327D01*
X0195713Y0116329D02*
X0221945Y0116329D01*
X0220946Y0115330D02*
X0194714Y0115330D01*
X0180931Y0125315D02*
X0162069Y0125315D01*
X0157295Y0121321D02*
X0150500Y0121321D01*
X0150500Y0120323D02*
X0158293Y0120323D01*
X0158872Y0119744D02*
X0159744Y0118872D01*
X0160883Y0118400D01*
X0169016Y0118400D01*
X0168872Y0118256D01*
X0155216Y0104600D01*
X0147784Y0104600D01*
X0146084Y0106300D01*
X0147534Y0106300D01*
X0149446Y0107092D01*
X0150908Y0108554D01*
X0151700Y0110466D01*
X0151700Y0112534D01*
X0150908Y0114446D01*
X0150500Y0114854D01*
X0150500Y0128116D01*
X0158872Y0119744D01*
X0159292Y0119324D02*
X0150500Y0119324D01*
X0150500Y0118326D02*
X0168942Y0118326D01*
X0167943Y0117327D02*
X0150500Y0117327D01*
X0150500Y0116329D02*
X0166945Y0116329D01*
X0165946Y0115330D02*
X0150500Y0115330D01*
X0150955Y0114332D02*
X0164948Y0114332D01*
X0163949Y0113333D02*
X0151369Y0113333D01*
X0151700Y0112335D02*
X0162951Y0112335D01*
X0161952Y0111336D02*
X0151700Y0111336D01*
X0151647Y0110338D02*
X0160954Y0110338D01*
X0159955Y0109339D02*
X0151233Y0109339D01*
X0150695Y0108341D02*
X0158957Y0108341D01*
X0157958Y0107342D02*
X0149696Y0107342D01*
X0147640Y0106344D02*
X0156960Y0106344D01*
X0155961Y0105345D02*
X0147039Y0105345D01*
X0172747Y0093363D02*
X0188400Y0093363D01*
X0188400Y0092365D02*
X0171749Y0092365D01*
X0170750Y0091366D02*
X0188400Y0091366D01*
X0188400Y0090368D02*
X0169752Y0090368D01*
X0173746Y0094362D02*
X0188400Y0094362D01*
X0188256Y0095360D02*
X0174744Y0095360D01*
X0175743Y0096359D02*
X0184497Y0096359D01*
X0183626Y0097357D02*
X0176741Y0097357D01*
X0177740Y0098356D02*
X0183216Y0098356D01*
X0183216Y0099354D02*
X0178738Y0099354D01*
X0179737Y0100353D02*
X0183505Y0100353D01*
X0184207Y0101351D02*
X0180735Y0101351D01*
X0181734Y0102350D02*
X0224266Y0102350D01*
X0223268Y0103348D02*
X0182732Y0103348D01*
X0191033Y0101351D02*
X0225265Y0101351D01*
X0226263Y0100353D02*
X0192031Y0100353D01*
X0193030Y0099354D02*
X0196524Y0099354D01*
X0196063Y0098356D02*
X0194028Y0098356D01*
X0194500Y0097357D02*
X0196063Y0097357D01*
X0196063Y0096359D02*
X0194600Y0096359D01*
X0194600Y0095360D02*
X0196063Y0095360D01*
X0196063Y0094362D02*
X0194600Y0094362D01*
X0194600Y0093363D02*
X0196241Y0093363D01*
X0196241Y0092365D02*
X0194600Y0092365D01*
X0194600Y0091366D02*
X0196241Y0091366D01*
X0196241Y0090368D02*
X0194600Y0090368D01*
X0194600Y0089369D02*
X0194767Y0089369D01*
X0201641Y0090368D02*
X0221641Y0090368D01*
X0221641Y0091366D02*
X0201641Y0091366D01*
X0201641Y0092365D02*
X0221641Y0092365D01*
X0221641Y0093363D02*
X0206193Y0093363D01*
X0201925Y0093363D02*
X0201641Y0093363D01*
X0201642Y0099354D02*
X0201358Y0099354D01*
X0206476Y0099354D02*
X0221524Y0099354D01*
X0226358Y0099354D02*
X0226359Y0099354D01*
X0221539Y0089369D02*
X0208233Y0089369D01*
X0213448Y0088370D02*
X0220118Y0088370D01*
X0219119Y0087372D02*
X0214246Y0087372D01*
X0214515Y0086373D02*
X0218700Y0086373D01*
X0218700Y0085375D02*
X0214515Y0085375D01*
X0214515Y0084376D02*
X0218700Y0084376D01*
X0218700Y0083378D02*
X0214515Y0083378D01*
X0214515Y0082379D02*
X0217955Y0082379D01*
X0217519Y0081381D02*
X0214515Y0081381D01*
X0214515Y0080382D02*
X0217519Y0080382D01*
X0217519Y0079384D02*
X0214515Y0079384D01*
X0214515Y0078385D02*
X0217670Y0078385D01*
X0225093Y0078385D02*
X0227907Y0078385D01*
X0227756Y0079384D02*
X0225244Y0079384D01*
X0225244Y0080382D02*
X0227756Y0080382D01*
X0227756Y0081381D02*
X0225244Y0081381D01*
X0224808Y0082379D02*
X0228192Y0082379D01*
X0226910Y0083378D02*
X0226090Y0083378D01*
X0231208Y0083378D02*
X0235455Y0083378D01*
X0251819Y0087372D02*
X0264544Y0087372D01*
X0265542Y0088370D02*
X0251819Y0088370D01*
X0251555Y0099354D02*
X0283000Y0099354D01*
X0280500Y0091000D02*
X0277000Y0091000D01*
X0282400Y0086373D02*
X0349300Y0086373D01*
X0349300Y0089369D02*
X0330598Y0089369D01*
X0330598Y0090368D02*
X0349300Y0090368D01*
X0349300Y0091366D02*
X0330598Y0091366D01*
X0330598Y0092365D02*
X0349300Y0092365D01*
X0349300Y0093363D02*
X0330598Y0093363D01*
X0330598Y0094362D02*
X0349300Y0094362D01*
X0349300Y0095360D02*
X0330598Y0095360D01*
X0330598Y0096359D02*
X0349300Y0096359D01*
X0349300Y0097357D02*
X0330126Y0097357D01*
X0312488Y0100353D02*
X0349300Y0100353D01*
X0349300Y0101351D02*
X0312488Y0101351D01*
X0312488Y0102350D02*
X0349300Y0102350D01*
X0349300Y0103348D02*
X0312488Y0103348D01*
X0312488Y0104347D02*
X0349300Y0104347D01*
X0349300Y0105345D02*
X0312296Y0105345D01*
X0278600Y0085375D02*
X0278203Y0085375D01*
X0279916Y0070397D02*
X0264598Y0070397D01*
X0239149Y0067402D02*
X0226819Y0067402D01*
X0226819Y0068400D02*
X0238401Y0068400D01*
X0238151Y0066403D02*
X0226819Y0066403D01*
X0226819Y0065405D02*
X0237152Y0065405D01*
X0236154Y0064406D02*
X0226846Y0064406D01*
X0226313Y0069399D02*
X0235349Y0069399D01*
X0228415Y0070397D02*
X0224585Y0070397D01*
X0225244Y0071396D02*
X0227756Y0071396D01*
X0227756Y0072394D02*
X0225244Y0072394D01*
X0225244Y0073393D02*
X0227756Y0073393D01*
X0227756Y0074391D02*
X0225244Y0074391D01*
X0209811Y0069399D02*
X0205744Y0069399D01*
X0205663Y0069096D02*
X0205663Y0069096D01*
X0204967Y0068400D02*
X0208947Y0068400D01*
X0208057Y0067402D02*
X0203968Y0067402D01*
X0207059Y0066403D02*
X0195981Y0066403D01*
X0196979Y0065405D02*
X0206060Y0065405D01*
X0205062Y0064406D02*
X0204238Y0064406D01*
X0199032Y0067402D02*
X0194982Y0067402D01*
X0194600Y0068400D02*
X0198033Y0068400D01*
X0197256Y0069399D02*
X0194600Y0069399D01*
X0194600Y0070397D02*
X0196988Y0070397D01*
X0196721Y0071396D02*
X0194600Y0071396D01*
X0194600Y0072394D02*
X0196933Y0072394D01*
X0197200Y0073393D02*
X0194600Y0073393D01*
X0194600Y0074391D02*
X0197825Y0074391D01*
X0198823Y0075390D02*
X0194600Y0075390D01*
X0201287Y0083378D02*
X0201713Y0083378D01*
X0207980Y0083378D02*
X0209115Y0083378D01*
X0183763Y0063408D02*
X0179237Y0063408D01*
X0179678Y0062409D02*
X0183322Y0062409D01*
X0183216Y0061411D02*
X0179784Y0061411D01*
X0179604Y0060412D02*
X0183396Y0060412D01*
X0183942Y0059414D02*
X0179058Y0059414D01*
X0177635Y0058415D02*
X0185365Y0058415D01*
X0230543Y0050427D02*
X0232740Y0050427D01*
X0258202Y0040442D02*
X0258450Y0040442D01*
X0258547Y0037307D02*
X0258547Y0034453D01*
X0261500Y0031500D01*
X0262484Y0032484D01*
X0267307Y0032484D01*
X0267307Y0034453D02*
X0271553Y0034453D01*
X0264960Y0032454D02*
X0258101Y0032454D01*
X0258866Y0033452D02*
X0264134Y0033452D01*
X0258957Y0034451D02*
X0258866Y0034451D01*
X0253284Y0032453D02*
X0252520Y0031688D01*
X0252520Y0029343D01*
X0253398Y0028465D01*
X0255970Y0028465D01*
X0255419Y0027914D01*
X0255419Y0023500D01*
X0253500Y0023500D01*
X0253500Y0024828D01*
X0251828Y0026500D01*
X0249968Y0026500D01*
X0249968Y0027633D01*
X0249090Y0028512D01*
X0243910Y0028512D01*
X0243031Y0027633D01*
X0243031Y0026353D01*
X0242756Y0026628D01*
X0241803Y0027581D01*
X0240664Y0028053D01*
X0239112Y0028053D01*
X0238744Y0028421D01*
X0234256Y0028421D01*
X0233031Y0027197D01*
X0233031Y0022709D01*
X0234240Y0021500D01*
X0233888Y0021147D01*
X0214761Y0021147D01*
X0214409Y0021500D01*
X0214968Y0022060D01*
X0214968Y0027500D01*
X0232328Y0027500D01*
X0233500Y0028672D01*
X0234328Y0029500D01*
X0242328Y0029500D01*
X0243500Y0030672D01*
X0245281Y0032453D01*
X0253284Y0032453D01*
X0252520Y0031455D02*
X0244284Y0031455D01*
X0243285Y0030457D02*
X0252520Y0030457D01*
X0252520Y0029458D02*
X0234287Y0029458D01*
X0233288Y0028460D02*
X0243858Y0028460D01*
X0243031Y0027461D02*
X0241923Y0027461D01*
X0242921Y0026463D02*
X0243031Y0026463D01*
X0246500Y0024846D02*
X0246846Y0024500D01*
X0251000Y0024500D01*
X0251500Y0024000D01*
X0251500Y0021500D01*
X0256500Y0021500D01*
X0258547Y0023547D01*
X0258547Y0025693D01*
X0255419Y0025464D02*
X0252864Y0025464D01*
X0253500Y0024466D02*
X0255419Y0024466D01*
X0255419Y0026463D02*
X0251866Y0026463D01*
X0249968Y0027461D02*
X0255419Y0027461D01*
X0255965Y0028460D02*
X0249142Y0028460D01*
X0258866Y0029458D02*
X0264134Y0029458D01*
X0267581Y0026463D02*
X0268345Y0026463D01*
X0267581Y0025464D02*
X0269344Y0025464D01*
X0270342Y0024466D02*
X0267581Y0024466D01*
X0269134Y0023467D02*
X0271341Y0023467D01*
X0271450Y0022469D02*
X0269968Y0022469D01*
X0269968Y0021470D02*
X0271450Y0021470D01*
X0271450Y0020472D02*
X0269968Y0020472D01*
X0269968Y0019473D02*
X0271450Y0019473D01*
X0271533Y0018475D02*
X0269968Y0018475D01*
X0269968Y0017476D02*
X0271839Y0017476D01*
X0271839Y0016478D02*
X0269386Y0016478D01*
X0271839Y0015479D02*
X0264550Y0015479D01*
X0264176Y0014481D02*
X0271839Y0014481D01*
X0271839Y0013482D02*
X0263143Y0013482D01*
X0262110Y0012484D02*
X0271839Y0012484D01*
X0272689Y0011485D02*
X0261077Y0011485D01*
X0259871Y0010487D02*
X0273400Y0010487D01*
X0273400Y0009488D02*
X0258872Y0009488D01*
X0257333Y0008490D02*
X0273400Y0008490D01*
X0273400Y0007491D02*
X0186730Y0007491D01*
X0187100Y0008490D02*
X0235667Y0008490D01*
X0234128Y0009488D02*
X0187100Y0009488D01*
X0185877Y0006493D02*
X0273400Y0006493D01*
X0273561Y0005494D02*
X0184878Y0005494D01*
X0183880Y0004496D02*
X0274120Y0004496D01*
X0279600Y0010487D02*
X0316103Y0010487D01*
X0317101Y0011485D02*
X0280288Y0011485D01*
X0281138Y0012484D02*
X0318100Y0012484D01*
X0318400Y0013482D02*
X0281138Y0013482D01*
X0281138Y0014481D02*
X0318400Y0014481D01*
X0318400Y0015479D02*
X0281138Y0015479D01*
X0281138Y0016478D02*
X0318400Y0016478D01*
X0318400Y0017476D02*
X0281138Y0017476D01*
X0281467Y0018475D02*
X0318400Y0018475D01*
X0318400Y0019473D02*
X0281550Y0019473D01*
X0281550Y0020472D02*
X0318400Y0020472D01*
X0318400Y0021470D02*
X0280822Y0021470D01*
X0279773Y0022469D02*
X0318400Y0022469D01*
X0318400Y0023467D02*
X0278734Y0023467D01*
X0277696Y0024466D02*
X0318400Y0024466D01*
X0318400Y0025464D02*
X0276657Y0025464D01*
X0275629Y0026463D02*
X0318400Y0026463D01*
X0318400Y0027461D02*
X0274631Y0027461D01*
X0273632Y0028460D02*
X0300726Y0028460D01*
X0300472Y0029458D02*
X0272634Y0029458D01*
X0271635Y0030457D02*
X0300472Y0030457D01*
X0300472Y0031455D02*
X0289364Y0031455D01*
X0289968Y0032454D02*
X0300472Y0032454D01*
X0300472Y0033452D02*
X0289968Y0033452D01*
X0283636Y0031455D02*
X0279364Y0031455D01*
X0279968Y0032454D02*
X0283031Y0032454D01*
X0283031Y0033452D02*
X0279968Y0033452D01*
X0264453Y0025693D02*
X0264453Y0023547D01*
X0266500Y0021500D01*
X0266500Y0019846D01*
X0234211Y0021470D02*
X0214438Y0021470D01*
X0214968Y0022469D02*
X0233272Y0022469D01*
X0233031Y0023467D02*
X0214968Y0023467D01*
X0214968Y0024466D02*
X0233031Y0024466D01*
X0233031Y0025464D02*
X0214968Y0025464D01*
X0214968Y0026463D02*
X0233031Y0026463D01*
X0233296Y0027461D02*
X0214968Y0027461D01*
X0210627Y0031455D02*
X0150500Y0031455D01*
X0150500Y0030457D02*
X0171150Y0030457D01*
X0170689Y0029458D02*
X0150500Y0029458D01*
X0150500Y0028460D02*
X0170689Y0028460D01*
X0170689Y0027461D02*
X0150500Y0027461D01*
X0150500Y0026463D02*
X0170689Y0026463D01*
X0170689Y0025464D02*
X0150500Y0025464D01*
X0150888Y0024466D02*
X0170689Y0024466D01*
X0170689Y0023467D02*
X0151314Y0023467D01*
X0170689Y0015479D02*
X0041905Y0015479D01*
X0042903Y0014481D02*
X0170689Y0014481D01*
X0170689Y0013482D02*
X0043902Y0013482D01*
X0044900Y0012484D02*
X0171210Y0012484D01*
X0177626Y0022469D02*
X0180531Y0022469D01*
X0180531Y0023467D02*
X0177626Y0023467D01*
X0177626Y0024466D02*
X0180531Y0024466D01*
X0180531Y0025464D02*
X0177626Y0025464D01*
X0177626Y0026463D02*
X0180531Y0026463D01*
X0180531Y0027461D02*
X0177626Y0027461D01*
X0177626Y0028460D02*
X0180531Y0028460D01*
X0180531Y0029458D02*
X0177626Y0029458D01*
X0177164Y0030457D02*
X0180993Y0030457D01*
X0203865Y0014481D02*
X0233400Y0014481D01*
X0233400Y0013482D02*
X0202315Y0013482D01*
X0196790Y0012484D02*
X0233400Y0012484D01*
X0314243Y0028460D02*
X0318400Y0028460D01*
X0318400Y0029458D02*
X0314496Y0029458D01*
X0314496Y0030457D02*
X0318400Y0030457D01*
X0318400Y0031455D02*
X0314496Y0031455D01*
X0314496Y0032454D02*
X0318540Y0032454D01*
X0319068Y0033452D02*
X0314496Y0033452D01*
X0314496Y0034451D02*
X0320067Y0034451D01*
X0321065Y0035449D02*
X0314496Y0035449D01*
X0314496Y0036448D02*
X0322064Y0036448D01*
X0324488Y0037446D02*
X0314496Y0037446D01*
X0314496Y0038445D02*
X0324488Y0038445D01*
X0324527Y0039443D02*
X0314457Y0039443D01*
X0338473Y0039443D02*
X0349300Y0039443D01*
X0349300Y0038445D02*
X0338512Y0038445D01*
X0338512Y0037446D02*
X0349300Y0037446D01*
X0349300Y0036448D02*
X0338512Y0036448D01*
X0338512Y0035449D02*
X0349300Y0035449D01*
X0349300Y0034451D02*
X0338512Y0034451D01*
X0338512Y0033452D02*
X0349300Y0033452D01*
X0349300Y0032454D02*
X0338512Y0032454D01*
X0338512Y0031455D02*
X0349300Y0031455D01*
X0349300Y0030457D02*
X0338512Y0030457D01*
X0338512Y0029458D02*
X0349300Y0029458D01*
X0349300Y0028460D02*
X0340353Y0028460D01*
X0342875Y0027542D02*
X0342875Y0027542D01*
X0342971Y0027461D02*
X0349300Y0027461D01*
X0349300Y0026463D02*
X0344161Y0026463D01*
X0345351Y0025464D02*
X0349300Y0025464D01*
X0349300Y0024466D02*
X0346400Y0024466D01*
X0346267Y0024696D02*
X0346267Y0024696D01*
X0346267Y0024696D01*
X0346976Y0023467D02*
X0349300Y0023467D01*
X0349300Y0022469D02*
X0347553Y0022469D01*
X0348129Y0021470D02*
X0349300Y0021470D01*
X0349300Y0020472D02*
X0348550Y0020472D01*
X0348481Y0020861D02*
X0348481Y0020861D01*
X0348726Y0019473D02*
X0349300Y0019473D01*
X0349300Y0018475D02*
X0348902Y0018475D01*
X0349078Y0017476D02*
X0349300Y0017476D01*
X0349300Y0016478D02*
X0349246Y0016478D01*
X0349300Y0015479D02*
X0349070Y0015479D01*
X0348894Y0014481D02*
X0349300Y0014481D01*
X0349300Y0013482D02*
X0348718Y0013482D01*
X0348542Y0012484D02*
X0349300Y0012484D01*
X0349300Y0011485D02*
X0348103Y0011485D01*
X0347527Y0010487D02*
X0349300Y0010487D01*
X0349300Y0009488D02*
X0346950Y0009488D01*
X0346374Y0008490D02*
X0349300Y0008490D01*
X0349300Y0007491D02*
X0345298Y0007491D01*
X0344108Y0006493D02*
X0349300Y0006493D01*
X0349300Y0005494D02*
X0342918Y0005494D01*
X0342875Y0005458D02*
X0342875Y0005458D01*
X0340230Y0004496D02*
X0349300Y0004496D01*
X0332770Y0004496D02*
X0318880Y0004496D01*
X0319878Y0005494D02*
X0330082Y0005494D01*
X0330125Y0005458D02*
X0330125Y0005458D01*
X0328892Y0006493D02*
X0320877Y0006493D01*
X0321875Y0007491D02*
X0327702Y0007491D01*
X0326733Y0008304D02*
X0326733Y0008304D01*
X0326733Y0008304D01*
X0326626Y0008490D02*
X0322874Y0008490D01*
X0323872Y0009488D02*
X0326050Y0009488D01*
X0325473Y0010487D02*
X0324436Y0010487D01*
X0324600Y0011485D02*
X0324897Y0011485D01*
X0133400Y0046433D02*
X0128179Y0046433D01*
X0129919Y0045434D02*
X0133081Y0045434D01*
X0132088Y0044436D02*
X0130912Y0044436D01*
X0131326Y0043437D02*
X0131674Y0043437D01*
X0124821Y0046433D02*
X0119200Y0046433D01*
X0119200Y0047432D02*
X0133400Y0047432D01*
X0133400Y0048430D02*
X0119200Y0048430D01*
X0119200Y0049429D02*
X0133400Y0049429D01*
X0133400Y0050427D02*
X0119200Y0050427D01*
X0119200Y0051426D02*
X0133400Y0051426D01*
X0133400Y0052424D02*
X0119040Y0052424D01*
X0118396Y0053423D02*
X0133400Y0053423D01*
X0133400Y0054421D02*
X0117397Y0054421D01*
X0116399Y0055420D02*
X0133400Y0055420D01*
X0133400Y0056418D02*
X0115400Y0056418D01*
X0114402Y0057417D02*
X0133400Y0057417D01*
X0133400Y0069399D02*
X0086681Y0069399D01*
X0086681Y0070397D02*
X0133400Y0070397D01*
X0133400Y0071396D02*
X0086681Y0071396D01*
X0086681Y0072394D02*
X0133400Y0072394D01*
X0095419Y0073393D02*
X0086681Y0073393D01*
X0086681Y0074391D02*
X0093964Y0074391D01*
X0093405Y0075390D02*
X0086681Y0075390D01*
X0086681Y0076388D02*
X0092793Y0076388D01*
X0091795Y0077387D02*
X0086681Y0077387D01*
X0085949Y0078385D02*
X0090796Y0078385D01*
X0078902Y0078385D02*
X0063433Y0078385D01*
X0064431Y0077387D02*
X0078169Y0077387D01*
X0078169Y0076388D02*
X0065430Y0076388D01*
X0066429Y0075390D02*
X0078169Y0075390D01*
X0078169Y0074391D02*
X0067427Y0074391D01*
X0068426Y0073393D02*
X0078169Y0073393D01*
X0078169Y0072394D02*
X0069424Y0072394D01*
X0070423Y0071396D02*
X0078169Y0071396D01*
X0078169Y0070397D02*
X0071421Y0070397D01*
X0072420Y0069399D02*
X0078169Y0069399D01*
X0069798Y0079384D02*
X0062434Y0079384D01*
X0061436Y0080382D02*
X0068799Y0080382D01*
X0067801Y0081381D02*
X0060437Y0081381D01*
X0059439Y0082379D02*
X0066802Y0082379D01*
X0065804Y0083378D02*
X0058440Y0083378D01*
X0057442Y0084376D02*
X0064805Y0084376D01*
X0063807Y0085375D02*
X0056443Y0085375D01*
X0055445Y0086373D02*
X0062808Y0086373D01*
X0061810Y0087372D02*
X0054446Y0087372D01*
X0053448Y0088370D02*
X0060811Y0088370D01*
X0059813Y0089369D02*
X0034200Y0089369D01*
X0034200Y0088370D02*
X0037470Y0088370D01*
X0037421Y0087372D02*
X0034446Y0087372D01*
X0035445Y0086373D02*
X0037421Y0086373D01*
X0037421Y0085375D02*
X0036443Y0085375D01*
X0032801Y0081381D02*
X0003700Y0081381D01*
X0003700Y0082379D02*
X0031802Y0082379D01*
X0030804Y0083378D02*
X0003700Y0083378D01*
X0003700Y0084376D02*
X0029805Y0084376D01*
X0029044Y0085375D02*
X0003700Y0085375D01*
X0003700Y0086373D02*
X0028800Y0086373D01*
X0028800Y0087372D02*
X0003700Y0087372D01*
X0003700Y0088370D02*
X0028800Y0088370D01*
X0028800Y0089369D02*
X0003700Y0089369D01*
X0003700Y0090368D02*
X0028800Y0090368D01*
X0028800Y0091366D02*
X0003700Y0091366D01*
X0003700Y0092365D02*
X0028936Y0092365D01*
X0029545Y0093363D02*
X0003700Y0093363D01*
X0003700Y0094362D02*
X0030543Y0094362D01*
X0031542Y0095360D02*
X0003700Y0095360D01*
X0003700Y0096359D02*
X0032540Y0096359D01*
X0033539Y0097357D02*
X0003700Y0097357D01*
X0003700Y0098356D02*
X0033800Y0098356D01*
X0033800Y0099354D02*
X0003700Y0099354D01*
X0003700Y0100353D02*
X0033800Y0100353D01*
X0033800Y0101351D02*
X0003700Y0101351D01*
X0003700Y0102350D02*
X0033800Y0102350D01*
X0033800Y0103348D02*
X0003700Y0103348D01*
X0003700Y0104347D02*
X0033800Y0104347D01*
X0033800Y0105345D02*
X0003700Y0105345D01*
X0034200Y0090368D02*
X0058814Y0090368D01*
X0057816Y0091366D02*
X0035184Y0091366D01*
X0036183Y0092365D02*
X0037648Y0092365D01*
X0037421Y0093363D02*
X0037181Y0093363D01*
X0033799Y0080382D02*
X0003700Y0080382D01*
X0003700Y0079384D02*
X0034971Y0079384D01*
X0037421Y0078385D02*
X0003700Y0078385D01*
X0003700Y0077387D02*
X0037421Y0077387D01*
X0037421Y0076388D02*
X0003700Y0076388D01*
X0003700Y0075390D02*
X0037421Y0075390D01*
X0038298Y0074391D02*
X0003700Y0074391D01*
X0003700Y0073393D02*
X0038996Y0073393D01*
X0038996Y0072394D02*
X0003700Y0072394D01*
X0003700Y0071396D02*
X0037818Y0071396D01*
X0037421Y0070397D02*
X0003700Y0070397D01*
X0003700Y0069399D02*
X0037421Y0069399D01*
X0037421Y0068400D02*
X0003700Y0068400D01*
X0003700Y0067402D02*
X0037421Y0067402D01*
X0037625Y0066403D02*
X0003700Y0066403D01*
X0003700Y0065405D02*
X0048777Y0065405D01*
X0047778Y0066403D02*
X0046123Y0066403D01*
X0046327Y0067402D02*
X0046780Y0067402D01*
X0049775Y0064406D02*
X0003700Y0064406D01*
X0003700Y0063408D02*
X0050774Y0063408D01*
X0051772Y0062409D02*
X0003700Y0062409D01*
X0003700Y0061411D02*
X0052771Y0061411D01*
X0053769Y0060412D02*
X0003700Y0060412D01*
X0003700Y0059414D02*
X0054768Y0059414D01*
X0055766Y0058415D02*
X0003700Y0058415D01*
X0003700Y0057417D02*
X0056765Y0057417D01*
X0057763Y0056418D02*
X0003700Y0056418D01*
X0003700Y0055420D02*
X0058762Y0055420D01*
X0059761Y0054421D02*
X0003700Y0054421D01*
X0003700Y0053423D02*
X0060759Y0053423D01*
X0061758Y0052424D02*
X0003700Y0052424D01*
X0003700Y0051426D02*
X0062756Y0051426D01*
X0063755Y0050427D02*
X0003700Y0050427D01*
X0003700Y0049429D02*
X0064753Y0049429D01*
X0064821Y0046433D02*
X0058179Y0046433D01*
X0059919Y0045434D02*
X0063081Y0045434D01*
X0062088Y0044436D02*
X0060912Y0044436D01*
X0061326Y0043437D02*
X0061674Y0043437D01*
X0068179Y0046433D02*
X0074821Y0046433D01*
X0073081Y0045434D02*
X0069919Y0045434D01*
X0070912Y0044436D02*
X0072088Y0044436D01*
X0071674Y0043437D02*
X0071326Y0043437D01*
X0078179Y0046433D02*
X0084821Y0046433D01*
X0083081Y0045434D02*
X0079919Y0045434D01*
X0080912Y0044436D02*
X0082088Y0044436D01*
X0081674Y0043437D02*
X0081326Y0043437D01*
X0088179Y0046433D02*
X0093800Y0046433D01*
X0093800Y0047432D02*
X0003700Y0047432D01*
X0003700Y0048430D02*
X0090329Y0048430D01*
X0092671Y0048430D02*
X0093800Y0048430D01*
X0093081Y0045434D02*
X0089919Y0045434D01*
X0090912Y0044436D02*
X0092088Y0044436D01*
X0091674Y0043437D02*
X0091326Y0043437D01*
X0091277Y0039443D02*
X0091723Y0039443D01*
X0092201Y0038445D02*
X0090799Y0038445D01*
X0089800Y0037446D02*
X0092500Y0037446D01*
X0092500Y0036448D02*
X0087891Y0036448D01*
X0085109Y0036448D02*
X0077891Y0036448D01*
X0079800Y0037446D02*
X0083200Y0037446D01*
X0082201Y0038445D02*
X0080799Y0038445D01*
X0081277Y0039443D02*
X0081723Y0039443D01*
X0075109Y0036448D02*
X0067891Y0036448D01*
X0069800Y0037446D02*
X0073200Y0037446D01*
X0072201Y0038445D02*
X0070799Y0038445D01*
X0071277Y0039443D02*
X0071723Y0039443D01*
X0065109Y0036448D02*
X0057891Y0036448D01*
X0059800Y0037446D02*
X0063200Y0037446D01*
X0062201Y0038445D02*
X0060799Y0038445D01*
X0061277Y0039443D02*
X0061723Y0039443D01*
X0055109Y0036448D02*
X0039600Y0036448D01*
X0039600Y0035449D02*
X0092500Y0035449D01*
X0092500Y0034451D02*
X0039600Y0034451D01*
X0039600Y0033452D02*
X0092500Y0033452D01*
X0092500Y0032454D02*
X0039600Y0032454D01*
X0039600Y0031455D02*
X0092500Y0031455D01*
X0092500Y0030457D02*
X0039600Y0030457D01*
X0039600Y0029458D02*
X0092500Y0029458D01*
X0092500Y0028460D02*
X0039600Y0028460D01*
X0033400Y0030457D02*
X0003700Y0030457D01*
X0003700Y0031455D02*
X0033400Y0031455D01*
X0033400Y0032454D02*
X0003700Y0032454D01*
X0003700Y0033452D02*
X0033400Y0033452D01*
X0033400Y0034451D02*
X0003700Y0034451D01*
X0003700Y0035449D02*
X0033400Y0035449D01*
X0033400Y0036448D02*
X0003700Y0036448D01*
X0003700Y0037446D02*
X0033200Y0037446D01*
X0032201Y0038445D02*
X0003700Y0038445D01*
X0003700Y0039443D02*
X0031723Y0039443D01*
X0031310Y0040442D02*
X0003700Y0040442D01*
X0003700Y0041440D02*
X0031300Y0041440D01*
X0031300Y0042439D02*
X0003700Y0042439D01*
X0003700Y0043437D02*
X0031674Y0043437D01*
X0032088Y0044436D02*
X0003700Y0044436D01*
X0003700Y0045434D02*
X0033081Y0045434D01*
X0034821Y0046433D02*
X0003700Y0046433D01*
X0038179Y0046433D02*
X0054821Y0046433D01*
X0053081Y0045434D02*
X0039919Y0045434D01*
X0040912Y0044436D02*
X0052088Y0044436D01*
X0051674Y0043437D02*
X0041326Y0043437D01*
X0041700Y0042439D02*
X0051300Y0042439D01*
X0051300Y0041440D02*
X0041700Y0041440D01*
X0041690Y0040442D02*
X0051310Y0040442D01*
X0051723Y0039443D02*
X0041277Y0039443D01*
X0040799Y0038445D02*
X0052201Y0038445D01*
X0053200Y0037446D02*
X0039800Y0037446D01*
X0040906Y0016478D02*
X0055037Y0016478D01*
X0119919Y0045434D02*
X0123081Y0045434D01*
X0122088Y0044436D02*
X0120912Y0044436D01*
X0121326Y0043437D02*
X0121674Y0043437D01*
X0053304Y0107342D02*
X0049696Y0107342D01*
X0050695Y0108341D02*
X0052305Y0108341D01*
X0051767Y0109339D02*
X0051233Y0109339D01*
X0077568Y0126314D02*
X0085432Y0126314D01*
X0087568Y0126314D02*
X0092500Y0126314D01*
X0092500Y0127312D02*
X0089666Y0127312D01*
X0090665Y0128311D02*
X0092335Y0128311D01*
X0091779Y0129309D02*
X0091221Y0129309D01*
X0083334Y0127312D02*
X0079666Y0127312D01*
X0080665Y0128311D02*
X0082335Y0128311D01*
X0081779Y0129309D02*
X0081221Y0129309D01*
X0054498Y0136299D02*
X0048502Y0136299D01*
X0050053Y0135301D02*
X0052947Y0135301D01*
X0052032Y0134302D02*
X0050968Y0134302D01*
X0051381Y0133303D02*
X0051619Y0133303D01*
X0045110Y0149280D02*
X0003700Y0149280D01*
X0150500Y0127312D02*
X0151304Y0127312D01*
X0150500Y0126314D02*
X0152302Y0126314D01*
X0153301Y0125315D02*
X0150500Y0125315D01*
X0150500Y0124317D02*
X0154299Y0124317D01*
X0155298Y0123318D02*
X0150500Y0123318D01*
X0150500Y0122320D02*
X0156296Y0122320D01*
X0213244Y0138372D02*
X0213244Y0138372D01*
X0220626Y0136299D02*
X0222935Y0136299D01*
X0222375Y0135301D02*
X0221000Y0135301D01*
X0221000Y0134302D02*
X0222000Y0134302D01*
X0222000Y0133303D02*
X0221000Y0133303D01*
X0221000Y0132305D02*
X0222000Y0132305D01*
X0222000Y0131306D02*
X0221000Y0131306D01*
X0221000Y0130308D02*
X0222000Y0130308D01*
X0222000Y0129309D02*
X0221000Y0129309D01*
X0221000Y0128311D02*
X0222000Y0128311D01*
X0222000Y0127312D02*
X0220879Y0127312D01*
X0220465Y0126314D02*
X0222121Y0126314D01*
X0222534Y0125315D02*
X0219679Y0125315D01*
X0259600Y0124317D02*
X0263319Y0124317D01*
X0262534Y0125315D02*
X0259679Y0125315D01*
X0260465Y0126314D02*
X0262121Y0126314D01*
X0262000Y0127312D02*
X0260879Y0127312D01*
X0261000Y0128311D02*
X0262000Y0128311D01*
X0262000Y0129309D02*
X0261000Y0129309D01*
X0261000Y0130308D02*
X0262000Y0130308D01*
X0262000Y0131306D02*
X0261000Y0131306D01*
X0261000Y0132305D02*
X0262000Y0132305D01*
X0262000Y0133303D02*
X0261000Y0133303D01*
X0261000Y0134302D02*
X0262000Y0134302D01*
X0262375Y0135301D02*
X0261000Y0135301D01*
X0260626Y0136299D02*
X0262935Y0136299D01*
X0263934Y0137298D02*
X0260066Y0137298D01*
D43*
X0286500Y0121500D03*
X0296500Y0121500D03*
X0286500Y0111500D03*
X0296500Y0096500D03*
X0296500Y0086500D03*
X0271500Y0071500D03*
X0261500Y0071500D03*
X0274000Y0063500D03*
X0279000Y0063500D03*
X0279000Y0059500D03*
X0274000Y0059500D03*
X0271500Y0051500D03*
X0281500Y0051500D03*
X0306500Y0066500D03*
X0321500Y0066500D03*
X0246500Y0056500D03*
X0231500Y0056500D03*
X0221500Y0051500D03*
X0211500Y0046500D03*
X0226500Y0039500D03*
X0231500Y0034500D03*
X0247500Y0030500D03*
X0261500Y0031500D03*
X0246500Y0041500D03*
X0236500Y0046500D03*
X0231500Y0046500D03*
X0211500Y0036500D03*
X0201500Y0036500D03*
X0191500Y0036500D03*
X0181500Y0036500D03*
X0171500Y0036500D03*
X0229000Y0024500D03*
X0216500Y0061500D03*
X0236500Y0066500D03*
X0239500Y0071500D03*
X0206500Y0076500D03*
X0176500Y0081500D03*
X0166500Y0086500D03*
X0186500Y0099000D03*
X0196500Y0101500D03*
X0206500Y0101500D03*
X0216500Y0101500D03*
X0236500Y0096500D03*
X0216500Y0091500D03*
X0236500Y0086500D03*
X0236500Y0106500D03*
X0236500Y0116500D03*
X0216500Y0116500D03*
X0206500Y0116500D03*
X0161500Y0116500D03*
X0116500Y0141500D03*
X0071500Y0096500D03*
X0071500Y0076500D03*
X0096500Y0076500D03*
X0116500Y0061500D03*
X0126500Y0061500D03*
X0101500Y0056500D03*
X0091500Y0051500D03*
X0051500Y0056500D03*
X0036500Y0056500D03*
X0011500Y0031500D03*
X0176500Y0061500D03*
X0186500Y0061500D03*
X0321500Y0106500D03*
X0011500Y0121500D03*
D44*
X0223469Y0046480D02*
X0223500Y0046449D01*
X0231500Y0046500D02*
X0236500Y0051500D01*
X0236500Y0058000D01*
X0243937Y0065437D01*
X0268724Y0065437D01*
X0268724Y0063862D02*
X0244862Y0063862D01*
X0244862Y0059862D01*
X0241500Y0056500D01*
X0241500Y0038500D01*
X0227500Y0038500D01*
X0226500Y0039500D01*
X0226520Y0051500D02*
X0231500Y0051500D01*
X0259846Y0059500D02*
X0260209Y0059138D01*
X0268724Y0059138D01*
X0268724Y0057563D02*
X0265563Y0057563D01*
X0264500Y0056500D01*
X0264500Y0052500D01*
X0263500Y0051500D01*
X0284276Y0057563D02*
X0288437Y0057563D01*
X0290000Y0056000D01*
X0296500Y0056000D01*
X0290500Y0061000D02*
X0288638Y0059138D01*
X0284276Y0059138D01*
X0284276Y0062287D02*
X0287787Y0062287D01*
X0289000Y0063500D01*
X0289000Y0070500D01*
X0288000Y0071500D01*
X0281500Y0071500D01*
X0279000Y0074000D01*
X0279000Y0076500D01*
X0274846Y0076500D01*
X0280500Y0077500D02*
X0281500Y0076500D01*
X0285500Y0076500D01*
X0290500Y0071500D01*
X0290500Y0061000D01*
X0274000Y0063500D02*
X0272787Y0062287D01*
X0268724Y0062287D01*
X0280500Y0077500D02*
X0280500Y0091000D01*
X0281500Y0092000D01*
X0286488Y0092000D01*
X0286500Y0092012D01*
X0261500Y0031500D02*
X0258547Y0028547D01*
X0255693Y0028547D01*
D45*
X0236500Y0061500D02*
X0226500Y0061500D01*
X0223941Y0064059D01*
X0223941Y0066500D01*
X0235240Y0072760D02*
X0236500Y0071500D01*
X0239500Y0071500D01*
X0235240Y0072760D02*
X0231619Y0072760D01*
X0221500Y0072641D02*
X0221381Y0072760D01*
X0221381Y0080240D02*
X0221000Y0080622D01*
X0221000Y0086000D01*
X0221500Y0086500D01*
X0223941Y0086500D01*
X0223941Y0096500D01*
X0229059Y0096500D02*
X0229059Y0086500D01*
X0236500Y0086500D01*
X0242000Y0084000D02*
X0248941Y0084000D01*
X0248941Y0089500D01*
X0248941Y0095713D01*
X0248154Y0096500D01*
X0254059Y0084000D02*
X0254059Y0078500D01*
X0254000Y0078441D01*
X0254000Y0072000D01*
X0253500Y0071500D01*
X0245000Y0071500D01*
X0241500Y0068000D01*
X0241500Y0066500D01*
X0236500Y0061500D01*
X0238240Y0080240D02*
X0231619Y0080240D01*
X0238240Y0080240D02*
X0242000Y0084000D01*
D46*
X0146500Y0111500D02*
X0146500Y0131500D01*
X0136500Y0131500D02*
X0136500Y0111500D01*
X0126500Y0111500D02*
X0126500Y0131500D01*
X0116500Y0131500D02*
X0116500Y0111500D01*
X0106500Y0111500D02*
X0106500Y0131500D01*
X0096500Y0131500D02*
X0096500Y0111500D01*
X0056500Y0111500D02*
X0056500Y0131500D01*
X0036500Y0131500D02*
X0036500Y0111500D01*
X0096500Y0041500D02*
X0096500Y0021500D01*
X0116500Y0021500D02*
X0116500Y0041500D01*
X0126500Y0041500D02*
X0126500Y0021500D01*
X0136500Y0021500D02*
X0136500Y0041500D01*
X0146500Y0041500D02*
X0146500Y0021500D01*
D47*
X0181500Y0006500D02*
X0046500Y0006500D01*
X0036500Y0016500D01*
X0036500Y0021500D01*
X0036500Y0041500D01*
X0136500Y0041500D02*
X0136500Y0091500D01*
X0141500Y0096500D01*
X0161500Y0096500D01*
X0176500Y0111500D01*
X0221500Y0111500D01*
X0226500Y0116500D01*
X0226500Y0130500D01*
X0216500Y0131500D02*
X0216500Y0139500D01*
X0215000Y0141000D01*
X0215500Y0141500D01*
X0255000Y0141500D01*
X0256500Y0140000D01*
X0256500Y0131500D01*
X0256500Y0111500D01*
X0229000Y0102000D02*
X0224500Y0106500D01*
X0181500Y0106500D01*
X0166500Y0091500D01*
X0151500Y0091500D01*
X0146500Y0086500D01*
X0146500Y0041500D01*
X0184000Y0026224D02*
X0184000Y0016776D01*
X0184000Y0009000D01*
X0181500Y0006500D01*
X0193843Y0016776D02*
X0194118Y0016500D01*
X0201500Y0016500D01*
X0203154Y0018154D01*
X0211500Y0018154D01*
X0211697Y0017957D01*
X0221500Y0017957D01*
X0211606Y0018047D02*
X0211500Y0018154D01*
X0211606Y0018047D02*
X0236500Y0018047D01*
X0236500Y0011500D01*
X0256500Y0011500D01*
X0261500Y0016500D01*
X0276488Y0016500D02*
X0276500Y0016488D01*
X0276500Y0006500D01*
X0316500Y0006500D01*
X0321500Y0011500D01*
X0321500Y0031500D01*
X0324059Y0034059D01*
X0331500Y0034059D01*
X0296500Y0047500D02*
X0295000Y0046000D01*
X0266000Y0046000D01*
X0264000Y0044000D01*
X0261043Y0044000D01*
X0296500Y0047500D02*
X0296500Y0051500D01*
X0296500Y0056000D01*
X0296500Y0078500D01*
X0294000Y0081000D01*
X0286512Y0081000D01*
X0286500Y0080988D01*
X0211815Y0066776D02*
X0204846Y0059807D01*
X0203154Y0061500D01*
X0196500Y0061500D01*
X0191500Y0066500D01*
X0191500Y0096500D01*
X0189000Y0099000D01*
X0186500Y0099000D01*
X0171500Y0116500D02*
X0156500Y0101500D01*
X0146500Y0101500D01*
X0136500Y0111500D01*
X0116500Y0111500D02*
X0116500Y0101500D01*
X0110929Y0095929D01*
X0082425Y0095929D01*
X0151500Y0131500D02*
X0161500Y0121500D01*
X0181500Y0121500D01*
X0186500Y0126500D01*
X0186500Y0131500D01*
X0176500Y0131500D02*
X0176500Y0141500D01*
X0171500Y0146500D01*
X0046500Y0146500D01*
X0036500Y0136500D01*
X0036500Y0131500D01*
X0096500Y0131500D02*
X0096500Y0136500D01*
X0101500Y0141500D01*
X0116500Y0141500D01*
X0146500Y0131500D02*
X0151500Y0131500D01*
X0176500Y0141500D02*
X0214500Y0141500D01*
X0215000Y0141000D01*
X0196500Y0131500D02*
X0196500Y0121500D01*
X0191500Y0116500D01*
X0171500Y0116500D01*
X0204846Y0059807D02*
X0204846Y0056500D01*
X0204846Y0046500D01*
X0205000Y0046346D01*
X0193843Y0026224D02*
X0193843Y0016776D01*
X0236500Y0024953D02*
X0240047Y0024953D01*
X0241000Y0024000D01*
X0241000Y0019000D01*
X0242000Y0018000D01*
X0246346Y0018000D01*
X0246500Y0018154D01*
D48*
X0218154Y0034000D02*
X0218000Y0036654D01*
X0218000Y0040500D01*
X0219531Y0042031D01*
X0219531Y0046480D01*
X0217563Y0046480D02*
X0217563Y0043563D01*
X0216500Y0042500D01*
X0205000Y0042500D01*
X0204500Y0043000D01*
X0204500Y0046154D01*
X0204846Y0046500D01*
X0212031Y0053469D02*
X0209000Y0056500D01*
X0204846Y0056500D01*
X0212031Y0053469D02*
X0216480Y0053469D01*
X0221500Y0056520D02*
X0221500Y0060000D01*
X0220000Y0061500D01*
X0216500Y0061500D01*
X0226520Y0049531D02*
X0228469Y0049531D01*
X0231500Y0046500D01*
X0223500Y0046449D02*
X0223500Y0042500D01*
X0226500Y0039500D01*
X0186500Y0061500D02*
X0186500Y0081500D01*
X0181500Y0086500D01*
X0166500Y0086500D01*
X0176500Y0081500D02*
X0176500Y0061500D01*
D49*
X0211815Y0066776D02*
X0221500Y0066776D01*
X0221500Y0072641D01*
X0211815Y0076224D02*
X0211815Y0086185D01*
X0211500Y0086500D01*
X0204846Y0086500D01*
X0198941Y0087287D02*
X0198154Y0086500D01*
X0198941Y0087287D02*
X0198941Y0096500D01*
X0204059Y0096500D02*
X0223941Y0096500D01*
X0229059Y0096500D02*
X0229059Y0101941D01*
X0229000Y0102000D01*
X0223665Y0066776D02*
X0221500Y0066776D01*
X0223665Y0066776D02*
X0223941Y0066500D01*
X0116500Y0051500D02*
X0116500Y0041500D01*
X0106500Y0041500D02*
X0106500Y0051500D01*
X0101500Y0056500D01*
X0096500Y0056500D02*
X0096500Y0041500D01*
X0091500Y0051500D02*
X0066500Y0051500D01*
X0044866Y0073134D01*
X0043449Y0073134D01*
X0041874Y0077465D02*
X0050535Y0077465D01*
X0066500Y0061500D01*
X0091500Y0061500D01*
X0096500Y0056500D01*
X0101500Y0066500D02*
X0116500Y0051500D01*
X0101500Y0066500D02*
X0071500Y0066500D01*
X0051874Y0086126D01*
X0041874Y0086126D01*
X0041087Y0081795D02*
X0036205Y0081795D01*
X0031500Y0086500D01*
X0031500Y0091500D01*
X0036500Y0096500D01*
X0036500Y0111500D01*
X0041874Y0094787D02*
X0058213Y0094787D01*
X0071500Y0081500D01*
X0091500Y0081500D01*
X0096500Y0076500D01*
D50*
X0259500Y0046300D02*
X0259500Y0041600D01*
X0260000Y0041600D01*
X0260000Y0035600D01*
X0263000Y0035600D01*
X0263000Y0046300D01*
X0259500Y0046300D01*
X0259500Y0046224D02*
X0263000Y0046224D01*
X0263000Y0046126D02*
X0259500Y0046126D01*
X0259500Y0046027D02*
X0263000Y0046027D01*
X0263000Y0045929D02*
X0259500Y0045929D01*
X0259500Y0045830D02*
X0263000Y0045830D01*
X0263000Y0045732D02*
X0259500Y0045732D01*
X0259500Y0045633D02*
X0263000Y0045633D01*
X0263000Y0045535D02*
X0259500Y0045535D01*
X0259500Y0045436D02*
X0263000Y0045436D01*
X0263000Y0045338D02*
X0259500Y0045338D01*
X0259500Y0045239D02*
X0263000Y0045239D01*
X0263000Y0045141D02*
X0259500Y0045141D01*
X0259500Y0045042D02*
X0263000Y0045042D01*
X0263000Y0044943D02*
X0259500Y0044943D01*
X0259500Y0044845D02*
X0263000Y0044845D01*
X0263000Y0044746D02*
X0259500Y0044746D01*
X0259500Y0044648D02*
X0263000Y0044648D01*
X0263000Y0044549D02*
X0259500Y0044549D01*
X0259500Y0044451D02*
X0263000Y0044451D01*
X0263000Y0044352D02*
X0259500Y0044352D01*
X0259500Y0044254D02*
X0263000Y0044254D01*
X0263000Y0044155D02*
X0259500Y0044155D01*
X0259500Y0044057D02*
X0263000Y0044057D01*
X0263000Y0043958D02*
X0259500Y0043958D01*
X0259500Y0043860D02*
X0263000Y0043860D01*
X0263000Y0043761D02*
X0259500Y0043761D01*
X0259500Y0043663D02*
X0263000Y0043663D01*
X0263000Y0043564D02*
X0259500Y0043564D01*
X0259500Y0043466D02*
X0263000Y0043466D01*
X0263000Y0043367D02*
X0259500Y0043367D01*
X0259500Y0043269D02*
X0263000Y0043269D01*
X0263000Y0043170D02*
X0259500Y0043170D01*
X0259500Y0043072D02*
X0263000Y0043072D01*
X0263000Y0042973D02*
X0259500Y0042973D01*
X0259500Y0042875D02*
X0263000Y0042875D01*
X0263000Y0042776D02*
X0259500Y0042776D01*
X0259500Y0042678D02*
X0263000Y0042678D01*
X0263000Y0042579D02*
X0259500Y0042579D01*
X0259500Y0042481D02*
X0263000Y0042481D01*
X0263000Y0042382D02*
X0259500Y0042382D01*
X0259500Y0042284D02*
X0263000Y0042284D01*
X0263000Y0042185D02*
X0259500Y0042185D01*
X0259500Y0042087D02*
X0263000Y0042087D01*
X0263000Y0041988D02*
X0259500Y0041988D01*
X0259500Y0041890D02*
X0263000Y0041890D01*
X0263000Y0041791D02*
X0259500Y0041791D01*
X0259500Y0041693D02*
X0263000Y0041693D01*
X0263000Y0041594D02*
X0260000Y0041594D01*
X0260000Y0041496D02*
X0263000Y0041496D01*
X0263000Y0041397D02*
X0260000Y0041397D01*
X0260000Y0041299D02*
X0263000Y0041299D01*
X0263000Y0041200D02*
X0260000Y0041200D01*
X0260000Y0041102D02*
X0263000Y0041102D01*
X0263000Y0041003D02*
X0260000Y0041003D01*
X0260000Y0040905D02*
X0263000Y0040905D01*
X0263000Y0040806D02*
X0260000Y0040806D01*
X0260000Y0040708D02*
X0263000Y0040708D01*
X0263000Y0040609D02*
X0260000Y0040609D01*
X0260000Y0040510D02*
X0263000Y0040510D01*
X0263000Y0040412D02*
X0260000Y0040412D01*
X0260000Y0040313D02*
X0263000Y0040313D01*
X0263000Y0040215D02*
X0260000Y0040215D01*
X0260000Y0040116D02*
X0263000Y0040116D01*
X0263000Y0040018D02*
X0260000Y0040018D01*
X0260000Y0039919D02*
X0263000Y0039919D01*
X0263000Y0039821D02*
X0260000Y0039821D01*
X0260000Y0039722D02*
X0263000Y0039722D01*
X0263000Y0039624D02*
X0260000Y0039624D01*
X0260000Y0039525D02*
X0263000Y0039525D01*
X0263000Y0039427D02*
X0260000Y0039427D01*
X0260000Y0039328D02*
X0263000Y0039328D01*
X0263000Y0039230D02*
X0260000Y0039230D01*
X0260000Y0039131D02*
X0263000Y0039131D01*
X0263000Y0039033D02*
X0260000Y0039033D01*
X0260000Y0038934D02*
X0263000Y0038934D01*
X0263000Y0038836D02*
X0260000Y0038836D01*
X0260000Y0038737D02*
X0263000Y0038737D01*
X0263000Y0038639D02*
X0260000Y0038639D01*
X0260000Y0038540D02*
X0263000Y0038540D01*
X0263000Y0038442D02*
X0260000Y0038442D01*
X0260000Y0038343D02*
X0263000Y0038343D01*
X0263000Y0038245D02*
X0260000Y0038245D01*
X0260000Y0038146D02*
X0263000Y0038146D01*
X0263000Y0038048D02*
X0260000Y0038048D01*
X0260000Y0037949D02*
X0263000Y0037949D01*
X0263000Y0037851D02*
X0260000Y0037851D01*
X0260000Y0037752D02*
X0263000Y0037752D01*
X0263000Y0037654D02*
X0260000Y0037654D01*
X0260000Y0037555D02*
X0263000Y0037555D01*
X0263000Y0037457D02*
X0260000Y0037457D01*
X0260000Y0037358D02*
X0263000Y0037358D01*
X0263000Y0037260D02*
X0260000Y0037260D01*
X0260000Y0037161D02*
X0263000Y0037161D01*
X0263000Y0037063D02*
X0260000Y0037063D01*
X0260000Y0036964D02*
X0263000Y0036964D01*
X0263000Y0036866D02*
X0260000Y0036866D01*
X0260000Y0036767D02*
X0263000Y0036767D01*
X0263000Y0036669D02*
X0260000Y0036669D01*
X0260000Y0036570D02*
X0263000Y0036570D01*
X0263000Y0036472D02*
X0260000Y0036472D01*
X0260000Y0036373D02*
X0263000Y0036373D01*
X0263000Y0036274D02*
X0260000Y0036274D01*
X0260000Y0036176D02*
X0263000Y0036176D01*
X0263000Y0036077D02*
X0260000Y0036077D01*
X0260000Y0035979D02*
X0263000Y0035979D01*
X0263000Y0035880D02*
X0260000Y0035880D01*
X0260000Y0035782D02*
X0263000Y0035782D01*
X0263000Y0035683D02*
X0260000Y0035683D01*
X0265700Y0029000D02*
X0270900Y0029000D01*
X0273781Y0026118D01*
X0273781Y0025678D01*
X0274221Y0025238D01*
X0274662Y0025238D01*
X0274800Y0025100D01*
X0280000Y0020100D01*
X0280000Y0019200D01*
X0273000Y0019200D01*
X0273000Y0024000D01*
X0268900Y0028100D01*
X0265700Y0028100D01*
X0265700Y0029000D01*
X0265700Y0028985D02*
X0270915Y0028985D01*
X0271014Y0028886D02*
X0265700Y0028886D01*
X0265700Y0028788D02*
X0271112Y0028788D01*
X0271211Y0028689D02*
X0265700Y0028689D01*
X0265700Y0028591D02*
X0271309Y0028591D01*
X0271408Y0028492D02*
X0265700Y0028492D01*
X0265700Y0028394D02*
X0271506Y0028394D01*
X0271605Y0028295D02*
X0265700Y0028295D01*
X0265700Y0028197D02*
X0271703Y0028197D01*
X0271802Y0028098D02*
X0268902Y0028098D01*
X0269000Y0028000D02*
X0271900Y0028000D01*
X0271999Y0027901D02*
X0269099Y0027901D01*
X0269197Y0027803D02*
X0272097Y0027803D01*
X0272196Y0027704D02*
X0269296Y0027704D01*
X0269395Y0027605D02*
X0272294Y0027605D01*
X0272393Y0027507D02*
X0269493Y0027507D01*
X0269592Y0027408D02*
X0272492Y0027408D01*
X0272590Y0027310D02*
X0269690Y0027310D01*
X0269789Y0027211D02*
X0272689Y0027211D01*
X0272787Y0027113D02*
X0269887Y0027113D01*
X0269986Y0027014D02*
X0272886Y0027014D01*
X0272984Y0026916D02*
X0270084Y0026916D01*
X0270183Y0026817D02*
X0273083Y0026817D01*
X0273181Y0026719D02*
X0270281Y0026719D01*
X0270380Y0026620D02*
X0273280Y0026620D01*
X0273378Y0026522D02*
X0270478Y0026522D01*
X0270577Y0026423D02*
X0273477Y0026423D01*
X0273575Y0026325D02*
X0270675Y0026325D01*
X0270774Y0026226D02*
X0273674Y0026226D01*
X0273772Y0026128D02*
X0270872Y0026128D01*
X0270971Y0026029D02*
X0273781Y0026029D01*
X0273781Y0025931D02*
X0271069Y0025931D01*
X0271168Y0025832D02*
X0273781Y0025832D01*
X0273781Y0025734D02*
X0271266Y0025734D01*
X0271365Y0025635D02*
X0273824Y0025635D01*
X0273922Y0025537D02*
X0271463Y0025537D01*
X0271562Y0025438D02*
X0274021Y0025438D01*
X0274119Y0025340D02*
X0271660Y0025340D01*
X0271759Y0025241D02*
X0274218Y0025241D01*
X0274757Y0025143D02*
X0271857Y0025143D01*
X0271956Y0025044D02*
X0274858Y0025044D01*
X0274960Y0024946D02*
X0272054Y0024946D01*
X0272153Y0024847D02*
X0275063Y0024847D01*
X0275165Y0024749D02*
X0272251Y0024749D01*
X0272350Y0024650D02*
X0275268Y0024650D01*
X0275370Y0024552D02*
X0272448Y0024552D01*
X0272547Y0024453D02*
X0275473Y0024453D01*
X0275575Y0024355D02*
X0272645Y0024355D01*
X0272744Y0024256D02*
X0275678Y0024256D01*
X0275780Y0024158D02*
X0272842Y0024158D01*
X0272941Y0024059D02*
X0275883Y0024059D01*
X0275985Y0023961D02*
X0273000Y0023961D01*
X0273000Y0023862D02*
X0276087Y0023862D01*
X0276190Y0023764D02*
X0273000Y0023764D01*
X0273000Y0023665D02*
X0276292Y0023665D01*
X0276395Y0023567D02*
X0273000Y0023567D01*
X0273000Y0023468D02*
X0276497Y0023468D01*
X0276600Y0023370D02*
X0273000Y0023370D01*
X0273000Y0023271D02*
X0276702Y0023271D01*
X0276805Y0023172D02*
X0273000Y0023172D01*
X0273000Y0023074D02*
X0276907Y0023074D01*
X0277010Y0022975D02*
X0273000Y0022975D01*
X0273000Y0022877D02*
X0277112Y0022877D01*
X0277214Y0022778D02*
X0273000Y0022778D01*
X0273000Y0022680D02*
X0277317Y0022680D01*
X0277419Y0022581D02*
X0273000Y0022581D01*
X0273000Y0022483D02*
X0277522Y0022483D01*
X0277624Y0022384D02*
X0273000Y0022384D01*
X0273000Y0022286D02*
X0277727Y0022286D01*
X0277829Y0022187D02*
X0273000Y0022187D01*
X0273000Y0022089D02*
X0277932Y0022089D01*
X0278034Y0021990D02*
X0273000Y0021990D01*
X0273000Y0021892D02*
X0278136Y0021892D01*
X0278239Y0021793D02*
X0273000Y0021793D01*
X0273000Y0021695D02*
X0278341Y0021695D01*
X0278444Y0021596D02*
X0273000Y0021596D01*
X0273000Y0021498D02*
X0278546Y0021498D01*
X0278649Y0021399D02*
X0273000Y0021399D01*
X0273000Y0021301D02*
X0278751Y0021301D01*
X0278854Y0021202D02*
X0273000Y0021202D01*
X0273000Y0021104D02*
X0278956Y0021104D01*
X0279059Y0021005D02*
X0273000Y0021005D01*
X0273000Y0020907D02*
X0279161Y0020907D01*
X0279263Y0020808D02*
X0273000Y0020808D01*
X0273000Y0020710D02*
X0279366Y0020710D01*
X0279468Y0020611D02*
X0273000Y0020611D01*
X0273000Y0020513D02*
X0279571Y0020513D01*
X0279673Y0020414D02*
X0273000Y0020414D01*
X0273000Y0020316D02*
X0279776Y0020316D01*
X0279878Y0020217D02*
X0273000Y0020217D01*
X0273000Y0020119D02*
X0279981Y0020119D01*
X0280000Y0020020D02*
X0273000Y0020020D01*
X0273000Y0019922D02*
X0280000Y0019922D01*
X0280000Y0019823D02*
X0273000Y0019823D01*
X0273000Y0019725D02*
X0280000Y0019725D01*
X0280000Y0019626D02*
X0273000Y0019626D01*
X0273000Y0019528D02*
X0280000Y0019528D01*
X0280000Y0019429D02*
X0273000Y0019429D01*
X0273000Y0019331D02*
X0280000Y0019331D01*
X0280000Y0019232D02*
X0273000Y0019232D01*
X0263000Y0019232D02*
X0260000Y0019232D01*
X0260000Y0019134D02*
X0263000Y0019134D01*
X0263000Y0019035D02*
X0260000Y0019035D01*
X0260000Y0018937D02*
X0263000Y0018937D01*
X0263000Y0018838D02*
X0260000Y0018838D01*
X0260000Y0018739D02*
X0263000Y0018739D01*
X0263000Y0018641D02*
X0260000Y0018641D01*
X0260000Y0018542D02*
X0263000Y0018542D01*
X0263000Y0018444D02*
X0260000Y0018444D01*
X0260000Y0018345D02*
X0263000Y0018345D01*
X0263000Y0018247D02*
X0260000Y0018247D01*
X0260000Y0018148D02*
X0263000Y0018148D01*
X0263000Y0018050D02*
X0260000Y0018050D01*
X0260000Y0017951D02*
X0263000Y0017951D01*
X0263000Y0017853D02*
X0260000Y0017853D01*
X0260000Y0017754D02*
X0263000Y0017754D01*
X0263000Y0017656D02*
X0260000Y0017656D01*
X0260000Y0017557D02*
X0263000Y0017557D01*
X0263000Y0017459D02*
X0260000Y0017459D01*
X0260000Y0017360D02*
X0263000Y0017360D01*
X0263000Y0017262D02*
X0260000Y0017262D01*
X0260000Y0017163D02*
X0263000Y0017163D01*
X0263000Y0017065D02*
X0260000Y0017065D01*
X0260000Y0016966D02*
X0263000Y0016966D01*
X0263000Y0016868D02*
X0260000Y0016868D01*
X0260000Y0016769D02*
X0263000Y0016769D01*
X0263000Y0016671D02*
X0260000Y0016671D01*
X0260000Y0016572D02*
X0263000Y0016572D01*
X0263000Y0016474D02*
X0260000Y0016474D01*
X0260000Y0016375D02*
X0263000Y0016375D01*
X0263000Y0016277D02*
X0260000Y0016277D01*
X0260000Y0016178D02*
X0263000Y0016178D01*
X0263000Y0016080D02*
X0260000Y0016080D01*
X0260000Y0015981D02*
X0263000Y0015981D01*
X0263000Y0015883D02*
X0260000Y0015883D01*
X0260000Y0015784D02*
X0263000Y0015784D01*
X0263000Y0015686D02*
X0260000Y0015686D01*
X0260000Y0015587D02*
X0263000Y0015587D01*
X0263000Y0015500D02*
X0263000Y0027300D01*
X0260000Y0027300D01*
X0260000Y0012600D01*
X0263000Y0015500D01*
X0262988Y0015489D02*
X0260000Y0015489D01*
X0260000Y0015390D02*
X0262886Y0015390D01*
X0262784Y0015292D02*
X0260000Y0015292D01*
X0260000Y0015193D02*
X0262682Y0015193D01*
X0262581Y0015095D02*
X0260000Y0015095D01*
X0260000Y0014996D02*
X0262479Y0014996D01*
X0262377Y0014898D02*
X0260000Y0014898D01*
X0260000Y0014799D02*
X0262275Y0014799D01*
X0262173Y0014701D02*
X0260000Y0014701D01*
X0260000Y0014602D02*
X0262071Y0014602D01*
X0261969Y0014503D02*
X0260000Y0014503D01*
X0260000Y0014405D02*
X0261867Y0014405D01*
X0261765Y0014306D02*
X0260000Y0014306D01*
X0260000Y0014208D02*
X0261663Y0014208D01*
X0261562Y0014109D02*
X0260000Y0014109D01*
X0260000Y0014011D02*
X0261460Y0014011D01*
X0261358Y0013912D02*
X0260000Y0013912D01*
X0260000Y0013814D02*
X0261256Y0013814D01*
X0261154Y0013715D02*
X0260000Y0013715D01*
X0260000Y0013617D02*
X0261052Y0013617D01*
X0260950Y0013518D02*
X0260000Y0013518D01*
X0260000Y0013420D02*
X0260848Y0013420D01*
X0260746Y0013321D02*
X0260000Y0013321D01*
X0260000Y0013223D02*
X0260644Y0013223D01*
X0260542Y0013124D02*
X0260000Y0013124D01*
X0260000Y0013026D02*
X0260441Y0013026D01*
X0260339Y0012927D02*
X0260000Y0012927D01*
X0260000Y0012829D02*
X0260237Y0012829D01*
X0260135Y0012730D02*
X0260000Y0012730D01*
X0260000Y0012632D02*
X0260033Y0012632D01*
X0260000Y0019331D02*
X0263000Y0019331D01*
X0263000Y0019429D02*
X0260000Y0019429D01*
X0260000Y0019528D02*
X0263000Y0019528D01*
X0263000Y0019626D02*
X0260000Y0019626D01*
X0260000Y0019725D02*
X0263000Y0019725D01*
X0263000Y0019823D02*
X0260000Y0019823D01*
X0260000Y0019922D02*
X0263000Y0019922D01*
X0263000Y0020020D02*
X0260000Y0020020D01*
X0260000Y0020119D02*
X0263000Y0020119D01*
X0263000Y0020217D02*
X0260000Y0020217D01*
X0260000Y0020316D02*
X0263000Y0020316D01*
X0263000Y0020414D02*
X0260000Y0020414D01*
X0260000Y0020513D02*
X0263000Y0020513D01*
X0263000Y0020611D02*
X0260000Y0020611D01*
X0260000Y0020710D02*
X0263000Y0020710D01*
X0263000Y0020808D02*
X0260000Y0020808D01*
X0260000Y0020907D02*
X0263000Y0020907D01*
X0263000Y0021005D02*
X0260000Y0021005D01*
X0260000Y0021104D02*
X0263000Y0021104D01*
X0263000Y0021202D02*
X0260000Y0021202D01*
X0260000Y0021301D02*
X0263000Y0021301D01*
X0263000Y0021399D02*
X0260000Y0021399D01*
X0260000Y0021498D02*
X0263000Y0021498D01*
X0263000Y0021596D02*
X0260000Y0021596D01*
X0260000Y0021695D02*
X0263000Y0021695D01*
X0263000Y0021793D02*
X0260000Y0021793D01*
X0260000Y0021892D02*
X0263000Y0021892D01*
X0263000Y0021990D02*
X0260000Y0021990D01*
X0260000Y0022089D02*
X0263000Y0022089D01*
X0263000Y0022187D02*
X0260000Y0022187D01*
X0260000Y0022286D02*
X0263000Y0022286D01*
X0263000Y0022384D02*
X0260000Y0022384D01*
X0260000Y0022483D02*
X0263000Y0022483D01*
X0263000Y0022581D02*
X0260000Y0022581D01*
X0260000Y0022680D02*
X0263000Y0022680D01*
X0263000Y0022778D02*
X0260000Y0022778D01*
X0260000Y0022877D02*
X0263000Y0022877D01*
X0263000Y0022975D02*
X0260000Y0022975D01*
X0260000Y0023074D02*
X0263000Y0023074D01*
X0263000Y0023172D02*
X0260000Y0023172D01*
X0260000Y0023271D02*
X0263000Y0023271D01*
X0263000Y0023370D02*
X0260000Y0023370D01*
X0260000Y0023468D02*
X0263000Y0023468D01*
X0263000Y0023567D02*
X0260000Y0023567D01*
X0260000Y0023665D02*
X0263000Y0023665D01*
X0263000Y0023764D02*
X0260000Y0023764D01*
X0260000Y0023862D02*
X0263000Y0023862D01*
X0263000Y0023961D02*
X0260000Y0023961D01*
X0260000Y0024059D02*
X0263000Y0024059D01*
X0263000Y0024158D02*
X0260000Y0024158D01*
X0260000Y0024256D02*
X0263000Y0024256D01*
X0263000Y0024355D02*
X0260000Y0024355D01*
X0260000Y0024453D02*
X0263000Y0024453D01*
X0263000Y0024552D02*
X0260000Y0024552D01*
X0260000Y0024650D02*
X0263000Y0024650D01*
X0263000Y0024749D02*
X0260000Y0024749D01*
X0260000Y0024847D02*
X0263000Y0024847D01*
X0263000Y0024946D02*
X0260000Y0024946D01*
X0260000Y0025044D02*
X0263000Y0025044D01*
X0263000Y0025143D02*
X0260000Y0025143D01*
X0260000Y0025241D02*
X0263000Y0025241D01*
X0263000Y0025340D02*
X0260000Y0025340D01*
X0260000Y0025438D02*
X0263000Y0025438D01*
X0263000Y0025537D02*
X0260000Y0025537D01*
X0260000Y0025635D02*
X0263000Y0025635D01*
X0263000Y0025734D02*
X0260000Y0025734D01*
X0260000Y0025832D02*
X0263000Y0025832D01*
X0263000Y0025931D02*
X0260000Y0025931D01*
X0260000Y0026029D02*
X0263000Y0026029D01*
X0263000Y0026128D02*
X0260000Y0026128D01*
X0260000Y0026226D02*
X0263000Y0026226D01*
X0263000Y0026325D02*
X0260000Y0026325D01*
X0260000Y0026423D02*
X0263000Y0026423D01*
X0263000Y0026522D02*
X0260000Y0026522D01*
X0260000Y0026620D02*
X0263000Y0026620D01*
X0263000Y0026719D02*
X0260000Y0026719D01*
X0260000Y0026817D02*
X0263000Y0026817D01*
X0263000Y0026916D02*
X0260000Y0026916D01*
X0260000Y0027014D02*
X0263000Y0027014D01*
X0263000Y0027113D02*
X0260000Y0027113D01*
X0260000Y0027211D02*
X0263000Y0027211D01*
D51*
X0286500Y0092012D02*
X0286500Y0101500D01*
X0287563Y0102563D01*
X0301933Y0102563D01*
M02*
